<svg width="1400" height="980" viewBox="0 0 1400 980" fill="none" xmlns="http://www.w3.org/2000/svg">
<g clip-path="url(#clip0_2016_37)">
<path d="M1400 0H0V980H1400V0Z" fill="url(#paint0_radial_2016_37)"/>
<path d="M307.5 0C298.1 26.6 293 55.2 293 85C293 226.4 407.6 341 549 341C690.4 341 805 226.4 805 85C805 55.2 799.9 26.6 790.5 0H307.5Z" fill="url(#paint1_linear_2016_37)"/>
<path d="M366 0C358.9 20.2 355 41.8 355 64.4C355 171.5 441.9 258.4 549 258.4C656.1 258.4 743 171.5 743 64.4C743 41.8 739.1 20.1 732 0L366 0Z" fill="url(#paint2_linear_2016_37)"/>
<path d="M630.1 342.6V375H677.8V395.4V419.4H724.7V448.3H732.6L726.5 830.3H677.8V852.3V876.3H1352.2V852.3V830.3H1303.5L1295.3 448.3H1305.3V419.4H1352.2V395.4V375H1399.9V342.6L1014.9 162.3L630.1 342.6ZM852 830.3H801.4L793.2 448.3H803.2V419.4H850.2V448.3H858.1L852 830.3ZM977.6 830.3H927L918.8 448.3H928.8V419.4H975.8V448.3H983.7L977.6 830.3ZM1179.8 448.3V419.4H1226.8V448.3H1234.7L1228.6 830.3H1178L1169.8 448.3H1179.8ZM1054.3 448.3V419.4H1101.3V448.3H1109.2L1103.1 830.3H1052.5L1044.3 448.3H1054.3Z" fill="#007797"/>
<path d="M753.7 324.4C753.7 304.8 750.6 285.1 744.6 266.5C741.9 258.2 739 247.3 733.8 240.2C729.4 234.1 725.4 235.4 719 231.4C713.6 228 712.5 220.6 712.1 214.2C708.7 213.6 705.4 213 702 212.4C700.6 208.7 699.8 204.8 699.7 200.9C692.6 203.8 690.1 197.8 688.9 192.8C687.1 185.3 690.6 185.2 684.6 179C675.6 169.6 661.6 162.5 650.1 156.7C624.1 143.7 595.2 136.9 566.1 136.9C529.4 136.9 493.1 147.8 462.6 168C449.5 176.7 381.7 234.6 403.6 249.4C404.5 250 405.6 250.6 406.3 251.5C409.3 254.9 406.3 260.4 407.5 264.8C404.8 264.8 402.1 264.8 399.4 264.8C398.6 267.4 398.2 270.1 398.3 272.7C398.4 276.1 391.3 274.5 389.9 275.3C385.8 277.8 384.6 279.6 382.8 284.4C378.5 296.4 378.5 311.8 378.5 324.5V342.1H355V353.8V359.6V371.3H395.7V389.6H400.9L396.8 788.7H434.2H447L441.5 389.6H448.2C448.2 383.5 448.2 377.4 448.2 371.3C455.3 371.2 467.2 367.7 473.5 369.9C482.2 372.9 479.6 381.6 479.6 389.6C481.3 389.6 483.1 389.6 484.8 389.6L480.7 788.7H518H530.8L525.3 389.6C527.5 389.6 529.7 389.6 532 389.6C529.8 389.6 534.7 374.1 536.6 372.2C538.5 370.5 541.5 371.6 543.1 370.3C546.3 368 548.3 364.7 550.6 361.2C552.9 360.7 556.5 358.9 558.7 359.5C561 360 563.1 361.8 563.3 364.1C563.4 365.1 563.1 366.1 563.4 367.1C564.2 369.8 568.3 369.5 570.5 371.2C582.6 371.2 600.3 371.1 600.3 371.2V389.5H605.5C605.5 389.5 605.3 405.6 605.3 406.5C605.2 413.3 605.2 420.1 605.1 427C605.1 430 603.7 436.9 605 439.5C606.5 442.6 609.2 442 611.6 444.7C610.9 449.8 611.5 455.1 613.4 460C614.1 461.6 614.8 463.7 613.6 465C609.5 469.7 606 469.2 604.4 476.2C603.2 481.6 604.4 489.1 604.3 494.7C604.2 507.2 604 519.8 603.9 532.3C603.6 559 603.3 585.6 603.1 612.3C602.6 658.3 602.1 704.4 601.7 750.4C601.6 763.2 601.4 775.9 601.3 788.7H638.7H651.5L646 389.6H652.7V371.3H684.1V389.6H689.3L685.2 788.7H722.6H735.4C735.2 776.6 735.1 764.4 734.9 752.3C734.3 706.6 733.6 660.9 733 615.1C732.6 588.4 732.3 561.6 731.9 534.9C731.7 522.3 731.5 509.7 731.4 497.1C731.2 484.9 729.4 478.5 723.3 468.2C715.7 455.5 725.8 451.7 729.5 441.4C732.3 433.4 730.3 419 730.2 410.5C730.2 409.4 730 389.5 729.9 389.5H736.6V371.2H777.3V359.5V353.7V342H753.8C753.7 341.9 753.7 324.4 753.7 324.4Z" fill="#006B87"/>
<path d="M559.7 371.2C553.4 371 548.2 370.3 544.1 370.3L571.2 372.1C571 371.8 570.7 371.5 570.4 371.2C564.9 371.2 560.5 371.2 559.7 371.2Z" fill="#006B87"/>
<path d="M322.2 350.1C322.2 233.6 227.7 139.1 111.2 139.1C70.4 139.1 32.3 150.7 0 170.7V402.7H13.7V423.3H19.6L15 715.2H71.4L65.2 423.3H72.7V402.7H149.7V423.3H155.6L151 715.2H207.4L201.2 423.3H208.7V402.7H244V423.3H249.9L245.3 715.2H301.7L295.5 423.3H303V402.7H348.8V369.8H322.3V350.1H322.2Z" fill="#126187"/>
<path d="M885.6 30.3C873.4 36 861 41.1 848.8 46.6C843.3 49.1 836.9 51.2 831.9 54.6C831.1 55.1 819 64 818.6 62.4C819.7 67.4 820 72.6 819.5 77.7C814 78.2 808.4 78.7 802.9 79.2C802.6 81 802.3 82.7 802 84.5C801.9 85 801.8 85.6 801.4 85.9C801 86.2 800.5 86.3 800.1 86.3C781.7 88.1 763.7 86.7 747 95.4C739.3 99.4 731.2 102.7 723.3 106.4C715.6 110 707.9 113.6 700.2 117.2C699.2 117.7 700.2 131.5 700.2 132.8C700.2 137.4 699.6 148 705.2 149.7C707.1 150.3 709.2 150.1 711.2 149.9C710.5 153.3 710.2 157.6 713.1 159.4C720.2 163.7 736.5 160.5 744.6 160.5C751.1 160.5 757.7 160.5 764.2 160.5V220C772.2 220 780.2 220 788.2 220C794.5 220 800.9 220 807.2 220C814.9 220 816.3 220.1 819.3 227.2C819.1 226.8 822.3 227.1 822.6 227.3C824.4 228.1 824.3 229.8 825 231.2C826.4 233.9 826.7 237.7 826.9 240.8C827.3 247 826.9 253.3 826.9 259.5H837.4C837.3 259.5 836.9 293.9 836.8 295.8C836.6 305.9 838.2 313.3 840.2 322.9C842.3 333.4 840.4 344.1 831.4 350.8C831.3 356.1 831.3 361.4 831.2 366.7C831.2 368 831.2 369.4 831.8 370.6C832.4 371.8 833.8 372.6 835.1 372.2C834.3 372.5 835.4 396.2 835.3 399.4C835 407.2 835 415.1 834.9 423C834.6 439.5 834.4 455.9 834.1 472.4C833.6 506.3 833 540.1 832.5 574C831.6 628.5 830.8 683.1 829.9 737.6C829.7 748.9 829.5 760.2 829.4 771.5H764.2V833.3H1400V0H950.3C928.7 10.1 907.2 20.2 885.6 30.3ZM1255.2 259.6H1268.6V251.7C1268.6 234.3 1282.7 220.2 1300.1 220.2C1317.5 220.2 1331.6 234.3 1331.6 251.7V259.6H1342.1L1333.9 771.5H1266.1C1266.1 771.5 1265.9 763.6 1265.9 763.2C1264.9 716.9 1263.9 670.6 1262.9 624.3C1262.2 589.7 1261.4 555 1260.7 520.4C1260.3 502.6 1259.9 484.9 1259.6 467.1C1259.2 450.4 1261.9 432.5 1254.1 417.9C1251.4 412.7 1252.4 405.8 1256.5 401.7C1257.8 400.4 1259.4 399.3 1260.4 397.7C1261.7 395.7 1261.8 393.1 1261.9 390.8C1262.2 382 1261.6 371.3 1253.8 367.1C1252.1 366.2 1250 365.6 1249 363.9C1248.4 363 1248.2 361.8 1248.1 360.7C1247.1 352.7 1246 344.8 1245 336.8C1258.7 331 1256.6 259.6 1255.2 259.6ZM1100.4 259.6V251.7C1100.4 234.3 1114.5 220.2 1131.9 220.2C1149.3 220.2 1163.4 234.3 1163.4 251.7V259.6H1173.9L1165.7 771.5H1097.9L1087 259.6H1100.4ZM968.8 224.5C975.6 226.7 984.6 221.6 989.3 227C993.6 231.9 995.2 245.5 995.2 251.7V259.6H1005.7C1005.6 259.6 1003.1 357.8 1005.9 364.2C1006.9 366.6 1009 368.3 1010.7 370.4C1017.5 378.8 1016.5 390.9 1015 401.6C1008.1 400 1001.2 408.1 1003.7 414.7C1004.6 417 1006.2 418.8 1007.7 420.7C1011.9 426.4 1014 435.1 1009.2 440.3C1007.8 441.8 1005.7 443.2 1005.7 445.3C1005.6 451.2 1009.1 453.5 1007.4 459.4C1006.6 462.4 1002.4 465.8 1001.4 468.5C997.6 478.4 1002 489.4 1001.9 499.6C1001.7 518.2 1001.3 536.9 1001 555.5C1000.4 590.9 999.9 626.4 999.3 661.8C998.7 698.3 998.1 734.9 997.6 771.4H929.8L918.9 259.5H932.3V251.6C932.3 241.1 939 229.3 947.5 223.1C956.9 216.4 958.6 221.2 968.8 224.5Z" fill="#1C5880"/>
<path d="M1305.9 654.1C1293.8 643.1 1286 626.4 1270.6 620.9C1254.1 614.9 1234.5 624.2 1218.6 616.8C1209.2 612.4 1203.3 603.2 1197.9 594.3C1187.4 577 1179.1 555.3 1167.4 539.3C1163.6 534.1 1119.3 503.2 1119.8 507.8C1118.5 496.9 1116.6 486.1 1113.9 475.4C1104.6 471.1 1093.3 476.3 1086.6 484C1079.9 491.7 1076.3 501.7 1071.3 510.6C1061.9 527.2 1047 540.5 1029.6 548.1C1022.1 574.3 1005.6 607.6 987.5 628.1C969.6 648.4 937.5 653.6 923.6 677.8C918.6 686.4 917 696.7 912.4 705.5C898.2 732.8 862.5 738 832.5 744.8C802.5 751.6 767.7 772.3 772.2 802.7C701.8 809.2 639.7 747.9 619.6 680C612.9 657.3 609.6 633.5 599.7 612.1C589.8 590.7 571.2 571.1 547.7 568.7C524.2 566.3 498.9 588.4 504.9 611.3C479.4 594.6 442.2 599.1 421.4 621.3C412.9 630.4 407.1 641.7 399.7 651.8C366 697.5 294.7 709.8 247.6 678.1C232.5 667.9 219.8 654 203.7 645.5C164.7 625 117.3 640.8 73.4 638.2C47.9 636.5 23.6 628.8 0 619V980H1400V669.6C1365.1 672.2 1330.5 676.6 1305.9 654.1Z" fill="#024F75"/>
<path d="M859.9 650C859.4 649.7 858.8 649.7 858.2 649.8C853.5 650.3 850.1 654.6 848.3 658.9C846.5 663.2 845.7 668 843.2 672C841.3 675 837.7 677.6 834.5 676.3C834.3 673.1 836.9 670.6 838.9 668C843.1 662.4 844.3 654.6 841.9 648C841.4 646.7 840.8 645.4 839.6 644.7C838.5 644 836.7 644.1 836 645.3C835.7 645.9 835.7 646.6 835.7 647.3C835.8 650.9 835.9 654.6 835.9 658.2C835.9 660.5 836 662.8 834.9 664.8C834 666.4 832.6 667.5 831.3 668.8C828.9 671.1 826.8 674 826.1 677.3C825 682.2 826.9 687.3 828.5 692.1C830.1 696.9 831.3 702.4 829 706.9C824.4 704.9 820.2 702.2 816.6 698.8C815.9 698.1 815.2 697.4 814.8 696.6C814.2 695.2 814.5 693.5 814.8 692C815.1 690.5 815.4 688.8 814.7 687.4C814 686 812 685.1 810.9 686.2C810.4 686.6 810.2 687.3 810 687.9C808.1 694.4 810.1 701.8 814.9 706.6C817.1 708.8 819.9 710.4 821.7 713C823.5 715.6 823.9 719.6 821.4 721.4C820.3 722.3 818.8 722.5 817.3 722.5C808 722.7 799.2 715 798.3 705.7C798.1 704.1 797.8 702 796.2 701.9C794.4 701.7 793.8 704.3 794.1 706C795.2 715 800.2 723.5 807.4 728.9C811.7 732.1 817.1 735 817.9 740.2C818.3 742.9 817.3 745.7 817.7 748.4C818.4 753.2 823.1 756.2 827.4 758.6C828.2 759.1 829.2 759.5 830.1 759.2C831.4 758.7 831.6 757 831.6 755.6C831.5 751.7 831.5 747.8 831.4 744C831.3 739.8 831.7 734.8 835.3 732.7C836.6 731.9 838.2 731.7 839.7 731.5C841.1 731.3 842.4 731.1 843.8 730.9C845.8 730.6 847.8 730.3 849.4 729.1C851 727.9 851.8 725.5 850.6 723.9C849.4 722.3 846.8 722.4 845 723.3C843.2 724.2 841.6 725.7 839.7 726.3C837.8 727 835.1 726.3 834.6 724.3C834.2 722.5 835.8 720.8 837.6 720.1C839.3 719.4 841.3 719.4 843 718.6C846.6 716.9 847.9 712.5 848.2 708.5C848.5 704.6 848.1 700.4 849.7 696.8C850.8 694.4 852.8 692.5 853.8 690C854.8 687.6 854.4 684.1 851.9 683.2C849.8 682.4 847.5 683.8 846 685.5C844.5 687.3 843.4 689.5 843 691.9C842.4 695.3 843 698.8 842.6 702.2C842.2 705.6 840.2 709.3 836.8 709.8C837.1 701.8 835.8 693.7 833 686.2C838 685.5 842.6 682.3 845.1 677.9C846.6 675.3 847.4 672.2 849.2 669.8C852.4 665.4 858.6 663.3 860.3 658.2C860.9 656.4 860.8 654.5 860.8 652.6C860.8 651.7 860.7 650.5 859.9 650Z" fill="#024F75"/>
<path d="M1221.1 628.1C1190.9 581.5 1160.7 535 1130.5 488.4C1126.3 482.1 1122.3 475.7 1118.1 469.3C1113.4 462.1 1104.7 441 1096.5 440.7C1094.8 437 1092.5 433.7 1089.6 430.8C1087.5 428.6 1084.9 426.5 1084 423.6C1083.5 421.9 1083.5 420.1 1083.2 418.3C1082.4 414.2 1061.6 381.2 1061.1 381.5C1062.4 380.7 1063.7 380.2 1064.8 379C1065.1 378.7 1065.4 378.4 1065.4 378C1065.5 377.5 1065.2 377 1064.9 376.6C1064 375.3 1063.1 373.9 1062.2 372.6C1062.1 372.4 1061.9 372.1 1061.9 371.9C1061.9 371.6 1062.2 371.4 1062.5 371.2C1063.1 370.7 1063.6 370.1 1064 369.4C1062.8 367.7 1061.7 366.1 1060.5 364.4C1061.3 363.3 1062.2 362.1 1061.9 360.8C1061.7 359.9 1061.1 359.1 1060.8 358.2C1059.7 354.5 1057.1 351.2 1055 347.9C1053.9 346.2 1052.9 344.5 1051.8 342.8C1051.8 342.8 1031.4 355.4 1029.9 356.4C1026.1 358.8 1022.3 361.1 1018.5 363.5C1013.8 366.4 1008 365.9 1003.9 368.5C1000.6 370.6 997.4 372.6 994.1 374.7C996.2 373.4 994.8 380.9 993.6 382.1C990.1 385.5 985.1 383 987.5 390.3C986.2 391.1 984.9 391.9 983.6 392.7C982.5 390.9 981.3 389 980.2 387.2C979 387.8 966.5 393 967.7 394.9C968 395.3 987.5 426.9 987.5 426.9L995.9 421.7C995.1 422.2 1020 460.8 1022.2 463.6C1023.2 464.9 1025.2 466.4 1026.3 465.1C1028.1 467.6 1029.6 470.3 1030.8 473.1C1029.2 473.3 1028.5 475.5 1029.2 477C1029.9 478.5 1031.3 479.4 1032.7 480.2C1032 480.5 1031.4 481.1 1031.2 481.8C1030.6 483.2 1040.3 496.1 1041.5 498.1C1044.9 503.8 1048.3 509.4 1051.7 515.1C1059.1 527.4 1066.4 539.8 1073.8 552.1C1076.5 556.5 1080.3 559.9 1082.9 564.5C1084.1 566.7 1085.1 569 1086.5 571C1090 576.3 1095.7 580.2 1097.9 586.1C1098.1 586.7 1098.3 587.4 1098.2 588.1C1098.1 588.7 1097.8 589.3 1097.5 589.8C1095.7 594 1098.1 598.7 1100.5 602.6C1103.8 608 1109.3 609.8 1112.4 614.4C1115.9 619.7 1118.8 627.3 1122.3 633.1C1152.2 683.1 1182 733.2 1211.9 783.2C1223.6 802.8 1235.3 822.4 1247 842L1307 804.9L1327.5 792.2C1318.3 778 1309.1 763.9 1299.9 749.7C1273.7 709.2 1247.4 668.7 1221.1 628.1Z" fill="#134D6E"/>
<path d="M1194.5 644.6C1164.3 598 1134.1 551.5 1103.9 504.9C1099.7 498.6 1095.7 492.2 1091.5 485.8C1086.8 478.6 1078.1 457.5 1069.9 457.2C1068.2 453.5 1065.9 450.2 1063 447.3C1060.9 445.1 1058.3 443 1057.4 440.1C1056.9 438.4 1056.9 436.6 1056.6 434.8C1055.8 430.7 1035 397.7 1034.5 398C1035.8 397.2 1037.1 396.7 1038.2 395.5C1038.5 395.2 1038.8 394.9 1038.8 394.5C1038.9 394 1038.6 393.5 1038.3 393.1C1037.4 391.8 1036.5 390.4 1035.6 389.1C1035.5 388.9 1035.3 388.6 1035.3 388.4C1035.3 388.1 1035.6 387.9 1035.9 387.7C1036.5 387.2 1037 386.6 1037.4 385.9C1036.2 384.2 1035.1 382.6 1033.9 380.9C1034.7 379.8 1035.6 378.6 1035.3 377.3C1035.1 376.4 1034.5 375.6 1034.2 374.7C1033.1 371 1030.5 367.7 1028.4 364.4C1027.4 362.7 1026.3 361 1025.3 359.3C1023.1 360.7 1020.8 362.1 1018.6 363.5C1012.5 367.3 1004.3 372.3 1003.4 372.9C1000.6 374.6 997.9 376.3 995.1 378C994.8 379.7 994.2 381.6 993.7 382.1C990.2 385.5 985.2 383 987.6 390.3C986.3 391.1 985 391.9 983.7 392.7C982.6 390.9 981.4 389 980.3 387.2C979.3 387.7 971.5 391 968.7 393.3C968.6 394.1 968.5 394.9 968.3 395.7C971.3 400.6 987.6 426.9 987.6 426.9L996 421.7C995.2 422.2 1020.1 460.8 1022.3 463.6C1023.3 464.9 1025.3 466.4 1026.4 465.1C1028.2 467.6 1029.7 470.3 1030.9 473.1C1029.3 473.3 1028.6 475.5 1029.3 477C1030 478.5 1031.4 479.4 1032.8 480.2C1032.1 480.5 1031.5 481.1 1031.3 481.8C1030.7 483.2 1040.4 496.1 1041.6 498.1C1045 503.8 1048.4 509.4 1051.8 515.1C1059.2 527.4 1066.5 539.8 1073.9 552.1C1076.6 556.5 1080.4 559.9 1083 564.5C1084.2 566.7 1085.2 569 1086.6 571C1090.1 576.3 1095.8 580.2 1098 586.1C1098.2 586.7 1098.4 587.4 1098.3 588.1C1098.2 588.7 1097.9 589.3 1097.6 589.8C1095.8 594 1098.2 598.7 1100.6 602.6C1103.9 608 1109.4 609.8 1112.5 614.4C1116 619.7 1118.9 627.3 1122.4 633.1C1152.3 683.1 1182.1 733.2 1212 783.2C1223.7 802.8 1235.4 822.4 1247.1 842L1280.5 821.3L1301 808.6C1291.8 794.4 1282.6 780.3 1273.4 766.1C1247.1 725.7 1220.8 685.1 1194.5 644.6Z" fill="#24517C"/>
<path d="M259.5 532.3C257.1 529.4 256.8 525.4 254.7 522.9C253 520.9 251.3 518.9 249.6 516.9C250.2 517.6 248.9 517.9 247.4 517.8C247.3 517.8 247.2 517.8 247.1 517.8C247 517.8 247 517.8 246.9 517.8C246.8 517.8 246.7 517.8 246.6 517.8C246.5 517.8 246.5 517.8 246.4 517.8C246.3 517.8 246.2 517.8 246.2 517.8C246.1 517.8 246.1 517.8 246 517.8C245.9 517.8 245.9 517.8 245.8 517.8C245.7 517.8 245.7 517.8 245.6 517.8C245.5 517.8 245.5 517.8 245.4 517.8C245.3 517.8 245.3 517.8 245.2 517.7H245.1C245 517.7 245 517.7 244.9 517.6H244.8C244.7 517.6 244.6 517.5 244.6 517.5C243.8 516.9 243.3 516.1 243 515.4C242.6 514.7 242.3 514 241.8 513.7C241.7 513.6 241.6 513.6 241.5 513.5C240.9 513.3 240 513.4 238.5 514.2C237.8 513.4 237.2 512.6 236.5 511.8C237.6 510.9 238.8 509.9 239.9 509C239.9 509 239.8 508.9 239.8 508.8L239.7 508.7C239.7 508.6 239.6 508.6 239.6 508.5C239.5 508.4 239.5 508.3 239.4 508.2C239.4 508.1 239.3 508 239.2 508C239.1 507.8 239 507.7 238.9 507.5C238.9 507.4 238.8 507.4 238.8 507.3C238.7 507.2 238.6 507 238.5 506.9C238.4 506.8 238.4 506.7 238.3 506.6C238.2 506.5 238.1 506.3 238 506.2C237.9 506.1 237.9 506 237.8 505.9C237.7 505.8 237.6 505.6 237.5 505.5C237.4 505.4 237.4 505.3 237.3 505.3C237.2 505.1 237 504.9 236.9 504.7C236.8 504.6 236.8 504.5 236.7 504.5C236.6 504.4 236.5 504.2 236.4 504.1C236.3 504 236.3 503.9 236.2 503.8C236.1 503.7 236 503.6 235.9 503.4C235.8 503.3 235.8 503.2 235.7 503.2C235.6 503 235.5 502.9 235.3 502.8C235.2 502.7 235.2 502.7 235.1 502.6C235 502.5 234.9 502.3 234.8 502.2C234.7 502.1 234.7 502.1 234.6 502C234.5 502 234.5 501.9 234.4 501.9C233.9 501.5 233.5 501.3 233.2 501.5C233.2 501.5 233 501.7 232.7 501.9L232.6 502C232.4 502.1 232.2 502.3 232 502.5C231.9 502.6 231.8 502.7 231.7 502.8C231.6 502.9 231.5 502.9 231.5 503C231.4 503.1 231.2 503.3 231 503.4C230.2 504.1 229.1 505 228 505.9C226.8 506.9 225.5 508 224.2 509.1C224.1 509.2 224.1 509.2 224 509.3C223.4 509.8 222.8 510.3 222.3 510.8C221.5 511.5 220.7 512.1 219.9 512.8C218.7 513.8 217.6 514.7 216.7 515.5C216.6 515.6 216.4 515.7 216.3 515.8C216.1 516 215.9 516.1 215.7 516.3C215.6 516.4 215.5 516.4 215.5 516.5C214.9 517 214.5 517.4 214.1 517.7C214 517.8 213.9 517.8 213.9 517.9C213.8 518 213.8 518 213.7 518.1C213.6 518.2 213.5 518.2 213.5 518.2L217.8 523.4C217.7 523.3 216.5 524.2 214.7 525.7C214.2 526.1 213.6 526.6 213 527.1C211.1 528.6 208.9 530.5 206.6 532.5C205.1 533.8 203.5 535.2 202 536.5C201.2 537.2 200.5 537.8 199.8 538.4C198.7 539.3 197.7 540.2 196.8 541C196.2 541.5 195.6 542 195.1 542.5C194.6 543 194.1 543.4 193.7 543.7C192.9 544.4 192.3 544.9 192.1 545.2C191.5 545.8 190.9 546.8 191.1 547.5C191.1 547.7 191.3 548 191.5 548.1C191.1 548.5 190.7 548.8 190.3 549.2C189.5 549.9 188.7 550.5 187.8 551.1C187.4 551.4 186.9 551.7 186.5 552C186.3 551.5 185.9 551.1 185.3 551C185 550.9 184.7 550.9 184.5 551C184.2 551 184 551.1 183.7 551.3C183.5 551.4 183.3 551.6 183.1 551.8C182.7 552.2 182.5 552.7 182.2 553.2C182.1 553.5 182 553.7 181.9 554C181.6 553.6 181.2 553.2 180.7 553.1C179.7 552.9 171.9 560.7 170.7 561.7C167.2 564.5 163.7 567.4 160.2 570.2C152.6 576.4 145 582.5 137.4 588.7C134.7 591 132.7 593.9 129.9 596C128.9 596.8 127.8 597.5 126.8 598.2C126.5 598.5 126.1 598.7 125.8 599C124.2 600.4 122.9 602.2 121.5 603.9C120.1 605.6 118.6 607.2 116.7 608.2C116.5 608.3 116.3 608.4 116.1 608.5C115.9 608.6 115.7 608.6 115.4 608.6C115 608.6 114.6 608.4 114.2 608.3C113.4 608.1 112.7 608.1 112 608.2C111.6 608.3 111.3 608.3 110.9 608.5C109.6 608.9 108.4 609.7 107.3 610.5C106.8 610.9 106.3 611.2 105.9 611.6C105.3 612.1 104.7 612.7 104.3 613.2C104.1 613.4 104 613.6 103.9 613.8C103.3 614.6 102.8 615.4 102.4 616.2C101.5 617.8 100.6 619.4 99.1999 620.7C96.7999 622.9 93.4999 624.9 90.3999 627C89.3999 627.7 88.3999 628.4 87.4999 629.1C58.2999 652.8 29.0999 676.5 -0.100098 700.1V782.8L0.0999023 783C8.7999 775.4 17.3999 767.8 26.0999 760.3C50.8999 738.6 75.6999 716.9 100.5 695.2C129 670.3 157.5 645.4 185.9 620.4C189.7 616.9 193.7 613.6 197.6 610.2C202 606.4 215.4 598.4 214.8 592.8C217.1 591.3 219.2 589.4 220.8 587.2C222.1 585.5 223.2 583.6 225.1 582.7C226.2 582.2 227.4 582 228.6 581.6C231.3 580.7 251.5 563.4 251.3 563.1C251.9 563.9 252.5 564.7 253.3 565.4C253.5 565.6 253.8 565.7 254 565.7C254.4 565.7 254.7 565.4 254.9 565.2C255.7 564.5 256.5 563.7 257.3 563C257.4 562.9 257.6 562.7 257.8 562.8C258 562.8 258.2 563 258.3 563.1C258.7 563.5 259.1 563.8 259.6 563.9C260.6 563 261.6 562 262.6 561.1C263.4 561.5 264.3 562 265.2 561.7C265.8 561.5 266.3 561 266.8 560.7C269.2 559.6 271.2 557.5 273.2 555.8C274.2 554.9 275.3 554.1 276.3 553.2C276.3 553.2 265.8 540.7 265 539.7C263.4 537 261.4 534.7 259.5 532.3Z" fill="#0C4268"/>
<path d="M1361.5 517.4H1360.6V486H1287.3H1286.5C1275 486 1230.2 479.2 1233.8 495.7C1229.6 495.7 1225.5 495.7 1221.3 495.6C1220.2 495.6 1219.1 495.6 1218.3 496.3C1217.3 497.1 1217.3 498.6 1217.3 499.9C1217.3 505 1217.3 510.2 1217.3 515.3C1212.6 514 1208 512.8 1203.3 511.5C1202 511.1 1200.7 510.8 1199.7 509.9C1198.3 508.6 1197.9 506.7 1197.6 504.8C1192.6 476.1 1163.1 486 1138.9 486H1138.1C1128.8 486 1119.5 486 1110.3 486C1104.4 486 1093.6 483.8 1088.2 486C1087 486.5 1077.5 494.2 1079.4 494.2C1072 494.2 1064.5 494.2 1057.1 494.2C1054.5 497.5 1053.4 501.9 1054.1 506.1C1049.2 506.1 1044.5 506.3 1039.8 505.6C1040.1 478 1009.8 486 990.5 486H989.7C974.3 486 960.4 486.9 945.4 489.6C927.9 492.7 917.3 485.8 900.5 483C872.5 478.4 837.8 481.4 811.7 491.8C808.1 493.3 804.7 495.5 800.9 496.5C788.1 499.7 773.4 489.8 761 487.2C749.5 484.8 737.7 484.5 726 483.8C701 482.3 671.5 479.6 648.4 491.6C646.5 492.6 644.9 494.1 643.4 495.5C639.7 499 636 502.5 632.3 505.9C625.8 506.3 620.5 500.9 616 496.2C599.3 479 567.2 486 545.4 486H544.6H471.3V520H490.8V872H523.8H548.4V668C548.4 639.1 562.8 613.9 583.9 601C584.9 600.4 585.8 599.9 586.8 599.3C591.7 596.6 597 594.6 602.5 593.3C606.9 592.3 611.5 591.7 616.1 591.7C653.5 591.7 683.8 625.9 683.8 667.9V871.9H708.4H749.7H774.3C774.3 856.2 774.3 840.4 774.3 824.7C774.3 809.8 775.3 794.4 774.3 779.5C773.4 766.9 769.1 756 767.1 743.3C763.2 743.1 759.4 742 755.9 740.2C755.9 732.3 755.9 724.4 755.9 716.5C760.5 714.3 765.4 712.7 770.5 711.9C773.1 707.1 768.2 701.8 766.6 696.6C764.1 688.8 769.9 681.4 776.9 678.9C774.6 655.4 774.6 640 789.7 619.5C802 602.9 821 591.7 842 591.7C846.7 591.7 851.2 592.2 855.6 593.3C861.1 594.6 866.4 596.6 871.3 599.3C872.3 599.8 873.3 600.4 874.2 601C895.3 613.9 909.7 639.1 909.7 668V872H934.3H975.6H1000.2C1000.2 843.9 996.9 813.9 1002 786.3C1002.3 784.8 1002.5 783.4 1003.2 782C1003.9 780.6 1004.9 779.4 1005.2 777.9C1005.8 775.4 1004.4 772.9 1003.1 770.7C998.3 762.8 995 754.6 993.6 745.4C992.7 739.9 992.5 734.4 992.4 728.9C992 717.6 991.6 706.3 991.2 695.1C991.1 692.6 991 690.1 991.8 687.8C992.8 684.7 995.2 682.3 997 679.6C1002.4 671.5 999.9 661.8 1001.6 652.7C1004.3 637.8 1010.9 624.5 1020.1 614.2C1032.4 600.4 1049.3 591.9 1068 591.9C1083.2 591.9 1097.2 597.5 1108.5 607.1C1109.4 607.8 1110.2 608.6 1111.1 609.4C1112.8 611 1114.4 612.6 1115.9 614.3C1118.2 616.9 1120.3 619.7 1122.3 622.6C1130.8 635.3 1135.8 651.1 1135.8 668.2C1135.8 692 1142.1 708.9 1145.7 731.7C1148.1 746.6 1138.7 754.8 1135.8 767.5C1132.4 782 1135.8 801.5 1135.8 816.5C1135.8 835.1 1135.7 853.6 1135.8 872.2H1160.4H1201.7H1226.3V668C1226.3 650.9 1231.3 635.1 1239.8 622.4C1241.8 619.5 1243.9 616.7 1246.2 614.1C1247.7 612.4 1249.3 610.7 1251 609.2C1255.2 605.3 1259.8 602 1264.7 599.3C1273.6 594.5 1283.5 591.8 1294 591.8C1299.8 591.8 1305.5 592.6 1310.9 594.2C1314.1 595.1 1317.3 596.3 1320.3 597.8C1322.3 598.8 1324.3 599.8 1326.2 601C1332 604.5 1337.2 609 1341.8 614.1C1353.8 627.6 1362 646.9 1361.6 665.2C1361.3 681.5 1346.1 700.6 1353 716.4C1354.3 719.4 1356.5 721.9 1358.3 724.7C1366.9 738 1359.6 872.1 1361.6 872.1H1386.2H1399.6V537.4V520V517.3V486H1361.1V517.4H1361.5Z" fill="#00435E"/>
<path d="M533.2 439.2C533.1 434.9 511.2 421.1 508.1 418.5C478.1 393.7 448.2 369 418.2 344.2C404.3 332.7 390.7 321.1 377.6 308.9C365.4 297.5 360.2 303.4 344.5 297.5C334.7 293.8 327.4 284.8 324.3 274.8C320.7 276 316.7 274.2 314.2 271.3C311.7 268.4 310.5 264.8 309.3 261.2C304.5 246.7 290.6 238 278.6 228.7C260.4 214.5 238.1 220.5 215.7 223.9C212.2 224.4 208.5 225 205.4 226.8C202.5 228.5 200.3 231 197.8 233.2C192.3 238.1 185.5 241.3 178.7 244.4C157.9 253.8 137.2 263.6 115.3 269.6C99.1 274 86.5 287.2 70 290.6C64.5 291.7 58.7999 291.7 53.5999 293.9C36.7999 301 38.7999 313.8 18.9 303.6C16.3 302.3 8.99995 302 -0.300049 302.6V411L28.6 416L28.7 442.8L35.9 444C36.8 444.1 35.5 479.9 35.5 482C35.4 496.3 35.1999 510.6 35.0999 524.9C34.8999 541.4 42.5 547.6 45.2 563C46.5 570.4 45.7 578.1 46.2 585.6C46.9 595.6 49.7999 605.3 51.0999 615.2C54.3999 640.7 32.1 651.3 31.1 674.7C30.1 698.5 33.0999 723.9 32.7999 748.1C32.4999 778.7 32.1999 809.2 31.7999 839.8L-4.88162e-05 839.1V888.4H514.1L513.6 867.4L513.2 848.2L481.8 847.6L469.3 513.7L475.8 514.7L475.3 492.9L505 498L504.5 477.6L504.1 460.4L533.7 466C533.8 466.1 533.2 439.2 533.2 439.2ZM144.2 841.6L100.1 840.8L90.5 452.5L99.2 453.9V447C99.1 437 108.1 429.4 117.9 431.1L126.2 432.5C133.8 433.8 139.4 440.4 139.5 448.1L139.6 460.3L146.2 461.4L144.2 841.6ZM247.6 843.4L206.9 842.7L196.3 469.6L204.4 470.9L204.3 465.3C204.2 455.3 213.2 447.7 223 449.4L228.2 450.3C235.8 451.6 241.4 458.2 241.5 465.9L241.6 477L247.7 478L247.6 843.4ZM305.6 844.5C302.6 844.4 302.9 648 295.4 633.4C293 628.6 289.7 624.2 288.5 619C287 612.4 288.9 605.5 287.6 598.9C286.5 593.1 283.1 586.7 286.5 581.9C287.5 580.4 289.1 579.4 290.1 578C291.7 575.8 292 572.9 292.2 570.2C292.8 562.6 300.4 486.5 294.1 485.5L301.6 486.7L301.5 482.3C301.4 472.3 310.4 464.6 320.2 466.3L322.7 466.7C330.3 468 335.9 474.5 336 482.2L336.2 492.3L341.9 493.2L343.2 845.2C343.2 845.1 305.6 844.5 305.6 844.5ZM397 846.1L385 500.1L391.9 501.2L391.8 497.8C391.6 487.8 400.6 480 410.5 481.7C418.1 483 423.6 489.5 423.8 497.2L424 506.3L429.3 507.2L431.9 846.6L397 846.1Z" fill="#063C58"/>
<path d="M1151.7 826.1C1139.3 829.7 1126.1 832.3 1113.6 829.3C1078.3 820.9 1053.7 771 1019.7 783.4C1008.8 787.4 1001.3 797.1 994.3 806.3C977 829.3 959.7 852.4 942.5 875.4C917.2 854.4 880.2 886.3 847.6 882.2C804.5 876.7 794.7 816.6 759.5 791.1C715.7 759.4 644.6 789.3 605.5 751.9C589.4 736.5 580.7 711 559.1 705.7C536.2 700.1 516 721.7 504.5 742.3C493 762.9 481.5 787.3 458.7 793.6C428.3 802.1 395.6 772.6 366.2 784.1C343.4 793 328.8 824.5 304.8 819.6C291.7 816.9 283.8 804 275.3 793.6C266.8 783.2 252.2 774 240.8 781.1C233.3 785.8 231 795.5 226 802.9C204.8 833.9 155 808.3 119.3 820.1C110.7 822.9 103 828 94.2 829.9C71.6 834.9 50.7 818.5 30.5 807C20.8 801.5 10.6 797 0 793.7V980H1400V721.9C1366.4 725.7 1333 738.3 1302.5 753.5C1252.4 778.4 1205.4 810.6 1151.7 826.1Z" fill="#0C4268"/>
<path d="M1321.9 692C1321.4 691.7 1320.8 691.7 1320.2 691.8C1315.5 692.3 1312.1 696.6 1310.3 700.9C1308.5 705.2 1307.7 710 1305.2 714C1303.3 717 1299.7 719.6 1296.5 718.3C1296.3 715.1 1298.9 712.6 1300.9 710C1305.1 704.4 1306.3 696.6 1303.9 690C1303.4 688.7 1302.8 687.4 1301.6 686.7C1300.5 686 1298.7 686.1 1298 687.3C1297.7 687.9 1297.7 688.6 1297.7 689.3C1297.8 692.9 1297.9 696.6 1297.9 700.2C1297.9 702.5 1298 704.8 1296.9 706.8C1296 708.4 1294.6 709.5 1293.3 710.8C1290.9 713.1 1288.8 716 1288.1 719.3C1287 724.2 1288.9 729.3 1290.5 734.1C1292.1 738.9 1293.3 744.4 1291 748.9C1286.4 746.9 1282.2 744.2 1278.6 740.8C1277.9 740.1 1277.2 739.4 1276.8 738.6C1276.2 737.2 1276.5 735.5 1276.8 734C1277.1 732.5 1277.4 730.8 1276.7 729.4C1276 728 1274 727.1 1272.9 728.2C1272.4 728.6 1272.2 729.3 1272 729.9C1270.1 736.4 1272.1 743.8 1276.9 748.6C1279.1 750.8 1281.9 752.4 1283.7 755C1285.5 757.5 1285.9 761.6 1283.4 763.4C1282.3 764.3 1280.8 764.5 1279.3 764.5C1270 764.7 1261.2 757 1260.3 747.7C1260.1 746.1 1259.8 744 1258.2 743.9C1256.4 743.7 1255.8 746.3 1256.1 748C1257.2 757 1262.2 765.5 1269.4 770.9C1273.7 774.1 1279.1 777 1279.9 782.2C1280.3 784.9 1279.3 787.7 1279.7 790.4C1280.4 795.2 1285.1 798.2 1289.4 800.6C1290.2 801.1 1291.2 801.5 1292.1 801.2C1293.4 800.7 1293.6 799 1293.6 797.6C1293.5 793.7 1293.5 789.8 1293.4 786C1293.3 781.8 1293.7 776.8 1297.3 774.7C1298.6 773.9 1300.2 773.7 1301.7 773.5C1303.1 773.3 1304.4 773.1 1305.8 772.9C1307.8 772.6 1309.8 772.3 1311.4 771.1C1313 769.9 1313.8 767.5 1312.6 765.9C1311.4 764.3 1308.8 764.4 1307 765.3C1305.2 766.2 1303.6 767.7 1301.7 768.3C1299.8 769 1297.1 768.3 1296.6 766.3C1296.2 764.5 1297.8 762.8 1299.6 762.1C1301.3 761.4 1303.3 761.4 1305 760.6C1308.6 758.9 1309.9 754.5 1310.2 750.5C1310.5 746.5 1310.1 742.4 1311.7 738.8C1312.8 736.4 1314.8 734.5 1315.8 732C1316.8 729.6 1316.4 726.1 1313.9 725.2C1311.8 724.4 1309.5 725.8 1308 727.5C1306.5 729.3 1305.4 731.5 1305 733.9C1304.4 737.3 1305 740.8 1304.6 744.2C1304.2 747.6 1302.2 751.3 1298.8 751.8C1299.1 743.8 1297.8 735.7 1295 728.2C1300 727.5 1304.6 724.3 1307.1 719.9C1308.6 717.3 1309.4 714.2 1311.2 711.8C1314.4 707.4 1320.6 705.3 1322.3 700.2C1322.9 698.4 1322.8 696.5 1322.8 694.6C1322.8 693.7 1322.7 692.5 1321.9 692Z" fill="#07304C"/>
<path d="M103.9 698C103.4 697.7 102.8 697.7 102.2 697.8C97.5 698.3 94.1 702.6 92.3 706.9C90.5 711.2 89.7 716 87.2 720C85.3 723 81.7 725.6 78.5 724.3C78.3 721.1 80.9 718.6 82.9 716C87.1 710.4 88.3 702.6 85.9 696C85.4 694.7 84.8 693.4 83.6 692.7C82.5 692 80.7 692.1 80 693.3C79.7 693.9 79.7 694.6 79.7 695.3C79.8 698.9 79.9 702.6 79.9 706.2C79.9 708.5 80 710.8 78.9 712.8C78 714.4 76.6 715.5 75.3 716.8C72.9 719.1 70.8 722 70.1 725.3C69 730.2 70.9 735.3 72.5 740.1C74.1 744.9 75.3 750.4 73 754.9C68.4 752.9 64.2 750.2 60.6 746.8C59.9 746.1 59.2 745.4 58.8 744.6C58.2 743.2 58.5 741.5 58.8 740C59.1 738.5 59.4 736.8 58.7 735.4C58 734 56 733.1 54.9 734.2C54.4 734.6 54.2 735.3 54 735.9C52.1 742.4 54.1 749.8 58.9 754.6C61.1 756.8 63.9 758.4 65.7 761C67.5 763.6 67.9 767.6 65.4 769.4C64.3 770.3 62.8 770.5 61.3 770.5C52 770.7 43.2 763 42.3 753.7C42.1 752.1 41.8 750 40.2 749.9C38.4 749.7 37.8 752.3 38.1 754C39.2 763 44.2 771.5 51.4 776.9C55.7 780.1 61.1 783 61.9 788.2C62.3 790.9 61.3 793.7 61.7 796.4C62.4 801.2 67.1 804.2 71.4 806.6C72.2 807.1 73.2 807.5 74.1 807.2C75.4 806.7 75.6 805 75.6 803.6C75.5 799.7 75.5 795.8 75.4 792C75.3 787.8 75.7 782.8 79.3 780.7C80.6 779.9 82.2 779.7 83.7 779.5C85.1 779.3 86.4 779.1 87.8 778.9C89.8 778.6 91.8 778.3 93.4 777.1C95 775.9 95.8 773.5 94.6 771.9C93.4 770.3 90.8 770.4 89 771.3C87.2 772.2 85.6 773.7 83.7 774.3C81.8 775 79.1 774.3 78.6 772.3C78.2 770.5 79.8 768.8 81.6 768.1C83.3 767.4 85.3 767.4 87 766.6C90.6 764.9 91.9 760.5 92.2 756.5C92.5 752.6 92.1 748.4 93.7 744.8C94.8 742.4 96.8 740.5 97.8 738C98.8 735.6 98.4 732.1 95.9 731.2C93.8 730.4 91.5 731.8 90 733.5C88.5 735.3 87.4 737.5 87 739.9C86.4 743.3 87 746.8 86.6 750.2C86.2 753.6 84.2 757.3 80.8 757.8C81.1 749.8 79.8 741.7 77 734.2C82 733.5 86.6 730.3 89.1 725.9C90.6 723.3 91.4 720.2 93.2 717.8C96.4 713.4 102.6 711.3 104.3 706.2C104.9 704.4 104.8 702.5 104.8 700.6C104.8 699.7 104.7 698.5 103.9 698Z" fill="#07304C"/>
<path d="M1203.4 818.5C1174.4 831.5 1146.4 847.9 1115.1 853.7C1091.7 858.1 1067.5 856.2 1043.9 859.6C1007.5 864.9 974.1 882.4 938.9 893C876.1 911.9 806.7 908.2 746.3 882.5C710.4 867.2 676.8 844.3 638.2 838.8C612.6 835.2 586.5 839.5 561.2 844.8C496.5 858.5 432.9 878.8 367.2 885.6C243.7 898.5 122.4 863.4 0.199951 836.7V980H1400.2V781.9C1332.8 778.5 1264.8 791 1203.4 818.5Z" fill="#07304C"/>
<path d="M840.6 786.4C840.5 785.6 840.2 784.8 839.8 784.1C840.1 784.9 840.4 785.6 840.6 786.4Z" fill="#07304C"/>
<path d="M902.6 798.6C898.2 796.9 893.3 800.4 891.5 804.7C889.7 809 890.2 813.9 890.4 818.5C890.6 823.2 890.4 828.2 887.6 831.9C886 834.1 883.6 835.6 881.9 837.7C877.1 843.6 878.2 852.3 880.2 859.6C881.9 865.9 884 872.9 880.9 878.6C878.5 883 873.6 885.4 870.4 889.3C866.8 893.7 865.8 900 867.7 905.4C865 900.6 866 894.5 868 889.4C870 884.2 872.8 879.3 873.7 873.9C874.7 868.1 873.5 862.1 871 856.7C868.8 852 865.6 847.5 865.9 842.3C866.3 835.6 872.4 830.4 873 823.7C873.6 817 868.5 811.3 863.7 806.5C866 813.4 865.8 821.1 863.1 827.8C861.1 832.9 857.6 837.8 858.1 843.2C858.6 847.9 861.9 851.8 863.6 856.2C866.5 864 864.1 872.6 861.7 880.5C864.8 871.3 859.6 860.1 850.6 856.5C849.3 852.6 852.2 848.6 853.4 844.7C855.8 837.2 852.3 828.9 846.9 823.2C842.8 818.9 837.2 814.1 838.8 808.5C839.3 806.9 840.3 805.5 841.1 804C843.8 798.5 842.4 792.1 840.5 786.1C840.9 788.8 839.9 791.7 838.4 794.1C836.5 797.2 833.9 799.9 832.6 803.3C827.5 816.2 842.5 829.2 841.5 843C841 849.8 836.6 856.4 838.1 863C839.5 869.3 845.6 873.2 849 878.7C853.3 885.7 852.9 894.5 852.3 902.6C850.3 893.5 846.2 885 842.1 876.5C840.9 873.9 839.6 871.3 837.5 869.4C833.9 866 828.6 865.3 823.6 864.7C825.1 857.6 824.8 850.2 822.9 843.2C822.3 841.2 821.6 839.1 820 837.8C818.5 836.6 816.6 836.1 814.8 835.4C810.4 833.5 807.1 829.1 806.4 824.3C803.2 829.2 806.4 835.7 810 840.3C813.6 844.9 818.1 849.9 817.4 855.7C816.7 861.7 810.5 867.4 813.2 872.9C814.6 875.8 817.9 877.1 820.9 878.3C827.3 880.9 833.6 884.2 837.9 889.5C842.2 894.9 844 902.7 840.8 908.7C838.9 912.2 835.5 915.6 836.6 919.4C839.9 920.5 842 914.2 845.3 915.1C846.4 915.4 847.1 916.4 847.8 917.1C850.6 919.9 855.4 920.5 858.8 918.4C861.6 916.7 863.6 913.4 866.8 913C871.1 912.4 874.3 917.4 874.2 921.8C878.7 919.4 880.3 913.9 881 908.8C881.7 903.8 881.9 898.4 884.9 894.3C886.7 891.9 889.2 890.3 891 888C896.8 880.9 894.3 870.3 891 861.8C889.2 857.2 887.2 852 889.3 847.5C891.5 842.9 897.1 841 899.8 836.7C902.2 832.7 901.6 827.5 900.2 823.1C898.8 818.6 896.6 814.3 896.3 809.6C896 804.9 898.1 800 902.6 798.6Z" fill="#07304C"/>
<path d="M151.1 618.1C151 617.3 150.7 616.5 150.3 615.8C150.6 616.5 150.9 617.3 151.1 618.1Z" fill="#07304C"/>
<path d="M213.1 630.3C208.7 628.6 203.8 632.1 202 636.4C200.2 640.7 200.7 645.6 200.9 650.2C201.1 654.9 200.9 659.9 198.1 663.6C196.5 665.8 194.1 667.3 192.4 669.4C187.6 675.3 188.7 684 190.7 691.3C192.4 697.6 194.5 704.6 191.4 710.3C189 714.7 184.1 717.1 180.9 721C177.3 725.4 176.3 731.7 178.2 737.1C175.5 732.3 176.5 726.2 178.5 721.1C180.5 715.9 183.3 711 184.2 705.6C185.2 699.8 184 693.8 181.5 688.4C179.3 683.7 176.1 679.2 176.4 674C176.8 667.3 182.9 662.1 183.5 655.4C184.1 648.7 179 643 174.2 638.2C176.5 645.1 176.3 652.8 173.6 659.5C171.6 664.6 168.1 669.5 168.6 674.9C169.1 679.6 172.4 683.5 174.1 687.9C177 695.7 174.6 704.3 172.2 712.2C175.3 703 170.1 691.8 161.1 688.2C159.8 684.3 162.7 680.3 163.9 676.4C166.3 668.9 162.8 660.6 157.4 654.9C153.3 650.6 147.7 645.8 149.3 640.2C149.8 638.6 150.8 637.2 151.6 635.7C154.3 630.2 152.9 623.8 151 617.8C151.4 620.5 150.4 623.4 148.9 625.8C147 628.9 144.4 631.6 143.1 635C138 647.9 153 660.9 152 674.7C151.5 681.5 147.1 688.1 148.6 694.7C150 701 156.1 704.9 159.5 710.4C163.8 717.4 163.4 726.2 162.8 734.3C160.8 725.2 156.7 716.7 152.6 708.2C151.4 705.6 150.1 703 148 701.1C144.4 697.7 139.1 697 134.1 696.4C135.6 689.3 135.3 681.9 133.4 674.9C132.8 672.9 132.1 670.8 130.5 669.5C129 668.3 127.1 667.8 125.3 667.1C120.9 665.2 117.6 660.8 116.9 656C113.7 660.9 116.9 667.4 120.5 672C124.1 676.6 128.6 681.6 127.9 687.4C127.2 693.4 121 699.1 123.7 704.6C125.1 707.5 128.4 708.8 131.4 710C137.8 712.6 144.1 715.9 148.4 721.2C152.7 726.6 154.5 734.4 151.3 740.4C149.4 743.9 146 747.3 147.1 751.1C150.4 752.2 152.5 745.9 155.8 746.8C156.9 747.1 157.6 748.1 158.3 748.8C161.1 751.6 165.9 752.2 169.3 750.1C172.1 748.4 174.1 745.1 177.3 744.7C181.6 744.1 184.8 749.1 184.7 753.5C189.2 751.1 190.8 745.6 191.5 740.5C192.2 735.5 192.4 730.1 195.4 726C197.2 723.6 199.7 722 201.5 719.7C207.3 712.6 204.8 702 201.5 693.5C199.7 688.9 197.7 683.7 199.8 679.2C202 674.6 207.6 672.7 210.3 668.4C212.7 664.4 212.1 659.2 210.7 654.8C209.3 650.3 207.1 646 206.8 641.3C206.5 637 208.6 631.7 213.1 630.3Z" fill="#07304C"/>
<path d="M505.8 698.7C505.7 697.9 505.4 697.1 505 696.4C505.3 697.2 505.6 697.9 505.8 698.7Z" fill="#07304C"/>
<path d="M567.8 710.9C563.4 709.2 558.5 712.7 556.7 717C554.9 721.3 555.4 726.2 555.6 730.8C555.8 735.5 555.6 740.5 552.8 744.2C551.2 746.4 548.8 747.9 547.1 750C542.3 755.9 543.4 764.6 545.4 771.9C547.1 778.2 549.2 785.2 546.1 790.9C543.7 795.3 538.8 797.7 535.6 801.6C532 806 531 812.3 532.9 817.7C530.2 812.9 531.2 806.8 533.2 801.7C535.2 796.5 538 791.6 538.9 786.2C539.9 780.4 538.7 774.4 536.2 769C534 764.3 530.8 759.8 531.1 754.6C531.5 747.9 537.6 742.7 538.2 736C538.8 729.3 533.7 723.6 528.9 718.8C531.2 725.7 531 733.4 528.3 740.1C526.3 745.2 522.8 750.1 523.3 755.5C523.8 760.2 527.1 764.1 528.8 768.5C531.7 776.3 529.3 784.9 526.9 792.8C530 783.6 524.8 772.4 515.8 768.8C514.5 764.9 517.4 760.9 518.6 757C521 749.5 517.5 741.2 512.1 735.5C508 731.2 502.4 726.4 504 720.8C504.5 719.2 505.5 717.8 506.3 716.3C509 710.8 507.6 704.4 505.7 698.4C506.1 701.1 505.1 704 503.6 706.4C501.7 709.5 499.1 712.2 497.8 715.6C492.7 728.5 507.7 741.5 506.7 755.3C506.2 762.1 501.8 768.7 503.3 775.3C504.7 781.6 510.8 785.5 514.2 791C518.5 798 518.1 806.8 517.5 814.9C515.5 805.8 511.4 797.3 507.3 788.8C506.1 786.2 504.8 783.6 502.7 781.7C499.1 778.3 493.8 777.6 488.8 777C490.3 769.9 490 762.5 488.1 755.5C487.5 753.5 486.8 751.4 485.2 750.1C483.7 748.9 481.8 748.4 480 747.7C475.6 745.8 472.3 741.4 471.6 736.6C468.4 741.5 471.6 748 475.2 752.6C478.8 757.2 483.3 762.2 482.6 768C481.9 774 475.7 779.7 478.4 785.2C479.8 788.1 483.1 789.4 486.1 790.6C492.5 793.2 498.8 796.5 503.1 801.8C507.4 807.2 509.2 815 506 821C504.1 824.5 500.7 827.9 501.8 831.7C505.1 832.8 507.2 826.5 510.5 827.4C511.6 827.7 512.3 828.7 513 829.4C515.8 832.2 520.6 832.8 524 830.7C526.8 829 528.8 825.7 532 825.3C536.3 824.7 539.5 829.7 539.4 834.1C543.9 831.7 545.5 826.2 546.2 821.1C546.9 816.1 547.1 810.7 550.1 806.6C551.9 804.2 554.4 802.6 556.2 800.3C562 793.2 559.5 782.6 556.2 774.1C554.4 769.5 552.4 764.3 554.5 759.8C556.7 755.2 562.3 753.3 565 749C567.4 745 566.8 739.8 565.4 735.4C564 730.9 561.8 726.6 561.5 721.9C561.2 717.7 563.3 712.3 567.8 710.9Z" fill="#07304C"/>
<path d="M475.4 723.3C473.4 724.3 472.2 726.4 471.3 728.5C468.6 734.4 466.5 740.6 465.1 746.9C463.8 742.5 465.9 737.9 467.2 733.4C468.5 728.9 468.1 723.1 464 721.1C463 719.5 460.4 719.9 459.2 721.4C458.1 722.9 458 724.9 458 726.8C457.9 734.5 457.9 742.3 457.8 750C457.2 747.3 456.6 744.6 456 741.9C455.4 739.1 454.7 736.2 452.8 734.1C450.9 732 447.4 731 445.2 732.7C443.2 734.2 443 737.2 443.8 739.6C444.6 742 446.2 743.9 447.5 746.1C450.7 751.7 451.1 758.7 448.8 764.6C445.1 759.2 443.2 752.7 443.2 746.2C441.6 743.8 437.4 744.5 435.9 746.9C434.3 749.4 434.8 752.6 436.2 755.2C437.6 757.8 439.6 759.9 441.3 762.3C445.7 768.7 447 777.2 444.6 784.7C440.8 781 438.1 776.1 437 770.9C436.4 768.2 436.3 765.4 435 763C433.7 760.6 430.8 758.8 428.3 759.8C425.8 760.8 425.1 764 425.1 766.6C425.1 769.1 425.6 771.7 427.1 773.7C429.4 776.9 433.5 778.1 436.8 780.4C440.1 782.6 442.4 787.5 439.7 790.4C435.8 789 431.8 788.1 427.7 787.7C426.2 792.2 428.3 797.6 432.5 800C434.1 800.9 436.3 801.8 436.6 803.6C436.7 804.5 436.3 805.4 435.9 806.2C432.9 812.4 427.9 819.8 421.1 818.6C423.2 813.1 419.8 806.2 414.1 804.5C411.9 803.9 409.2 803.7 408.1 801.7C406.2 798.3 411.1 795.3 414.9 794.5C418.7 793.7 423.6 790.8 421.8 787.3C420.6 785 417.2 785.1 414.9 786.2C412.6 787.3 410.4 789 407.8 789C405.2 789 402.8 787 402.3 784.5C401.8 782 403.3 779.2 405.7 778.2C407.7 777.4 410.1 777.8 412.2 777.3C416.3 776.3 418.8 770.9 416.5 767.2C414.3 763.6 407.9 763.7 406 767.5C405.3 769 405.2 770.7 404.5 772.2C403.8 773.7 402 775 400.6 774.2C399.5 773.6 399.2 772.3 399 771.1C398.2 766.2 397.8 760.1 402 757.4C403.6 756.3 405.7 756.1 407.4 755.3C412.5 752.9 414.1 745.2 410.4 741C407.1 739.7 404 743.4 403 746.8C402 750.2 401.2 754.3 397.9 755.7C396 752.4 397.8 748.1 400.1 745C402.4 741.9 405.1 738.7 405.2 734.9C405.3 731.1 400.4 727.4 397.6 730C394.7 732.8 397.4 738.8 394.1 741C391.3 739.4 390.4 735.9 390.4 732.7C390.5 729.5 391.3 726.4 391 723.2C390.4 717.2 384.8 711.7 378.9 712.6C373 713.5 369.2 721.7 373.3 726.1C375.3 728.2 378.3 728.9 380.8 730.2C383.3 731.5 385.8 734.1 385.1 736.9C378.4 740.2 370.2 728.4 364.2 732.8C363.3 737.7 366.6 742.9 371.3 744.4C375 745.5 379.1 744.5 382.8 745.4C386.5 746.3 390.1 750.8 387.6 753.8C380.6 757.8 371.1 747 364.6 751.8C363.1 755.7 366.9 759.9 371 760.9C375.1 761.9 379.4 761.2 383.5 761.6C387.7 762.1 392.3 764.6 392.6 768.8C383.4 767.4 374.1 766.9 364.9 767.4C363.4 771.7 368.1 775.8 372.6 776.3C377.1 776.9 381.6 775.4 386.1 776C390.6 776.6 395.3 780.8 393.7 785C387.8 785 381.8 785 375.9 785C373.8 789.7 379.9 794.2 385 794.2C390.1 794.2 395.4 792.1 400.2 793.8C400.2 796.1 400.2 798.5 400.2 800.8C392.1 800.5 383.9 801.6 376.2 804C376.2 806.3 376.2 808.7 376.2 811C379.9 812.9 384.4 812 388.3 810.6C392.2 809.2 396.1 807.3 400.2 807.2C404.3 807.1 409 809.6 409.5 813.7C409.7 815.5 409.2 817.4 409.6 819.2C410.6 823 415.3 824.2 419.1 824.7C424.8 825.4 431.5 825.7 435.1 821.3C438.5 817.2 437.7 810.3 441.8 806.9C448.1 801.6 459.8 808.9 465 802.6C468.4 798.4 463.6 790.9 458.4 792.3C456.1 792.9 454.4 794.7 452.3 795.9C450.3 797.1 447.3 797.4 445.9 795.5C443.3 792.7 445.2 787.8 448.5 786C451.8 784.2 455.9 784.6 459.7 785.2C463.5 785.8 467.4 786.4 471 785C472.7 781.8 472.6 777.7 470.8 774.6C465.9 774.3 460.9 776 457.3 779.2C456.5 775.1 456 770.1 459.3 767.4C463.7 763.8 470.6 767.8 475.7 765.4C479.8 763.4 480.6 756.7 476.8 754.2C473 751.7 466.9 756.1 468.5 760.4C467.1 760.5 465.7 760.5 464.3 760.6C463 756.4 465.2 751.8 468.4 748.7C471.6 745.6 475.5 743.5 478.9 740.7C482.3 737.9 485.2 733.9 484.9 729.5C484.3 725.3 479.4 721.3 475.4 723.3Z" fill="#07304C"/>
<path d="M627.2 840.9C625.6 833.3 633.2 828.6 621.3 825.7C621.3 823.3 621.3 820.8 621.3 818.4C624.8 818.4 628.2 818.5 631.7 818.5C631.9 816.3 635.5 795.1 631.9 795C631.1 795 571.7 794.5 571.7 794.5L571.6 810.3C571.6 808.8 498.2 809.6 492.5 810.1C489.8 810.3 486.2 811.8 486.9 814.4C482 814.7 477.1 814.4 472.2 813.7C473.2 811.3 470.9 808.6 468.3 808.2C465.7 807.8 463.2 809 460.9 810.2C461.1 809 460.8 807.7 460 806.7C458.6 804.8 432.8 806.9 429.1 806.8C418.5 806.5 408 806.3 397.4 806C374.4 805.4 351.5 804.9 328.5 804.3C320.3 804.2 312.3 806.4 304 806C300 805.8 296.1 805.2 292.1 805.2C281.9 805.4 271.8 809.9 261.9 807.7C260.9 807.5 259.8 807.1 259 806.4C258.2 805.8 257.8 804.8 257.2 804C253.1 798 244.6 797.2 237.3 797.1C227.2 796.9 220.1 802.9 211.2 803.1C201 803.4 188.3 800.8 177.5 800.5C118.5 799.4 59.3 798 0 796.5V940C33.4 939.6 66.9 939.1 100.3 938.7C189.1 937.5 277.9 936.4 366.7 935.2C378.8 934.8 391 934.9 403.1 934.8C416.8 934.6 452.8 940.8 460.3 930C466.7 930.8 473.3 930.5 479.6 929.2C484.4 928.2 489.3 926.5 494.1 927.7C496.9 928.4 499.3 930.1 502 931.1C508.2 933.5 570.6 933.5 570.6 932.5C570.5 934.9 570.2 937.2 570.8 939.6C570.9 940.2 571.2 940.9 571.7 941.3C572.3 941.8 573.3 941.8 574.1 941.8L581.8 941.5C582.2 941.5 582.7 941.5 583 941.8C583.4 942.1 583.4 942.7 583.4 943.1C583.5 944.3 583.9 945.5 584.5 946.6C587.7 946.4 591 946.3 594.2 946.1C594.9 948.1 595.9 950.3 597.9 951.1C599.3 951.7 600.9 951.4 602.3 951.9C608.2 953.6 615 952.8 621.2 952.9C624.4 952.9 627.6 953 630.8 953C630.8 953 631.1 914.6 631.1 911.8C631.2 904.7 631.2 897.5 631.3 890.4C631.4 881.6 637 874.1 637 866.4C637 860.2 637 854 636.9 847.9C636.8 851.9 627.8 843.6 627.2 840.9Z" fill="#134D6E"/>
<path d="M630.5 795C621.3 794.9 571.7 794.5 571.7 794.5L571.6 810.3C571.6 808.8 498.2 809.6 492.5 810.1C489.8 810.3 486.2 811.8 486.9 814.4C482 814.7 477.1 814.4 472.2 813.7C473.2 811.3 470.9 808.6 468.3 808.2C465.7 807.8 463.2 809 460.9 810.2C461.1 809 460.8 807.7 460 806.7C458.6 804.8 432.8 806.9 429.1 806.8L397.4 806C374.4 805.4 351.5 804.9 328.5 804.3C320.3 804.2 312.3 806.4 304 806C300 805.8 296.1 805.2 292.1 805.2C281.9 805.4 271.8 809.9 261.9 807.7C260.9 807.5 259.8 807.1 259 806.4C258.2 805.8 257.8 804.8 257.2 804C253.1 798 244.6 797.2 237.3 797.1C227.2 796.9 220.1 802.9 211.2 803.1C201 803.4 188.3 800.8 177.5 800.5C118.5 799.4 59.3 798 0 796.5V890.1C33.6 889.7 67.1 889.2 100.7 888.8C189.5 887.6 278.3 886.5 367.1 885.3C379.2 884.9 391.4 885 403.5 884.9C417.2 884.7 453.2 890.9 460.7 880.1C467.1 880.9 473.7 880.6 480 879.3C484.8 878.3 489.7 876.6 494.5 877.8C497.3 878.5 499.7 880.2 502.4 881.2C508.6 883.6 571 883.6 571 882.6C570.9 885 570.6 887.3 571.2 889.7C571.3 890.3 571.6 891 572.1 891.4C572.7 891.9 573.7 891.9 574.5 891.9L582.2 891.6C582.6 891.6 583.1 891.6 583.4 891.9C583.8 892.2 583.8 892.8 583.8 893.2C583.9 894.4 584.3 895.6 584.9 896.7C588.1 896.5 591.4 896.4 594.6 896.2C595.3 898.2 596.3 900.4 598.3 901.2C599.7 901.8 601.3 901.5 602.7 902C608.6 903.7 615.4 902.9 621.6 903C624.8 903 628 903.1 631.2 903.1C631.2 898.9 631.3 894.7 631.3 890.4C631.4 878.9 631.5 863.6 631.5 861.8C631.5 856.6 631.6 851.4 631.6 846.2C629.5 844.3 627.5 842 627.3 840.8C625.7 833.2 633.3 828.5 621.4 825.6C621.4 823.2 621.4 820.7 621.4 818.3C624.9 818.3 628.3 818.4 631.8 818.4C632 816.7 634.2 803.2 633.4 797.5C632.4 796.8 631.4 795.9 630.5 795Z" fill="#115B80"/>
<path d="M449 664.4C444.7 656.7 445.8 647.4 441.9 640.7L432.6 624.7C434.6 628.2 422.7 625.5 420.8 623.4C415.6 617.6 419.8 609.7 408.1 613.1C406.9 611 405.7 608.9 404.5 606.7C407.5 605 410.5 603.3 413.5 601.6C412.6 599.6 405.1 579.4 401.9 581.2C401.2 581.6 349.5 610.9 349.5 610.9C349.5 610.9 357.3 624.6 357.3 624.7C356.5 623.4 293.4 660.8 288.8 664.1C286.6 665.7 284.2 668.7 286.1 670.6C282 673.3 277.6 675.5 273 677.4C272.7 674.8 269.3 673.6 266.9 674.6C264.5 675.6 263 677.9 261.5 680C261 678.9 260.1 677.9 259 677.4C256.8 676.4 235.6 691.1 232.3 692.9L204.5 708.1C184.3 719.1 164.2 730.1 144 741.2C136.8 745.3 131.1 751.1 123.7 754.9C120.2 756.7 116.4 758.1 113 760.2C104.3 765.4 97.7999 774.4 88.0999 777.5C87.0999 777.8 85.9999 778.1 84.8999 777.9C83.8999 777.7 83.0999 777.2 82.1999 776.7C75.5999 773.5 67.8999 777.1 61.4999 780.7C52.5999 785.6 49.4999 794.3 41.8999 799C33.1999 804.3 20.9999 808.5 11.4999 813.7C7.5999 815.8 3.7999 817.9 -0.100098 820V980L13.4999 971.9C89.7999 926.4 166.1 881 242.3 835.5C252.6 829.1 263.2 823.1 273.6 816.9C285.4 809.9 319.6 797.2 320.7 784.1C326.7 781.6 332.2 778.1 337 773.7C340.6 770.4 344.1 766.5 348.8 765.2C351.6 764.4 354.5 764.6 357.3 764.2C363.9 763.2 417.9 731.9 417.4 731.1C418.6 733.3 419.4 735.4 421.1 737.2C421.5 737.7 422.1 738.1 422.7 738.3C423.5 738.5 424.3 738 425 737.5C427.2 736.1 429.4 734.8 431.5 733.4C431.9 733.2 432.3 732.9 432.7 733C433.2 733.1 433.5 733.6 433.7 734C434.4 735 435.3 735.9 436.4 736.4C439.1 734.7 441.8 732.9 444.6 731.2C446.3 732.6 448.2 734 450.3 733.7C451.8 733.5 453.1 732.5 454.5 732.1C460.5 730.6 465.9 726.6 471.3 723.5C474.1 721.9 476.9 720.3 479.6 718.8C479.6 718.8 460.6 685.4 459.3 682.9C456.1 676.8 452.5 670.6 449 664.4Z" fill="#134D6E"/>
<path d="M434.9 639.501C432.3 635.001 429.8 630.501 427.2 625.901C424.5 625.301 421.6 624.301 420.7 623.301C415.5 617.501 419.7 609.601 408 613.001C406.8 610.901 405.6 608.801 404.4 606.601C407.4 604.901 410.4 603.201 413.4 601.501C412.7 599.901 407.9 587.101 404.4 582.601C403.2 582.501 401.9 582.201 400.6 581.801C392.6 586.301 349.5 610.801 349.5 610.801C349.5 610.801 357.3 624.501 357.3 624.601C356.5 623.301 293.4 660.701 288.8 664.001C286.6 665.601 284.2 668.601 286.1 670.501C282 673.201 277.6 675.401 273 677.301C272.7 674.701 269.3 673.501 266.9 674.501C264.5 675.501 263 677.801 261.5 679.901C261 678.801 260.1 677.801 259 677.301C256.8 676.301 235.6 691.001 232.3 692.801C223 697.901 213.8 702.901 204.5 708.001C184.3 719.001 164.2 730.001 144 741.101C136.8 745.201 131.1 751.001 123.7 754.801C120.2 756.601 116.4 758.001 113 760.101C104.3 765.301 97.7999 774.301 88.0999 777.401C87.0999 777.701 85.9999 778.001 84.8999 777.801C83.8999 777.601 83.0999 777.101 82.1999 776.601C75.5999 773.401 67.8999 777.001 61.4999 780.601C52.5999 785.501 49.4999 794.201 41.8999 798.901C33.1999 804.201 20.9999 808.401 11.4999 813.601C7.5999 815.701 3.7999 817.801 -0.100098 819.901V921.701C72.4999 878.401 145.1 835.201 217.6 791.901C227.9 785.501 238.5 779.501 248.9 773.301C260.7 766.301 294.9 753.601 296 740.501C302 738.001 307.5 734.501 312.3 730.101C315.9 726.801 319.4 722.901 324.1 721.601C326.9 720.801 329.8 721.001 332.6 720.601C339.2 719.601 393.2 688.301 392.7 687.501C393.8 689.701 394.7 691.801 396.4 693.601C396.8 694.101 397.4 694.501 398 694.701C398.8 694.901 399.6 694.401 400.3 693.901C402.5 692.501 404.7 691.201 406.8 689.801C407.2 689.601 407.6 689.301 408 689.401C408.5 689.501 408.8 690.001 409 690.401C409.7 691.401 410.6 692.301 411.7 692.801C414.4 691.101 417.1 689.301 419.9 687.601C421.6 689.001 423.5 690.401 425.6 690.101C427.1 689.901 428.4 688.901 429.8 688.501C435.8 687.001 441.2 683.001 446.6 679.901C449.4 678.301 452.1 676.801 454.9 675.201C452.8 671.501 450.7 667.901 448.7 664.201C443.3 654.401 435.8 641.101 434.9 639.501Z" fill="#126187"/>
<path d="M1142.7 761.1C1139.3 755 1138.7 747.7 1135.5 741.4C1132.3 735.2 1124.5 730.1 1118.5 733.7C1112.9 737.1 1113.3 745.8 1117 751.3C1120.7 756.7 1126.7 760.1 1131.4 764.7C1140.8 773.9 1144.9 787.5 1145.1 800.6C1145.3 813.7 1142.2 826.7 1139 839.4C1138.6 830 1138.1 820.7 1137.7 811.3C1137.5 806.1 1137.2 800.8 1135.7 795.8C1134.5 791.8 1132.5 788.2 1130.6 784.5C1127.1 778 1123.6 771.5 1120.1 764.9C1119 762.9 1117.9 760.8 1116.2 759.2C1111.5 754.9 1104.1 755.9 1097.8 757.2C1095.6 757.7 1093.2 758.3 1091.9 760.1C1091 761.4 1090.9 763.1 1091.2 764.7C1092.6 774.1 1102.9 778.7 1110.6 784.1C1126.3 795.2 1134.6 815.9 1130.9 834.8C1126.4 825.3 1121.8 815.9 1117.3 806.4C1114.9 801.5 1112.5 796.5 1108.9 792.5C1105.2 788.5 1100 785.5 1094.6 785.8C1089.2 786.1 1083.8 790.4 1083.6 795.8C1083.4 800.2 1086.4 804.2 1090.2 806.3C1094 808.4 1098.5 808.9 1102.9 808.8C1105.4 808.8 1108 808.6 1110.2 809.8C1112.3 810.9 1113.7 813 1114.9 815C1117.8 819.7 1120.5 824.6 1122.9 829.5C1124.4 832.5 1125.8 835.6 1126.4 838.8C1127.3 843.2 1126.8 848 1128.6 852.1C1130.4 856.2 1135.9 859.3 1139.4 856.4C1148.2 847.5 1149.8 834 1151 821.5C1151.8 812.4 1152.7 803.3 1153.5 794.2C1154.1 787.3 1154.7 780.1 1151.8 773.8C1149.4 769.4 1145.3 765.7 1142.7 761.1Z" fill="#07304C"/>
<path d="M828.3 801.3C826.3 802.3 825.1 804.4 824.2 806.5C821.5 812.4 819.4 818.6 818 824.9C816.7 820.5 818.8 815.9 820.1 811.4C821.4 806.9 821 801.1 816.9 799.1C815.9 797.5 813.3 797.9 812.1 799.4C811 800.9 810.9 802.9 810.9 804.8C810.8 812.5 810.8 820.3 810.7 828C810.1 825.3 809.5 822.6 808.9 819.9C808.3 817.1 807.6 814.2 805.7 812.1C803.8 810 800.3 809 798.1 810.7C796.1 812.2 795.9 815.2 796.7 817.6C797.5 820 799.1 821.9 800.4 824.1C803.6 829.7 804 836.7 801.7 842.6C798 837.2 796.1 830.7 796.1 824.2C794.5 821.8 790.3 822.5 788.8 824.9C787.2 827.4 787.7 830.6 789.1 833.2C790.4 835.8 792.5 837.9 794.2 840.3C798.6 846.7 799.9 855.2 797.5 862.7C793.7 859 791 854.1 789.9 848.9C789.3 846.2 789.2 843.4 787.9 841C786.6 838.6 783.7 836.8 781.2 837.8C778.7 838.8 778 842 778 844.6C778 847.1 778.5 849.7 780 851.7C782.3 854.9 786.4 856.1 789.7 858.4C793 860.7 795.3 865.5 792.6 868.4C788.7 867 784.7 866.1 780.6 865.7C779.1 870.2 781.2 875.6 785.4 878C787 878.9 789.2 879.8 789.5 881.6C789.6 882.5 789.2 883.4 788.8 884.2C785.8 890.4 780.8 897.8 774 896.6C776.1 891.1 772.7 884.2 767 882.5C764.8 881.9 762.1 881.7 761 879.7C759.1 876.3 764 873.3 767.8 872.5C771.6 871.7 776.5 868.8 774.7 865.3C773.5 863 770.1 863.1 767.8 864.2C765.5 865.3 763.3 867 760.7 867C758.1 867 755.7 865 755.2 862.5C754.7 860 756.2 857.2 758.6 856.2C760.6 855.4 763 855.8 765.1 855.3C769.2 854.3 771.7 848.9 769.4 845.2C767.2 841.6 760.8 841.7 758.9 845.5C758.2 847 758.1 848.7 757.4 850.2C756.7 851.7 754.9 853 753.5 852.2C752.4 851.6 752.1 850.3 751.9 849.1C751.1 844.2 750.7 838.1 754.9 835.4C756.5 834.3 758.6 834.1 760.3 833.3C765.4 830.9 767 823.2 763.3 819C760 817.7 756.9 821.4 755.9 824.8C754.9 828.2 754.1 832.3 750.8 833.7C748.9 830.4 750.7 826.1 753 823C755.3 819.9 758 816.7 758.1 812.9C758.2 809.1 753.3 805.4 750.5 808C747.6 810.8 750.3 816.8 747 819C744.2 817.4 743.3 813.9 743.3 810.7C743.4 807.5 744.2 804.4 743.9 801.2C743.3 795.2 737.7 789.7 731.8 790.6C725.9 791.5 722.1 799.7 726.2 804.1C728.2 806.2 731.2 806.9 733.7 808.2C736.3 809.5 738.7 812.1 738 814.9C731.3 818.2 723.1 806.4 717.1 810.8C716.2 815.7 719.5 820.9 724.2 822.4C727.9 823.5 732 822.5 735.7 823.4C739.4 824.3 743 828.8 740.5 831.8C733.5 835.8 724 825 717.5 829.8C716 833.7 719.8 837.9 723.9 838.9C728 840 732.3 839.2 736.4 839.6C740.6 840.1 745.2 842.6 745.5 846.8C736.3 845.4 727 844.9 717.8 845.4C716.3 849.7 721 853.8 725.5 854.3C730 854.9 734.5 853.4 739 854C743.5 854.6 748.2 858.8 746.6 863C740.7 863 734.7 863 728.8 863C726.7 867.7 732.8 872.2 737.9 872.2C743 872.2 748.3 870.1 753.1 871.8C753.1 874.1 753.1 876.5 753.1 878.8C745 878.5 736.8 879.6 729.1 882C729.1 884.3 729.1 886.7 729.1 889C732.8 890.9 737.3 890 741.2 888.6C745.1 887.2 749 885.3 753.1 885.2C757.2 885.1 761.9 887.6 762.4 891.7C762.6 893.5 762.1 895.4 762.5 897.2C763.5 901 768.2 902.2 772 902.7C777.7 903.4 784.4 903.7 788 899.3C791.4 895.2 790.6 888.3 794.7 884.9C801 879.6 812.7 886.9 817.9 880.6C821.3 876.4 816.5 868.9 811.3 870.3C809 870.9 807.3 872.7 805.2 873.9C803.2 875.1 800.2 875.4 798.8 873.5C796.2 870.7 798.1 865.8 801.4 864C804.7 862.2 808.8 862.6 812.6 863.2C816.4 863.8 820.3 864.4 823.9 863C825.6 859.8 825.5 855.7 823.7 852.6C818.8 852.3 813.8 854 810.2 857.2C809.4 853.1 808.9 848.1 812.2 845.4C816.6 841.8 823.5 845.8 828.6 843.4C832.7 841.4 833.5 834.7 829.7 832.2C825.9 829.7 819.8 834.1 821.4 838.4C820 838.5 818.6 838.5 817.2 838.6C815.9 834.4 818.1 829.8 821.3 826.7C824.5 823.6 828.4 821.5 831.8 818.7C835.2 815.9 838.1 811.9 837.8 807.5C837.1 803.4 832.2 799.4 828.3 801.3Z" fill="#07304C"/>
<path d="M356.8 827.7C353.6 829.3 351.8 832.7 350.3 835.9C346 845.2 342.7 855 340.5 865C338.4 858 341.8 850.8 343.8 843.7C345.7 836.7 345.3 827.4 338.7 824.3C337.2 821.8 333 822.4 331.2 824.7C329.4 827 329.3 830.2 329.3 833.2C329.2 845.4 329.1 857.7 329.1 869.9C328.2 865.6 327.2 861.4 326.3 857.1C325.3 852.7 324.3 848.1 321.3 844.8C318.3 841.5 312.8 839.9 309.3 842.6C306.2 845 305.8 849.7 307.1 853.5C308.4 857.2 311 860.4 312.9 863.8C317.9 872.6 318.6 883.6 314.9 893C309.1 884.5 306 874.2 306.1 863.9C303.5 860.1 297 861.2 294.5 865C292 868.9 292.8 874.1 294.9 878.2C297 882.3 300.3 885.6 302.9 889.4C309.9 899.6 311.9 913 308.2 924.7C302.2 918.8 297.9 911.2 296.2 902.9C295.3 898.7 295.1 894.3 293 890.5C291 886.7 286.4 883.8 282.4 885.5C278.5 887.1 277.3 892.1 277.3 896.3C277.4 900.2 278.1 904.3 280.4 907.5C284 912.6 290.5 914.5 295.7 918C300.8 921.5 304.6 929.3 300.3 933.7C294.2 931.6 287.8 930.1 281.3 929.5C279 936.6 282.3 945.2 288.8 948.9C291.4 950.4 294.8 951.7 295.2 954.7C295.4 956.1 294.7 957.5 294.1 958.8C289.3 968.7 281.5 980.2 270.7 978.4C274 969.7 268.6 958.7 259.6 956.2C256.1 955.2 251.8 955 250.1 951.8C247.1 946.5 254.9 941.7 260.8 940.4C266.8 939.1 274.6 934.5 271.7 929.1C269.8 925.5 264.5 925.6 260.8 927.3C257.1 929 253.6 931.7 249.5 931.7C245.4 931.7 241.6 928.6 240.8 924.6C240 920.6 242.4 916.2 246.2 914.7C249.4 913.4 253.1 914.1 256.4 913.3C262.9 911.7 266.8 903.1 263.3 897.4C259.8 891.7 249.7 891.8 246.8 897.8C245.7 900.1 245.6 902.9 244.5 905.2C243.4 907.6 240.6 909.6 238.3 908.4C236.6 907.5 236.1 905.4 235.8 903.5C234.5 895.7 233.9 886.1 240.6 881.8C243.2 880.1 246.4 879.7 249.2 878.4C257.3 874.6 259.8 862.5 253.9 855.9C248.7 853.8 243.8 859.7 242.2 865C240.5 870.3 239.3 876.8 234.1 879C231.1 873.7 234 867.1 237.5 862.1C241 857.2 245.4 852.2 245.5 846.1C245.6 840 237.9 834.2 233.5 838.4C229 842.7 233.2 852.2 228 855.8C223.6 853.3 222.1 847.7 222.2 842.7C222.3 837.7 223.6 832.7 223.1 827.7C222.2 818.3 213.4 809.6 204 810.9C194.6 812.2 188.7 825.3 195.2 832.2C198.3 835.5 203 836.7 207.1 838.7C211.2 840.7 215 844.9 213.9 849.3C203.3 854.6 190.4 835.8 180.8 842.9C179.4 850.6 184.5 858.9 192 861.2C197.9 863 204.3 861.4 210.2 862.7C216.2 864 221.7 871.3 217.8 876C206.8 882.3 191.7 865.3 181.5 872.8C179.2 879 185.2 885.6 191.6 887.3C198 889 204.8 887.7 211.4 888.4C218 889.1 225.2 893.1 225.8 899.7C211.3 897.4 196.6 896.7 182 897.5C179.6 904.2 187.1 910.7 194.2 911.6C201.3 912.5 208.5 910.2 215.5 911.1C222.6 912 230 918.6 227.5 925.3H199.3C196 932.7 205.6 939.8 213.7 939.8C221.8 939.8 230.1 936.5 237.8 939.1C237.8 942.8 237.8 946.5 237.8 950.2C225 949.7 212.1 951.5 199.8 955.3C199.8 959 199.8 962.7 199.7 966.4C205.5 969.4 212.6 968 218.8 965.8C225 963.6 231 960.6 237.6 960.4C244.2 960.2 251.5 964.2 252.3 970.7C252.7 973.6 251.8 976.6 252.5 979.4C252.5 979.5 252.6 979.6 252.6 979.8H294.7C298 973.3 297.8 964.7 303.4 960C313.3 951.7 331.9 963.2 340.1 953.2C345.5 946.6 337.8 934.8 329.6 937C326 938 323.3 940.8 320 942.6C316.7 944.4 312.1 945 309.8 942C305.7 937.6 308.6 929.8 313.9 926.9C319.2 924 325.6 924.7 331.6 925.6C337.6 926.5 343.8 927.6 349.4 925.3C352.1 920.2 351.9 913.8 349.1 908.9C341.4 908.4 333.5 911.1 327.7 916.2C326.5 909.7 325.7 901.8 330.9 897.6C337.8 892 348.8 898.2 356.8 894.4C363.3 891.3 364.6 880.7 358.5 876.8C352.5 872.9 342.9 879.8 345.4 886.6C343.2 886.7 340.9 886.8 338.7 886.9C336.6 880.3 340.2 873 345.1 868.2C350.1 863.3 356.3 860 361.7 855.6C367 851.1 371.6 844.8 371.1 837.9C370.8 830.9 363 824.6 356.8 827.7Z" fill="#07304C"/>
<path d="M1259.8 725.3C1257.8 726.3 1256.6 728.4 1255.7 730.5C1253 736.4 1250.9 742.6 1249.5 748.9C1248.2 744.5 1250.3 739.9 1251.6 735.4C1252.8 731 1252.5 725.1 1248.4 723.1C1247.4 721.5 1244.8 721.9 1243.6 723.4C1242.5 724.9 1242.4 726.9 1242.4 728.8C1242.3 736.5 1242.3 744.3 1242.2 752C1241.6 749.3 1241 746.6 1240.4 743.9C1239.8 741.1 1239.1 738.2 1237.2 736.1C1235.3 734 1231.8 733 1229.6 734.7C1227.6 736.2 1227.4 739.2 1228.2 741.6C1229 744 1230.6 745.9 1231.9 748.1C1235.1 753.7 1235.5 760.7 1233.2 766.6C1229.5 761.2 1227.6 754.7 1227.6 748.2C1226 745.8 1221.8 746.5 1220.3 748.9C1218.7 751.4 1219.2 754.6 1220.6 757.2C1221.9 759.8 1224 761.9 1225.7 764.3C1230.1 770.7 1231.4 779.2 1229 786.7C1225.2 783 1222.5 778.1 1221.4 772.9C1220.8 770.2 1220.7 767.4 1219.4 765C1218.1 762.6 1215.2 760.8 1212.7 761.8C1210.2 762.8 1209.5 766 1209.5 768.6C1209.5 771.1 1210 773.7 1211.5 775.7C1213.8 778.9 1217.9 780.1 1221.2 782.4C1224.5 784.7 1226.8 789.5 1224.1 792.4C1220.2 791 1216.2 790.1 1212.1 789.7C1210.6 794.2 1212.7 799.6 1216.9 802C1218.5 802.9 1220.7 803.8 1221 805.6C1221.1 806.5 1220.7 807.4 1220.3 808.2C1217.3 814.4 1212.3 821.8 1205.5 820.6C1207.6 815.1 1204.2 808.2 1198.5 806.5C1196.3 805.9 1193.6 805.7 1192.5 803.7C1190.6 800.3 1195.5 797.3 1199.3 796.5C1203.1 795.7 1208 792.8 1206.2 789.3C1205 787 1201.6 787.1 1199.3 788.2C1197 789.3 1194.8 791 1192.2 791C1189.6 791 1187.2 789 1186.7 786.5C1186.2 784 1187.7 781.2 1190.1 780.2C1192.1 779.4 1194.5 779.8 1196.6 779.3C1200.7 778.3 1203.2 772.9 1200.9 769.2C1198.7 765.6 1192.3 765.7 1190.4 769.5C1189.7 771 1189.6 772.7 1188.9 774.2C1188.2 775.7 1186.4 777 1185 776.2C1183.9 775.6 1183.6 774.3 1183.4 773.1C1182.6 768.2 1182.2 762.1 1186.4 759.4C1188 758.3 1190.1 758.1 1191.8 757.3C1196.9 754.9 1198.5 747.2 1194.8 743C1191.5 741.7 1188.4 745.4 1187.4 748.8C1186.4 752.2 1185.6 756.3 1182.3 757.7C1180.4 754.4 1182.2 750.1 1184.5 747C1186.8 743.9 1189.5 740.7 1189.6 736.9C1189.7 733.1 1184.8 729.4 1182 732C1179.1 734.8 1181.8 740.8 1178.5 743C1175.7 741.4 1174.8 737.9 1174.8 734.7C1174.9 731.5 1175.7 728.4 1175.4 725.2C1174.8 719.2 1169.2 713.7 1163.3 714.6C1157.4 715.4 1153.6 723.7 1157.7 728.1C1159.7 730.2 1162.7 730.9 1165.2 732.2C1167.8 733.5 1170.2 736.1 1169.5 738.9C1162.8 742.2 1154.6 730.4 1148.6 734.8C1147.7 739.7 1151 744.9 1155.7 746.4C1159.4 747.5 1163.5 746.5 1167.2 747.4C1171 748.2 1174.5 752.8 1172 755.8C1165 759.8 1155.5 749 1149 753.8C1147.5 757.7 1151.3 761.9 1155.4 762.9C1159.5 763.9 1163.8 763.2 1167.9 763.6C1172.1 764.1 1176.7 766.6 1177 770.8C1167.8 769.4 1158.5 768.9 1149.3 769.4C1147.8 773.7 1152.5 777.8 1157 778.3C1161.5 778.9 1166 777.4 1170.5 778C1175 778.6 1179.7 782.8 1178.1 787C1172.2 787 1166.2 787 1160.3 787C1158.2 791.7 1164.3 796.2 1169.4 796.2C1174.5 796.2 1179.8 794.1 1184.6 795.8C1184.6 798.1 1184.6 800.5 1184.6 802.8C1176.5 802.5 1168.3 803.6 1160.6 806C1160.6 808.3 1160.6 810.7 1160.6 813C1164.3 814.9 1168.8 814 1172.7 812.6C1176.6 811.2 1180.5 809.3 1184.6 809.2C1188.7 809.1 1193.4 811.6 1193.9 815.7C1194.1 817.5 1193.6 819.4 1194 821.2C1195 825 1199.7 826.2 1203.5 826.7C1209.2 827.4 1215.9 827.7 1219.5 823.3C1222.9 819.2 1222.1 812.3 1226.2 808.9C1232.5 803.6 1244.2 810.9 1249.4 804.6C1252.8 800.4 1248 792.9 1242.8 794.3C1240.5 794.9 1238.8 796.7 1236.7 797.9C1234.6 799.1 1231.7 799.4 1230.3 797.5C1227.7 794.7 1229.6 789.8 1232.9 788C1236.3 786.2 1240.3 786.6 1244.1 787.2C1247.9 787.8 1251.8 788.4 1255.4 787C1257.1 783.8 1257 779.7 1255.2 776.6C1250.3 776.3 1245.3 778 1241.7 781.2C1240.9 777.1 1240.4 772.1 1243.7 769.4C1248.1 765.8 1255 769.8 1260.1 767.4C1264.2 765.4 1265 758.7 1261.2 756.2C1257.4 753.7 1251.3 758.1 1252.9 762.4C1251.5 762.5 1250.1 762.5 1248.7 762.6C1247.4 758.4 1249.6 753.8 1252.8 750.7C1255.9 747.6 1259.9 745.5 1263.3 742.7C1266.7 739.9 1269.6 735.9 1269.3 731.5C1268.7 727.3 1263.8 723.4 1259.8 725.3Z" fill="#07304C"/>
</g>
<defs>
<radialGradient id="paint0_radial_2016_37" cx="0" cy="0" r="1" gradientUnits="userSpaceOnUse" gradientTransform="translate(536.8 74) scale(369.741 369.741)">
<stop stop-color="#4FC4D6"/>
<stop offset="0.1962" stop-color="#4DBFD3"/>
<stop offset="0.4386" stop-color="#45B4CC"/>
<stop offset="0.7054" stop-color="#39A3C1"/>
<stop offset="0.9879" stop-color="#258DB2"/>
<stop offset="1" stop-color="#248CB1"/>
</radialGradient>
<linearGradient id="paint1_linear_2016_37" x1="549" y1="-161" x2="549" y2="116.51" gradientUnits="userSpaceOnUse">
<stop stop-color="white"/>
<stop offset="1" stop-color="white" stop-opacity="0"/>
</linearGradient>
<linearGradient id="paint2_linear_2016_37" x1="549" y1="-122.008" x2="549" y2="88.293" gradientUnits="userSpaceOnUse">
<stop stop-color="white"/>
<stop offset="1" stop-color="white" stop-opacity="0"/>
</linearGradient>
<clipPath id="clip0_2016_37">
<rect width="1400" height="980" fill="white"/>
</clipPath>
</defs>
</svg>
