<svg width="323" height="141" viewBox="0 0 323 141" fill="none" xmlns="http://www.w3.org/2000/svg">
<path d="M-734.784 132.606C-734.853 132.827 -734.894 133.047 -734.925 133.254L-777 139.18L-770.815 140.67H323L321.201 139.147H315.149V137.324H313.019L312.288 137.583V138.976H310.213V138.132H308.718V131.98H305.968V125.108H294.34V124.333H289.123V112.264H285.857V124.333H282.268V121.069H277.377V124.595C277.176 124.496 277.043 124.479 277.043 124.479C276.715 122.17 274.955 122.83 274.955 122.83L273.303 83.875C274.293 83.547 274.566 81.566 274.566 81.566L274.734 76.005C275.231 75.569 274.734 74.468 274.734 74.468C274.237 73.643 274.844 73.806 274.844 73.806L275.12 70.617C275.887 70.727 277.316 70.12 277.316 70.12C279.299 70.01 278.916 67.756 278.916 67.756L277.705 67.37C277.65 66.656 276.657 65.389 276.657 65.389L275.777 65.444C276.329 65.886 275.007 66.821 275.007 66.821L250.963 61.425L246.894 61.155L246.946 62.143L243.478 61.539L243.536 63.409L242.819 63.519L242.929 64.73L244.085 64.62L244.033 66.545L243.812 66.655L243.92 68.412L242.601 67.973L235.172 67.81C233.575 67.865 234.129 69.018 234.129 69.018L189.561 70.834L189.508 67.918C190.827 67.369 189.778 66.213 189.778 66.213L185.378 66.047L178.887 68.083L177.017 67.917L176.959 68.196L176.19 68.083C176.135 65.829 174.816 66.433 174.816 66.433V65.056C174.982 64.342 173.933 63.517 173.933 63.517L171.238 63.738L170.579 63.407L166.949 63.297L166.676 63.573L166.51 63.239L162.711 62.966L159.847 62.803L159.522 63.021L159.191 62.637L157.1 62.582L157.045 62.803C156.879 62.911 155.613 62.745 155.613 62.745C154.788 62.911 154.292 62.472 154.292 62.472L150.72 62.304L150.331 62.638L150.058 62.304L145.766 62.089L145.493 62.417L144.994 62.089L140.484 61.7L140.374 62.031C139.552 62.031 138.012 61.537 138.012 61.537H135.75L135.477 61.923L134.928 61.424L129.648 61.317L129.59 60.989L130.418 60.879C131.463 59.502 130.197 58.126 130.197 58.126C130.197 58.126 126.459 57.908 126.07 58.126C125.684 58.347 125.684 57.798 125.684 57.798L123.54 57.688C123.427 56.643 120.403 56.753 120.403 56.753L120.124 54.993L115.34 54.772L111.431 53.727L108.187 53.782L107.746 54.055L107.415 54.717L104.72 54.662L104.502 55.763C104.502 55.763 102.077 54.935 101.308 54.935C100.541 54.935 101.308 55.925 101.308 55.925C101.308 55.925 101.308 56.201 100.649 56.201C99.99 56.201 100.486 54.882 100.486 54.882L95.835 53.624C95.843 53.552 95.854 53.478 95.862 53.395C96.19 50.755 92.342 50.865 92.342 50.865C92.342 50.865 90.141 50.589 88.985 50.644C87.829 50.699 87.995 51.414 87.995 51.414L82.055 49.764C83.263 49.102 78.75 48.611 78.75 48.611C77.597 48.443 77.211 49.819 77.211 49.819C76.494 49.874 76.058 51.524 76.058 51.524L75.948 50.15L73.91 50.04L73.855 48.056L66.647 48.277L66.594 50.589L64.724 50.699L64.007 51.193V50.423C64.007 50.423 64.446 50.313 63.786 50.423C63.127 50.533 62.906 51.361 62.906 51.361C62.906 50.313 62.137 49.267 62.137 49.267C61.367 48.884 61.53 46.958 61.53 46.958C61.423 45.085 60.487 45.526 60.487 45.526L40.459 52.406L40.4 51.634H35.117C35.117 51.634 28.516 54.109 27.743 54.387C26.976 54.66 27.136 55.157 27.136 55.157L27.47 56.31C27.47 56.31 27.801 56.037 29.175 56.037C30.554 56.037 28.298 56.752 27.967 56.972C27.636 57.19 27.854 58.07 27.854 58.07L27.418 57.08C27.418 57.08 26.535 57.356 26.262 57.301C25.983 57.248 25.928 57.853 25.928 57.853C25.928 57.853 25.928 58.512 25.486 59.061C25.05 59.613 25.106 57.853 25.106 57.853C25.106 57.853 23.564 58.402 23.343 58.733C23.122 59.064 23.674 59.778 23.233 59.834C22.794 59.889 22.957 58.841 22.794 58.841C22.628 58.841 21.583 58.565 21.583 58.565C21.2 56.642 15.641 58.625 15.641 58.625L15.42 58.236L11.731 57.908L9.039 58.951C8.816 59.172 8.65002 58.951 8.65002 58.951L4.47101 59.999C3.42501 59.444 3.26001 60.879 3.26001 60.879L2.48999 60.989L2.70801 62.032C2.87601 63.356 4.08502 62.912 4.08502 62.912V64.84H6.12097C6.34397 65.72 8.159 65.613 8.159 65.613V70.945C7.058 70.945 7.88 71.993 7.88 71.993C7.938 73.256 8.54199 75.129 8.54199 75.129C9.14599 75.623 8.815 76.776 8.815 76.776H7.71997C7.87997 78.649 9.146 78.536 9.146 78.536L10.249 79.75L9.51202 117.157H5.89801V113.32L1.41199 117.808V122.048H-1.47302V56.905H-66.773L-67.584 56.362L-65.142 52.563C-65.142 52.563 -65.136 52.489 -65.131 52.4C-65.17 52.406 -65.2 52.425 -65.241 52.425H-196.891C-196.968 52.425 -197.04 52.406 -197.109 52.378C-197.101 52.488 -197.098 52.563 -197.098 52.563L-194.651 56.362L-195.467 56.905H-260.77V113.648C-262.922 112.349 -265.052 111.096 -267.41 109.96C-292.39 85.391 -310.506 72.87 -321.345 66.679C-332.843 60.116 -338.738 59.079 -339.422 58.977C-344.501 57.686 -350.644 57.94 -357.679 59.725C-358.868 60.028 -360.082 60.376 -361.321 60.765C-376.78 52.017 -386.963 46.908 -387.103 46.839C-396.391 42.326 -405.327 40.044 -413.658 40.08C-420.37 40.102 -426.693 41.611 -432.469 44.56C-441.906 49.382 -446.657 56.381 -447.192 57.203C-457.165 69.217 -464.682 84.903 -469.231 95.948C-474.166 107.921 -476.784 117.195 -476.811 117.289C-476.932 117.722 -476.8 118.166 -476.505 118.467L-478.425 119.557L-478.61 121.822H-479.901V111.391H-483.214L-483.35 -8.72601C-481.871 -9.34701 -483.016 -10.298 -483.016 -10.298C-482.492 -14.869 -481.11 -14.248 -481.11 -14.248C-481.256 -15.343 -482.065 -15.39 -482.065 -15.39C-482.349 -16.769 -480.349 -18.816 -480.349 -18.816C-480.211 -17.961 -479.877 -18.673 -479.877 -18.673C-479.921 -20.866 -482.305 -19.528 -482.305 -19.528C-480.829 -23.194 -477.59 -22.242 -477.59 -22.242C-476.213 -21.911 -477.543 -23.53 -477.543 -23.53C-475.736 -25.337 -477.637 -26.479 -477.637 -26.479L-477.83 -27.196L-477.019 -29.003L-492.44 -31L-505.96 -27.336L-504.167 -25.306C-504.186 -25.295 -504.197 -25.289 -504.197 -25.289C-505.863 -24.05 -504.531 -22.671 -504.531 -22.671C-504.332 -22.566 -504.159 -22.516 -503.999 -22.508C-504.035 -22.492 -504.054 -22.481 -504.054 -22.481C-504.912 -20.718 -503.864 -21.102 -503.864 -21.102C-502.628 -23.383 -498.915 -19.527 -498.915 -19.527C-499.867 -17.913 -499.202 -15.96 -499.202 -15.96C-500.488 -15.96 -500.725 -14.961 -500.725 -14.961C-499.343 -15.151 -499.246 -11.962 -499.246 -11.962C-499.246 -11.01 -498.625 -10.627 -498.625 -10.627C-500.487 -9.39101 -498.675 -8.63 -498.675 -8.63L-499.914 46.394C-499.914 46.394 -499.437 46.631 -499.674 46.821C-499.914 47.011 -499.533 47.392 -499.296 47.533C-499.059 47.676 -499.486 48.2 -499.103 48.344C-498.725 48.487 -498.962 48.868 -499.296 49.102C-499.63 49.345 -499.296 49.676 -499.009 50.01C-498.725 50.344 -499.296 50.344 -499.103 50.628C-498.913 50.915 -499.009 51.056 -499.246 51.486C-499.486 51.914 -499.58 51.723 -499.342 51.867C-499.102 52.01 -499.295 52.154 -499.579 52.198C-499.863 52.248 -500.007 53.293 -500.007 53.293L-500.724 116.69C-501.532 116.787 -501.245 117.932 -501.245 117.932C-502.053 117.976 -501.576 119.595 -501.576 119.595C-502.718 119.973 -502.244 121.738 -502.244 121.738C-503.626 122.262 -503.005 124.403 -503.005 124.403H-503.741V112.883H-506.72V122.196H-511.564V123.534L-513.798 122.963C-513.798 122.963 -513.387 120.855 -515.26 120.789C-515.26 120.789 -514.681 120.276 -516.143 119.564L-516.176 119.117C-516.176 119.117 -515.599 118.847 -516.176 118.745L-516.245 118.61C-516.245 118.61 -515.735 118.202 -516.278 118.066C-516.278 118.066 -516.788 117.658 -516.857 117.114L-518.829 56.699C-518.829 56.699 -518.592 56.533 -518.592 56.122C-518.592 56.122 -517.98 56.632 -517.163 54.696C-517.163 54.696 -518.457 53.88 -518.898 52.382C-518.898 52.382 -518.694 51.803 -518.388 51.874L-518.352 46.666L-517.839 45.783C-517.839 45.783 -517.262 45.204 -518.148 45.171L-519.271 45.102C-519.271 45.102 -518.899 42.112 -519.679 41.295L-519.442 41.16C-519.442 41.16 -518.899 41.737 -518.248 41.767C-518.248 41.767 -517.368 41.397 -517.23 40.137C-517.23 40.137 -516.311 39.221 -516.447 38.675H-515.937L-515.565 37.996V36.396C-515.565 36.396 -515.055 36.057 -515.427 36.021C-515.427 36.021 -514.544 35.342 -515.565 35.069L-517.264 34.658C-517.264 34.658 -517.468 35.036 -517.741 34.727C-517.741 34.727 -519.002 34.219 -519.611 34.186C-520.223 34.15 -520.19 34.15 -520.395 34.048C-520.596 33.946 -520.905 33.778 -521.347 33.778C-521.791 33.778 -522.232 33.64 -522.437 33.538C-522.641 33.436 -523.287 33.13 -523.563 33.847C-523.563 33.847 -523.626 34.901 -523.353 35.204L-525.43 35.237C-525.43 35.237 -525.736 35.75 -526.177 35.477C-526.619 35.204 -526.72 35.306 -527.267 35.342C-527.81 35.375 -527.879 35.444 -528.153 35.342C-528.423 35.237 -528.454 35.237 -528.796 35.27C-529.138 35.306 -529.817 35.477 -530.501 35.411C-531.18 35.342 -530.771 35.477 -531.486 35.51C-532.201 35.543 -532.438 35.51 -532.879 35.444C-533.323 35.375 -533.662 35.411 -534.035 35.411C-534.407 35.411 -535.839 35.411 -536.145 35.75C-536.145 35.75 -535.974 35.579 -536.655 35.543C-537.336 35.51 -548.796 35.543 -548.796 35.543C-548.796 35.543 -548.967 35.717 -549.141 36.02C-549.141 36.02 -549.103 35.647 -549.682 35.647C-550.259 35.647 -553.05 35.68 -554.614 35.716C-556.178 35.749 -557.949 35.749 -558.493 35.782C-559.036 35.818 -559.276 36.088 -559.82 35.953C-560.364 35.818 -560.364 35.749 -560.838 35.782C-561.315 35.818 -561.928 35.716 -562.3 35.749C-562.678 35.782 -562.984 35.917 -563.017 36.632V37.719C-563.017 37.719 -563.969 37.413 -564.413 37.857C-564.413 37.857 -564.719 37.62 -565.227 37.212C-565.737 36.801 -566.079 36.633 -566.896 36.702C-567.71 36.771 -568.019 36.87 -569.037 36.837C-570.058 36.801 -570.226 36.6 -570.67 36.837C-571.112 37.074 -571.178 36.837 -571.727 36.903C-572.27 36.972 -572.439 37.005 -572.949 37.143C-573.459 37.281 -574.243 36.633 -575.6 37.447H-576.212C-576.212 37.447 -575.873 36.837 -576.896 36.6C-576.896 36.6 -577.371 36.462 -577.917 36.363C-578.458 36.258 -579.073 36.258 -579.649 36.294C-580.228 36.33 -580.297 36.396 -580.604 36.33C-580.91 36.258 -581.012 36.156 -581.352 36.33C-581.691 36.496 -581.862 36.429 -582.271 36.396C-582.676 36.363 -582.883 36.429 -583.223 36.531C-583.562 36.633 -584.547 36.771 -584.754 37.282C-584.958 37.792 -584.547 38.201 -585.09 38.573C-585.09 38.573 -585.642 39.354 -585.84 40.512C-585.84 40.512 -586.452 40.17 -586.894 40.68C-587.335 41.19 -587.44 40.989 -588.019 41.022C-588.596 41.055 -589.007 41.397 -589.139 41.223C-589.274 41.055 -589.412 40.815 -589.412 40.815L-591.078 40.92C-591.078 40.92 -591.76 40.752 -592.033 40.614C-592.303 40.479 -592.303 40.479 -592.303 40.479L-610.502 41.224L-610.739 41.768C-610.739 41.768 -611.351 42.044 -611.627 41.837C-611.895 41.636 -611.966 41.636 -612.237 41.702C-612.51 41.768 -612.51 41.768 -612.51 41.768L-612.438 41.296L-615.434 37.213L-624.48 37.555C-624.48 37.555 -624.279 36.156 -626.014 35L-632.679 37.005C-632.679 37.005 -633.123 36.702 -633.496 36.633C-633.871 36.564 -634.586 35.579 -634.79 35.138C-634.79 35.138 -635.606 35.138 -636.081 35.375L-636.898 36.258L-636.081 37.555C-636.081 37.555 -635.946 38.606 -635.471 38.978C-635.471 38.978 -634.961 39.968 -635.333 40.479L-631.421 44.523L-631.457 47.519H-632.171C-632.171 47.519 -633.465 47.687 -632.27 48.777L-632.372 49.083L-632.204 49.32L-632.135 53.742C-632.135 53.742 -631.523 53.979 -632.036 54.457C-632.036 54.457 -635.128 55.817 -633.189 57.522C-633.189 57.522 -632.612 59.392 -631.214 57.997C-631.214 57.997 -631.184 58.541 -630.911 58.505L-631.559 117.998C-631.559 117.998 -632.552 118.194 -632.417 118.842H-634.075V116.235H-637.052V104.315H-641.151V114.745H-644.875V119.402H-646.95L-647.005 70.902C-646.376 70.637 -646.861 70.229 -646.861 70.229C-646.635 68.276 -646.047 68.541 -646.047 68.541C-646.108 68.075 -646.458 68.055 -646.458 68.055C-646.577 67.462 -645.722 66.587 -645.722 66.587C-645.664 66.954 -645.518 66.648 -645.518 66.648C-645.54 65.713 -646.558 66.284 -646.558 66.284C-645.926 64.717 -644.544 65.125 -644.544 65.125C-643.951 65.268 -644.525 64.576 -644.525 64.576C-643.752 63.803 -644.563 63.312 -644.563 63.312L-644.646 63.006L-644.299 62.236L-650.889 61.378L-656.668 62.948L-655.901 63.814C-655.909 63.819 -655.915 63.822 -655.915 63.822C-656.627 64.352 -656.056 64.942 -656.056 64.942C-655.976 64.986 -655.899 65.008 -655.833 65.011C-655.844 65.016 -655.855 65.022 -655.855 65.022C-656.219 65.775 -655.775 65.612 -655.775 65.612C-655.245 64.633 -653.659 66.282 -653.659 66.282C-654.064 66.972 -653.78 67.807 -653.78 67.807C-654.329 67.807 -654.431 68.235 -654.431 68.235C-653.841 68.152 -653.802 69.515 -653.802 69.515C-653.802 69.923 -653.537 70.086 -653.537 70.086C-654.329 70.616 -653.554 70.938 -653.554 70.938L-654.081 94.456C-654.081 94.456 -653.88 94.561 -653.982 94.641C-654.084 94.721 -653.921 94.884 -653.819 94.945C-653.72 95.005 -653.902 95.232 -653.736 95.29C-653.576 95.354 -653.678 95.516 -653.819 95.618C-653.962 95.717 -653.819 95.864 -653.698 96.004C-653.577 96.145 -653.819 96.145 -653.737 96.266C-653.657 96.39 -653.698 96.451 -653.803 96.633C-653.902 96.815 -653.944 96.738 -653.842 96.799C-653.737 96.86 -653.82 96.92 -653.944 96.94C-654.065 96.962 -654.126 97.406 -654.126 97.406L-654.33 115.489H-658.286V121.448H-660.49L-660.551 70.901C-659.919 70.636 -660.41 70.228 -660.41 70.228C-660.181 68.275 -659.593 68.54 -659.593 68.54C-659.654 68.074 -659.999 68.054 -659.999 68.054C-660.123 67.461 -659.265 66.586 -659.265 66.586C-659.207 66.953 -659.066 66.647 -659.066 66.647C-659.083 65.712 -660.103 66.283 -660.103 66.283C-659.471 64.716 -658.086 65.124 -658.086 65.124C-657.498 65.267 -658.07 64.575 -658.07 64.575C-657.295 63.802 -658.109 63.311 -658.109 63.311L-658.192 63.005L-657.844 62.235L-664.434 61.377L-670.211 62.947L-669.447 63.813C-669.453 63.818 -669.458 63.821 -669.458 63.821C-670.17 64.351 -669.604 64.941 -669.604 64.941C-669.516 64.985 -669.441 65.007 -669.375 65.01C-669.389 65.015 -669.397 65.021 -669.397 65.021C-669.764 65.774 -669.317 65.611 -669.317 65.611C-668.787 64.632 -667.201 66.281 -667.201 66.281C-667.609 66.971 -667.322 67.806 -667.322 67.806C-667.871 67.806 -667.97 68.234 -667.97 68.234C-667.382 68.151 -667.341 69.514 -667.341 69.514C-667.341 69.922 -667.079 70.085 -667.079 70.085C-667.871 70.615 -667.098 70.937 -667.098 70.937L-667.625 94.455C-667.625 94.455 -667.424 94.56 -667.526 94.64C-667.625 94.72 -667.463 94.883 -667.36 94.944C-667.258 95.004 -667.443 95.231 -667.283 95.289C-667.117 95.353 -667.219 95.515 -667.36 95.617C-667.504 95.716 -667.36 95.863 -667.242 96.003C-667.118 96.144 -667.36 96.144 -667.283 96.265C-667.2 96.389 -667.242 96.45 -667.341 96.632C-667.443 96.814 -667.485 96.737 -667.382 96.798C-667.283 96.859 -667.36 96.919 -667.484 96.939C-667.605 96.961 -667.666 97.405 -667.666 97.405L-667.898 118.097H-670.577V122.194H-672.343L-672.801 100.155C-672.801 100.155 -672.567 99.887 -672.721 99.807C-672.721 99.807 -672.495 99.788 -672.495 99.117C-672.495 99.117 -672.638 98.287 -672.12 98.226C-672.12 98.226 -671.557 97.765 -672.079 97.409H-671.974V97.012H-671.825V96.684H-672.639V95.619L-672.432 95.164V94.996H-672.617L-672.598 94.64C-672.598 94.64 -672.7 94.265 -672.849 94.204C-672.849 94.204 -672.7 93.724 -674.223 93.451H-675.911L-677.906 92.309L-679.553 92.328C-679.553 92.328 -679.699 91.997 -679.511 91.771V91.164C-679.511 91.164 -680.264 91.098 -680.099 90.786C-680.099 90.786 -679.74 90.996 -679.553 90.598V90.057L-680.014 89.56L-680.43 74.478C-680.43 74.478 -680.303 74.288 -680.43 74.186C-680.43 74.186 -680.516 73.872 -680.287 73.792C-680.055 73.712 -680.221 73.712 -680.221 73.712C-680.221 73.712 -680.535 73.21 -680.304 72.915C-680.304 72.915 -680.075 72.543 -680.183 72.416H-680.1V71.958H-680.431V69.564H-679.91V69.211H-679.537V69.44H-679.388C-679.388 69.44 -679.225 68.4 -678.911 68.232V68.003H-682.453C-682.453 68.003 -683.261 67.835 -683.408 67.669H-686.636V67.503H-691.364L-691.116 66.584L-696.448 64.835C-696.448 64.835 -697.237 64.689 -697.32 64.752C-697.32 64.752 -697.508 64.94 -697.593 64.94C-697.679 64.94 -699.03 64.107 -699.03 64.107C-699.03 64.107 -698.696 63.064 -699.698 63.169C-699.698 63.169 -700.073 63.089 -700.026 62.962C-700.026 62.962 -700.277 62.918 -700.277 63.169C-700.277 63.169 -700.719 63.064 -700.823 63.315C-700.922 63.563 -700.801 64.065 -700.801 64.065L-704.362 65.064C-704.362 65.064 -705.672 65.191 -705.777 65.731L-709.17 66.523V67.585L-708.982 67.604C-708.982 67.604 -708.59 67.919 -708.836 68.52C-708.836 68.52 -709.713 68.002 -710.629 68.002C-710.629 68.002 -712.11 67.671 -712.419 68.002L-712.836 68.25V67.897C-712.836 67.897 -713.608 67.919 -713.672 67.687H-716.235C-716.235 67.687 -717.176 67.91 -717.452 68.148C-717.491 68.184 -717.516 68.217 -717.524 68.25C-717.587 68.52 -717.88 68.333 -717.841 68.167C-717.841 68.167 -718.213 68.084 -718.335 68.211C-718.462 68.332 -718.63 68.481 -718.818 68.481C-719.006 68.481 -719.212 68.147 -719.483 68.128C-719.483 68.128 -720.024 68.045 -720.44 68.332C-720.857 68.627 -720.548 68.316 -720.548 68.316C-720.548 68.316 -721.754 67.899 -721.607 68.25C-721.607 68.25 -721.212 69.21 -721.168 69.541C-721.168 69.541 -721.003 70.126 -720.525 70.084L-720.359 70.522L-719.898 70.564L-719.876 71.979H-720.668C-720.668 71.979 -720.776 72.227 -720.524 72.393C-720.524 72.393 -720.855 72.71 -720.397 73.188C-720.397 73.188 -720.731 73.729 -720.251 74.021C-720.251 74.021 -720.375 74.584 -720.187 74.667L-720.375 89.307L-720.505 89.409C-720.505 89.409 -720.897 89.789 -720.668 90.057L-720.856 90.079V90.33H-722.169C-722.169 90.33 -722.379 90.369 -722.357 90.559C-722.338 90.747 -722.357 91.014 -722.357 91.014L-722.542 91.039C-722.542 91.039 -722.503 90.537 -722.669 90.476C-722.837 90.412 -722.942 90.286 -722.942 90.286L-729.875 90.35L-729.894 91.351H-730.523L-730.562 91.704C-730.562 91.704 -730.085 92.101 -729.894 92.744L-728.084 95.034V95.453H-728.294V95.723C-728.294 95.723 -727.921 95.93 -727.921 97.078H-729L-728.647 97.682C-728.647 97.682 -728.898 98.515 -728.001 98.992C-728.001 98.992 -728.125 100.035 -727.521 100.349L-727.356 100.826V103.367C-727.356 103.367 -726.355 103.367 -726.294 103.637C-726.23 103.907 -726.355 104.782 -726.355 104.782C-726.355 104.782 -726.25 104.073 -726.504 104.095C-726.749 104.117 -726.708 103.885 -726.708 103.885H-726.92C-726.92 103.885 -726.837 104.177 -726.958 104.136C-727.082 104.095 -727.336 104.073 -727.336 104.073V119.582H-729.43V111.389H-732.412V123.309H-734.274V119.582L-736.324 117.535L-737.629 118.837V123.309H-741.353V124.708H-741.67V129.762L-738.384 129.779C-738.216 129.42 -738.152 129.095 -738.152 128.813L-732.494 129.329L-732.852 130.722C-734.757 131.591 -734.784 132.606 -734.784 132.606ZM266.086 82.834C266.952 83.008 267.3 84.655 267.3 84.655L267.126 114.575L265.564 84.481C265.391 82.746 266.086 82.834 266.086 82.834ZM247.672 82.313H248.999L248.825 81.505C250.563 81.56 250.447 83.469 250.447 83.469L250.213 118.104L248.593 118.217L247.495 97.924C246.745 96.71 247.437 96.539 247.437 96.539L246.977 83.066C246.861 82.313 247.672 82.313 247.672 82.313ZM238.651 80.465L239.401 80.523C240.267 80.697 241.081 82.371 241.081 82.371L241.139 118.622L239.23 118.683L237.492 82.2C237.377 81.273 238.651 80.465 238.651 80.465ZM222.577 83.008L222.635 83.816H223.385C224.544 83.816 225.294 85.667 225.294 85.667L225.12 91.681L222.171 91.797L221.884 114.923L221.189 115.039L221.015 112.84C221.652 112.553 220.957 110.123 220.957 110.123L219.859 83.24L222.577 83.008ZM203.611 84.859V83.645L208.179 83.297L208.298 84.798L209.741 84.685C210.607 84.743 210.955 86.247 210.955 86.247L210.668 108.275L210.144 108.333L210.031 105.903C209.857 104.689 209.452 105.097 209.452 105.097L206.329 104.805V95.034L203.209 95.092V95.729L202.917 95.671L202.456 86.766C202.281 85.841 203.611 84.859 203.611 84.859ZM189.79 96.247L189.503 85.726C191.296 85.494 191.006 84.22 191.006 84.22L193.897 83.933L194.187 85.208L195.806 85.263C196.73 85.379 197.081 86.94 197.081 86.94L192.973 87.343L193.086 90.411C193.436 90.466 192.857 91.045 192.857 91.045L192.973 94.168C193.436 94.918 193.031 94.802 193.031 94.802L192.681 108.449C192.681 108.449 193.205 108.449 193.031 108.565C192.857 108.681 193.376 108.736 193.668 108.797C193.955 108.855 193.897 109.258 193.607 109.376C193.32 109.489 192.973 109.605 192.973 109.605L192.857 115.214H192.509L192.393 114.058L190.603 113.884L189.853 97.12C188.811 96.423 189.79 96.247 189.79 96.247ZM180.653 76.702L180.717 77.339L181.873 77.284C181.873 78.208 182.855 79.251 182.855 79.251L182.797 118.162C182.22 118.391 182.105 119.434 182.105 119.434L181.007 119.376L179.04 78.846C179.158 77.632 180.653 76.702 180.653 76.702ZM170.25 76.534L170.482 75.607L170.945 75.723L171.058 77.111C172.156 76.998 172.735 78.904 172.735 78.904L172.909 119.203L170.482 119.377L168.92 78.325C168.805 77.11 170.25 76.534 170.25 76.534ZM159.494 76.647L160.769 76.534L161.059 75.894L161.288 76.418C162.041 76.473 162.56 77.863 162.56 77.863V119.028H160.364L158.687 77.632C158.686 76.473 159.494 76.647 159.494 76.647ZM149.202 75.32H149.723L149.839 75.952C151.977 75.836 152.383 77.397 152.383 77.397V118.854L149.956 118.738L148.223 77.284C148.104 75.778 149.202 75.32 149.202 75.32ZM138.912 74.856L139.028 75.49C141.572 75.145 141.974 77.512 141.974 77.512L141.8 115.965C141.281 115.212 139.433 116.026 139.433 116.026L137.811 76.417C137.64 75.433 138.912 74.856 138.912 74.856ZM118.732 74.856C118.793 73.64 121.736 73.871 121.736 73.871L122.895 74.161C122.895 74.161 123.129 74.795 123.474 74.912C123.822 75.031 124.222 73.817 124.222 73.817L124.92 74.217H125.902L126.25 75.147C126.25 75.147 127.232 74.973 127.638 75.031C128.043 75.086 129.489 73.872 129.489 73.872L129.831 74.857C130.937 74.857 131.337 76.358 131.337 76.358L130.99 118.163L119.6 117.873L118.621 75.086C118.619 75.085 118.677 76.07 118.732 74.856ZM106.708 74.335L106.821 72.831L108.675 72.657L108.791 73.523C109.944 73.523 111.624 75.661 111.624 75.661L111.39 118.161L106.016 118.277L104.912 76.588C104.975 74.795 106.708 74.335 106.708 74.335ZM92.371 74.972C93.985 74.68 93.64 73.121 93.64 73.121L95.488 73.063L95.604 74.856L96.531 74.743C97.629 74.679 98.843 76.357 98.843 76.357L97.629 119.836L91.441 119.781L90.98 118.857L90.23 76.997C90.346 74.912 92.371 74.972 92.371 74.972ZM76.467 75.32L76.641 73.987L80.283 73.816L80.63 75.204C82.71 74.972 83.289 76.82 83.289 76.82L82.655 119.146L82.252 119.201L82.307 119.954L75.83 119.896L74.558 77.051C74.732 75.662 76.467 75.32 76.467 75.32ZM60.74 76.125L61.03 74.856L62.997 74.161C63.113 73.411 64.5 73.35 64.5 73.35C64.384 74.161 65.25 74.216 65.25 74.216C65.305 75.951 65.829 75.722 65.829 75.722C67.217 75.661 68.257 77.512 68.257 77.512L67.388 119.548C67.388 119.548 67.159 120.533 66.116 120.417C65.076 120.296 64.439 121.338 64.439 121.338C64.439 121.338 62.764 121.746 61.953 121.338C61.142 120.935 61.089 120.472 61.089 120.472C61.376 120.295 60.565 119.319 60.565 119.319L59.351 77.743C59.237 76.997 60.74 76.125 60.74 76.125ZM46.806 76.82C47.385 76.704 47.325 75.432 47.325 75.432L49.874 75.203L50.219 76.533L51.488 76.472C52.415 76.533 52.934 77.917 52.934 77.917L51.897 119.722L45.941 120.067L44.785 78.726C44.839 76.997 46.806 76.82 46.806 76.82ZM30.271 77.745L32.177 77.574V76.186L34.894 75.662L34.952 77.4L36.629 77.226C37.437 77.168 37.961 79.364 37.961 79.364L37.15 120.589L30.444 120.647L29.286 79.943C29.286 79.943 29.52 81.444 29.286 79.711C29.054 77.979 30.271 77.745 30.271 77.745ZM18.185 78.266L18.243 76.82L19.686 76.646C19.515 77.338 20.152 77.918 20.152 77.918C22.174 77.689 22.985 79.477 22.985 79.477L21.942 120.186C20.847 120.763 21.308 121.747 21.308 121.747L19.319 121.857C19.432 122.227 19.228 121.863 19.228 121.863L19.319 121.857C19.303 121.785 19.27 121.697 19.228 121.573C18.936 120.762 18.475 120.472 18.475 120.472L16.972 79.594C17.782 79.251 18.185 78.266 18.185 78.266ZM-173.412 112.512C-173.04 112.512 -172.731 112.815 -172.731 113.193C-172.731 113.571 -173.04 113.877 -173.412 113.877H-196.485C-196.863 113.877 -197.169 113.571 -197.169 113.193C-197.169 112.815 -196.863 112.512 -196.485 112.512H-173.412ZM-191.156 104.962V65.866C-191.156 65.488 -190.85 65.182 -190.472 65.182H-178.521C-178.146 65.182 -177.842 65.488 -177.842 65.866V104.962C-177.842 105.34 -178.145 105.646 -178.521 105.646H-190.472C-190.849 105.646 -191.156 105.339 -191.156 104.962ZM-182.452 125.188H-196.386C-196.764 125.188 -197.07 124.882 -197.07 124.507C-197.07 124.129 -196.764 123.826 -196.386 123.826H-182.452C-182.077 123.826 -181.768 124.129 -181.768 124.507C-181.768 124.882 -182.077 125.188 -182.452 125.188ZM-182.452 116.556H-196.386C-196.764 116.556 -197.07 116.252 -197.07 115.874C-197.07 115.499 -196.764 115.19 -196.386 115.19H-182.452C-182.077 115.19 -181.768 115.499 -181.768 115.874C-181.768 116.253 -182.077 116.556 -182.452 116.556ZM-88.2 125.442C-88.288 125.533 -88.415 125.585 -88.545 125.585H-174.745C-174.872 125.585 -174.999 125.533 -175.09 125.442C-175.178 125.348 -175.228 125.221 -175.223 125.091C-175.209 124.721 -174.911 124.429 -174.541 124.429H-88.75C-88.378 124.429 -88.08 124.721 -88.066 125.091C-88.062 125.221 -88.109 125.348 -88.2 125.442ZM-88.749 123.621H-174.54C-174.921 123.621 -175.224 123.315 -175.224 122.937C-175.224 122.559 -174.921 122.256 -174.54 122.256H-88.749C-88.369 122.256 -88.062 122.56 -88.062 122.937C-88.062 123.315 -88.368 123.621 -88.749 123.621ZM-88.749 121.447H-174.54C-174.921 121.447 -175.224 121.141 -175.224 120.763C-175.224 120.385 -174.921 120.079 -174.54 120.079H-88.749C-88.369 120.079 -88.062 120.385 -88.062 120.763C-88.062 121.141 -88.368 121.447 -88.749 121.447ZM-88.749 119.271H-174.54C-174.921 119.271 -175.224 118.968 -175.224 118.59C-175.224 118.212 -174.921 117.906 -174.54 117.906H-88.749C-88.369 117.906 -88.062 118.212 -88.062 118.59C-88.062 118.967 -88.368 119.271 -88.749 119.271ZM-88.749 117.097H-174.54C-174.921 117.097 -175.224 116.788 -175.224 116.413C-175.224 116.038 -174.921 115.732 -174.54 115.732H-88.749C-88.369 115.732 -88.062 116.038 -88.062 116.413C-88.062 116.788 -88.368 117.097 -88.749 117.097ZM-67.331 125.188H-81.265C-81.64 125.188 -81.946 124.882 -81.946 124.507C-81.946 124.129 -81.64 123.826 -81.265 123.826H-67.331C-66.95 123.826 -66.647 124.129 -66.647 124.507C-66.646 124.882 -66.95 125.188 -67.331 125.188ZM-67.331 116.556H-81.265C-81.64 116.556 -81.946 116.252 -81.946 115.874C-81.946 115.499 -81.64 115.19 -81.265 115.19H-67.331C-66.95 115.19 -66.647 115.499 -66.647 115.874C-66.646 116.253 -66.95 116.556 -67.331 116.556ZM-67.22 113.877H-90.293C-90.514 113.877 -90.699 113.767 -90.825 113.601V115.008H-101.512V115.32H-109.413V115.008H-118.892V115.32H-126.79V115.008H-136.536V115.32H-144.44V115.008H-153.913V115.32H-161.816V115.008H-172.547V62.337H-161.079V62.254H-154.651V62.337H-143.702V62.254H-137.274V62.337H-126.052V62.254H-119.624V62.337H-108.675V62.254H-102.247V62.337H-90.824V62.715C-90.697 62.555 -90.512 62.442 -90.292 62.442H-67.219C-66.844 62.442 -66.54 62.751 -66.54 63.126C-66.54 63.501 -66.843 63.807 -67.219 63.807H-90.292C-90.513 63.807 -90.698 63.699 -90.824 63.534V112.781C-90.697 112.621 -90.512 112.511 -90.292 112.511H-67.219C-66.844 112.511 -66.54 112.814 -66.54 113.192C-66.542 113.571 -66.845 113.877 -67.22 113.877ZM-71.949 65.866V104.962C-71.949 105.34 -72.255 105.646 -72.63 105.646H-84.578C-84.956 105.646 -85.262 105.34 -85.262 104.962V65.866C-85.262 65.488 -84.956 65.182 -84.578 65.182H-72.63C-72.255 65.182 -71.949 65.488 -71.949 65.866ZM-3.52802 107.353H-67.007C-67.385 107.353 -67.688 107.047 -67.688 106.669C-67.688 106.294 -67.385 105.985 -67.007 105.985H-3.52802C-3.14702 105.985 -2.841 106.294 -2.841 106.669C-2.841 107.047 -3.14802 107.353 -3.52802 107.353ZM-56.544 104.691V75.775H-50.232V104.691H-56.544ZM-45.752 104.691V75.775H-39.438V104.691H-45.752ZM-34.96 104.691V75.775H-28.646V104.691H-34.96ZM-24.166 104.691V75.775H-17.854V104.691H-24.166ZM-13.371 104.691V75.775H-7.06201V104.691H-13.371ZM-3.52802 73.063H-67.007C-67.385 73.063 -67.688 72.757 -67.688 72.376C-67.688 72.001 -67.385 71.695 -67.007 71.695H-3.52802C-3.14702 71.695 -2.841 72.001 -2.841 72.376C-2.841 72.757 -3.14802 73.063 -3.52802 73.063ZM-3.52802 66.961H-67.007C-67.385 66.961 -67.688 66.658 -67.688 66.282C-67.688 65.904 -67.385 65.595 -67.007 65.595H-3.52802C-3.14702 65.595 -2.841 65.904 -2.841 66.282C-2.841 66.658 -3.14802 66.961 -3.52802 66.961ZM-2.841 64.873C-2.841 65.248 -3.14702 65.554 -3.52802 65.554H-67.007C-67.385 65.554 -67.688 65.248 -67.688 64.873C-67.688 64.498 -67.385 64.191 -67.007 64.191H-3.52802C-3.14802 64.191 -2.841 64.497 -2.841 64.873ZM-195.95 57.308H-66.804C-66.423 57.308 -66.12 57.614 -66.12 57.989C-66.12 58.37 -66.423 58.676 -66.804 58.676H-195.95C-196.331 58.676 -196.637 58.37 -196.637 57.989C-196.637 57.615 -196.331 57.308 -195.95 57.308ZM-195.95 60.594H-66.804C-66.423 60.594 -66.12 60.897 -66.12 61.278C-66.12 61.653 -66.423 61.959 -66.804 61.959H-195.95C-196.331 61.959 -196.637 61.653 -196.637 61.278C-196.637 60.897 -196.331 60.594 -195.95 60.594ZM-196.485 62.442H-173.412C-173.04 62.442 -172.731 62.751 -172.731 63.126C-172.731 63.501 -173.04 63.807 -173.412 63.807H-196.485C-196.863 63.807 -197.169 63.501 -197.169 63.126C-197.169 62.751 -196.863 62.442 -196.485 62.442ZM-260.056 64.191H-196.574C-196.199 64.191 -195.893 64.497 -195.893 64.873C-195.893 65.248 -196.199 65.554 -196.574 65.554H-260.056C-260.434 65.554 -260.74 65.248 -260.74 64.873C-260.74 64.497 -260.434 64.191 -260.056 64.191ZM-260.056 65.595H-196.574C-196.199 65.595 -195.893 65.904 -195.893 66.282C-195.893 66.657 -196.199 66.961 -196.574 66.961H-260.056C-260.434 66.961 -260.74 66.658 -260.74 66.282C-260.74 65.904 -260.434 65.595 -260.056 65.595ZM-260.056 71.695H-196.574C-196.199 71.695 -195.893 72.001 -195.893 72.376C-195.893 72.757 -196.199 73.063 -196.574 73.063H-260.056C-260.434 73.063 -260.74 72.757 -260.74 72.376C-260.74 72.001 -260.434 71.695 -260.056 71.695ZM-205.812 75.775V104.691H-212.124V75.775H-205.812ZM-216.604 75.775V104.691H-222.916V75.775H-216.604ZM-227.399 75.775V104.691H-233.711V75.775H-227.399ZM-238.191 75.775V104.691H-244.505V75.775H-238.191ZM-248.983 75.775V104.691H-255.297V75.775H-248.983ZM-260.056 105.985H-196.574C-196.199 105.985 -195.893 106.294 -195.893 106.669C-195.893 107.047 -196.199 107.353 -196.574 107.353H-260.056C-260.434 107.353 -260.74 107.047 -260.74 106.669C-260.74 106.294 -260.434 105.985 -260.056 105.985ZM-359.26 61.551C-358.493 61.328 -357.729 61.123 -356.959 60.936L-356.189 60.743V60.76L-355.844 60.674L-355.838 60.669C-355.791 60.658 -355.747 60.652 -355.706 60.641L-354.371 60.327L-354.429 60.377C-354.266 60.346 -354.104 60.305 -353.941 60.275H-353.935L-353.849 60.259L-353.126 60.127L-353.129 60.13C-353.03 60.116 -352.925 60.094 -352.826 60.08L-352.564 60.036L-352.55 60.033L-351.091 59.796L-351.132 59.832C-351.118 59.829 -351.099 59.826 -351.085 59.824V59.821L-350.972 59.807C-350.964 59.807 -350.955 59.807 -350.944 59.804L-350.293 59.724L-350.296 59.741C-349.786 59.683 -349.273 59.628 -348.768 59.592L-347.223 59.484L-347.273 59.526C-346.937 59.515 -346.603 59.507 -346.272 59.507L-345.789 59.51H-345.759L-344.655 59.521L-344.685 59.552L-344.418 59.56L-344.423 59.58C-343.559 59.629 -342.707 59.707 -341.904 59.834L-341.852 59.842L-341.846 59.837L-341.769 59.853V59.848L-341.554 59.887L-340.853 60L-340.884 60.025C-340.487 60.105 -340.092 60.185 -339.703 60.284C-339.59 60.3 -339.449 60.322 -339.231 60.372C-339.226 60.372 -339.223 60.372 -339.217 60.372L-339.065 60.405V60.397L-338.759 60.472L-338.329 60.566L-338.343 60.577C-338.332 60.577 -338.326 60.58 -338.318 60.582H-338.315C-337.832 60.706 -337.109 60.911 -336.125 61.236L-336.122 61.233L-335.912 61.308L-335.76 61.358V61.352L-335.581 61.421L-335.319 61.504L-335.324 61.51L-335.205 61.554L-335.009 61.62V61.626C-334.435 61.836 -333.812 62.076 -333.136 62.346L-333.133 62.343L-332.819 62.47L-332.681 62.531V62.523L-332 62.813C-331.225 63.144 -330.386 63.516 -329.492 63.936V63.93L-329.067 64.134L-328.901 64.211L-328.766 64.277C-328.096 64.6 -327.392 64.947 -326.656 65.322L-326.16 65.579V65.582C-326.154 65.585 -326.149 65.587 -326.146 65.59V65.587L-325.481 65.935L-325.349 66.004C-324.576 66.415 -323.765 66.856 -322.93 67.328L-322.927 67.325L-322.833 67.377C-322.795 67.396 -322.764 67.416 -322.725 67.435L-322.562 67.529V67.524L-321.732 67.996C-321.006 68.418 -320.231 68.873 -319.44 69.353L-319.434 69.348L-318.918 69.665V69.659L-318.01 70.216C-317.188 70.724 -316.327 71.273 -315.442 71.844V71.838L-314.865 72.213V72.208L-314.407 72.509L-313.974 72.793V72.796L-313.91 72.837C-313.16 73.334 -312.376 73.86 -311.587 74.399V74.396L-311.283 74.606C-311.278 74.606 -311.278 74.609 -311.275 74.609L-310.977 74.813V74.807L-309.929 75.538C-308.958 76.214 -307.951 76.934 -306.919 77.676L-306.916 77.671L-306.651 77.87C-306.623 77.886 -306.601 77.903 -306.574 77.922L-306.367 78.071V78.068L-305.311 78.846C-304.345 79.558 -303.347 80.314 -302.329 81.083L-302.326 81.072L-301.057 82.051L-301.054 82.054L-300.911 82.162C-299.664 83.128 -298.367 84.148 -297.049 85.205V85.197L-296.679 85.498C-296.671 85.506 -296.66 85.512 -296.646 85.52L-296.403 85.719C-296.127 85.942 -295.84 86.174 -295.561 86.4V86.395L-295.117 86.765C-294.99 86.867 -294.863 86.969 -294.733 87.074L-294.606 87.173L-294.603 87.181L-294.482 87.283C-293.514 88.072 -292.529 88.894 -291.527 89.733L-291.524 89.728L-291.132 90.062C-291.127 90.068 -291.116 90.073 -291.107 90.082L-290.878 90.275V90.278L-290.359 90.719L-290.364 90.703L-289.258 91.652C-287.887 92.827 -286.477 94.055 -285.046 95.321V95.318L-284.754 95.572C-284.735 95.591 -284.718 95.605 -284.696 95.622L-284.442 95.848C-284.183 96.077 -283.923 96.311 -283.664 96.543V96.537L-282.831 97.282C-282.828 97.287 -282.828 97.287 -282.823 97.293L-282.707 97.398L-282.569 97.522C-281.383 98.584 -280.174 99.688 -278.949 100.816V100.813L-278.681 101.058C-278.662 101.077 -278.645 101.091 -278.626 101.11L-278.367 101.35H-278.37C-278.003 101.684 -277.633 102.031 -277.264 102.373L-277.267 102.365L-276.506 103.082C-276.473 103.11 -276.445 103.137 -276.412 103.165L-276.302 103.27L-276.299 103.275L-276.158 103.408C-274.856 104.63 -273.535 105.88 -272.191 107.174L-270.064 109.224L-272.732 107.952C-273.813 107.439 -274.873 106.94 -275.932 106.44L-276.476 106.183C-277.552 105.681 -278.608 105.182 -279.656 104.696L-280.373 104.362L-281.714 103.744L-282.175 103.532C-283.726 102.817 -285.24 102.128 -286.73 101.452L-288.043 100.859L-288.054 100.853C-289.579 100.169 -291.069 99.498 -292.534 98.85L-292.752 98.754L-292.953 98.666L-293.226 98.545L-293.632 98.371V98.368C-294.683 97.908 -295.718 97.452 -296.735 97.011L-296.799 96.983L-296.796 96.989L-299.783 95.698L-299.899 95.649C-300.672 95.32 -301.433 94.995 -302.186 94.681L-302.409 94.587V94.581H-302.417C-303.358 94.184 -304.277 93.8 -305.187 93.428L-306.492 92.885L-306.5 92.88C-307.816 92.339 -309.088 91.826 -310.34 91.327L-310.335 91.354L-311.082 91.04L-311.14 91.195L-311.176 91.002L-311.783 90.751C-312.782 90.351 -313.75 89.973 -314.702 89.601L-314.663 89.822L-315.452 89.306L-315.529 89.275L-315.532 89.253L-316.851 88.389L-317.326 88.08C-318.054 87.605 -318.774 87.139 -319.492 86.67V86.673L-321.903 85.117L-322.19 84.929L-322.358 84.819C-323.062 84.366 -323.765 83.92 -324.46 83.478L-324.659 83.348V83.345L-326.339 82.286L-327.914 81.285L-330.709 79.53V79.533L-331.65 78.948L-332.37 78.499C-333.098 78.044 -333.815 77.6 -334.53 77.155L-334.533 77.16L-335.587 76.509L-338.241 74.884L-339.656 74.026V74.023L-342.398 72.365L-342.315 72.277L-342.798 72.029V72.004L-344.809 70.89L-344.831 70.915L-345.662 70.413V70.416L-347.841 69.125L-349.381 68.217V68.214L-350.2 67.731L-351.64 66.89L-351.643 66.893L-353.144 66.016L-354.336 65.321L-354.477 65.244L-355.235 65.845L-355.023 64.929L-356.339 64.17L-357.622 63.428L-357.619 63.423L-357.793 63.326L-357.799 63.331L-360.351 61.872L-359.26 61.551ZM-470.654 106.379L-470.637 104.928C-470.003 103.209 -469.299 101.364 -468.529 99.422L-467.605 97.094V97.138C-467.13 95.993 -466.645 94.821 -466.132 93.624L-465.928 93.155V93.152L-465.878 93.031L-465.21 91.478V91.517L-465.185 91.459H-465.182C-464.655 90.273 -464.114 89.075 -463.552 87.859L-462.636 85.889V85.933C-462.079 84.769 -461.51 83.599 -460.915 82.416L-460.766 82.121V82.107L-460.702 81.994L-460.007 80.615V80.668C-459.546 79.774 -459.086 78.88 -458.606 77.992L-458.465 77.733L-457.993 76.85L-457.99 76.856L-457.72 76.354V76.398C-457.207 75.476 -456.697 74.555 -456.162 73.642L-456.038 73.43V73.427L-455.933 73.248L-455.762 72.961H-455.767L-455.726 72.897L-455.271 72.111V72.141C-454.73 71.242 -454.184 70.345 -453.627 69.46L-453.514 69.283V69.277L-452.995 68.463L-452.794 68.14L-452.791 68.176C-452.198 67.263 -451.599 66.347 -450.984 65.456L-450.885 65.31L-450.857 65.274L-450.173 64.275V64.306C-449.572 63.459 -448.967 62.612 -448.344 61.793L-448.261 61.683V61.677L-448.148 61.531L-447.971 61.302L-447.543 60.736V60.761C-446.98 60.033 -446.412 59.31 -445.833 58.609L-445.667 58.405L-445.62 58.344L-445.507 58.173C-445.295 57.861 -444.495 56.716 -443.126 55.183L-443.129 55.18L-443.01 55.05L-443.082 54.12L-442.616 54.614L-442.31 54.272L-442.307 54.308C-441.717 53.687 -441.096 53.067 -440.434 52.457L-440.304 52.339H-440.307L-440.23 52.27L-439.725 51.807L-439.722 51.834C-439.096 51.282 -438.445 50.736 -437.769 50.212L-437.758 50.201C-437.75 50.198 -437.747 50.193 -437.739 50.187L-437.472 49.98L-437.455 49.966L-437.074 49.674L-437.071 49.685L-437.038 49.663C-437.022 49.652 -437.005 49.638 -436.989 49.627L-436.909 49.569H-436.906C-436.247 49.092 -435.565 48.62 -434.864 48.176V48.173L-434.814 48.137C-434.806 48.132 -434.8 48.129 -434.792 48.123L-434.621 48.015L-434.624 48.009L-434.447 47.904L-434.163 47.722L-434.16 47.73L-434.116 47.7C-434.116 47.7 -434.108 47.697 -434.105 47.694L-433.959 47.603L-433.956 47.608C-433.236 47.175 -432.497 46.758 -431.738 46.367L-431.694 46.342L-431.581 46.287L-431.148 46.063V46.071L-431.109 46.052C-430.359 45.682 -429.581 45.335 -428.792 45.009V45.001L-428.513 44.885L-428.516 44.882L-428.221 44.769L-428.077 44.711V44.714L-428.058 44.709L-427.752 44.585L-427.747 44.591C-427.027 44.318 -426.263 44.058 -425.477 43.818V43.813L-425.416 43.793L-425.421 43.788L-425.156 43.711L-424.748 43.59V43.595L-424.646 43.565C-423.73 43.303 -422.823 43.093 -421.929 42.906L-421.935 42.9L-421.778 42.867C-421.742 42.862 -421.703 42.851 -421.673 42.842L-421.678 42.837L-421.375 42.784L-421.19 42.745V42.751L-420.848 42.69L-420.82 42.685L-420.773 42.677C-420.07 42.556 -419.358 42.459 -418.641 42.368L-418.647 42.348L-418.283 42.315L-418.294 42.304L-417.315 42.221H-417.301L-417.257 42.215C-416.512 42.152 -415.773 42.119 -415.042 42.094L-415.05 42.075L-414.564 42.07L-414.583 42.056L-413.579 42.059L-413.482 42.056V42.059H-413.38C-412.547 42.062 -411.703 42.1 -410.867 42.15L-410.872 42.133L-410.502 42.158L-410.521 42.139L-409.503 42.238L-409.304 42.254H-409.298L-409.143 42.271C-408.42 42.34 -407.689 42.437 -406.958 42.539L-406.963 42.522L-406.478 42.597C-406.456 42.6 -406.445 42.603 -406.428 42.605H-406.425L-406.461 42.572L-405.153 42.812L-405.07 42.826L-404.838 42.867C-404.096 43.008 -403.348 43.17 -402.601 43.342L-402.606 43.314L-401.768 43.518L-401.704 43.537L-401.759 43.482L-399.787 44.034C-399.266 44.177 -398.744 44.343 -398.22 44.506L-398.228 44.484L-397.298 44.787C-397.113 44.848 -396.926 44.92 -396.741 44.98L-396.851 44.883L-394.401 45.802C-394.131 45.901 -393.86 46.012 -393.593 46.116L-393.604 46.094L-392.57 46.516C-392.325 46.613 -392.076 46.731 -391.834 46.833L-392.038 46.659L-389.903 47.674C-389.76 47.737 -389.616 47.79 -389.472 47.859L-389.378 47.923L-388.476 48.345L-388.498 48.301L-387.464 48.825H-387.461L-387.348 48.886C-386.631 49.247 -385.287 49.934 -383.397 50.922L-382.605 51.587L-382.591 51.565L-382.585 51.562L-382.701 51.286L-382.48 51.402L-382.386 51.452L-381.523 51.91C-380.199 52.608 -378.646 53.438 -376.963 54.338L-376.966 54.332L-376.254 54.718C-376.168 54.768 -376.094 54.806 -376.006 54.853L-375.863 54.93L-375.86 54.933L-375.372 55.201L-374.517 55.885L-374.407 55.719C-373.411 56.26 -372.352 56.836 -371.268 57.432L-371.271 57.429L-370.327 57.948C-370.302 57.964 -370.277 57.978 -370.25 57.995L-370.118 58.067L-367.572 59.474L-366.447 60.329L-366.339 60.163L-363.249 61.898L-364.03 62.182L-363.531 62.557L-363.528 62.532L-363.194 62.797L-362.797 62.656L-362.835 62.841L-362.827 62.838V62.841L-362.22 62.48L-361.977 62.612C-361.652 62.797 -361.321 62.985 -360.989 63.175L-360.65 63.368L-360.647 63.36L-360.578 63.41L-360.294 63.573L-360.324 63.592L-359.4 64.265L-359.127 64.464L-359.02 64.296L-358.747 64.453L-358.717 64.47L-358.102 64.82L-358.077 64.837L-357.969 64.895L-357.878 64.547L-357.508 65.159L-357.384 65.228L-357.392 65.231L-356.443 65.777L-356.278 65.873L-355.734 66.185V66.188L-354.68 66.798L-354.081 67.145H-354.078L-352.621 67.989L-352.618 67.983L-351.106 68.86L-351.117 68.871L-350.736 69.094L-349.812 69.635L-349.806 69.643L-349.613 69.759L-349.61 69.754L-349.32 69.928L-348.832 69.489L-348.923 70.159L-346.556 71.569L-346.553 71.564L-346.354 71.685L-346.318 71.704L-345.744 71.169L-345.841 71.991L-345.681 72.082L-345.695 72.093L-344.288 72.962L-343.551 73.483L-343.623 73.37L-341.957 74.319L-339.808 75.624L-339.802 75.621L-339.253 75.96L-339.143 76.026L-339.03 76.095C-338.084 76.669 -337.124 77.262 -336.147 77.861V77.858L-336.072 77.905C-336.022 77.935 -335.973 77.966 -335.926 77.996L-335.741 78.109L-335.518 78.233L-335.512 78.252L-335.471 78.274L-335.482 78.285L-334.37 78.994L-334.406 78.933L-331.907 80.486L-331.595 80.122L-331.584 80.685L-331.581 80.688V80.693L-331.556 80.707C-330.574 81.317 -329.575 81.949 -328.568 82.58V82.577L-328.008 82.933C-328.005 82.936 -328 82.938 -327.997 82.941L-327.785 83.073L-321.807 86.872L-325.719 85.507C-326.555 85.215 -327.366 84.933 -328.163 84.671L-328.472 84.563V84.555L-328.712 84.475L-330.723 83.819L-330.72 83.827L-331.528 83.562L-331.994 83.41L-332.264 83.33V83.325C-332.579 83.223 -332.885 83.124 -333.191 83.03L-333.886 82.818V82.815C-334.432 82.649 -334.973 82.484 -335.494 82.324L-335.497 82.473L-335.844 82.222L-336.341 82.073C-336.791 81.943 -337.216 81.825 -337.64 81.701L-339.207 81.265V81.27L-339.571 81.162L-339.955 81.057V81.049L-339.977 81.043L-341.235 80.726C-341.878 80.563 -342.493 80.412 -343.086 80.271L-343.111 80.265L-343.525 80.707L-343.481 80.175H-343.487C-343.826 80.092 -344.166 80.018 -344.491 79.946L-344.695 79.896L-344.701 79.885L-345.854 79.651C-346.146 79.59 -346.422 79.538 -346.698 79.48V79.486L-348.121 79.216C-348.648 79.128 -349.131 79.05 -349.586 78.984L-349.716 78.965L-349.581 79.21L-349.912 78.937L-350.625 78.834L-350.705 78.831C-351.42 78.745 -352.029 78.685 -352.553 78.649L-352.732 78.638L-352.823 78.635C-353.229 78.608 -353.565 78.602 -353.855 78.602L-353.921 78.944L-354.327 78.602L-354.437 78.605C-354.636 78.613 -354.782 78.627 -354.878 78.638L-354.831 78.735L-355.137 78.677H-355.14L-355.336 78.644L-355.777 78.564C-356.354 78.462 -356.925 78.365 -357.498 78.272L-357.529 78.267L-358.301 78.957L-358.116 78.176L-358.24 78.154L-360.372 77.864H-360.375L-361.111 77.765L-362.805 77.577C-363.028 77.552 -363.252 77.533 -363.478 77.505L-363.743 77.483L-363.781 77.637L-363.98 77.46L-364.162 77.443C-364.794 77.383 -365.42 77.336 -366.046 77.289L-366.212 78.023L-366.474 77.446L-366.937 77.794L-366.813 77.239C-367.508 77.197 -368.201 77.159 -368.89 77.134L-370.203 77.09L-371.052 77.73L-370.856 77.068L-371.485 77.057L-373.275 77.043V77.04L-373.885 77.043L-373.954 76.977L-374.045 77.046L-375.921 77.077H-375.924L-377.218 77.124L-378.52 77.176L-378.523 77.179L-378.584 77.182L-379.227 77.607L-379.136 77.218C-379.652 77.243 -380.165 77.279 -380.675 77.312L-380.669 77.32L-382.222 77.428L-382.401 77.447L-382.525 77.524L-382.586 77.46L-382.63 77.466C-383.653 77.56 -384.666 77.662 -385.664 77.78L-385.918 78.547L-386.271 77.852L-386.423 77.871L-386.445 77.882L-386.442 77.874L-386.693 77.904L-386.952 77.94L-386.955 77.937L-386.975 77.94C-388.056 78.075 -389.124 78.23 -390.175 78.395L-390.261 78.409L-390.258 78.42L-390.674 78.483L-390.978 78.66L-391.019 78.536L-391.38 78.591L-391.388 78.585L-391.705 78.635L-393.898 78.994L-392.135 77.816L-392.138 77.813L-390.761 76.897V76.902C-390.234 76.557 -389.666 76.19 -389.064 75.804L-389.067 75.798L-388.485 75.434L-388.411 75.387L-387.426 74.772V74.767L-387.095 74.563C-387.048 74.533 -386.993 74.502 -386.946 74.472L-386.764 74.359C-386.444 74.16 -386.121 73.962 -385.787 73.758L-385.464 73.565V73.568L-385.334 73.491L-385.331 73.486L-385.163 73.384C-385.047 73.315 -384.92 73.243 -384.805 73.172L-384.413 72.935V72.943C-384.082 72.744 -383.757 72.551 -383.414 72.353V72.348L-383.199 72.227L-382.749 71.962V71.968L-382.581 71.871C-381.969 71.518 -381.339 71.165 -380.697 70.806L-380.639 70.775L-380.636 70.77L-380.335 70.604L-379.734 70.273L-379.739 70.281L-379.557 70.184L-379.56 70.179L-379.182 69.975C-379.105 69.936 -379.027 69.895 -378.953 69.856L-378.887 69.82C-378.363 69.539 -377.836 69.254 -377.295 68.976L-377.143 68.899L-377.104 68.722L-376.993 68.821L-376.949 68.796C-376.447 68.537 -375.939 68.28 -375.426 68.024L-374.968 67.792L-374.965 67.795C-374.912 67.77 -374.863 67.743 -374.808 67.718L-374.819 67.71L-373.492 67.078L-373.489 67.075L-373.279 66.976C-373.196 66.937 -373.111 66.899 -373.028 66.86L-372.606 66.659L-372.609 66.662C-372.499 66.609 -372.383 66.56 -372.275 66.505V66.502L-371.881 66.323C-371.856 66.312 -371.828 66.298 -371.804 66.287L-371.586 66.188L-371.649 66.045L-371.522 66.155L-371.334 66.075L-370.893 65.871V65.876L-370.344 65.633L-370.341 65.628L-370.038 65.495L-369.475 65.241L-369.525 65.453L-369.511 65.445L-369.017 65.161L-369.014 65.164L-368.344 64.778L-367.8 64.552L-367.803 64.544L-367.301 64.348L-367.097 64.26L-367.092 64.265L-367.059 64.251L-367.032 64.265L-366.996 64.146L-366.932 64.199L-366.805 64.149C-366.463 64.014 -366.118 63.881 -365.773 63.749L-365.778 63.744L-365.212 63.532C-365.212 63.532 -365.204 63.529 -365.201 63.529L-364.947 63.435C-364.516 63.275 -364.083 63.118 -363.65 62.963L-364.042 62.188L-364.867 62.489L-364.978 62.528C-365.411 62.688 -365.847 62.853 -366.283 63.022L-367.469 63.494L-367.466 63.499L-368.404 63.869L-368.448 63.888C-369.06 64.145 -369.684 64.409 -370.307 64.683L-370.536 64.785C-370.853 64.923 -371.176 65.066 -371.499 65.213L-371.75 65.326L-372.644 65.737L-372.887 65.853C-373.651 66.209 -374.424 66.578 -375.196 66.962L-375.271 67.001L-375.061 67.492L-375.489 67.106L-375.492 67.103L-375.804 67.263C-376.574 67.646 -377.33 68.032 -378.075 68.421L-378.196 68.487L-379.311 69.08L-381.057 70.035C-381.807 70.449 -382.533 70.86 -383.239 71.268L-383.413 71.367L-383.711 71.568L-383.727 71.549C-384.67 72.103 -385.581 72.641 -386.439 73.163L-386.511 73.21L-387.57 73.858C-388.188 74.244 -388.786 74.617 -389.347 74.978L-389.675 75.19V75.187C-390.199 75.524 -390.704 75.852 -391.165 76.153L-391.308 76.25L-392.207 76.849L-392.577 77.094C-393.634 77.809 -394.445 78.371 -394.969 78.747L-394.666 79.726L-395.347 79.017L-395.353 79.02H-395.355L-395.987 79.467C-396.939 79.666 -397.86 79.875 -398.767 80.085L-399.222 80.195L-399.214 80.223L-399.236 80.201L-399.884 80.355C-400.949 80.612 -401.983 80.882 -402.99 81.155L-404.206 81.495C-405.213 81.776 -406.187 82.066 -407.127 82.358L-407.419 82.449L-407.422 82.446L-407.778 82.562V82.565L-408.205 82.7C-409.055 82.97 -409.866 83.246 -410.655 83.514L-412.426 84.14L-412.611 84.209C-413.353 84.479 -414.067 84.744 -414.744 85.006L-414.976 85.1C-415.387 85.257 -415.782 85.412 -416.168 85.569L-416.527 85.715C-417.297 86.027 -418.008 86.327 -418.668 86.612L-418.93 86.728C-419.41 86.935 -419.849 87.134 -420.265 87.318L-420.522 87.434C-421.206 87.748 -421.794 88.03 -422.293 88.27L-422.376 88.309L-422.478 88.361C-423.496 88.863 -424.037 89.161 -424.042 89.167L-424.213 89.261V89.264L-424.492 89.421L-424.914 89.666V89.663L-426.572 90.607L-427.96 91.393V91.396L-429.715 92.395L-431.544 93.435V93.438L-433.279 94.423V94.426L-436.098 96.029L-437.08 96.586L-437.259 96.691L-437.767 96.978L-438.942 97.648V97.651L-440.992 98.815H-440.989L-442.653 99.758L-444.314 100.704L-444.311 100.707L-445.564 101.413V101.419L-448.369 103.014V103.011L-448.535 103.108L-448.577 103.133L-449.275 103.536V103.531L-451.556 104.828V104.831L-452.861 105.573L-452.872 105.568L-454.632 106.545L-454.629 106.578L-457.432 108.172L-457.953 108.47L-458.187 108.603L-460.002 109.637V109.64L-462.631 111.135L-465.205 112.6V112.625H-468.987V114.752L-470.764 115.764L-470.758 115.21L-472.259 116.065V114.567L-473.983 116.288C-473.396 114.349 -472.279 110.846 -470.654 106.379ZM-481.162 -23.054C-481.294 -23.512 -480.503 -24.395 -479.785 -25.076C-479.691 -24.505 -479.352 -23.956 -479.352 -23.956C-479.876 -24.006 -481.162 -23.054 -481.162 -23.054ZM-479.824 -26.577L-479.73 -26.602L-481.686 -24.296C-483.206 -26.29 -479.824 -26.577 -479.824 -26.577ZM-503.319 -22.814C-502.737 -23.454 -502.627 -24.863 -502.627 -24.863C-500.817 -24.863 -499.769 -22.386 -499.769 -22.386C-500.831 -23.512 -502.406 -23.161 -503.319 -22.814ZM-500.961 -25.153L-499.916 -25.244L-499.77 -24.243C-500.183 -24.648 -500.583 -24.941 -500.961 -25.153ZM-540.771 58.608C-540.939 57.824 -540.567 56.942 -540.567 56.942C-539.853 57.317 -539.378 56.327 -539.378 56.327L-538.594 56.297C-537.606 55.445 -538.423 54.493 -538.423 54.493C-538.357 54.151 -539.615 53.439 -539.615 53.439C-540.161 52.86 -539.345 52.178 -539.345 52.178H-526.007C-525.226 52.247 -525.908 53.403 -525.908 53.403C-526.418 53.742 -525.737 54.051 -525.668 54.22C-525.599 54.391 -525.329 54.901 -524.887 55.445C-524.446 55.988 -524.647 56.739 -524.647 56.739C-524.956 57.045 -524.956 58.847 -524.956 58.847L-524.104 118.034C-524.749 118.1 -524.446 118.986 -524.446 118.986H-524.683C-524.614 119.734 -525.193 120.037 -525.193 120.037C-525.737 120.211 -525.397 120.856 -525.397 120.856L-537.847 121.093C-537.133 120.516 -538.117 120.072 -538.117 120.072C-538.765 119.937 -538.558 119.018 -538.558 119.018V118.781C-538.084 118.166 -539.173 118.066 -539.173 118.066C-538.999 117.625 -539.407 117.522 -539.407 117.522L-540.872 59.356C-540.297 59.049 -540.771 58.608 -540.771 58.608ZM-561.723 56.602C-560.294 56.632 -560.126 55.543 -560.126 55.543C-559.853 54.15 -561.384 53.642 -561.384 53.642C-562.029 53.2 -561.315 52.519 -561.315 52.519L-547.199 52.345C-547.95 52.519 -547.403 53.672 -547.403 53.672C-548.117 53.537 -548.256 54.422 -548.256 54.422C-549.55 54.422 -548.529 56.223 -548.529 56.223C-548.797 56.46 -548.598 56.871 -548.598 56.871C-548.289 57.519 -546.962 57.21 -546.962 57.21C-546.658 57.345 -546.658 58.57 -546.658 58.57C-547.133 58.909 -546.586 59.389 -546.586 59.389L-546.247 117.655C-546.658 117.79 -546.625 118.199 -546.625 118.199C-547.166 118.268 -546.893 119.187 -546.893 119.187C-546.587 119.424 -546.827 119.968 -546.827 119.968C-547.881 120.139 -547.539 121.127 -547.539 121.127L-559.55 121.191C-558.325 120.719 -559.685 120.14 -559.685 120.14C-560.295 119.867 -560.024 119.393 -560.024 119.393C-559.82 119.225 -560.228 119.117 -560.228 119.117C-559.754 118.474 -560.568 118.336 -560.568 118.336C-560.328 117.862 -560.838 117.693 -560.838 117.693L-562.372 59.116C-562.165 58.879 -562.438 58.608 -562.438 58.608C-562.608 57.755 -561.723 56.602 -561.723 56.602ZM-583.494 59.286C-583.596 58.809 -583.152 57.689 -583.152 57.689C-582.032 57.521 -581.624 56.533 -581.624 56.533C-580.639 54.321 -583.119 53.504 -583.119 53.504C-583.086 53.3 -582.779 52.927 -582.779 52.927L-569.819 52.756C-568.594 53.846 -570.771 55.137 -570.771 55.137C-571.449 55.647 -570.398 56.803 -570.092 56.737C-569.786 56.665 -568.729 57.007 -568.729 57.007C-568.117 57.451 -568.321 58.709 -568.321 58.709C-568.63 59.115 -568.288 59.319 -568.288 59.319L-567.846 117.281C-567.777 117.891 -568.188 118.371 -568.188 118.371C-569.071 118.677 -568.389 119.254 -568.389 119.254C-568.593 119.287 -568.494 119.458 -568.494 119.458C-568.425 119.836 -568.797 120.208 -568.797 120.208C-569.545 120.478 -569.274 121.229 -569.274 121.229L-581.078 121.364C-581.078 121.364 -581.961 121.703 -581.078 121.229C-580.192 120.752 -581.315 120.139 -581.315 120.139C-581.588 119.899 -581.45 119.325 -581.45 119.325C-581.144 119.049 -581.588 119.085 -581.588 119.085C-581.009 118.608 -581.858 118.439 -581.858 118.439C-582.198 118.403 -582.368 117.59 -582.368 117.59L-583.557 59.763C-583.086 59.626 -583.494 59.286 -583.494 59.286ZM-604.446 57.995C-603.017 56.941 -603.185 56.326 -603.494 55.953C-603.8 55.578 -603.56 54.965 -603.698 54.56C-603.833 54.149 -604.686 53.437 -604.686 53.437L-591.69 53.059L-591.012 53.641C-593.122 54.422 -592.27 55.646 -592.066 55.92C-591.862 56.19 -591.895 56.566 -591.862 56.767C-591.829 56.974 -591.043 57.247 -591.043 57.247C-591.625 58.097 -590.671 58.571 -590.671 58.571L-589.65 58.607C-589.824 58.808 -589.581 59.457 -589.581 59.457C-589.788 59.763 -589.482 60.036 -589.482 60.036L-589.383 117.281C-589.347 117.891 -590.062 118.335 -590.062 118.335C-590.707 118.644 -590.092 119.392 -590.092 119.392C-589.824 119.596 -590.161 119.969 -590.161 119.969C-590.945 120.377 -590.74 121.161 -590.74 121.161H-602.746C-602.169 120.582 -603.088 120.071 -603.088 120.071C-603.463 119.732 -603.289 119.425 -603.289 119.425C-603.019 119.224 -603.43 119.05 -603.43 119.05C-602.92 118.44 -603.733 118.335 -603.733 118.335C-603.394 118.065 -603.835 117.792 -603.835 117.792L-604.582 58.094C-605.79 58.98 -604.582 58.028 -604.582 58.028V58.094C-604.543 58.062 -604.496 58.029 -604.446 57.995ZM-625.095 60.716C-624.924 60.343 -624.924 60.172 -625.023 59.899C-625.125 59.626 -624.516 58.266 -624.516 58.266L-624.174 57.791C-622.273 55.579 -624.99 54.357 -624.99 54.357C-624.651 54.252 -624.753 53.811 -624.753 53.811L-611.796 53.778C-610.844 54.084 -611.184 55.375 -611.418 55.138C-611.658 54.901 -612.439 55.204 -612.439 55.204C-611.796 55.748 -612.847 56.534 -612.847 56.534C-612.916 57.588 -611.25 57.792 -611.25 57.792C-611.115 58.165 -610.605 58.029 -610.605 58.029C-610.605 58.029 -610.776 117.318 -610.809 117.657C-610.845 117.996 -611.251 118.371 -611.251 118.371C-612.07 118.539 -611.521 119.05 -611.521 119.05C-611.83 119.116 -611.59 119.392 -611.59 119.392C-611.149 119.899 -611.968 120.344 -611.968 120.344C-612.542 120.65 -612.373 121.127 -612.373 121.127L-623.223 120.887C-622.542 120.412 -623.427 119.968 -623.427 119.968C-623.736 119.968 -623.766 119.628 -623.766 119.628C-623.562 118.845 -624.312 118.883 -624.312 118.883C-624.072 118.163 -624.825 118.03 -624.825 118.03L-624.787 65.001C-624.787 65.001 -624.889 62.347 -624.991 62.038C-625.095 61.736 -625.266 61.091 -625.095 60.716ZM-646.072 64.776C-646.127 64.583 -645.788 64.205 -645.482 63.915C-645.441 64.158 -645.294 64.39 -645.294 64.39C-645.517 64.371 -646.072 64.776 -646.072 64.776ZM-645.501 63.27L-645.459 63.259L-646.292 64.249C-646.943 63.391 -645.501 63.27 -645.501 63.27ZM-655.539 64.875C-655.288 64.605 -655.244 64.003 -655.244 64.003C-654.469 64.003 -654.022 65.062 -654.022 65.062C-654.474 64.583 -655.15 64.732 -655.539 64.875ZM-659.611 64.776C-659.669 64.583 -659.33 64.205 -659.026 63.915C-658.982 64.158 -658.838 64.39 -658.838 64.39C-659.062 64.371 -659.611 64.776 -659.611 64.776ZM-659.043 63.27L-658.999 63.259L-659.835 64.249C-660.486 63.391 -659.043 63.27 -659.043 63.27ZM-669.081 64.875C-668.833 64.605 -668.786 64.003 -668.786 64.003C-668.014 64.003 -667.567 65.062 -667.567 65.062C-668.019 64.583 -668.692 64.732 -669.081 64.875ZM-691.12 73.742L-690.993 73.017L-690.692 72.633L-682.962 72.592C-683.517 72.802 -682.92 73.571 -682.92 73.571C-682.448 73.143 -682.534 74.084 -682.534 74.084C-682.746 74.211 -682.534 74.639 -682.534 74.639L-682.28 89.585C-682.492 89.673 -682.448 90.098 -682.448 90.098C-682.79 90.057 -683.345 90.611 -683.345 90.611L-683.389 90.098L-687.916 90.14C-688.815 90.226 -688.984 91.381 -688.984 91.381L-689.925 91.467V90.786C-689.925 90.058 -690.435 90.185 -690.435 90.185C-690.308 90.058 -690.647 89.931 -690.647 89.931C-690.349 89.713 -690.821 89.12 -690.821 89.12L-691.205 74.64L-690.993 74C-690.778 73.998 -691.12 73.742 -691.12 73.742ZM-704.914 74.638L-695.049 74.514L-695.005 90.225H-696.588C-696.588 90.225 -697.057 90.057 -697.101 90.652V91.292H-698.036C-698.036 91.292 -698.124 90.611 -698.679 90.611H-699.148C-699.148 90.611 -699.106 90.269 -699.62 90.225H-704.743V89.93H-704.914C-704.914 89.93 -704.66 89.502 -705.126 89.329L-704.914 74.638ZM-700.047 98.625C-700.047 98.625 -689.575 98.214 -687.744 109.924H-688.395L-688.276 110.28C-688.276 110.28 -689.28 110.636 -688.158 111.287C-688.158 111.287 -688.514 112.468 -687.683 113.003L-687.636 125.108H-702.582C-702.588 125.13 -702.596 125.158 -702.576 125.183C-702.463 125.318 -704.427 126.678 -704.317 126.736C-704.201 126.785 -704.607 126.981 -704.722 127.009C-704.766 127.017 -704.896 127.059 -705.025 127.108C-704.868 126.388 -704.926 126.051 -704.901 125.652C-704.882 125.376 -704.799 125.271 -704.733 125.108H-712.195L-712.292 112.824C-712.292 112.824 -711.85 112.821 -711.897 111.555C-711.897 111.555 -711.486 111.365 -711.486 110.956L-711.401 110.929V110.711L-712.146 110.225C-712.146 110.225 -711.581 99.397 -700.047 98.625ZM-718.152 78.868L-718.066 74.341C-717.768 74.126 -717.939 74.084 -717.939 74.084C-718.24 73.913 -717.641 73.356 -717.641 73.356C-717.34 73.229 -717.553 72.76 -717.553 72.76H-709.227C-708.711 72.887 -708.844 74.211 -708.844 74.211C-709.186 74.341 -708.844 74.854 -708.844 74.854L-709.272 89.712H-709.526V90.057C-709.782 90.013 -709.998 90.485 -709.998 90.485L-709.954 91.464L-710.851 91.55L-710.807 91.293L-711.406 90.526C-711.621 90.225 -712.09 90.355 -712.09 90.355H-716.107C-716.107 90.355 -716.107 90.355 -716.234 90.355C-716.361 90.355 -716.405 90.399 -716.491 90.57C-716.574 90.741 -716.535 90.998 -716.659 90.912C-716.789 90.824 -716.703 90.485 -716.703 90.485C-716.703 90.485 -717.045 90.57 -717.26 90.443C-717.475 90.313 -717.812 90.269 -717.812 90.269V89.971H-718.068C-717.983 89.712 -718.325 89.372 -718.325 89.372L-718.283 80.062C-718.881 79.51 -718.152 78.868 -718.152 78.868Z" fill="#CAB59D"/>
</svg>
