<svg width="380" height="342" viewBox="0 0 380 342" fill="none" xmlns="http://www.w3.org/2000/svg">
<path d="M8.56667 128.287C9.13867 128.373 9.56 128.619 9.808 128.764C10.0493 128.905 10.156 128.963 10.352 128.963C10.484 128.963 10.6413 128.935 10.8173 128.883C11.1773 128.773 11.444 128.696 11.644 128.635C12.0253 128.191 12.5933 127.637 13.68 126.811C13.6467 126.756 13.616 126.7 13.5867 126.644C13.2547 126.551 12.9133 126.415 12.556 126.236C11.936 126.736 11.092 127.232 9.91334 127.685C9.49334 127.847 9.15867 127.975 8.89467 128.077C8.78267 128.155 8.67334 128.224 8.56667 128.287ZM323.592 341.343C318.236 341.343 316.117 339.461 314.248 337.803C313.575 337.204 312.937 336.639 312.107 336.119C308.907 334.12 308.209 332.769 307.056 330.143C306.752 329.453 306.392 328.631 305.88 327.607C304.588 325.021 304.432 323.98 304.285 322.495C304.187 321.491 304.063 320.241 303.092 317.139C301.592 312.336 292.315 307.083 289.184 305.621L288.84 305.461L285.509 302.547L278.781 300.677L274.111 301.456C272.417 301.739 270.756 301.883 269.18 301.883C266.421 301.883 264.796 301.44 264.619 301.389L264.463 301.345L252.508 296.288L246.729 291.035L245.605 285.983V285.689C245.604 285.689 245.433 282.361 241.723 277.167C239.628 274.233 239.009 274.233 238.64 274.233C237.991 274.233 236.933 274.537 235.593 274.92C234.463 275.245 233.053 275.649 231.335 276.031C230.769 276.157 230.255 276.272 229.809 276.371C229.28 277.485 228.161 278.361 226.98 279.149C225.211 280.328 224.749 280.824 224.412 281.184C223.329 282.341 222.685 282.736 217.709 284.671C215.076 285.695 212.695 286.215 210.629 286.215C207.056 286.215 205.309 284.68 204.707 283.992L201.283 280.568C198.996 278.28 198.225 275.949 198.156 274.072L194.844 273.005C193.683 274.549 191.3 278.072 187.111 285.663C183.871 291.536 182.401 293.756 179.805 293.756C178.612 293.756 177.74 293.183 177.104 292.765C176.419 292.315 175.877 291.959 174.684 291.959C174.107 291.959 173.437 292.049 172.695 292.224C171.369 292.541 169.945 292.7 168.461 292.7C159.908 292.7 151.319 287.425 150.157 286.685L139.317 281.049C132.56 277.535 132.431 277.468 132.697 275.465V275.464C132.384 275.159 131.952 274.757 131.356 274.24C123.161 267.131 122.58 259.264 122.56 258.933L121.679 250.8V243.476L120.499 237.577C119.395 235.64 117.755 233.371 116.867 232.815C115.904 233.185 114.133 233.82 110.528 234.535C110.707 235.024 110.809 235.577 110.809 236.205C110.809 238.516 110.809 239.064 110.112 239.995H110.113C110.121 239.995 109.884 240.516 109.427 242.497C108.181 247.899 104.888 248.483 103.531 248.483C102.921 248.483 102.373 248.38 101.919 248.244L94.9213 250.577L84.8627 242.636L81.3453 232.588L81.8413 227.619C81.92 226.839 81.948 226.257 81.9507 225.833L74.184 224.421H71.468L71.1493 224.341C70.0173 224.059 59.9707 221.483 55.708 218.167C51.176 214.643 53.5933 210.645 55.3573 207.727C56.2027 206.328 57.1627 204.743 57.9347 202.809C58.12 202.345 58.2707 201.949 58.392 201.612C58.064 201.635 57.7133 201.651 57.3453 201.651H50.7L44.9893 199.365L37.356 197.911L35.896 196.032H33.028L31.4147 191.549L33.0107 187.024L32.576 186.733L25.5893 187.433L22.1987 183.557L18.1453 176.261L20.3373 171.087L23.1413 165.729L24.0573 159.923C24.376 157.903 24.9707 154.145 28.048 154.145C28.4627 154.145 28.856 154.223 29.2227 154.375L31.5573 152.429L39.5147 149.316L46.1973 146.633L48.16 144.628L50.956 139.316V136.391L48.4147 131.771L35.1373 131.481L33.9653 131.716L27.6747 133.917L15.22 139.453L6.70268 138.033L5.68534 132.944C5.36934 131.367 5.16133 130.324 6.03733 129.255L6.224 129.028C6.15333 129.031 6.084 129.032 6.012 129.032C2.88134 129.032 0.818669 125.895 0.436003 125.267L0 124.547L0.0560059 123.705C0.0693392 123.493 0.414666 118.468 1.45733 114.641C1.73733 113.613 2.80934 111.225 6.69867 111.225C9.38401 111.225 12.7293 112.392 14.4813 113.085C19.32 110.781 26.5973 106.645 28.3827 103.84C28.8067 103.175 29.016 102.751 29.1187 102.504C29.1067 102.492 29.0947 102.479 29.084 102.465C28.4427 101.724 27.3693 100.485 27.1067 98.1214C26.9827 97.0081 26.612 96.2347 26.0987 95.1627C25.1747 93.2361 24.0253 90.8374 24.0253 86.0028C24.0253 83.9961 24.0253 77.8867 28.3133 77.8867C28.4053 77.8867 28.4947 77.8907 28.5813 77.8974L37.72 73.1294C39.9813 71.9494 41.7373 71.4001 43.2453 71.4001C44.9213 71.4001 46.2947 72.1081 47.116 73.3934C48.064 74.8787 48.0133 76.8281 47.636 78.5881C50.508 78.5654 54.6613 78.3801 59.1187 77.6761C64.8853 76.7668 64.7853 72.2241 64.7547 71.7094L64.7507 71.5521V68.7961C63.9693 67.4894 62.1307 64.3161 59.7773 59.6081C58.3267 56.7054 58.0227 54.0987 58.8733 51.8574C59.4907 50.2374 60.5733 49.2307 61.3973 48.6627L63.3947 44.2681L63.6413 43.9801C63.756 43.8454 66.552 40.6174 72.8733 36.1014C75.8627 33.9681 77.112 33.5388 78.16 33.5388C79.2947 33.5388 80.2813 34.1161 80.8 35.0841C80.9667 35.3961 81.0747 35.7241 81.1253 36.0667C84.864 37.3214 92.52 40.0588 101.383 44.1734C110.256 48.2934 112.053 49.7201 111.503 52.2148C111.496 52.2468 111.488 52.2788 111.479 52.3121L115.712 59.7201L119.101 65.3654C121.596 66.1094 128.743 68.0494 135.412 68.0481C135.916 68.0481 136.42 68.0374 136.917 68.0134C137.56 67.9828 138.065 67.9308 138.46 67.8721C138.332 67.7574 138.205 67.6534 138.095 67.5721L137.639 67.2374L134.387 61.5468L126.859 59.3321L126.339 58.2947C126.135 57.8867 125.143 55.6054 125.632 50.7054C125.635 50.6828 125.637 50.6601 125.64 50.6361C124.919 50.9188 124.22 51.0587 123.533 51.0587C121.609 51.0587 120.213 49.9241 119.517 48.6454L110.663 40.8307L112.14 38.8601C112.439 38.4627 115.307 34.8108 123.797 29.4481C125.82 28.1708 127.243 27.2921 128.037 26.8294C128.129 26.7521 128.239 26.6627 128.372 26.5547C129.671 25.2654 135.623 14.6028 140.591 5.07209L141.067 4.15874L148.525 1.41076L157.691 7.98538e-05L166.991 1.1161L175.973 8.02541C177.317 8.80274 178.807 9.56275 179.5 9.83341C180.747 9.51608 184.292 8.31209 187.345 7.20942L191.256 4.36541L200.775 3.57342L211.817 10.5788L216.379 16.8947L220.667 23.3108L221.875 28.9468L220.337 36.6374L215.769 42.8521L207.877 44.5708L205.095 46.8881C204.621 48.7094 203.469 53.1761 202.713 56.4441C203.604 56.5868 204.781 56.8534 205.921 57.6681C205.94 57.6814 205.991 57.7174 206.163 57.7174C206.632 57.7174 209.268 57.3854 215.203 50.8241C217.081 48.7494 219.049 47.6974 221.055 47.6974C225.744 47.6974 228.017 53.2614 228.725 55.4307L233.643 60.0587L237.064 62.4267H238.984L246.823 59.1841L249.473 49.7614L252.165 43.3667C253.691 39.7441 254.053 38.8828 255.919 38.8828C256.185 38.8828 256.529 38.9374 256.881 39.0734C257.179 38.1601 256.969 37.2001 256.955 37.1401L256.915 36.9627L256.892 36.7508C256.885 36.6774 256.233 29.2788 254.969 23.2748C253.247 15.0921 268.236 11.0841 272.871 10.0521L274.683 9.64809L278.284 15.2121L279.279 18.1987L279.415 18.1907C279.752 17.1734 280.213 15.6747 280.725 13.7267C281.359 11.3241 283.12 9.8894 285.437 9.8894C288.112 9.8894 290.799 11.9108 291.309 12.3148L291.641 12.5761L294.001 16.1187L292.529 19.4307L291.359 22.4468C291.648 22.8014 292.36 23.0494 293.317 23.1161C293.232 22.8988 293.133 22.6881 293.052 22.5508L292.244 21.1828L296.101 14.7547L302.405 11.7388H305.291L305.779 11.9401C305.975 12.0201 310.579 13.9641 312.503 18.9134C313.515 21.5134 312.944 23.2787 312.287 24.3014C310.975 26.3481 308.643 26.6534 308.045 26.6974C307.853 26.7414 306.619 27.0761 304.111 28.8454C303.631 29.1854 303.417 29.4094 303.332 29.5134C303.368 29.7321 303.501 30.1574 303.603 30.4788C303.844 31.2481 304.151 32.2294 304.291 33.4574C304.596 33.2881 304.915 33.0934 305.197 32.9028C305.751 32.0268 307.015 29.9961 307.632 28.7601C308.96 26.1054 311.371 26.1054 312.164 26.1054C312.781 26.1054 313.467 26.1641 314.259 26.2334C314.944 26.2934 315.753 26.3641 316.719 26.4121C321.548 26.6534 323.027 29.7067 324.455 32.6587C324.912 33.6041 325.429 34.6747 326.107 35.8201C328.493 39.8601 328.353 41.7574 327.923 44.5201C327.785 45.4134 327.628 46.4254 327.571 47.7974L327.547 48.3587C327.345 53.2681 327.284 54.7481 325.824 58.1521C325.256 59.4787 325.165 60.3268 325.061 61.3081C324.96 62.2614 324.845 63.3414 324.316 64.6614C323.816 65.9107 323.803 66.3348 323.731 68.3761C323.707 69.0401 323.68 69.8321 323.628 70.8174C323.612 71.1214 323.604 71.3561 323.601 71.5374C324.135 71.7934 324.844 72.1628 325.723 72.8068C325.851 72.4508 325.997 71.9041 326.113 71.4708C326.416 70.3414 326.791 68.9347 327.527 67.3587C327.66 67.0721 327.763 66.8281 327.841 66.6214L327.713 66.5708V56.2254C327.713 55.1721 328.095 53.7614 328.535 52.1281C328.736 51.3867 328.941 50.6307 329.091 49.9547C329.576 47.7694 331.088 46.9907 332.343 46.9907C333.513 46.9907 334.416 47.6321 335.011 48.2441L337.009 48.9108L337.099 48.9468C337.805 49.2414 339.857 50.0788 340.857 50.4121C344.547 51.6414 343.511 54.8614 342.311 58.5894L341.605 60.7974C341.337 61.6374 341.141 62.2454 341.115 62.3987C341.112 62.4441 341.112 62.5094 341.109 62.5961C341.095 63.1641 341.069 64.2201 340.687 67.0881C339.907 72.9414 343.156 82.4068 343.191 82.5014L343.384 83.0627L342.417 92.2641L342.325 92.5401C342.271 92.7041 340.947 96.6561 337.453 105.385C337.144 106.161 336.916 106.805 336.748 107.34L338.745 106.149L338.521 110.964V119.723C338.521 120.305 338.904 120.812 340.539 122.724C342.135 124.589 344.545 127.409 347.721 132.279C349.653 135.24 350.809 135.971 351.193 136.143C351.365 135.935 351.585 135.517 351.684 135.187L352.253 133.287L354.247 133.259H360.815C365.399 133.259 366.805 134.111 367.981 137.6C368.463 139.023 369.188 141.172 371.725 144.64C374.636 148.619 375.665 150.3 374.929 152.193C374.3 153.817 372.715 154.135 372.119 154.255C372.049 154.269 371.975 154.277 371.897 154.296C371.864 154.412 371.819 154.617 371.796 154.944C371.516 158.844 370.697 160.588 369.904 162.273C369.341 163.472 368.759 164.709 368.24 167.137C367.749 169.425 367.749 169.425 369.871 171.376C371.367 172.751 373.627 174.828 376.424 178.551C379.256 182.32 380.341 184.213 379.735 186.184C379.2 187.919 377.627 188.455 376.781 188.744C375.752 189.096 375.184 189.289 374.788 190.873C373.173 197.329 370.459 197.735 364.471 198.037C362.049 198.16 358.733 198.328 354.197 198.995C341.639 200.841 333.521 218.941 332.697 220.851L332.065 223.381L335.091 232.079C335.843 232.741 337.175 233.772 338.532 234.385L338.303 233.927L345 227.229L346.033 226.971L346.485 226.961C348.531 226.961 352.359 228.723 357.861 232.199C360.629 233.948 363.707 236.344 362.924 239.379C362.5 241.028 361.169 241.885 359.893 242.333L359.525 251.544C359.525 251.544 352.605 274.279 352.312 275.245C352.517 275.223 352.727 275.211 352.94 275.211C354.491 275.211 356.749 275.873 358.703 279.031C361.748 283.948 363.461 285.749 364.175 286.369L365.308 286.085L371.999 299.467L372.033 299.551C372.129 299.777 374.367 305.227 376.147 316.359C377.329 323.749 377.1 324.845 376.197 325.905L375.399 326.841L374.091 326.881C373.925 326.881 373.764 326.868 373.609 326.843L366.66 333.06L366.277 333.231C357.877 336.963 356.512 336.963 355.997 336.963C354.737 336.963 347.989 336.108 345.003 335.721L338.675 338.492L332.023 341.343H323.592Z" fill="#866443"/>
<path d="M51.4069 198.529C51.4069 198.529 54.0335 198.529 57.5375 198.529C61.0402 198.529 63.2295 196.777 60.6029 203.345C57.9749 209.914 53.5962 212.541 57.5375 215.606C61.4789 218.671 71.9882 221.299 71.9882 221.299H74.6149L84.2495 223.05C84.2495 223.05 85.1255 223.05 84.6882 227.429C84.2495 231.81 84.2495 231.81 84.2495 231.81L87.3149 240.567L95.6362 247.137L102.204 244.946C102.204 244.946 105.707 247.137 107.022 241.443C108.335 235.75 108.335 239.691 108.335 235.75C108.335 231.81 98.2629 233.561 108.335 231.81C118.407 230.057 116.218 228.743 118.407 230.057C120.596 231.371 123.224 236.189 123.224 236.189L124.538 242.757V250.202L125.414 258.311C125.414 258.311 125.851 265.313 133.295 271.77C140.74 278.227 129.792 272.535 140.74 278.227C151.688 283.921 151.688 283.921 151.688 283.921C151.688 283.921 163.074 291.365 172.27 289.175C181.466 286.985 177.962 296.619 184.968 283.921C191.975 271.221 194.164 269.47 194.164 269.47L201.312 271.77C201.312 271.77 199.858 274.723 203.36 278.227C206.864 281.73 206.864 281.73 206.864 281.73C206.864 281.73 209.054 284.795 216.936 281.73C224.818 278.665 220.439 279.979 225.694 276.477C230.948 272.973 223.066 274.723 230.948 272.973C238.832 271.221 239.707 269.031 244.086 275.162C248.464 281.293 248.464 285.234 248.464 285.234L249.34 289.175L254.158 293.554L265.544 298.371C265.544 298.371 268.61 299.247 273.864 298.371C279.118 297.494 279.118 297.494 279.118 297.494L287 299.685L290.503 302.75C290.503 302.75 303.642 308.881 305.831 315.887C308.02 322.894 306.27 321.581 308.458 325.959C310.648 330.338 310.21 331.214 313.714 333.403C317.216 335.594 317.655 338.221 323.784 338.221C329.916 338.221 331.667 338.221 331.667 338.221L337.798 335.594L344.804 332.527C344.804 332.527 354.876 333.841 356.19 333.841C357.503 333.841 365.387 330.338 365.387 330.338L373.707 322.894C373.707 322.894 375.457 327.273 373.707 316.325C371.955 305.377 369.766 300.122 369.766 300.122L364.072 288.737C364.072 288.737 362.322 289.175 356.628 279.979C350.935 270.782 344.804 290.927 350.935 270.782C357.066 250.639 357.066 250.639 357.066 250.639L357.503 239.691C357.503 239.691 364.948 239.254 356.628 233.998C348.308 228.743 346.556 229.182 346.556 229.182L341.739 233.998C341.739 233.998 343.491 237.502 339.988 237.063C336.484 236.626 332.982 233.123 332.982 233.123L329.478 223.05L330.354 219.547C330.354 219.547 339.111 198.091 354 195.901C368.89 193.71 370.642 196.777 372.392 189.77C374.144 182.763 381.394 188.894 374.486 179.698C367.575 170.502 364.51 172.254 365.824 166.123C367.138 159.991 368.89 160.43 369.328 154.299C369.766 148.169 376.334 154.738 369.766 145.761C363.196 136.783 367.575 135.47 361.007 135.47C354.439 135.47 354.439 135.47 354.439 135.47C354.439 135.47 352.248 143.351 345.68 133.281C339.111 123.207 336.047 122.333 336.047 119.267C336.047 116.202 336.047 110.509 336.047 110.509C336.047 110.509 331.667 112.698 335.17 103.941C338.674 95.182 339.988 91.2407 339.988 91.2407L340.863 82.9207C340.863 82.9207 337.36 72.8487 338.235 66.2807C339.111 59.7114 338.016 63.4341 339.55 58.6167C341.082 53.7994 341.52 52.9247 340.207 52.4861C338.892 52.0487 336.266 50.954 336.266 50.954L333.637 50.078C333.637 50.078 332.324 48.1074 331.887 50.078C331.448 52.0487 330.572 54.6754 330.572 55.7701C330.572 56.8647 330.572 59.0554 330.572 59.0554V64.31C330.572 64.31 331.667 64.7474 330.135 68.0314C328.603 71.3167 328.822 73.9434 327.288 74.8194C325.756 75.6954 329.696 79.4181 325.756 75.6954C321.815 71.9727 320.939 74.3807 321.158 70.2207C321.376 66.0621 321.158 65.4047 322.034 63.2154C322.91 61.0247 322.252 59.7114 323.566 56.6461C324.88 53.5807 324.88 52.486 325.099 47.2314C325.318 41.9767 326.85 41.5394 324.003 36.7221C321.158 31.9047 321.158 28.8394 316.778 28.6207C312.399 28.4021 311.086 27.7447 310.21 29.4954C309.334 31.2474 307.363 34.3127 307.363 34.3127C307.363 34.3127 301.89 38.4727 301.89 34.3127C301.89 30.1527 299.043 28.8394 302.766 26.2114C306.488 23.5847 308.02 23.5847 308.02 23.5847C308.02 23.5847 311.743 23.3661 310.21 19.4247C308.676 15.4834 304.955 13.9501 304.955 13.9501H303.203L298.167 16.3594L295.54 20.738C295.54 20.738 298.387 25.5554 293.57 25.3354C288.752 25.1167 288.752 21.8327 288.752 21.8327L290.284 17.8914L291.162 15.9207L289.847 13.9501C289.847 13.9501 284.592 9.79005 283.498 13.9501C282.403 18.1101 281.527 20.2994 281.527 20.2994L277.586 20.5194L276.054 15.9207L273.644 12.1994C273.644 12.1994 256.456 16.03 257.771 22.27C259.084 28.5114 259.74 36.0647 259.74 36.0647C259.74 36.0647 260.726 40.0061 257.771 41.9767C254.815 43.9474 257.443 37.7074 254.815 43.9474C252.187 50.1874 252.187 50.1874 252.187 50.1874L249.231 60.6967L239.707 64.638H236.423L232.154 61.682L226.57 56.4274C226.57 56.4274 223.614 45.2607 217.374 52.1581C211.134 59.0554 206.864 61.0247 204.564 59.3834C202.266 57.7407 199.31 59.7114 200.295 55.4421C201.28 51.1727 202.923 44.9314 202.923 44.9314L206.864 41.6487L214.41 40.006L218.031 35.0794L219.344 28.5114L218.359 23.9127L214.41 18.0007L210.148 12.1007L200.295 5.84873L192.414 6.50605L188.8 9.1327C188.8 9.1327 180.59 12.114 179.604 12.1007C178.619 12.09 174.678 9.79005 174.678 9.79005L166.139 3.22206L157.928 2.23536L149.388 3.55006L143.148 5.84873C143.148 5.84873 132.419 26.43 130.23 28.182C128.04 29.934 133.734 25.9927 125.414 31.2474C117.092 36.502 114.466 40.006 114.466 40.006L121.91 46.574C121.91 46.574 122.786 49.6394 126.727 46.574C130.668 43.5087 127.166 39.13 130.668 43.5087C134.171 47.8887 134.171 47.8887 134.171 47.8887C128.479 50.5154 128.916 46.1367 128.479 50.5154C128.04 54.8954 128.916 56.6461 128.916 56.6461L136.362 58.8354L139.864 64.966C139.864 64.966 146.432 69.7834 137.236 70.2207C128.04 70.6594 117.531 67.1554 117.531 67.1554L113.59 60.5874L108.335 51.3914C108.335 51.3914 112.714 51.8287 100.452 46.1367C88.1909 40.4434 78.1189 37.3781 78.1189 37.3781C78.1189 37.3781 80.7469 33.4367 74.6149 37.8167C68.4855 42.1954 65.8575 45.2607 65.8575 45.2607L63.6682 50.078C63.6682 50.078 59.2895 51.8287 62.3549 57.9594C65.4189 64.0914 67.6095 67.5941 67.6095 67.5941V71.0967C67.6095 71.0967 68.0469 78.5407 59.7269 79.8554C51.4069 81.1687 44.1335 80.7314 44.1335 80.7314C44.1335 80.7314 49.2175 69.7834 39.1455 75.0394C29.0735 80.2927 29.0735 80.2927 29.0735 80.2927C29.0735 80.2927 26.8842 78.5407 26.8842 85.5474C26.8842 92.554 29.5109 93.43 29.9495 97.3714C30.3869 101.313 33.8909 99.9994 30.8255 104.817C27.7602 109.633 14.7322 115.545 14.7322 115.545C14.7322 115.545 5.2082 111.275 4.22287 114.887C3.23753 118.501 2.9082 123.427 2.9082 123.427C2.9082 123.427 4.90154 126.711 7.02554 125.726C9.1482 124.741 4.87886 126.383 9.14819 124.741C13.4189 123.098 10.7909 121.457 13.4189 123.098C16.0455 124.741 15.0602 122.114 16.0455 124.741C17.0309 127.369 22.2855 123.755 17.0309 127.369C11.7762 130.981 15.0602 129.995 11.7762 130.981C8.4922 131.966 7.83487 128.682 8.4922 131.966C9.1482 135.25 9.14819 135.25 9.14819 135.25L15.0602 136.235L26.8842 130.981L33.4522 128.682L35.0949 128.354L50.2029 128.682L53.8149 135.25V139.519L50.5309 145.761L47.9029 148.445L40.6775 151.343L33.1242 154.299L29.1829 157.585C29.1829 157.585 27.8695 153.643 26.8842 159.882C25.8989 166.123 25.8989 166.123 25.8989 166.123L22.9429 171.771L21.3015 175.649L24.5855 181.559L26.8842 184.187L33.4522 183.53L36.4082 185.501L34.4375 191.085L35.0949 192.91H37.3935L39.0362 195.025L45.9335 196.338L51.4069 198.529Z" fill="#F2C794"/>
<path d="M264.759 203.782L265.747 200.359L260.612 195.355L260.545 194.302L249.552 183.703L242.309 193.183L240.467 193.71L236.912 198.186L230.46 204.902L229.407 208.719C229.407 208.719 241.256 208.983 243.1 207.798C244.669 206.788 248.241 190.043 249.268 185.084L249.267 185.095L262.389 199.7L263.18 204.44L267.327 207.864L271.013 208.194L264.759 203.782Z" fill="#866443"/>
<path d="M237.081 192.658L237.791 190.198L234.1 186.602L234.053 185.844L226.152 178.227L220.948 185.04L219.624 185.419L217.069 188.636L212.432 193.462L211.676 196.206C211.676 196.206 220.192 196.395 221.516 195.544C222.644 194.819 225.211 182.783 225.949 179.22L225.948 179.227L235.377 189.724L235.945 193.131L238.925 195.591L241.576 195.828L237.081 192.658Z" fill="#866443"/>
<path d="M285.197 188.223L285.907 185.764L282.216 182.167L282.168 181.411L274.267 173.793L269.064 180.607L267.739 180.985L265.184 184.203L260.547 189.028L259.791 191.772C259.791 191.772 268.307 191.961 269.632 191.109C270.759 190.384 273.325 178.349 274.064 174.785L274.063 174.793L283.493 185.289L284.061 188.696L287.041 191.157L289.692 191.393L285.197 188.223Z" fill="#866443"/>
<path d="M300.147 203.331L300.857 200.873L297.165 197.275L297.119 196.519L289.217 188.902L284.013 195.715L282.689 196.094L280.135 199.311L275.497 204.137L274.741 206.881C274.741 206.881 283.256 207.069 284.581 206.218C285.709 205.494 288.276 193.458 289.015 189.894L289.013 189.902L298.443 200.398L299.012 203.805L301.992 206.266L304.641 206.501L300.147 203.331Z" fill="#866443"/>
<path d="M310.328 183.661L311.037 181.2L307.348 177.605L307.3 176.848L299.399 169.23L294.196 176.044L292.869 176.422L290.315 179.638L285.679 184.465L284.921 187.209C284.921 187.209 293.437 187.397 294.763 186.546C295.891 185.822 298.457 173.786 299.196 170.222L299.195 170.23L308.625 180.726L309.193 184.133L312.173 186.594L314.823 186.829L310.328 183.661Z" fill="#866443"/>
<path d="M283.397 171.343L284.107 168.884L280.417 165.287L280.368 164.531L272.468 156.914L267.263 163.726L265.939 164.106L263.384 167.323L258.748 172.148L257.991 174.891C257.991 174.891 266.507 175.082 267.831 174.228C268.96 173.504 271.527 161.47 272.264 157.906L272.263 157.914L281.693 168.41L282.261 171.816L285.243 174.276L287.891 174.512L283.397 171.343Z" fill="#866443"/>
<path d="M257.621 181.333L258.331 178.875L254.641 175.277L254.593 174.521L246.693 166.904L241.488 173.717L240.164 174.096L237.609 177.313L232.973 182.139L232.215 184.883C232.215 184.883 240.732 185.071 242.056 184.219C243.184 183.495 245.751 171.46 246.489 167.896L246.487 167.904L255.919 178.4L256.485 181.807L259.467 184.268L262.116 184.503L257.621 181.333Z" fill="#866443"/>
<path d="M130.631 143.351L131.617 139.928L126.483 134.924L126.417 133.871L115.423 123.272L108.181 132.752L106.337 133.279L102.783 137.755L96.3307 144.47L95.2773 148.288C95.2773 148.288 107.128 148.552 108.971 147.367C110.54 146.358 114.112 129.611 115.14 124.652L115.137 124.663L128.26 139.27L129.051 144.01L133.199 147.432L136.884 147.762L130.631 143.351Z" fill="#866443"/>
<path d="M102.952 132.226L103.663 129.767L99.972 126.171L99.924 125.414L92.024 117.796L86.82 124.61L85.4946 124.988L82.94 128.204L78.304 133.031L77.5466 135.775C77.5466 135.775 86.0626 135.964 87.388 135.112C88.5146 134.387 91.0813 122.354 91.82 118.79L91.8186 118.796L101.249 129.294L101.817 132.699L104.797 135.16L107.448 135.396L102.952 132.226Z" fill="#866443"/>
<path d="M151.067 127.792L151.777 125.332L148.087 121.736L148.04 120.98L140.139 113.363L134.935 120.175L133.611 120.554L131.055 123.771L126.419 128.598L125.661 131.34C125.661 131.34 134.177 131.53 135.503 130.679C136.631 129.954 139.197 117.919 139.935 114.356L139.933 114.363L149.365 124.859L149.932 128.266L152.913 130.726L155.561 130.963L151.067 127.792Z" fill="#866443"/>
<path d="M166.017 142.901L166.726 140.441L163.037 136.845L162.989 136.087L155.088 128.47L149.885 135.284L148.56 135.662L146.005 138.88L141.368 143.705L140.612 146.449C140.612 146.449 149.128 146.638 150.452 145.787C151.58 145.062 154.146 133.027 154.885 129.463L154.884 129.471L164.314 139.967L164.882 143.374L167.862 145.834L170.512 146.071L166.017 142.901Z" fill="#866443"/>
<path d="M176.199 123.229L176.909 120.769L173.219 117.173L173.171 116.416L165.271 108.8L160.065 115.612L158.741 115.99L156.187 119.208L151.551 124.033L150.793 126.777C150.793 126.777 159.309 126.966 160.633 126.114C161.761 125.39 164.328 113.356 165.067 109.792L165.065 109.8L174.496 120.296L175.064 123.702L178.044 126.162L180.693 126.398L176.199 123.229Z" fill="#866443"/>
<path d="M149.268 110.913L149.977 108.453L146.287 104.857L146.24 104.101L138.339 96.4832L133.135 103.295L131.809 103.674L129.255 106.891L124.619 111.717L123.863 114.461C123.863 114.461 132.377 114.65 133.703 113.799C134.831 113.074 137.397 101.039 138.136 97.4752L138.135 97.4832L147.564 107.979L148.132 111.386L151.113 113.846L153.763 114.082L149.268 110.913Z" fill="#866443"/>
<path d="M123.492 120.903L124.201 118.443L120.512 114.847L120.465 114.089L112.564 106.473L107.36 113.285L106.035 113.664L103.48 116.881L98.844 121.707L98.0867 124.451C98.0867 124.451 106.603 124.64 107.927 123.789C109.055 123.064 111.621 111.029 112.36 107.465L112.359 107.473L121.789 117.969L122.357 121.376L125.337 123.836L127.987 124.073L123.492 120.903Z" fill="#866443"/>
<path d="M60.6401 113.565C60.6401 113.565 63.0468 111.827 67.3095 109.156" stroke="#866443" stroke-width="2.66667" stroke-miterlimit="10"/>
<path d="M81.6309 100.944C108.927 86.6214 157.487 68.3948 194.5 94.2974C248.94 132.396 144.718 187.133 162.234 231.8C177.491 270.704 267.16 217.208 299.592 232.869" stroke="#866443" stroke-width="2.66667" stroke-miterlimit="10" stroke-dasharray="16.52 16.52"/>
</svg>
