<svg width="73" height="33" viewBox="0 0 73 33" fill="none" xmlns="http://www.w3.org/2000/svg">
<g clip-path="url(#clip0_2002_1158)">
<path d="M239.066 30.6009C239.081 30.6519 239.091 30.7027 239.098 30.7505L248.607 32.118L247.209 32.4619H0L0.406601 32.1104H1.77438V31.6897H2.25575L2.42099 31.7495V32.0709H2.88994V31.8762H3.22781V30.4565H3.84933V28.8706H6.47734V28.6918H7.6564V25.9066H8.39456V28.6918H9.20567V27.9385H10.3111V28.7522C10.3565 28.7294 10.3866 28.7255 10.3866 28.7255C10.4607 28.1926 10.8585 28.3449 10.8585 28.3449L11.2318 19.3553C11.0081 19.2796 10.9464 18.8225 10.9464 18.8225L10.9084 17.5392C10.7961 17.4385 10.9084 17.1845 10.9084 17.1845C11.0207 16.9941 10.8836 17.0317 10.8836 17.0317L10.8212 16.2958C10.6478 16.3212 10.3249 16.1811 10.3249 16.1811C9.87668 16.1557 9.96326 15.6355 9.96326 15.6355L10.237 15.5465C10.2494 15.3817 10.4738 15.0893 10.4738 15.0893L10.6727 15.102C10.5479 15.204 10.8467 15.4198 10.8467 15.4198L16.2808 14.1745L17.2004 14.1122L17.1887 14.3402L17.9725 14.2009L17.9594 14.6324L18.1214 14.6578L18.0965 14.9372L17.8353 14.9119L17.847 15.3561L17.897 15.3815L17.8726 15.7869L18.1707 15.6856L19.8497 15.648C20.2106 15.6607 20.0854 15.9268 20.0854 15.9268L30.158 16.3459L30.17 15.6729C29.8719 15.5462 30.109 15.2795 30.109 15.2795L31.1034 15.2412L32.5704 15.711L32.9931 15.6727L33.0062 15.7371L33.18 15.711C33.1924 15.1909 33.4905 15.3302 33.4905 15.3302V15.0125C33.453 14.8477 33.6901 14.6573 33.6901 14.6573L34.2991 14.7083L34.4481 14.6319L35.2685 14.6065L35.3302 14.6702L35.3677 14.5932L36.2263 14.5302L36.8736 14.4925L36.947 14.5429L37.0219 14.4542L37.4944 14.4415L37.5069 14.4925C37.5444 14.5175 37.8305 14.4792 37.8305 14.4792C38.0169 14.5175 38.1291 14.4162 38.1291 14.4162L38.9364 14.3774L39.0243 14.4545L39.086 14.3774L40.056 14.3278L40.1177 14.4035L40.2305 14.3278L41.2497 14.238L41.2746 14.3144C41.4604 14.3144 41.8084 14.2004 41.8084 14.2004H42.3197L42.3814 14.2895L42.5054 14.1743L43.6987 14.1496L43.7119 14.0739L43.5247 14.0485C43.2886 13.7308 43.5747 13.4132 43.5747 13.4132C43.5747 13.4132 44.4195 13.3629 44.5074 13.4132C44.5946 13.4642 44.5946 13.3375 44.5946 13.3375L45.0792 13.3122C45.1047 13.071 45.7882 13.0964 45.7882 13.0964L45.8512 12.6902L46.9324 12.6392L47.8159 12.3981L48.5491 12.4108L48.6487 12.4738L48.7235 12.6265L49.3326 12.6139L49.3819 12.8679C49.3819 12.8679 49.93 12.6769 50.1038 12.6769C50.2771 12.6769 50.1038 12.9053 50.1038 12.9053C50.1038 12.9053 50.1038 12.969 50.2527 12.969C50.4016 12.969 50.2895 12.6646 50.2895 12.6646L51.3407 12.3743C51.3389 12.3577 51.3364 12.3406 51.3346 12.3215C51.2605 11.7122 52.1301 11.7376 52.1301 11.7376C52.1301 11.7376 52.6276 11.6739 52.8888 11.6866C53.1501 11.6993 53.1126 11.8643 53.1126 11.8643L54.4551 11.4835C54.1821 11.3308 55.202 11.2175 55.202 11.2175C55.4626 11.1787 55.5498 11.4962 55.5498 11.4962C55.7119 11.5089 55.8104 11.8897 55.8104 11.8897L55.8353 11.5726L56.2959 11.5472L56.3083 11.0894L57.9374 11.1404L57.9493 11.6739L58.372 11.6993L58.534 11.8133V11.6356C58.534 11.6356 58.4348 11.6102 58.584 11.6356C58.7329 11.661 58.7829 11.8521 58.7829 11.8521C58.7829 11.6102 58.9566 11.3689 58.9566 11.3689C59.1307 11.2805 59.0938 10.836 59.0938 10.836C59.118 10.4038 59.3296 10.5055 59.3296 10.5055L63.856 12.0932L63.8693 11.9151H65.0633C65.0633 11.9151 66.5552 12.4862 66.7299 12.5504C66.9033 12.6134 66.8671 12.7281 66.8671 12.7281L66.7916 12.9942C66.7916 12.9942 66.7168 12.9312 66.4063 12.9312C66.0946 12.9312 66.6045 13.0962 66.6793 13.1469C66.7541 13.1972 66.7048 13.4003 66.7048 13.4003L66.8034 13.1719C66.8034 13.1719 67.0029 13.2355 67.0646 13.2229C67.1277 13.2106 67.1401 13.3502 67.1401 13.3502C67.1401 13.3502 67.1401 13.5023 67.24 13.629C67.3385 13.7564 67.3259 13.3502 67.3259 13.3502C67.3259 13.3502 67.6744 13.4769 67.7243 13.5533C67.7743 13.6297 67.6495 13.7945 67.7492 13.8074C67.8484 13.8201 67.8116 13.5782 67.8484 13.5782C67.8859 13.5782 68.1221 13.5145 68.1221 13.5145C68.2087 13.0708 69.465 13.5284 69.465 13.5284L69.515 13.4386L70.3487 13.3629L70.9571 13.6036C71.0075 13.6546 71.045 13.6036 71.045 13.6036L71.9895 13.8455C72.2259 13.7174 72.2632 14.0485 72.2632 14.0485L72.4372 14.0739L72.388 14.3146C72.35 14.6202 72.0768 14.5177 72.0768 14.5177V14.9626H71.6166C71.5662 15.1657 71.156 15.141 71.156 15.141V16.3715C71.4048 16.3715 71.2191 16.6133 71.2191 16.6133C71.206 16.9048 71.0695 17.337 71.0695 17.337C70.933 17.451 71.0078 17.7171 71.0078 17.7171H71.2552C71.2191 18.1493 70.933 18.1232 70.933 18.1232L70.6837 18.4034L70.8502 27.0358H71.667V26.1503L72.6809 27.186V28.1645H73.3329V13.1315H88.0911L88.2744 13.0062L87.7225 12.1295C87.7225 12.1295 87.7211 12.1124 87.72 12.0919C87.7288 12.0932 87.7356 12.0976 87.7449 12.0976H117.499C117.516 12.0976 117.532 12.0932 117.548 12.0868C117.546 12.1122 117.545 12.1295 117.545 12.1295L116.992 13.0062L117.177 13.1315H131.936V26.226C132.422 25.9262 132.903 25.6371 133.436 25.3749C139.082 19.7052 143.176 16.8157 145.626 15.387C148.225 13.8725 149.557 13.6332 149.711 13.6096C150.859 13.3117 152.248 13.3703 153.838 13.7822C154.106 13.8522 154.381 13.9325 154.661 14.0222C158.155 12.0035 160.456 10.8245 160.488 10.8085C162.587 9.76709 164.606 9.24047 166.489 9.24878C168.006 9.25386 169.435 9.60209 170.741 10.2826C172.873 11.3954 173.947 13.0105 174.068 13.2002C176.322 15.9727 178.021 19.5925 179.049 22.1414C180.164 24.9044 180.756 27.0445 180.762 27.0662C180.79 27.1662 180.76 27.2686 180.693 27.3381L181.127 27.5896L181.169 28.1123H181.461V25.7052H182.209L182.24 -2.01415C181.906 -2.15745 182.165 -2.37691 182.165 -2.37691C182.046 -3.43176 181.734 -3.28845 181.734 -3.28845C181.767 -3.54114 181.95 -3.55199 181.95 -3.55199C182.014 -3.87022 181.562 -4.3426 181.562 -4.3426C181.531 -4.1453 181.455 -4.3096 181.455 -4.3096C181.465 -4.81568 182.004 -4.50691 182.004 -4.50691C181.67 -5.35291 180.938 -5.13322 180.938 -5.13322C180.627 -5.05684 180.928 -5.43045 180.928 -5.43045C180.519 -5.84745 180.949 -6.11099 180.949 -6.11099L180.993 -6.27645L180.809 -6.69345L184.294 -7.1543L187.35 -6.30876L186.945 -5.8403C186.949 -5.83776 186.952 -5.83637 186.952 -5.83637C187.328 -5.55045 187.027 -5.23222 187.027 -5.23222C186.982 -5.20799 186.943 -5.19645 186.907 -5.1946C186.915 -5.19091 186.919 -5.18837 186.919 -5.18837C187.113 -4.78153 186.876 -4.87014 186.876 -4.87014C186.597 -5.39653 185.758 -4.50668 185.758 -4.50668C185.973 -4.13422 185.823 -3.68353 185.823 -3.68353C186.113 -3.68353 186.167 -3.45299 186.167 -3.45299C185.855 -3.49684 185.833 -2.76091 185.833 -2.76091C185.833 -2.54122 185.692 -2.45284 185.692 -2.45284C186.113 -2.16761 185.704 -1.99199 185.704 -1.99199L185.984 10.7059C185.984 10.7059 185.876 10.7605 185.929 10.8044C185.984 10.8482 185.898 10.9362 185.844 10.9687C185.79 11.0017 185.887 11.1226 185.8 11.1559C185.715 11.1889 185.768 11.2768 185.844 11.3308C185.919 11.3869 185.844 11.4632 185.779 11.5403C185.715 11.6174 185.844 11.6174 185.8 11.6829C185.757 11.7492 185.779 11.7817 185.833 11.8809C185.887 11.9797 185.908 11.9356 185.854 11.9689C185.8 12.0019 185.844 12.0351 185.908 12.0452C185.972 12.0568 186.005 12.2979 186.005 12.2979L186.167 26.928C186.349 26.9504 186.284 27.2146 186.284 27.2146C186.467 27.2248 186.359 27.5984 186.359 27.5984C186.617 27.6856 186.51 28.0929 186.51 28.0929C186.823 28.2139 186.682 28.7079 186.682 28.7079H186.849V26.0495H187.522V28.1986H188.617V28.5074L189.122 28.3756C189.122 28.3756 189.029 27.8892 189.452 27.8739C189.452 27.8739 189.321 27.7555 189.652 27.5912L189.659 27.4881C189.659 27.4881 189.529 27.4258 189.659 27.4022L189.675 27.3711C189.675 27.3711 189.559 27.2769 189.682 27.2455C189.682 27.2455 189.797 27.1514 189.813 27.0259L190.259 13.0839C190.259 13.0839 190.205 13.0456 190.205 12.9508C190.205 12.9508 190.067 13.0685 189.882 12.6217C189.882 12.6217 190.174 12.4334 190.274 12.0877C190.274 12.0877 190.228 11.9541 190.159 11.9705L190.151 10.7686L190.035 10.5649C190.035 10.5649 189.904 10.4312 190.105 10.4236L190.358 10.4077C190.358 10.4077 190.274 9.7177 190.451 9.52916L190.397 9.49801C190.397 9.49801 190.274 9.63116 190.127 9.63809C190.127 9.63809 189.928 9.5527 189.897 9.26193C189.897 9.26193 189.689 9.05055 189.72 8.92455H189.605L189.521 8.76786V8.39862C189.521 8.39862 189.406 8.32039 189.49 8.31209C189.49 8.31209 189.29 8.15539 189.521 8.09239L189.905 7.99755C189.905 7.99755 189.951 8.08478 190.013 8.01347C190.013 8.01347 190.298 7.89624 190.435 7.88863C190.574 7.88032 190.566 7.88032 190.612 7.85678C190.658 7.83324 190.728 7.79447 190.828 7.79447C190.928 7.79447 191.028 7.76262 191.074 7.73909C191.12 7.71555 191.266 7.64493 191.328 7.81039C191.328 7.81039 191.343 8.05362 191.281 8.12355L191.75 8.13116C191.75 8.13116 191.82 8.24955 191.919 8.18655C192.019 8.12355 192.042 8.14709 192.166 8.15539C192.288 8.16301 192.304 8.17893 192.366 8.15539C192.427 8.13116 192.434 8.13116 192.511 8.13878C192.588 8.14709 192.742 8.18655 192.897 8.17132C193.05 8.15539 192.958 8.18655 193.119 8.19416C193.281 8.20178 193.334 8.19416 193.434 8.17893C193.534 8.16301 193.611 8.17132 193.695 8.17132C193.779 8.17132 194.103 8.17132 194.172 8.24955C194.172 8.24955 194.133 8.21009 194.287 8.20178C194.441 8.19416 197.031 8.20178 197.031 8.20178C197.031 8.20178 197.07 8.24193 197.109 8.31186C197.109 8.31186 197.101 8.22578 197.232 8.22578C197.362 8.22578 197.993 8.2334 198.346 8.2417C198.7 8.24932 199.1 8.24932 199.223 8.25693C199.346 8.26524 199.4 8.32755 199.523 8.2964C199.646 8.26524 199.646 8.24932 199.753 8.25693C199.861 8.26524 199.999 8.2417 200.083 8.24932C200.169 8.25693 200.238 8.28809 200.245 8.45309V8.70393C200.245 8.70393 200.46 8.63332 200.561 8.73578C200.561 8.73578 200.63 8.68109 200.745 8.58693C200.86 8.49209 200.937 8.45332 201.122 8.46924C201.306 8.48516 201.376 8.50801 201.606 8.5004C201.837 8.49209 201.875 8.4457 201.975 8.5004C202.075 8.55509 202.09 8.50039 202.214 8.51562C202.337 8.53155 202.375 8.53916 202.49 8.57101C202.605 8.60286 202.782 8.45332 203.089 8.64116H203.227C203.227 8.64116 203.151 8.50039 203.382 8.4457C203.382 8.4457 203.489 8.41386 203.613 8.39101C203.735 8.36678 203.874 8.36678 204.004 8.37509C204.135 8.38339 204.151 8.39863 204.22 8.3834C204.289 8.36678 204.312 8.34324 204.389 8.3834C204.466 8.4217 204.504 8.40624 204.597 8.39862C204.688 8.39101 204.735 8.40624 204.812 8.42978C204.889 8.45332 205.111 8.48516 205.158 8.60309C205.204 8.72078 205.111 8.81516 205.234 8.90101C205.234 8.90101 205.359 9.08124 205.403 9.34847C205.403 9.34847 205.542 9.26955 205.642 9.38724C205.741 9.50493 205.765 9.45855 205.896 9.46616C206.026 9.47378 206.119 9.5527 206.149 9.51255C206.18 9.47378 206.211 9.41839 206.211 9.41839L206.587 9.44263C206.587 9.44263 206.741 9.40386 206.803 9.37201C206.864 9.34086 206.864 9.34086 206.864 9.34086L210.977 9.51278L211.031 9.63832C211.031 9.63832 211.169 9.70201 211.231 9.65424C211.292 9.60786 211.308 9.60785 211.369 9.62309C211.431 9.63832 211.431 9.63832 211.431 9.63832L211.415 9.5294L212.092 8.58716L214.136 8.66609C214.136 8.66609 214.091 8.34324 214.483 8.07647L215.989 8.53916C215.989 8.53916 216.09 8.46924 216.174 8.45332C216.259 8.43739 216.42 8.21009 216.466 8.10832C216.466 8.10832 216.651 8.10832 216.758 8.16301L216.943 8.36678L216.758 8.66609C216.758 8.66609 216.728 8.90862 216.62 8.99447C216.62 8.99447 216.505 9.22293 216.589 9.34086L215.705 10.2741L215.713 10.9655H215.875C215.875 10.9655 216.167 11.0042 215.897 11.2558L215.92 11.3264L215.882 11.3811L215.866 12.4015C215.866 12.4015 215.728 12.4562 215.844 12.5665C215.844 12.5665 216.543 12.8804 216.105 13.2739C216.105 13.2739 215.974 13.7054 215.658 13.3835C215.658 13.3835 215.651 13.509 215.59 13.5007L215.736 27.2299C215.736 27.2299 215.961 27.2751 215.93 27.4246H216.305V26.823H216.978V24.0722H217.904V26.4792H218.746V27.5539H219.215L219.227 16.3615C219.085 16.3004 219.195 16.2062 219.195 16.2062C219.144 15.7555 219.011 15.8167 219.011 15.8167C219.024 15.7092 219.104 15.7045 219.104 15.7045C219.13 15.5677 218.937 15.3658 218.937 15.3658C218.924 15.4505 218.891 15.3799 218.891 15.3799C218.896 15.1641 219.126 15.2959 219.126 15.2959C218.983 14.9342 218.671 15.0284 218.671 15.0284C218.537 15.0614 218.667 14.9017 218.667 14.9017C218.492 14.7233 218.675 14.61 218.675 14.61L218.694 14.5394L218.616 14.3617L220.105 14.1637L221.411 14.526L221.238 14.7259C221.239 14.727 221.241 14.7277 221.241 14.7277C221.402 14.85 221.273 14.9862 221.273 14.9862C221.255 14.9963 221.237 15.0014 221.222 15.0021C221.225 15.0032 221.227 15.0046 221.227 15.0046C221.31 15.1784 221.209 15.1408 221.209 15.1408C221.089 14.9149 220.731 15.2954 220.731 15.2954C220.823 15.4546 220.758 15.6473 220.758 15.6473C220.882 15.6473 220.905 15.7461 220.905 15.7461C220.772 15.7269 220.763 16.0415 220.763 16.0415C220.763 16.1356 220.703 16.1732 220.703 16.1732C220.882 16.2955 220.707 16.3699 220.707 16.3699L220.826 21.7971C220.826 21.7971 220.781 21.8213 220.804 21.8398C220.827 21.8582 220.79 21.8959 220.767 21.9099C220.745 21.9238 220.786 21.9762 220.748 21.9895C220.712 22.0043 220.735 22.0417 220.767 22.0652C220.799 22.0881 220.767 22.122 220.74 22.1543C220.712 22.1869 220.767 22.1869 220.749 22.2148C220.731 22.2434 220.74 22.2575 220.764 22.2995C220.786 22.3415 220.795 22.3237 220.772 22.3378C220.749 22.3519 220.767 22.3657 220.795 22.3703C220.823 22.3754 220.837 22.4779 220.837 22.4779L220.883 26.6509H221.777V28.026H222.275L222.289 16.3613C222.146 16.3002 222.257 16.206 222.257 16.206C222.205 15.7553 222.072 15.8165 222.072 15.8165C222.086 15.7089 222.164 15.7043 222.164 15.7043C222.192 15.5675 221.998 15.3655 221.998 15.3655C221.985 15.4502 221.953 15.3796 221.953 15.3796C221.957 15.1639 222.187 15.2956 222.187 15.2956C222.045 14.934 221.732 15.0282 221.732 15.0282C221.599 15.0612 221.728 14.9015 221.728 14.9015C221.553 14.7231 221.737 14.6098 221.737 14.6098L221.755 14.5392L221.677 14.3615L223.166 14.1635L224.472 14.5258L224.299 14.7256C224.301 14.7268 224.302 14.7275 224.302 14.7275C224.463 14.8498 224.335 14.9859 224.335 14.9859C224.315 14.9961 224.298 15.0012 224.283 15.0019C224.286 15.003 224.288 15.0044 224.288 15.0044C224.371 15.1782 224.27 15.1405 224.27 15.1405C224.15 14.9146 223.792 15.2952 223.792 15.2952C223.884 15.4544 223.819 15.6471 223.819 15.6471C223.943 15.6471 223.965 15.7459 223.965 15.7459C223.832 15.7267 223.823 16.0412 223.823 16.0412C223.823 16.1354 223.764 16.173 223.764 16.173C223.943 16.2953 223.768 16.3696 223.768 16.3696L223.887 21.7969C223.887 21.7969 223.842 21.8211 223.865 21.8395C223.887 21.858 223.851 21.8956 223.827 21.9097C223.804 21.9235 223.846 21.9759 223.81 21.9893C223.773 22.0041 223.796 22.0415 223.827 22.065C223.86 22.0879 223.827 22.1218 223.801 22.1541C223.773 22.1866 223.827 22.1866 223.81 22.2145C223.791 22.2432 223.801 22.2572 223.823 22.2992C223.846 22.3412 223.856 22.3235 223.832 22.3375C223.81 22.3516 223.827 22.3655 223.856 22.3701C223.883 22.3752 223.897 22.4776 223.897 22.4776L223.949 27.2527H224.555V28.1982H224.954L225.057 23.1122C225.057 23.1122 225.004 23.0504 225.039 23.0319C225.039 23.0319 224.988 23.0275 224.988 22.8727C224.988 22.8727 225.02 22.6812 224.903 22.6671C224.903 22.6671 224.776 22.5607 224.894 22.4785H224.87V22.3869H224.837V22.3112H225.021V22.0655L224.974 21.9605V21.9217H225.016L225.011 21.8395C225.011 21.8395 225.034 21.753 225.068 21.7389C225.068 21.7389 225.034 21.6282 225.379 21.5652H225.76L226.211 21.3016L226.583 21.306C226.583 21.306 226.616 21.2296 226.574 21.1775V21.0374C226.574 21.0374 226.744 21.0222 226.707 20.9502C226.707 20.9502 226.625 20.9986 226.583 20.9068V20.7819L226.687 20.6672L226.781 17.1868C226.781 17.1868 226.753 17.1429 226.781 17.1194C226.781 17.1194 226.801 17.0469 226.749 17.0285C226.697 17.01 226.734 17.01 226.734 17.01C226.734 17.01 226.805 16.8942 226.753 16.8261C226.753 16.8261 226.701 16.7402 226.726 16.7109H226.707V16.6052H226.782V16.0528H226.664V15.9713H226.58V16.0242H226.546C226.546 16.0242 226.509 15.7842 226.438 15.7454V15.6925H227.239C227.239 15.6925 227.421 15.6538 227.454 15.6155H228.184V15.5772H229.253L229.197 15.3651L230.402 14.9615C230.402 14.9615 230.58 14.9278 230.599 14.9423C230.599 14.9423 230.641 14.9857 230.66 14.9857C230.68 14.9857 230.985 14.7935 230.985 14.7935C230.985 14.7935 230.91 14.5528 231.136 14.577C231.136 14.577 231.221 14.5585 231.21 14.5292C231.21 14.5292 231.267 14.5191 231.267 14.577C231.267 14.577 231.367 14.5528 231.39 14.6107C231.413 14.6679 231.385 14.7838 231.385 14.7838L232.19 15.0143C232.19 15.0143 232.486 15.0436 232.51 15.1682L233.277 15.351V15.5961L233.234 15.6005C233.234 15.6005 233.146 15.6732 233.201 15.8119C233.201 15.8119 233.4 15.6923 233.607 15.6923C233.607 15.6923 233.941 15.6159 234.011 15.6923L234.105 15.7495V15.6681C234.105 15.6681 234.28 15.6732 234.294 15.6196H234.874C234.874 15.6196 235.086 15.6711 235.149 15.726C235.157 15.7343 235.163 15.7419 235.165 15.7495C235.179 15.8119 235.245 15.7687 235.237 15.7304C235.237 15.7304 235.321 15.7112 235.348 15.7405C235.377 15.7685 235.415 15.8029 235.457 15.8029C235.5 15.8029 235.546 15.7258 235.608 15.7214C235.608 15.7214 235.73 15.7022 235.824 15.7685C235.918 15.8365 235.848 15.7648 235.848 15.7648C235.848 15.7648 236.121 15.6685 236.088 15.7495C236.088 15.7495 235.998 15.9711 235.988 16.0475C235.988 16.0475 235.951 16.1825 235.843 16.1728L235.806 16.2739L235.701 16.2835L235.696 16.6101H235.875C235.875 16.6101 235.9 16.6673 235.843 16.7056C235.843 16.7056 235.918 16.7788 235.814 16.8891C235.814 16.8891 235.89 17.0139 235.781 17.0813C235.781 17.0813 235.809 17.2112 235.767 17.2304L235.809 20.6089L235.839 20.6324C235.839 20.6324 235.927 20.7201 235.875 20.7819L235.918 20.787V20.8449H236.215C236.215 20.8449 236.262 20.8539 236.257 20.8978C236.253 20.9412 236.257 21.0028 236.257 21.0028L236.299 21.0085C236.299 21.0085 236.29 20.8927 236.328 20.8786C236.366 20.8639 236.389 20.8348 236.389 20.8348L237.956 20.8495L237.961 21.0805H238.103L238.112 21.162C238.112 21.162 238.004 21.2536 237.961 21.402L237.551 21.9305V22.0272H237.599V22.0895C237.599 22.0895 237.515 22.1372 237.515 22.4022H237.759L237.679 22.5415C237.679 22.5415 237.735 22.7338 237.533 22.8439C237.533 22.8439 237.561 23.0845 237.424 23.157L237.387 23.2671V23.8535C237.387 23.8535 237.161 23.8535 237.147 23.9158C237.132 23.9781 237.161 24.18 237.161 24.18C237.161 24.18 237.137 24.0164 237.194 24.0215C237.25 24.0265 237.241 23.973 237.241 23.973H237.288C237.288 23.973 237.27 24.0404 237.297 24.0309C237.325 24.0215 237.382 24.0164 237.382 24.0164V27.5954H237.856V25.7047H238.53V28.4555H238.95V27.5954L239.414 27.123L239.709 27.4235V28.4555H240.55V28.7783H240.622V29.9446L239.879 29.9485C239.841 29.8657 239.827 29.7907 239.827 29.7256L238.548 29.8447L238.629 30.1662C239.06 30.3667 239.066 30.6009 239.066 30.6009ZM12.8629 19.1151C12.6672 19.1552 12.5885 19.5353 12.5885 19.5353L12.6279 26.4399L12.9809 19.4952C13.02 19.0948 12.8629 19.1151 12.8629 19.1151ZM17.0246 18.9949H16.7247L16.764 18.8084C16.3712 18.8211 16.3974 19.2616 16.3974 19.2616L16.4503 27.2543L16.8164 27.2804L17.0646 22.5974C17.2341 22.3172 17.0777 22.2778 17.0777 22.2778L17.1817 19.1686C17.2079 18.9949 17.0246 18.9949 17.0246 18.9949ZM19.0634 18.5684L18.8939 18.5818C18.6982 18.6219 18.5142 19.0082 18.5142 19.0082L18.5011 27.3739L18.9325 27.3879L19.3253 18.9688C19.3513 18.7549 19.0634 18.5684 19.0634 18.5684ZM22.6962 19.1552L22.6831 19.3417H22.5136C22.2517 19.3417 22.0822 19.7689 22.0822 19.7689L22.1215 21.1567L22.788 21.1835L22.8528 26.5202L23.0099 26.547L23.0492 26.0395C22.9053 25.9733 23.0623 25.4125 23.0623 25.4125L23.3105 19.2088L22.6962 19.1552ZM26.9827 19.5824V19.3022L25.9503 19.2219L25.9234 19.5683L25.5972 19.5422C25.4015 19.5556 25.3229 19.9027 25.3229 19.9027L25.3877 24.9861L25.5061 24.9995L25.5317 24.4387C25.571 24.1585 25.6625 24.2527 25.6625 24.2527L26.3684 24.1853V21.9305L27.0735 21.9439V22.0909L27.1395 22.0775L27.2437 20.0225C27.2832 19.809 26.9827 19.5824 26.9827 19.5824ZM30.1063 22.2104L30.1711 19.7825C29.7659 19.7289 29.8315 19.4349 29.8315 19.4349L29.1781 19.3687L29.1125 19.6629L28.7466 19.6756C28.5378 19.7024 28.4585 20.0626 28.4585 20.0626L29.3869 20.1556L29.3614 20.8636C29.2823 20.8763 29.4131 21.0099 29.4131 21.0099L29.3869 21.7306C29.2823 21.9037 29.3738 21.8769 29.3738 21.8769L29.4529 25.0262C29.4529 25.0262 29.3345 25.0262 29.3738 25.053C29.4131 25.0798 29.2958 25.0925 29.2298 25.1065C29.165 25.1199 29.1781 25.2129 29.2436 25.2402C29.3085 25.2662 29.3869 25.293 29.3869 25.293L29.4131 26.5874H29.4918L29.518 26.3206L29.9225 26.2805L30.092 22.4119C30.3275 22.251 30.1063 22.2104 30.1063 22.2104ZM32.1713 17.7L32.1568 17.847L31.8956 17.8343C31.8956 18.0475 31.6736 18.2882 31.6736 18.2882L31.6867 27.2677C31.8172 27.3205 31.8431 27.5612 31.8431 27.5612L32.0913 27.5479L32.5359 18.1948C32.5092 17.9146 32.1713 17.7 32.1713 17.7ZM34.5224 17.6612L34.47 17.4473L34.3654 17.4741L34.3398 17.7944C34.0917 17.7683 33.9608 18.2082 33.9608 18.2082L33.9215 27.5079L34.47 27.5481L34.823 18.0745C34.849 17.7942 34.5224 17.6612 34.5224 17.6612ZM36.9534 17.6873L36.6652 17.6612L36.5997 17.5135L36.5479 17.6345C36.3777 17.6472 36.2604 17.9679 36.2604 17.9679V27.4675H36.7567L37.1358 17.9146C37.136 17.6472 36.9534 17.6873 36.9534 17.6873ZM39.2794 17.3811H39.1617L39.1355 17.5269C38.6523 17.5002 38.5605 17.8604 38.5605 17.8604V27.4274L39.109 27.4006L39.5007 17.8343C39.5276 17.4868 39.2794 17.3811 39.2794 17.3811ZM41.605 17.274L41.5788 17.4203C41.0038 17.3407 40.913 17.8869 40.913 17.8869L40.9523 26.7607C41.0696 26.5869 41.4873 26.7748 41.4873 26.7748L41.8539 17.6342C41.8925 17.4072 41.605 17.274 41.605 17.274ZM46.1658 17.274C46.152 16.9934 45.4869 17.0467 45.4869 17.0467L45.225 17.1136C45.225 17.1136 45.1721 17.2599 45.0941 17.2869C45.0155 17.3144 44.9251 17.0342 44.9251 17.0342L44.7673 17.1265H44.5454L44.4667 17.3412C44.4667 17.3412 44.2448 17.301 44.153 17.3144C44.0615 17.3271 43.7347 17.0469 43.7347 17.0469L43.6574 17.2742C43.4074 17.2742 43.317 17.6206 43.317 17.6206L43.3954 27.2679L45.9697 27.201L46.1909 17.3271C46.1914 17.3269 46.1783 17.5542 46.1658 17.274ZM48.8833 17.1538L48.8578 16.8067L48.4388 16.7665L48.4126 16.9664C48.152 16.9664 47.7723 17.4598 47.7723 17.4598L47.8252 27.2675L49.0397 27.2942L49.2892 17.6737C49.275 17.2599 48.8833 17.1538 48.8833 17.1538ZM52.1236 17.3008C51.7588 17.2334 51.8368 16.8736 51.8368 16.8736L51.4191 16.8602L51.3929 17.274L51.1834 17.2479C50.9352 17.2332 50.6609 17.6204 50.6609 17.6204L50.9352 27.654L52.3338 27.6413L52.438 27.4281L52.6075 17.7681C52.5813 17.2869 52.1236 17.3008 52.1236 17.3008ZM55.718 17.3811L55.6787 17.0735L54.8555 17.034L54.7771 17.3543C54.307 17.3008 54.1762 17.7272 54.1762 17.7272L54.3194 27.4948L54.4105 27.5075L54.3981 27.6812L55.8619 27.6679L56.1494 17.7805C56.1101 17.46 55.718 17.3811 55.718 17.3811ZM59.2724 17.5669L59.2068 17.274L58.7623 17.1136C58.7361 16.9405 58.4226 16.9265 58.4226 16.9265C58.4488 17.1136 58.2531 17.1263 58.2531 17.1263C58.2407 17.5267 58.1222 17.4739 58.1222 17.4739C57.8085 17.4598 57.5735 17.8869 57.5735 17.8869L57.7699 27.5875C57.7699 27.5875 57.8217 27.8149 58.0574 27.7881C58.2924 27.7602 58.4364 28.0006 58.4364 28.0006C58.4364 28.0006 58.8149 28.0948 58.9982 28.0006C59.1815 27.9076 59.1935 27.8008 59.1935 27.8008C59.1286 27.7599 59.3119 27.5347 59.3119 27.5347L59.5863 17.9402C59.6121 17.7681 59.2724 17.5669 59.2724 17.5669ZM62.4215 17.7272C62.2907 17.7005 62.3042 17.4069 62.3042 17.4069L61.7282 17.3541L61.6502 17.661L61.3634 17.6469C61.1539 17.661 61.0366 17.9804 61.0366 17.9804L61.271 27.6277L62.6171 27.7073L62.8783 18.1671C62.8661 17.7681 62.4215 17.7272 62.4215 17.7272ZM66.1586 17.9407L65.7278 17.9012V17.5809L65.1137 17.46L65.1006 17.8611L64.7216 17.8209C64.539 17.8075 64.4206 18.3143 64.4206 18.3143L64.6039 27.8278L66.1195 27.8412L66.3812 18.4479C66.3812 18.4479 66.3283 18.7943 66.3812 18.3944C66.4336 17.9947 66.1586 17.9407 66.1586 17.9407ZM68.8901 18.0609L68.877 17.7272L68.5508 17.6871C68.5895 17.8468 68.4455 17.9806 68.4455 17.9806C67.9885 17.9278 67.8053 18.3404 67.8053 18.3404L68.041 27.7348C68.2884 27.8679 68.1843 28.095 68.1843 28.095L68.6338 28.1204C68.6082 28.2058 68.6543 28.1218 68.6543 28.1218L68.6338 28.1204C68.6374 28.1038 68.6449 28.0835 68.6543 28.0549C68.7203 27.8677 68.8245 27.8008 68.8245 27.8008L69.1642 18.3674C68.9812 18.2882 68.8901 18.0609 68.8901 18.0609ZM112.192 25.9639C112.108 25.9639 112.038 26.0338 112.038 26.121C112.038 26.2082 112.108 26.2789 112.192 26.2789H117.407C117.492 26.2789 117.561 26.2082 117.561 26.121C117.561 26.0338 117.492 25.9639 117.407 25.9639H112.192ZM116.202 24.2215V15.1994C116.202 15.1122 116.133 15.0415 116.048 15.0415H113.347C113.262 15.0415 113.193 15.1122 113.193 15.1994V24.2215C113.193 24.3088 113.262 24.3794 113.347 24.3794H116.048C116.133 24.3794 116.202 24.3085 116.202 24.2215ZM114.235 28.8891H117.384C117.47 28.8891 117.539 28.8185 117.539 28.7319C117.539 28.6447 117.47 28.5748 117.384 28.5748H114.235C114.151 28.5748 114.081 28.6447 114.081 28.7319C114.081 28.8185 114.151 28.8891 114.235 28.8891ZM114.235 26.8971H117.384C117.47 26.8971 117.539 26.8269 117.539 26.7397C117.539 26.6532 117.47 26.5819 117.384 26.5819H114.235C114.151 26.5819 114.081 26.6532 114.081 26.7397C114.081 26.8272 114.151 26.8971 114.235 26.8971ZM92.9337 28.9477C92.9536 28.9687 92.9823 28.9807 93.0117 28.9807H112.493C112.522 28.9807 112.551 28.9687 112.571 28.9477C112.591 28.926 112.603 28.8967 112.601 28.8667C112.598 28.7813 112.531 28.7139 112.447 28.7139H93.058C92.974 28.7139 92.9066 28.7813 92.9035 28.8667C92.9026 28.8967 92.9132 28.926 92.9337 28.9477ZM93.0578 28.5275H112.447C112.533 28.5275 112.602 28.4569 112.602 28.3696C112.602 28.2824 112.533 28.2125 112.447 28.2125H93.0578C92.9719 28.2125 92.9026 28.2826 92.9026 28.3696C92.9026 28.4569 92.9717 28.5275 93.0578 28.5275ZM93.0578 28.0258H112.447C112.533 28.0258 112.602 27.9552 112.602 27.8679C112.602 27.7807 112.533 27.7101 112.447 27.7101H93.0578C92.9719 27.7101 92.9026 27.7807 92.9026 27.8679C92.9026 27.9552 92.9717 28.0258 93.0578 28.0258ZM93.0578 27.5236H112.447C112.533 27.5236 112.602 27.4537 112.602 27.3665C112.602 27.2792 112.533 27.2086 112.447 27.2086H93.0578C92.9719 27.2086 92.9026 27.2792 92.9026 27.3665C92.9026 27.4535 92.9717 27.5236 93.0578 27.5236ZM93.0578 27.0219H112.447C112.533 27.0219 112.602 26.9506 112.602 26.8641C112.602 26.7775 112.533 26.7069 112.447 26.7069H93.0578C92.9719 26.7069 92.9026 26.7775 92.9026 26.8641C92.9026 26.9506 92.9717 27.0219 93.0578 27.0219ZM88.2172 28.8891H91.3664C91.4511 28.8891 91.5203 28.8185 91.5203 28.7319C91.5203 28.6447 91.4511 28.5748 91.3664 28.5748H88.2172C88.1311 28.5748 88.0626 28.6447 88.0626 28.7319C88.0624 28.8185 88.1311 28.8891 88.2172 28.8891ZM88.2172 26.8971H91.3664C91.4511 26.8971 91.5203 26.8269 91.5203 26.7397C91.5203 26.6532 91.4511 26.5819 91.3664 26.5819H88.2172C88.1311 26.5819 88.0626 26.6532 88.0626 26.7397C88.0624 26.8272 88.1311 26.8971 88.2172 26.8971ZM88.1921 26.2789H93.4068C93.4567 26.2789 93.4985 26.2535 93.527 26.2152V26.5399H95.9423V26.6119H97.728V26.5399H99.8703V26.6119H101.655V26.5399H103.858V26.6119H105.644V26.5399H107.785V26.6119H109.571V26.5399H111.997V14.385H109.405V14.3659H107.952V14.385H105.478V14.3659H104.025V14.385H101.489V14.3659H100.036V14.385H97.5612V14.3659H96.1085V14.385H93.5268V14.4722C93.4981 14.4353 93.4563 14.4092 93.4066 14.4092H88.1919C88.1071 14.4092 88.0385 14.4805 88.0385 14.5671C88.0385 14.6536 88.1069 14.7242 88.1919 14.7242H93.4066C93.4565 14.7242 93.4983 14.6993 93.5268 14.6612V26.0259C93.4981 25.989 93.4563 25.9636 93.4066 25.9636H88.1919C88.1071 25.9636 88.0385 26.0335 88.0385 26.1208C88.0389 26.2082 88.1074 26.2789 88.1921 26.2789ZM89.2609 15.1994V24.2215C89.2609 24.3088 89.3301 24.3794 89.4148 24.3794H92.1152C92.2006 24.3794 92.2697 24.3088 92.2697 24.2215V15.1994C92.2697 15.1122 92.2006 15.0415 92.1152 15.0415H89.4148C89.3301 15.0415 89.2609 15.1122 89.2609 15.1994ZM73.7973 24.7733H88.144C88.2294 24.7733 88.2979 24.7027 88.2979 24.6155C88.2979 24.5289 88.2294 24.4576 88.144 24.4576H73.7973C73.7112 24.4576 73.6421 24.5289 73.6421 24.6155C73.6421 24.7027 73.7115 24.7733 73.7973 24.7733ZM85.7793 24.159V17.4861H84.3527V24.159H85.7793ZM83.3402 24.159V17.4861H81.9132V24.159H83.3402ZM80.9012 24.159V17.4861H79.4742V24.159H80.9012ZM78.4617 24.159V17.4861H77.0351V24.159H78.4617ZM76.0219 24.159V17.4861H74.5961V24.159H76.0219ZM73.7973 16.8602H88.144C88.2294 16.8602 88.2979 16.7896 88.2979 16.7017C88.2979 16.6152 88.2294 16.5445 88.144 16.5445H73.7973C73.7112 16.5445 73.6421 16.6152 73.6421 16.7017C73.6421 16.7896 73.7115 16.8602 73.7973 16.8602ZM73.7973 15.4521H88.144C88.2294 15.4521 88.2979 15.3822 88.2979 15.2954C88.2979 15.2082 88.2294 15.1369 88.144 15.1369H73.7973C73.7112 15.1369 73.6421 15.2082 73.6421 15.2954C73.6421 15.3822 73.7115 15.4521 73.7973 15.4521ZM73.6421 14.9702C73.6421 15.0568 73.7112 15.1274 73.7973 15.1274H88.144C88.2294 15.1274 88.2979 15.0568 88.2979 14.9702C88.2979 14.8837 88.2294 14.8129 88.144 14.8129H73.7973C73.7115 14.8129 73.6421 14.8835 73.6421 14.9702ZM117.286 13.2245H88.0981C88.012 13.2245 87.9435 13.2951 87.9435 13.3816C87.9435 13.4695 88.012 13.5402 88.0981 13.5402H117.286C117.372 13.5402 117.441 13.4695 117.441 13.3816C117.441 13.2953 117.372 13.2245 117.286 13.2245ZM117.286 13.9828H88.0981C88.012 13.9828 87.9435 14.0527 87.9435 14.1406C87.9435 14.2272 88.012 14.2978 88.0981 14.2978H117.286C117.372 14.2978 117.441 14.2272 117.441 14.1406C117.441 14.0527 117.372 13.9828 117.286 13.9828ZM117.407 14.4092H112.192C112.108 14.4092 112.038 14.4805 112.038 14.5671C112.038 14.6536 112.108 14.7242 112.192 14.7242H117.407C117.492 14.7242 117.561 14.6536 117.561 14.5671C117.561 14.4805 117.492 14.4092 117.407 14.4092ZM131.774 14.8129H117.427C117.342 14.8129 117.273 14.8835 117.273 14.9702C117.273 15.0568 117.342 15.1274 117.427 15.1274H131.774C131.86 15.1274 131.929 15.0568 131.929 14.9702C131.929 14.8835 131.86 14.8129 131.774 14.8129ZM131.774 15.1369H117.427C117.342 15.1369 117.273 15.2082 117.273 15.2954C117.273 15.3819 117.342 15.4521 117.427 15.4521H131.774C131.86 15.4521 131.929 15.3822 131.929 15.2954C131.929 15.2082 131.86 15.1369 131.774 15.1369ZM131.774 16.5445H117.427C117.342 16.5445 117.273 16.6152 117.273 16.7017C117.273 16.7896 117.342 16.8602 117.427 16.8602H131.774C131.86 16.8602 131.929 16.7896 131.929 16.7017C131.929 16.6152 131.86 16.5445 131.774 16.5445ZM119.515 17.4861V24.159H120.941V17.4861H119.515ZM121.954 17.4861V24.159H123.38V17.4861H121.954ZM124.394 17.4861V24.159H125.82V17.4861H124.394ZM126.833 17.4861V24.159H128.26V17.4861H126.833ZM129.272 17.4861V24.159H130.699V17.4861H129.272ZM131.774 24.4576H117.427C117.342 24.4576 117.273 24.5289 117.273 24.6155C117.273 24.7027 117.342 24.7733 117.427 24.7733H131.774C131.86 24.7733 131.929 24.7027 131.929 24.6155C131.929 24.5289 131.86 24.4576 131.774 24.4576ZM154.195 14.2036C154.022 14.1522 153.849 14.1049 153.675 14.0617L153.501 14.0172V14.0211L153.423 14.0012L153.422 14.0001C153.411 13.9975 153.401 13.9962 153.392 13.9936L153.09 13.9212L153.103 13.9327C153.066 13.9255 153.03 13.9161 152.993 13.9092H152.992L152.972 13.9055L152.809 13.875L152.809 13.8757C152.787 13.8725 152.763 13.8674 152.741 13.8642L152.682 13.854L152.678 13.8533L152.349 13.7986L152.358 13.8069C152.355 13.8062 152.351 13.8055 152.347 13.8051V13.8044L152.322 13.8012C152.32 13.8012 152.318 13.8012 152.316 13.8005L152.168 13.782L152.169 13.7859C152.054 13.7725 151.938 13.7599 151.824 13.7515L151.475 13.7266L151.486 13.7363C151.41 13.7338 151.334 13.7319 151.26 13.7319L151.15 13.7326H151.144L150.894 13.7352L150.901 13.7423L150.841 13.7442L150.842 13.7488C150.646 13.7601 150.454 13.7781 150.272 13.8074L150.261 13.8092L150.259 13.8081L150.242 13.8118V13.8106L150.193 13.8196L150.035 13.8457L150.042 13.8515C149.952 13.8699 149.863 13.8884 149.775 13.9112C149.749 13.9149 149.718 13.92 149.668 13.9315C149.667 13.9315 149.666 13.9315 149.665 13.9315L149.631 13.9392V13.9373L149.562 13.9546L149.464 13.9763L149.468 13.9789C149.465 13.9789 149.464 13.9795 149.462 13.98H149.461C149.352 14.0086 149.189 14.0559 148.966 14.1309L148.966 14.1302L148.918 14.1475L148.884 14.1591V14.1577L148.843 14.1736L148.784 14.1928L148.785 14.1942L148.758 14.2043L148.714 14.2195V14.2209C148.584 14.2694 148.444 14.3248 148.291 14.3871L148.29 14.3864L148.219 14.4157L148.188 14.4298V14.4279L148.034 14.4949C147.859 14.5712 147.669 14.6571 147.467 14.754V14.7526L147.371 14.7997L147.334 14.8175L147.303 14.8327C147.152 14.9072 146.993 14.9873 146.826 15.0739L146.714 15.1332V15.1339C146.713 15.1345 146.712 15.135 146.711 15.1357V15.135L146.561 15.2153L146.531 15.2312C146.356 15.3261 146.173 15.4279 145.984 15.5368L145.983 15.5361L145.962 15.5481C145.954 15.5525 145.947 15.5571 145.938 15.5615L145.901 15.5832V15.582L145.713 15.6909C145.549 15.7883 145.374 15.8933 145.195 16.0041L145.194 16.0029L145.077 16.0761V16.0747L144.872 16.2032C144.686 16.3205 144.492 16.4472 144.292 16.5789V16.5775L144.161 16.6641V16.6629L144.058 16.7324L143.96 16.7979V16.7986L143.946 16.8081C143.776 16.9228 143.599 17.0442 143.421 17.1685V17.1679L143.352 17.2163C143.351 17.2163 143.351 17.217 143.35 17.217L143.283 17.2641V17.2627L143.046 17.4314C142.826 17.5874 142.599 17.7535 142.366 17.9248L142.365 17.9236L142.305 17.9695C142.299 17.9732 142.294 17.9772 142.288 17.9815L142.241 18.0159V18.0152L142.002 18.1948C141.784 18.3591 141.558 18.5335 141.328 18.711L141.328 18.7085L141.041 18.9344L141.04 18.9351L141.008 18.96C140.726 19.1829 140.433 19.4183 140.135 19.6622V19.6604L140.051 19.7299C140.049 19.7317 140.047 19.7331 140.044 19.7349L139.989 19.7809C139.927 19.8323 139.862 19.8859 139.799 19.938V19.9369L139.698 20.0222C139.67 20.0458 139.641 20.0693 139.611 20.0935L139.583 20.1164L139.582 20.1182L139.555 20.1418C139.336 20.3239 139.113 20.5135 138.887 20.7072L138.886 20.706L138.798 20.7831C138.797 20.7845 138.794 20.7856 138.792 20.7877L138.74 20.8322V20.8329L138.623 20.9347L138.624 20.931L138.374 21.15C138.064 21.4212 137.746 21.7045 137.422 21.9967V21.996L137.356 22.0546C137.352 22.059 137.348 22.0622 137.343 22.0662L137.286 22.1183C137.227 22.1712 137.168 22.2252 137.11 22.2787V22.2773L136.922 22.4492C136.921 22.4504 136.921 22.4504 136.92 22.4518L136.894 22.476L136.862 22.5046C136.594 22.7497 136.321 23.0045 136.044 23.2648V23.2641L135.984 23.3206C135.979 23.325 135.975 23.3282 135.971 23.3326L135.913 23.388H135.913C135.83 23.4651 135.747 23.5452 135.663 23.6241L135.664 23.6222L135.492 23.7877C135.485 23.7942 135.478 23.8004 135.471 23.8069L135.446 23.8311L135.445 23.8322L135.413 23.8629C135.119 24.1449 134.821 24.4334 134.517 24.732L134.036 25.2051L134.639 24.9115C134.883 24.7932 135.123 24.678 135.362 24.5626L135.485 24.5033C135.728 24.3875 135.967 24.2723 136.204 24.1602L136.366 24.0831L136.669 23.9405L136.773 23.8915C137.124 23.7265 137.466 23.5675 137.803 23.4115L138.1 23.2747L138.102 23.2733C138.447 23.1155 138.783 22.9606 139.114 22.8111L139.164 22.7889L139.209 22.7686L139.271 22.7407L139.363 22.7005V22.6999C139.6 22.5937 139.834 22.4885 140.064 22.3867L140.078 22.3802L140.078 22.3816L140.753 22.0837L140.779 22.0724C140.954 21.9965 141.126 21.9215 141.296 21.849L141.346 21.8273V21.8259H141.348C141.561 21.7343 141.768 21.6457 141.974 21.5599L142.269 21.4345L142.271 21.4334C142.568 21.3085 142.856 21.1902 143.139 21.075L143.138 21.0812L143.306 21.0088L143.32 21.0445L143.328 21L143.465 20.9421C143.691 20.8498 143.909 20.7625 144.125 20.6767L144.116 20.7277L144.294 20.6086L144.312 20.6015L144.312 20.5964L144.61 20.397L144.718 20.3257C144.882 20.2161 145.045 20.1085 145.207 20.0003V20.001L145.752 19.6419L145.817 19.5985L145.855 19.5732C146.014 19.4686 146.173 19.3657 146.33 19.2637L146.375 19.2337V19.233L146.755 18.9886L147.111 18.7576L147.742 18.3526V18.3533L147.955 18.2183L148.118 18.1147C148.282 18.0097 148.444 17.9072 148.606 17.8045L148.607 17.8057L148.845 17.6555L149.445 17.2805L149.764 17.0825V17.0818L150.384 16.6992L150.365 16.6789L150.474 16.6216V16.6159L150.929 16.3588L150.934 16.3645L151.122 16.2487V16.2494L151.614 15.9515L151.962 15.7419V15.7412L152.147 15.6298L152.473 15.4357L152.473 15.4364L152.813 15.234L153.082 15.0736L153.114 15.0559L153.285 15.1945L153.237 14.9832L153.535 14.808L153.825 14.6368L153.824 14.6356L153.863 14.6132L153.865 14.6144L154.442 14.2777L154.195 14.2036ZM179.371 24.5485L179.367 24.2137C179.224 23.817 179.064 23.3912 178.89 22.9431L178.682 22.4059V22.416C178.574 22.1518 178.465 21.8813 178.349 21.6051L178.303 21.4969V21.4962L178.291 21.4682L178.14 21.1099V21.1189L178.135 21.1055H178.134C178.015 20.8318 177.893 20.5553 177.766 20.2747L177.559 19.8201V19.8302C177.433 19.5616 177.304 19.2916 177.17 19.0186L177.136 18.9505V18.9473L177.122 18.9212L176.964 18.603V18.6152C176.86 18.4089 176.756 18.2026 176.648 17.9977L176.616 17.9379L176.509 17.7342L176.509 17.7355L176.448 17.6197V17.6299C176.332 17.4171 176.216 17.2045 176.095 16.9939L176.067 16.9449V16.9442L176.044 16.9029L176.005 16.8367H176.006L175.997 16.8219L175.894 16.6405V16.6475C175.772 16.44 175.648 16.233 175.523 16.0288L175.497 15.9879V15.9865L175.38 15.7987L175.334 15.7242L175.334 15.7325C175.2 15.5218 175.064 15.3104 174.925 15.1048L174.903 15.0711L174.896 15.0628L174.742 14.8322V14.8394C174.606 14.6439 174.469 14.4485 174.329 14.2595L174.31 14.2341V14.2327L174.284 14.199L174.244 14.1462L174.147 14.0155V14.0213C174.02 13.8533 173.892 13.6865 173.761 13.5247L173.723 13.4776L173.713 13.4635L173.687 13.4241C173.639 13.3521 173.459 13.0879 173.149 12.7341L173.15 12.7334L173.123 12.7034L173.139 12.4888L173.034 12.6028L172.965 12.5239L172.964 12.5322C172.831 12.3889 172.69 12.2458 172.541 12.105L172.511 12.0778H172.512L172.495 12.0619L172.381 11.955L172.38 11.9612C172.238 11.8339 172.091 11.7079 171.939 11.5869L171.936 11.5844C171.934 11.5837 171.934 11.5825 171.932 11.5812L171.871 11.5334L171.868 11.5302L171.781 11.4628L171.781 11.4653L171.773 11.4602C171.77 11.4577 171.766 11.4545 171.762 11.4519L171.744 11.4385H171.743C171.595 11.3285 171.44 11.2195 171.282 11.1171V11.1164L171.271 11.1081C171.269 11.1069 171.267 11.1062 171.266 11.1049L171.227 11.0799L171.228 11.0785L171.188 11.0543L171.124 11.0123L171.123 11.0142L171.113 11.0072C171.113 11.0072 171.111 11.0065 171.11 11.0059L171.077 10.9849L171.077 10.986C170.914 10.8861 170.747 10.7899 170.575 10.6996L170.566 10.6939L170.54 10.6812L170.442 10.6295V10.6313L170.433 10.6269C170.264 10.5415 170.088 10.4615 169.91 10.3862V10.3844L169.847 10.3576L169.847 10.3569L169.781 10.3309L169.748 10.3175V10.3182L169.744 10.317L169.675 10.2884L169.673 10.2898C169.511 10.2268 169.338 10.1668 169.16 10.1114V10.1102L169.147 10.1056L169.148 10.1045L169.088 10.0867L168.996 10.0588V10.0599L168.973 10.053C168.766 9.99255 168.561 9.94409 168.359 9.90093L168.36 9.89955L168.324 9.89193C168.316 9.89078 168.307 9.88824 168.301 9.88616L168.302 9.88501L168.233 9.87278L168.192 9.86378V9.86516L168.114 9.85109L168.108 9.84993L168.097 9.84809C167.938 9.82016 167.778 9.79778 167.615 9.77678L167.617 9.77216L167.535 9.76455L167.537 9.76201L167.316 9.74286H167.313L167.303 9.74147C167.134 9.72693 166.967 9.71932 166.802 9.71355L166.804 9.70916L166.694 9.70801L166.698 9.70478L166.471 9.70547L166.449 9.70478V9.70547H166.426C166.238 9.70616 166.047 9.71493 165.858 9.72647L165.86 9.72255L165.776 9.72832L165.78 9.72393L165.55 9.74678L165.505 9.75047H165.504L165.469 9.75439C165.305 9.77032 165.14 9.7927 164.975 9.81624L164.976 9.81232L164.867 9.82963C164.862 9.83032 164.859 9.83101 164.855 9.83147H164.855L164.863 9.82386L164.567 9.87924L164.548 9.88247L164.496 9.89193C164.328 9.92447 164.159 9.96185 163.99 10.0015L163.991 9.99508L163.802 10.0422L163.788 10.0465L163.8 10.0339L163.354 10.1612C163.237 10.1942 163.119 10.2325 163 10.2702L163.002 10.2651L162.792 10.335C162.75 10.3491 162.708 10.3657 162.666 10.3795L162.691 10.3572L162.137 10.5692C162.076 10.5921 162.015 10.6177 161.954 10.6417L161.957 10.6366L161.723 10.734C161.668 10.7564 161.612 10.7836 161.557 10.8072L161.603 10.767L161.12 11.0012C161.088 11.0158 161.056 11.028 161.023 11.0439L161.002 11.0587L160.798 11.1561L160.803 11.1459L160.569 11.2669H160.569L160.543 11.2809C160.381 11.3642 160.077 11.5228 159.65 11.7508L159.471 11.9042L159.468 11.8992L159.467 11.8985L159.493 11.8348L159.443 11.8615L159.422 11.8731L159.227 11.9788C158.927 12.1399 158.576 12.3314 158.196 12.5391L158.197 12.5377L158.036 12.6268C158.016 12.6383 158 12.6471 157.98 12.6579L157.947 12.6757L157.947 12.6764L157.836 12.7382L157.643 12.8961L157.618 12.8578C157.393 12.9826 157.154 13.1155 156.909 13.2531L156.91 13.2524L156.696 13.3722C156.691 13.3759 156.685 13.3791 156.679 13.383L156.649 13.3996L156.074 13.7243L155.819 13.9216L155.795 13.8833L155.097 14.2837L155.273 14.3492L155.16 14.4358L155.16 14.43L155.084 14.4912L154.994 14.4586L155.003 14.5013L155.001 14.5006V14.5013L154.864 14.418L154.809 14.4485C154.736 14.4912 154.661 14.5345 154.586 14.5784L154.509 14.6229L154.508 14.6211L154.493 14.6326L154.429 14.6702L154.435 14.6746L154.227 14.8299L154.165 14.8759L154.141 14.8371L154.079 14.8733L154.072 14.8772L153.933 14.958L153.928 14.9619L153.903 14.9753L153.883 14.895L153.799 15.0362L153.771 15.0522L153.773 15.0529L153.558 15.1789L153.521 15.201L153.398 15.273V15.2737L153.16 15.4145L153.024 15.4945H153.024L152.695 15.6893L152.694 15.6879L152.352 15.8903L152.355 15.8929L152.269 15.9443L152.06 16.0692L152.058 16.071L152.015 16.0978L152.014 16.0966L151.948 16.1368L151.838 16.0355L151.859 16.1901L151.324 16.5155L151.323 16.5143L151.278 16.5422L151.27 16.5466L151.14 16.4232L151.162 16.6129L151.126 16.6339L151.129 16.6364L150.811 16.8369L150.645 16.9572L150.661 16.9311L150.284 17.1501L149.799 17.4512L149.797 17.4505L149.673 17.5288L149.648 17.544L149.623 17.5599C149.409 17.6924 149.192 17.8292 148.971 17.9675V17.9668L148.954 17.9776C148.943 17.9845 148.932 17.9917 148.921 17.9986L148.88 18.0247L148.829 18.0533L148.828 18.0577L148.819 18.0628L148.821 18.0653L148.57 18.2289L148.578 18.2149L148.013 18.5732L147.943 18.4892L147.94 18.6192L147.939 18.6199V18.621L147.934 18.6242C147.712 18.765 147.486 18.9109 147.258 19.0565V19.0558L147.132 19.1379C147.131 19.1386 147.13 19.1391 147.129 19.1398L147.081 19.1702L145.73 20.0469L146.615 19.7319C146.803 19.6645 146.987 19.5995 147.167 19.539L147.237 19.5141V19.5122L147.291 19.4938L147.745 19.3424L147.745 19.3442L147.927 19.2831L148.033 19.248L148.094 19.2295V19.2284C148.165 19.2049 148.234 19.182 148.303 19.1603L148.46 19.1114V19.1107C148.584 19.0724 148.706 19.0343 148.824 18.9974L148.824 19.0318L148.903 18.9739L149.015 18.9395C149.117 18.9095 149.213 18.8822 149.309 18.8536L149.663 18.753V18.7542L149.745 18.7292L149.832 18.705V18.7032L149.837 18.7018L150.121 18.6286C150.267 18.591 150.406 18.5562 150.54 18.5236L150.545 18.5222L150.639 18.6242L150.629 18.5015H150.63C150.707 18.4823 150.784 18.4652 150.857 18.4486L150.903 18.4371L150.905 18.4345L151.165 18.3805C151.231 18.3665 151.294 18.3545 151.356 18.3411V18.3425L151.677 18.2802C151.797 18.2599 151.906 18.2419 152.009 18.2266L152.038 18.2222L152.007 18.2788L152.082 18.2158L152.243 18.192L152.261 18.1913C152.423 18.1715 152.561 18.1576 152.679 18.1493L152.72 18.1468L152.74 18.1461C152.832 18.1399 152.908 18.1385 152.973 18.1385L152.988 18.2174L153.08 18.1385L153.105 18.1392C153.15 18.141 153.183 18.1442 153.205 18.1468L153.194 18.1692L153.263 18.1558H153.264L153.308 18.1482L153.408 18.1297C153.538 18.1062 153.667 18.0838 153.797 18.0623L153.804 18.0612L153.978 18.2204L153.936 18.0402L153.964 18.0351L154.446 17.9682H154.447L154.613 17.9453L154.996 17.9019C155.047 17.8962 155.097 17.8918 155.148 17.8853L155.208 17.8802L155.217 17.9158L155.262 17.8749L155.303 17.871C155.446 17.8572 155.587 17.8463 155.729 17.8355L155.766 18.0049L155.825 17.8717L155.93 17.952L155.902 17.8239C156.059 17.8142 156.216 17.8055 156.371 17.7997L156.668 17.7895L156.86 17.9372L156.816 17.7845L156.958 17.7819L157.362 17.7787V17.778L157.5 17.7787L157.516 17.7635L157.536 17.7794L157.96 17.7865H157.961L158.254 17.7974L158.548 17.8094L158.549 17.8101L158.562 17.8108L158.708 17.9089L158.687 17.8191C158.804 17.8249 158.92 17.8332 159.035 17.8408L159.034 17.8426L159.385 17.8675L159.425 17.8719L159.453 17.8897L159.467 17.8749L159.477 17.8763C159.708 17.898 159.937 17.9215 160.162 17.9488L160.22 18.1258L160.3 17.9654L160.334 17.9698L160.339 17.9723L160.338 17.9705L160.395 17.9774L160.454 17.9857L160.454 17.985L160.459 17.9857C160.703 18.0169 160.944 18.0526 161.182 18.0907L161.201 18.0939L161.201 18.0965L161.295 18.111L161.363 18.1519L161.373 18.1232L161.454 18.1359L161.456 18.1345L161.528 18.1461L162.023 18.2289L161.625 17.9571L161.626 17.9564L161.314 17.745V17.7462C161.195 17.6665 161.067 17.5819 160.931 17.4928L160.932 17.4914L160.8 17.4074L160.783 17.3965L160.561 17.2546V17.2535L160.486 17.2064C160.475 17.1995 160.463 17.1923 160.452 17.1854L160.411 17.1593C160.339 17.1134 160.266 17.0677 160.19 17.0206L160.117 16.9761V16.9768L160.088 16.959L160.087 16.9579L160.049 16.9343C160.023 16.9184 159.994 16.9018 159.968 16.8854L159.88 16.8307V16.8325C159.805 16.7866 159.731 16.7421 159.654 16.6964V16.6952L159.605 16.6673L159.504 16.6062V16.6075L159.466 16.5852C159.327 16.5037 159.185 16.4222 159.04 16.3394L159.027 16.3322L159.026 16.3311L158.958 16.2928L158.822 16.2164L158.823 16.2182L158.782 16.1959L158.783 16.1947L158.697 16.1476C158.68 16.1386 158.662 16.1292 158.646 16.1202L158.631 16.1119C158.512 16.047 158.393 15.9812 158.271 15.9171L158.237 15.8993L158.228 15.8585L158.203 15.8813L158.193 15.8755C158.079 15.8158 157.965 15.7565 157.849 15.6974L157.745 15.6439L157.744 15.6445C157.732 15.6388 157.721 15.6325 157.709 15.6268L157.711 15.6249L157.412 15.4791L157.411 15.4784L157.363 15.4555C157.345 15.4465 157.325 15.4378 157.307 15.4288L157.211 15.3824L157.212 15.3831C157.187 15.3709 157.161 15.3595 157.136 15.3469V15.3462L157.047 15.3049C157.042 15.3023 157.035 15.2991 157.03 15.2965L156.981 15.2737L156.995 15.2407L156.966 15.2661L156.924 15.2476L156.824 15.2005V15.2017L156.7 15.1456L156.699 15.1445L156.631 15.1138L156.504 15.0552L156.515 15.1041L156.512 15.1022L156.4 15.0367L156.399 15.0374L156.248 14.9483L156.125 14.8962L156.126 14.8943L156.012 14.8491L155.966 14.8288L155.965 14.8299L155.958 14.8267L155.952 14.8299L155.943 14.8025L155.929 14.8147L155.9 14.8032C155.823 14.772 155.745 14.7413 155.667 14.7109L155.668 14.7097L155.54 14.6608C155.54 14.6608 155.538 14.6601 155.538 14.6601L155.48 14.6384C155.383 14.6015 155.285 14.5652 155.187 14.5295L155.276 14.3506L155.462 14.4201L155.487 14.4291C155.585 14.466 155.684 14.5041 155.782 14.5431L156.05 14.652L156.05 14.6532L156.262 14.7385L156.272 14.7429C156.41 14.8022 156.551 14.8632 156.692 14.9264L156.743 14.9499C156.815 14.9818 156.888 15.0148 156.961 15.0487L157.018 15.0748L157.22 15.1696L157.275 15.1964C157.447 15.2785 157.622 15.3637 157.797 15.4523L157.814 15.4613L157.766 15.5746L157.863 15.4855L157.864 15.4849L157.934 15.5218C158.108 15.6102 158.279 15.6992 158.447 15.789L158.475 15.8042L158.727 15.9411L159.121 16.1615C159.291 16.257 159.455 16.3519 159.614 16.446L159.654 16.4689L159.721 16.5152L159.725 16.5109C159.938 16.6387 160.144 16.7629 160.338 16.8833L160.354 16.8942L160.593 17.0437C160.733 17.1328 160.868 17.2189 160.995 17.3022L161.069 17.3511V17.3504C161.187 17.4282 161.302 17.5039 161.406 17.5733L161.438 17.5957L161.641 17.7339L161.725 17.7905C161.964 17.9555 162.147 18.0852 162.265 18.1719L162.197 18.3979L162.351 18.2342L162.352 18.2349H162.353L162.496 18.3381C162.711 18.384 162.919 18.4322 163.124 18.4807L163.227 18.5061L163.225 18.5125L163.23 18.5075L163.376 18.543C163.617 18.6023 163.851 18.6646 164.078 18.7276L164.353 18.8061C164.581 18.8709 164.801 18.9379 165.013 19.0052L165.079 19.0262L165.08 19.0255L165.16 19.0523V19.053L165.257 19.0842C165.449 19.1465 165.632 19.2102 165.811 19.272L166.211 19.4165L166.253 19.4324C166.42 19.4947 166.582 19.5559 166.735 19.6163L166.787 19.638C166.88 19.6742 166.969 19.71 167.057 19.7462L167.138 19.7799C167.312 19.8519 167.472 19.9212 167.622 19.9869L167.681 20.0137C167.789 20.0615 167.888 20.1074 167.982 20.1499L168.041 20.1766C168.195 20.2491 168.328 20.3142 168.441 20.3695L168.46 20.3785L168.483 20.3905C168.713 20.5064 168.835 20.5752 168.836 20.5765L168.875 20.5982V20.5989L168.938 20.6352L169.033 20.6917V20.691L169.408 20.9089L169.722 21.0902V21.0909L170.118 21.3215L170.532 21.5615V21.5622L170.924 21.7895V21.7902L171.561 22.1601L171.783 22.2886L171.823 22.3129L171.938 22.3791L172.204 22.5337V22.5344L172.667 22.803H172.666L173.042 23.0206L173.418 23.2389L173.417 23.2396L173.7 23.4025V23.4039L174.334 23.772V23.7713L174.372 23.7937L174.381 23.7995L174.539 23.8925V23.8913L175.054 24.1906V24.1913L175.349 24.3625L175.352 24.3614L175.75 24.5869L175.749 24.5945L176.382 24.9623L176.5 25.0311L176.553 25.0618L176.963 25.3004V25.3011L177.557 25.6461L178.139 25.9842V25.9899H178.994V26.4808L179.396 26.7143L179.394 26.5865L179.733 26.7838V26.4381L180.123 26.8352C179.99 26.3878 179.738 25.5794 179.371 24.5485ZM181.746 -5.3206C181.775 -5.4263 181.597 -5.63007 181.434 -5.78722C181.413 -5.65545 181.337 -5.52876 181.337 -5.52876C181.455 -5.5403 181.746 -5.3206 181.746 -5.3206ZM181.443 -6.1336L181.422 -6.13937L181.864 -5.60722C182.208 -6.06737 181.443 -6.1336 181.443 -6.1336ZM186.753 -5.26522C186.622 -5.41291 186.597 -5.73807 186.597 -5.73807C186.188 -5.73807 185.951 -5.16645 185.951 -5.16645C186.191 -5.4263 186.547 -5.3453 186.753 -5.26522ZM186.22 -5.80499L185.984 -5.82599L185.951 -5.59499C186.044 -5.68845 186.135 -5.75607 186.22 -5.80499ZM195.218 13.5245C195.256 13.3435 195.171 13.14 195.171 13.14C195.01 13.2265 194.903 12.9981 194.903 12.9981L194.726 12.9912C194.502 12.7945 194.687 12.5749 194.687 12.5749C194.672 12.4959 194.956 12.3316 194.956 12.3316C195.08 12.198 194.895 12.0406 194.895 12.0406H191.881C191.704 12.0565 191.858 12.3233 191.858 12.3233C191.974 12.4015 191.82 12.4729 191.804 12.5119C191.789 12.5513 191.728 12.669 191.628 12.7945C191.528 12.9199 191.573 13.0932 191.573 13.0932C191.643 13.1638 191.643 13.5796 191.643 13.5796L191.451 27.2382C191.597 27.2534 191.528 27.4579 191.528 27.4579H191.582C191.566 27.6305 191.697 27.7004 191.697 27.7004C191.82 27.7405 191.743 27.8894 191.743 27.8894L194.557 27.9441C194.395 27.8109 194.618 27.7085 194.618 27.7085C194.764 27.6773 194.717 27.4652 194.717 27.4652V27.4105C194.61 27.2686 194.856 27.2455 194.856 27.2455C194.817 27.1438 194.909 27.12 194.909 27.12L195.24 13.6971C195.11 13.6262 195.218 13.5245 195.218 13.5245ZM199.953 13.0616C199.63 13.0685 199.592 12.8172 199.592 12.8172C199.53 12.4957 199.876 12.3785 199.876 12.3785C200.022 12.2765 199.861 12.1193 199.861 12.1193L196.67 12.0792C196.84 12.1193 196.716 12.3854 196.716 12.3854C196.878 12.3542 196.909 12.5585 196.909 12.5585C197.202 12.5585 196.971 12.9741 196.971 12.9741C197.032 13.0288 196.987 13.1236 196.987 13.1236C196.917 13.2732 196.617 13.2019 196.617 13.2019C196.548 13.233 196.548 13.5157 196.548 13.5157C196.655 13.5939 196.532 13.7047 196.532 13.7047L196.455 27.1507C196.548 27.1819 196.541 27.2762 196.541 27.2762C196.663 27.2922 196.601 27.5042 196.601 27.5042C196.532 27.5589 196.586 27.6845 196.586 27.6845C196.825 27.7239 196.747 27.9519 196.747 27.9519L199.462 27.9667C199.185 27.8578 199.492 27.7242 199.492 27.7242C199.63 27.6612 199.569 27.5518 199.569 27.5518C199.523 27.513 199.615 27.4881 199.615 27.4881C199.508 27.3397 199.692 27.3079 199.692 27.3079C199.638 27.1985 199.753 27.1595 199.753 27.1595L200.1 13.6417C200.053 13.587 200.114 13.5245 200.114 13.5245C200.153 13.3276 199.953 13.0616 199.953 13.0616ZM204.873 13.6809C204.896 13.5709 204.796 13.3124 204.796 13.3124C204.543 13.2736 204.451 13.0456 204.451 13.0456C204.228 12.5352 204.789 12.3466 204.789 12.3466C204.781 12.2995 204.712 12.2135 204.712 12.2135L201.783 12.174C201.506 12.4255 201.998 12.7235 201.998 12.7235C202.151 12.8412 201.913 13.1079 201.844 13.0927C201.775 13.0761 201.536 13.155 201.536 13.155C201.398 13.2575 201.444 13.5478 201.444 13.5478C201.514 13.6415 201.437 13.6885 201.437 13.6885L201.337 27.0644C201.321 27.2052 201.414 27.3159 201.414 27.3159C201.614 27.3865 201.459 27.5197 201.459 27.5197C201.506 27.5273 201.483 27.5668 201.483 27.5668C201.468 27.654 201.552 27.7399 201.552 27.7399C201.721 27.8022 201.659 27.9755 201.659 27.9755L204.327 28.0066C204.327 28.0066 204.527 28.0849 204.327 27.9755C204.127 27.8654 204.381 27.7239 204.381 27.7239C204.442 27.6685 204.411 27.5361 204.411 27.5361C204.342 27.4724 204.442 27.4807 204.442 27.4807C204.312 27.3706 204.504 27.3316 204.504 27.3316C204.58 27.3233 204.619 27.1357 204.619 27.1357L204.887 13.791C204.781 13.7594 204.873 13.6809 204.873 13.6809ZM209.609 13.383C209.286 13.1398 209.324 12.9979 209.393 12.9118C209.463 12.8252 209.408 12.6838 209.439 12.5903C209.47 12.4955 209.663 12.3312 209.663 12.3312L206.726 12.2439L206.572 12.3782C207.049 12.5585 206.857 12.8409 206.811 12.9042C206.764 12.9665 206.772 13.0532 206.764 13.0996C206.757 13.1474 206.579 13.2104 206.579 13.2104C206.711 13.4065 206.495 13.5159 206.495 13.5159L206.265 13.5242C206.304 13.5706 206.249 13.7204 206.249 13.7204C206.296 13.791 206.227 13.854 206.227 13.854L206.204 27.0644C206.196 27.2052 206.358 27.3076 206.358 27.3076C206.503 27.3789 206.364 27.5515 206.364 27.5515C206.304 27.5986 206.38 27.6847 206.38 27.6847C206.557 27.7789 206.511 27.9598 206.511 27.9598H209.224C209.094 27.8262 209.302 27.7082 209.302 27.7082C209.386 27.63 209.347 27.5592 209.347 27.5592C209.286 27.5128 209.379 27.4726 209.379 27.4726C209.264 27.3319 209.447 27.3076 209.447 27.3076C209.371 27.2453 209.47 27.1823 209.47 27.1823L209.639 13.4059C209.912 13.6103 209.639 13.3906 209.639 13.3906V13.4059C209.63 13.3985 209.62 13.3909 209.609 13.383ZM214.275 14.0109C214.237 13.9249 214.237 13.8854 214.259 13.8224C214.282 13.7594 214.144 13.4455 214.144 13.4455L214.067 13.3359C213.638 12.8255 214.252 12.5435 214.252 12.5435C214.175 12.5192 214.198 12.4175 214.198 12.4175L211.27 12.4099C211.055 12.4805 211.131 12.7784 211.184 12.7237C211.239 12.669 211.415 12.7389 211.415 12.7389C211.27 12.8645 211.507 13.0459 211.507 13.0459C211.523 13.2891 211.146 13.3362 211.146 13.3362C211.116 13.4222 211.001 13.3909 211.001 13.3909C211.001 13.3909 211.039 27.0729 211.047 27.1512C211.055 27.2294 211.147 27.3159 211.147 27.3159C211.332 27.3547 211.208 27.4726 211.208 27.4726C211.277 27.4879 211.223 27.5515 211.223 27.5515C211.123 27.6685 211.309 27.7712 211.309 27.7712C211.438 27.8419 211.4 27.9519 211.4 27.9519L213.852 27.8965C213.698 27.7869 213.898 27.6845 213.898 27.6845C213.968 27.6845 213.975 27.606 213.975 27.606C213.929 27.4253 214.098 27.4341 214.098 27.4341C214.044 27.2679 214.214 27.2372 214.214 27.2372L214.206 14.9998C214.206 14.9998 214.229 14.3873 214.252 14.316C214.275 14.2463 214.314 14.0975 214.275 14.0109ZM219.016 14.9479C219.029 14.9033 218.952 14.8161 218.883 14.7492C218.874 14.8052 218.84 14.8588 218.84 14.8588C218.891 14.8544 219.016 14.9479 219.016 14.9479ZM218.887 14.6003L218.878 14.5978L219.066 14.8262C219.213 14.6282 218.887 14.6003 218.887 14.6003ZM221.156 14.9707C221.099 14.9084 221.089 14.7695 221.089 14.7695C220.914 14.7695 220.813 15.0139 220.813 15.0139C220.915 14.9033 221.068 14.9377 221.156 14.9707ZM222.076 14.9479C222.089 14.9033 222.013 14.8161 221.944 14.7492C221.934 14.8052 221.901 14.8588 221.901 14.8588C221.952 14.8544 222.076 14.9479 222.076 14.9479ZM221.948 14.6003L221.938 14.5978L222.127 14.8262C222.274 14.6282 221.948 14.6003 221.948 14.6003ZM224.216 14.9707C224.16 14.9084 224.15 14.7695 224.15 14.7695C223.975 14.7695 223.874 15.0139 223.874 15.0139C223.976 14.9033 224.129 14.9377 224.216 14.9707ZM229.197 17.0169L229.169 16.8496L229.101 16.761L227.354 16.7515C227.479 16.8 227.344 16.9775 227.344 16.9775C227.237 16.8787 227.257 17.0959 227.257 17.0959C227.305 17.1252 227.257 17.2239 227.257 17.2239L227.2 20.673C227.247 20.6933 227.237 20.7914 227.237 20.7914C227.315 20.7819 227.44 20.9098 227.44 20.9098L227.45 20.7914L228.473 20.8011C228.676 20.8209 228.715 21.0875 228.715 21.0875L228.927 21.1073V20.9502C228.927 20.7822 229.043 20.8115 229.043 20.8115C229.014 20.7822 229.09 20.7529 229.09 20.7529C229.023 20.7025 229.13 20.5657 229.13 20.5657L229.217 17.2242L229.169 17.0765C229.12 17.076 229.197 17.0169 229.197 17.0169ZM232.315 17.2237L230.085 17.1951L230.075 20.8207H230.433C230.433 20.8207 230.539 20.7819 230.549 20.9192V21.0669H230.76C230.76 21.0669 230.78 20.9098 230.906 20.9098H231.012C231.012 20.9098 231.002 20.8309 231.118 20.8207H232.276V20.7526H232.315C232.315 20.7526 232.258 20.6539 232.363 20.6139L232.315 17.2237ZM231.215 22.7592C231.215 22.7592 228.848 22.6643 228.434 25.3666H228.582L228.555 25.4488C228.555 25.4488 228.782 25.5309 228.528 25.6812C228.528 25.6812 228.608 25.9537 228.421 26.0772L228.41 28.8706H231.788C231.789 28.8757 231.791 28.8822 231.787 28.8879C231.761 28.9191 232.205 29.2329 232.18 29.2463C232.154 29.2576 232.246 29.3029 232.272 29.3093C232.281 29.3112 232.311 29.3209 232.34 29.3322C232.305 29.166 232.318 29.0882 232.312 28.9962C232.308 28.9325 232.289 28.9082 232.274 28.8706H233.96L233.982 26.0359C233.982 26.0359 233.883 26.0352 233.893 25.743C233.893 25.743 233.8 25.6992 233.8 25.6048L233.781 25.5985V25.5482L233.949 25.4361C233.949 25.4361 233.822 22.9373 231.215 22.7592ZM235.307 18.1999L235.287 17.1552C235.22 17.1055 235.259 17.0959 235.259 17.0959C235.327 17.0564 235.191 16.9279 235.191 16.9279C235.123 16.8985 235.171 16.7903 235.171 16.7903H233.29C233.173 16.8196 233.203 17.1252 233.203 17.1252C233.28 17.1552 233.203 17.2735 233.203 17.2735L233.3 20.7023H233.357V20.7819C233.415 20.7718 233.464 20.8807 233.464 20.8807L233.454 21.1066L233.657 21.1265L233.647 21.0672L233.782 20.8902C233.831 20.8207 233.937 20.8507 233.937 20.8507H234.845C234.845 20.8507 234.845 20.8507 234.873 20.8507C234.902 20.8507 234.912 20.8609 234.931 20.9003C234.95 20.9398 234.941 20.9991 234.969 20.9792C234.999 20.9589 234.979 20.8807 234.979 20.8807C234.979 20.8807 235.057 20.9003 235.105 20.871C235.154 20.841 235.23 20.8309 235.23 20.8309V20.7621H235.288C235.269 20.7023 235.346 20.6239 235.346 20.6239L235.336 18.4754C235.472 18.348 235.307 18.1999 235.307 18.1999Z" fill="#866443"/>
</g>
<defs>
<clipPath id="clip0_2002_1158">
<rect width="73" height="33" fill="white" transform="matrix(-1 0 0 1 73 0)"/>
</clipPath>
</defs>
</svg>
