<svg width="32" height="27" viewBox="0 0 32 27" fill="none" xmlns="http://www.w3.org/2000/svg">
<g clip-path="url(#clip0_2002_1160)">
<path d="M-20.252 23.5903C-20.2681 23.6416 -20.2776 23.6927 -20.2848 23.7407L-30.0918 25.1164L-28.6502 25.4623H226.299L225.88 25.1088H224.469V24.6856H223.973L223.802 24.7457V25.0691H223.319V24.8731H222.97V23.445H222.329V21.8497H219.619V21.6698H218.403V18.8681H217.642V21.6698H216.805V20.9121H215.665V21.7306C215.618 21.7076 215.587 21.7037 215.587 21.7037C215.511 21.1677 215.101 21.3209 215.101 21.3209L214.716 12.2778C214.946 12.2016 215.01 11.7417 215.01 11.7417L215.049 10.4508C215.165 10.3496 215.049 10.094 215.049 10.094C214.933 9.90248 215.075 9.94032 215.075 9.94032L215.139 9.20001C215.318 9.22555 215.651 9.08463 215.651 9.08463C216.113 9.0591 216.024 8.53585 216.024 8.53585L215.742 8.44624C215.729 8.28049 215.497 7.98637 215.497 7.98637L215.292 7.99914C215.421 8.10174 215.113 8.3188 215.113 8.3188L209.509 7.06615L208.56 7.00348L208.572 7.23283L207.764 7.09262L207.777 7.52673L207.61 7.55226L207.636 7.83339L207.905 7.80785L207.893 8.25473L207.842 8.28026L207.867 8.68814L207.56 8.58623L205.828 8.54839C205.456 8.56115 205.585 8.82882 205.585 8.82882L195.197 9.25039L195.184 8.57346C195.492 8.44601 195.247 8.17765 195.247 8.17765L194.222 8.13912L192.709 8.61176L192.273 8.57323L192.26 8.63799L192.08 8.61176C192.067 8.08851 191.76 8.22873 191.76 8.22873V7.90907C191.799 7.74331 191.554 7.5518 191.554 7.5518L190.926 7.6031L190.772 7.52626L189.926 7.50072L189.863 7.5648L189.824 7.48726L188.939 7.42389L188.271 7.38605L188.195 7.43665L188.118 7.34751L187.631 7.33474L187.618 7.38605C187.579 7.41112 187.284 7.37258 187.284 7.37258C187.092 7.41112 186.976 7.30921 186.976 7.30921L186.144 7.27021L186.053 7.34774L185.989 7.27021L184.989 7.2203L184.925 7.29644L184.809 7.2203L183.758 7.12999L183.732 7.20683C183.541 7.20683 183.182 7.09216 183.182 7.09216H182.654L182.591 7.18176L182.463 7.06592L181.232 7.04108L181.219 6.96494L181.412 6.9394C181.655 6.61974 181.36 6.30032 181.36 6.30032C181.36 6.30032 180.489 6.24971 180.398 6.30032C180.308 6.35162 180.308 6.22417 180.308 6.22417L179.808 6.19864C179.782 5.95605 179.077 5.98158 179.077 5.98158L179.012 5.57301L177.897 5.52171L176.986 5.27912L176.23 5.29189L176.127 5.35526L176.05 5.50894L175.422 5.49617L175.371 5.75176C175.371 5.75176 174.806 5.55955 174.627 5.55955C174.448 5.55955 174.627 5.78937 174.627 5.78937C174.627 5.78937 174.627 5.85344 174.473 5.85344C174.319 5.85344 174.435 5.54725 174.435 5.54725L173.351 5.25521C173.353 5.23849 173.355 5.22132 173.357 5.20205C173.434 4.58919 172.537 4.61473 172.537 4.61473C172.537 4.61473 172.024 4.55065 171.754 4.56342C171.485 4.57619 171.524 4.74217 171.524 4.74217L170.139 4.35914C170.421 4.20546 169.369 4.09148 169.369 4.09148C169.1 4.05248 169.01 4.3719 169.01 4.3719C168.843 4.38467 168.741 4.76771 168.741 4.76771L168.716 4.44874L168.241 4.42321L168.228 3.96264L166.548 4.01394L166.535 4.55066L166.1 4.57619L165.932 4.69087V4.51212C165.932 4.51212 166.035 4.48658 165.881 4.51212C165.727 4.53765 165.676 4.72987 165.676 4.72987C165.676 4.48658 165.497 4.24376 165.497 4.24376C165.317 4.15485 165.355 3.70774 165.355 3.70774C165.33 3.27294 165.112 3.37531 165.112 3.37531L160.444 4.97246L160.43 4.79325H159.199C159.199 4.79325 157.66 5.3678 157.48 5.43233C157.301 5.49571 157.338 5.61108 157.338 5.61108L157.416 5.87874C157.416 5.87874 157.493 5.81537 157.814 5.81537C158.135 5.81537 157.609 5.98135 157.532 6.03242C157.455 6.08303 157.506 6.28732 157.506 6.28732L157.404 6.0575C157.404 6.0575 157.198 6.12157 157.135 6.1088C157.07 6.09649 157.057 6.23694 157.057 6.23694C157.057 6.23694 157.057 6.38992 156.954 6.51737C156.852 6.64551 156.865 6.23694 156.865 6.23694C156.865 6.23694 156.506 6.36439 156.454 6.44123C156.403 6.51807 156.531 6.68382 156.429 6.69682C156.326 6.70958 156.364 6.4663 156.326 6.4663C156.288 6.4663 156.044 6.40223 156.044 6.40223C155.955 5.95582 154.659 6.41615 154.659 6.41615L154.608 6.32585L153.748 6.24971L153.12 6.49183C153.068 6.54314 153.03 6.49183 153.03 6.49183L152.056 6.73512C151.812 6.60628 151.773 6.9394 151.773 6.9394L151.594 6.96494L151.645 7.20707C151.684 7.51442 151.966 7.41135 151.966 7.41135V7.85892H152.44C152.492 8.06321 152.915 8.03837 152.915 8.03837V9.27615C152.659 9.27615 152.85 9.51944 152.85 9.51944C152.864 9.81264 153.004 10.2474 153.004 10.2474C153.145 10.3621 153.068 10.6298 153.068 10.6298H152.813C152.85 11.0646 153.145 11.0383 153.145 11.0383L153.402 11.3202L153.231 20.0039H152.388V19.1132L151.343 20.1551V21.1394H150.67V6.01687H135.45L135.261 5.89082L135.83 5.00891C135.83 5.00891 135.831 4.99173 135.833 4.97107C135.823 4.97246 135.816 4.97687 135.807 4.97687H105.122C105.104 4.97687 105.087 4.97246 105.071 4.96596C105.073 4.99149 105.073 5.00891 105.073 5.00891L105.644 5.89082L105.453 6.01687H90.2325V19.1894C89.7309 18.8878 89.2344 18.5969 88.6848 18.3332C82.8624 12.6297 78.6399 9.72303 76.1135 8.28583C73.4335 6.76228 72.0595 6.52155 71.9001 6.49787C70.7162 6.19817 69.2844 6.25714 67.6447 6.67151C67.3675 6.74185 67.0846 6.82264 66.7958 6.91294C63.1926 4.88215 60.8191 3.69614 60.7864 3.68012C58.6216 2.63246 56.5387 2.1027 54.5969 2.11106C53.0325 2.11616 51.5587 2.46648 50.2124 3.15106C48.0128 4.27046 46.9054 5.89523 46.7807 6.08605C44.4562 8.87501 42.7041 12.5164 41.6438 15.0804C40.4936 17.8599 39.8834 20.0128 39.8771 20.0346C39.8489 20.1351 39.8796 20.2382 39.9484 20.308L39.5009 20.5611L39.4578 21.0869H39.1568V18.6654H38.3846L38.3529 -9.2189C38.6977 -9.36306 38.4308 -9.58383 38.4308 -9.58383C38.5529 -10.645 38.875 -10.5008 38.875 -10.5008C38.841 -10.755 38.6525 -10.7659 38.6525 -10.7659C38.5863 -11.086 39.0524 -11.5612 39.0524 -11.5612C39.0846 -11.3627 39.1624 -11.528 39.1624 -11.528C39.1522 -12.0371 38.5965 -11.7265 38.5965 -11.7265C38.9405 -12.5775 39.6955 -12.3565 39.6955 -12.3565C40.0164 -12.2797 39.7065 -12.6555 39.7065 -12.6555C40.1276 -13.075 39.6845 -13.3401 39.6845 -13.3401L39.6395 -13.5066L39.8286 -13.9261L36.2342 -14.3896L33.0829 -13.5391L33.5009 -13.0678C33.4964 -13.0653 33.4939 -13.0639 33.4939 -13.0639C33.1055 -12.7763 33.416 -12.4561 33.416 -12.4561C33.4624 -12.4318 33.5027 -12.4201 33.54 -12.4183C33.5316 -12.4146 33.5272 -12.412 33.5272 -12.412C33.3272 -12.0028 33.5715 -12.0919 33.5715 -12.0919C33.8596 -12.6214 34.725 -11.7263 34.725 -11.7263C34.5031 -11.3516 34.6581 -10.8982 34.6581 -10.8982C34.3584 -10.8982 34.3031 -10.6663 34.3031 -10.6663C34.6252 -10.7104 34.6479 -9.97011 34.6479 -9.97011C34.6479 -9.74911 34.7926 -9.6602 34.7926 -9.6602C34.3586 -9.37327 34.7809 -9.19661 34.7809 -9.19661L34.4922 3.57681C34.4922 3.57681 34.6033 3.63183 34.5481 3.67594C34.4921 3.72005 34.581 3.80849 34.6362 3.84122C34.6914 3.87442 34.5919 3.99607 34.6812 4.0295C34.7693 4.06269 34.714 4.15114 34.6362 4.20546C34.5583 4.26187 34.6362 4.33871 34.7031 4.41624C34.7693 4.49378 34.6362 4.49378 34.6812 4.55971C34.7255 4.62633 34.7031 4.65907 34.6479 4.75889C34.5919 4.85824 34.57 4.81391 34.6255 4.84733C34.6814 4.88053 34.6364 4.91396 34.5702 4.92417C34.504 4.93578 34.4705 5.17837 34.4705 5.17837L34.3034 19.8955C34.115 19.918 34.1819 20.1839 34.1819 20.1839C33.9936 20.1941 34.1048 20.5699 34.1048 20.5699C33.8386 20.6577 33.9491 21.0674 33.9491 21.0674C33.6269 21.189 33.7717 21.686 33.7717 21.686H33.6001V19.0118H32.9058V21.1737H31.7767V21.4843L31.256 21.3518C31.256 21.3518 31.3518 20.8624 30.9153 20.8471C30.9153 20.8471 31.0502 20.728 30.7095 20.5627L30.7018 20.4589C30.7018 20.4589 30.8363 20.3963 30.7018 20.3726L30.6857 20.3412C30.6857 20.3412 30.8046 20.2465 30.678 20.215C30.678 20.215 30.5591 20.1202 30.543 19.994L30.0834 5.96905C30.0834 5.96905 30.1386 5.93051 30.1386 5.8351C30.1386 5.8351 30.2813 5.95349 30.4717 5.50406C30.4717 5.50406 30.1701 5.31464 30.0673 4.96689C30.0673 4.96689 30.1149 4.83248 30.1862 4.84896L30.1946 3.63996L30.3142 3.43497C30.3142 3.43497 30.4486 3.30057 30.2421 3.2929L29.9804 3.27689C29.9804 3.27689 30.0671 2.58278 29.8853 2.39311L29.9405 2.36177C29.9405 2.36177 30.0671 2.49572 30.2188 2.50268C30.2188 2.50268 30.4239 2.41679 30.4561 2.12429C30.4561 2.12429 30.6703 1.91165 30.6386 1.7849H30.7575L30.8442 1.62727V1.25585C30.8442 1.25585 30.9631 1.17715 30.8763 1.1688C30.8763 1.1688 31.0822 1.01117 30.8442 0.94779L30.4482 0.852377C30.4482 0.852377 30.4006 0.940134 30.337 0.868402C30.337 0.868402 30.0431 0.750468 29.9011 0.742807C29.7585 0.73445 29.7662 0.734452 29.7184 0.710773C29.6715 0.687095 29.5995 0.648088 29.4965 0.648088C29.393 0.648088 29.2902 0.616057 29.2424 0.592379C29.1949 0.5687 29.0443 0.497667 28.98 0.664114C28.98 0.664114 28.9653 0.908792 29.0289 0.979132L28.5448 0.986797C28.5448 0.986797 28.4735 1.10588 28.3707 1.04251C28.2677 0.979135 28.2441 1.00281 28.1166 1.01117C27.9901 1.01883 27.974 1.03485 27.9101 1.01117C27.8472 0.986793 27.84 0.986788 27.7603 0.994449C27.6805 1.00281 27.5223 1.04251 27.3629 1.02719C27.2046 1.01118 27.2999 1.04251 27.1333 1.05017C26.9666 1.05784 26.9114 1.05017 26.8086 1.03484C26.7051 1.01883 26.6261 1.02719 26.5391 1.02719C26.4524 1.02719 26.1187 1.02719 26.0473 1.10589C26.0473 1.10589 26.0872 1.06618 25.9285 1.05783C25.7697 1.05017 23.0986 1.05783 23.0986 1.05783C23.0986 1.05783 23.0588 1.09822 23.0182 1.16856C23.0182 1.16856 23.0271 1.08197 22.8921 1.08197C22.7576 1.08197 22.1071 1.08964 21.7425 1.09799C21.378 1.10566 20.9652 1.10565 20.8384 1.11331C20.7118 1.12167 20.6559 1.18435 20.5291 1.15301C20.4023 1.12167 20.4023 1.10565 20.2918 1.11331C20.1806 1.12167 20.0378 1.09799 19.9511 1.10565C19.863 1.11331 19.7916 1.14464 19.7839 1.31063V1.56297C19.7839 1.56297 19.562 1.49194 19.4586 1.59501C19.4586 1.59501 19.3872 1.53999 19.2688 1.44528C19.15 1.34986 19.0702 1.31086 18.8798 1.32688C18.6901 1.3429 18.6181 1.36588 18.3808 1.35822C18.1428 1.34986 18.1036 1.3032 18.0002 1.35822C17.8971 1.41324 17.8818 1.35821 17.7538 1.37354C17.6272 1.38955 17.5878 1.39723 17.469 1.42927C17.3501 1.4613 17.1674 1.31086 16.8511 1.49982H16.7084C16.7084 1.49982 16.7874 1.35822 16.549 1.3032C16.549 1.3032 16.4383 1.27117 16.311 1.24819C16.1849 1.22381 16.0416 1.22382 15.9073 1.23217C15.7724 1.24053 15.7563 1.25584 15.6847 1.24052C15.6134 1.22381 15.5896 1.20013 15.5104 1.24052C15.4314 1.27906 15.3915 1.26351 15.2962 1.25585C15.2018 1.24819 15.1535 1.26351 15.0743 1.28719C14.9953 1.31087 14.7657 1.3429 14.7174 1.46153C14.6699 1.57992 14.7657 1.67487 14.6391 1.76122C14.6391 1.76122 14.5104 1.94252 14.4643 2.21134C14.4643 2.21134 14.3216 2.13196 14.2186 2.25035C14.1158 2.36874 14.0914 2.32208 13.9564 2.32974C13.8219 2.3374 13.7261 2.41679 13.6954 2.3764C13.6639 2.3374 13.6317 2.28169 13.6317 2.28169L13.2434 2.30606C13.2434 2.30606 13.0844 2.26707 13.0208 2.23503C12.9579 2.20369 12.9579 2.20369 12.9579 2.20369L8.71601 2.37664L8.66077 2.50293C8.66077 2.50293 8.51812 2.56699 8.45379 2.51894C8.39132 2.47227 8.37477 2.47227 8.31161 2.48759C8.24797 2.50292 8.24798 2.50293 8.24798 2.50293L8.26476 2.39334L7.56644 1.44551L5.45798 1.5249C5.45798 1.5249 5.50483 1.20014 5.10043 0.93178L3.54693 1.39723C3.54693 1.39723 3.44344 1.32689 3.3565 1.31087C3.2691 1.29485 3.10244 1.06619 3.05489 0.963816C3.05489 0.963816 2.8647 0.963816 2.75399 1.01883L2.56356 1.22382L2.75399 1.5249C2.75399 1.5249 2.78545 1.76888 2.89616 1.85524C2.89616 1.85524 3.01504 2.08507 2.92833 2.20369L3.84015 3.14248L3.83176 3.83797H3.66534C3.66534 3.83797 3.36373 3.87698 3.64226 4.13001L3.61849 4.20105L3.65765 4.25607L3.67373 5.2826C3.67373 5.2826 3.81638 5.33762 3.6968 5.44858C3.6968 5.44858 2.97611 5.7643 3.42806 6.1601C3.42806 6.1601 3.56255 6.59421 3.8884 6.27037C3.8884 6.27037 3.89539 6.39665 3.95902 6.3883L3.80798 20.1992C3.80798 20.1992 3.57653 20.2447 3.608 20.3951H3.22155V19.7899H2.52766V17.0228H1.57225V19.444H0.704254V20.5251H0.220608L0.207787 9.26617C0.354397 9.20465 0.241354 9.10994 0.241354 9.10994C0.294031 8.65657 0.431082 8.71808 0.431082 8.71808C0.416864 8.60991 0.335287 8.60526 0.335287 8.60526C0.307549 8.4676 0.506834 8.26448 0.506834 8.26448C0.520351 8.34967 0.55438 8.27864 0.55438 8.27864C0.549253 8.06158 0.311977 8.19414 0.311977 8.19414C0.459286 7.83037 0.781403 7.92508 0.781403 7.92508C0.919621 7.95828 0.785835 7.79764 0.785835 7.79764C0.966007 7.61819 0.776976 7.50421 0.776976 7.50421L0.757631 7.43317L0.838511 7.25442L-0.697506 7.05524L-2.04449 7.41971L-1.86572 7.62074C-1.86758 7.6219 -1.86898 7.6226 -1.86898 7.6226C-2.03493 7.74564 -1.90184 7.8826 -1.90184 7.8826C-1.8832 7.89281 -1.86525 7.89792 -1.84986 7.89862C-1.85243 7.89978 -1.85499 7.90117 -1.85499 7.90117C-1.93983 8.07598 -1.83635 8.03814 -1.83635 8.03814C-1.71281 7.81087 -1.34314 8.19367 -1.34314 8.19367C-1.43754 8.35385 -1.37135 8.54769 -1.37135 8.54769C-1.49931 8.54769 -1.52308 8.64705 -1.52308 8.64705C-1.38556 8.62778 -1.37647 8.94419 -1.37647 8.94419C-1.37647 9.0389 -1.31471 9.07674 -1.31471 9.07674C-1.49931 9.19978 -1.31867 9.27453 -1.31867 9.27453L-1.44151 14.7341C-1.44151 14.7341 -1.39465 14.7584 -1.41843 14.777C-1.4422 14.7956 -1.40421 14.8334 -1.38044 14.8476C-1.35736 14.8615 -1.39978 14.9142 -1.36109 14.9277C-1.3238 14.9425 -1.34757 14.9801 -1.38044 15.0038C-1.41377 15.0268 -1.38044 15.0609 -1.35223 15.0934C-1.32403 15.1262 -1.38044 15.1262 -1.36132 15.1542C-1.34268 15.183 -1.35223 15.1972 -1.37671 15.2394C-1.39978 15.2817 -1.40957 15.2638 -1.3858 15.278C-1.36132 15.2921 -1.38067 15.3061 -1.40957 15.3107C-1.43777 15.3158 -1.45199 15.4189 -1.45199 15.4189L-1.49954 19.6167H-2.42162V21.0001H-2.93533L-2.94955 9.26594C-2.80224 9.20442 -2.91669 9.10971 -2.91669 9.10971C-2.86331 8.65633 -2.72626 8.71785 -2.72626 8.71785C-2.74047 8.60967 -2.82089 8.60503 -2.82089 8.60503C-2.84979 8.46737 -2.64981 8.26424 -2.64981 8.26424C-2.63629 8.34944 -2.60342 8.27841 -2.60342 8.27841C-2.60739 8.06135 -2.84513 8.1939 -2.84513 8.1939C-2.69782 7.83014 -2.375 7.92485 -2.375 7.92485C-2.23795 7.95805 -2.37127 7.7974 -2.37127 7.7974C-2.19063 7.61796 -2.38036 7.50398 -2.38036 7.50398L-2.39971 7.43294L-2.3186 7.25419L-3.85461 7.05501L-5.20113 7.41948L-5.02305 7.62051C-5.02445 7.62167 -5.02562 7.62237 -5.02562 7.62237C-5.19157 7.74541 -5.05965 7.88237 -5.05965 7.88237C-5.03914 7.89258 -5.02166 7.89769 -5.00627 7.89839C-5.00953 7.89955 -5.0114 7.90094 -5.0114 7.90094C-5.09694 8.07574 -4.99275 8.0379 -4.99275 8.0379C-4.86922 7.81064 -4.49955 8.19344 -4.49955 8.19344C-4.59465 8.35362 -4.52775 8.54746 -4.52775 8.54746C-4.65571 8.54746 -4.67879 8.64682 -4.67879 8.64682C-4.54174 8.62755 -4.53218 8.94396 -4.53218 8.94396C-4.53218 9.03867 -4.47112 9.07651 -4.47112 9.07651C-4.65572 9.19955 -4.47554 9.2743 -4.47554 9.2743L-4.59838 14.7338C-4.59838 14.7338 -4.55153 14.7582 -4.5753 14.7768C-4.59838 14.7954 -4.56062 14.8332 -4.53661 14.8474C-4.51284 14.8613 -4.55596 14.914 -4.51866 14.9274C-4.47997 14.9423 -4.50375 14.9799 -4.53661 15.0036C-4.57017 15.0266 -4.53661 15.0607 -4.50911 15.0932C-4.48021 15.1259 -4.53661 15.1259 -4.51866 15.154C-4.49932 15.1828 -4.50911 15.197 -4.53218 15.2392C-4.55596 15.2815 -4.56575 15.2636 -4.54174 15.2777C-4.51866 15.2919 -4.53661 15.3058 -4.56551 15.3105C-4.59372 15.3156 -4.60793 15.4187 -4.60793 15.4187L-4.66201 20.2222H-5.28644V21.1732H-5.69806L-5.80481 16.057C-5.80481 16.057 -5.75027 15.9948 -5.78617 15.9763C-5.78617 15.9763 -5.73349 15.9719 -5.73349 15.8161C-5.73349 15.8161 -5.76682 15.6234 -5.64608 15.6092C-5.64608 15.6092 -5.51486 15.5022 -5.63653 15.4196H-5.61205V15.3274H-5.57732V15.2513H-5.76705V15.004L-5.71881 14.8984V14.8594H-5.76193L-5.7575 14.7768C-5.7575 14.7768 -5.78127 14.6897 -5.816 14.6756C-5.816 14.6756 -5.78127 14.5641 -6.13626 14.5008H-6.5297L-6.9947 14.2357L-7.37859 14.2401C-7.37859 14.2401 -7.41262 14.1632 -7.3688 14.1108V13.9699C-7.3688 13.9699 -7.54431 13.9545 -7.50585 13.8821C-7.50585 13.8821 -7.42217 13.9309 -7.37859 13.8385V13.7129L-7.48604 13.5975L-7.583 10.0963C-7.583 10.0963 -7.5534 10.0522 -7.583 10.0285C-7.583 10.0285 -7.60305 9.95564 -7.54967 9.93707C-7.4956 9.91849 -7.53429 9.9185 -7.53429 9.9185C-7.53429 9.9185 -7.60748 9.80196 -7.55363 9.73348C-7.55363 9.73348 -7.50026 9.64712 -7.52543 9.61764H-7.50608V9.51131H-7.58323V8.95556H-7.4618V8.87362H-7.37486V8.92678H-7.34013C-7.34013 8.92678 -7.30214 8.68535 -7.22895 8.64635V8.59319H-8.05453C-8.05453 8.59319 -8.24286 8.55419 -8.27712 8.51565H-9.02951V8.47712H-10.1315L-10.0737 8.26378L-11.3165 7.85776C-11.3165 7.85776 -11.5004 7.82387 -11.5198 7.83849C-11.5198 7.83849 -11.5636 7.88214 -11.5834 7.88214C-11.6034 7.88214 -11.9183 7.68876 -11.9183 7.68876C-11.9183 7.68876 -11.8405 7.44664 -12.074 7.47101C-12.074 7.47101 -12.1614 7.45244 -12.1505 7.42296C-12.1505 7.42296 -12.209 7.41274 -12.209 7.47101C-12.209 7.47101 -12.312 7.44664 -12.3363 7.50491C-12.3593 7.56248 -12.3311 7.67901 -12.3311 7.67901L-13.1611 7.91092C-13.1611 7.91092 -13.4665 7.9404 -13.4909 8.06576L-14.2818 8.24962V8.49615L-14.238 8.50057C-14.238 8.50057 -14.1466 8.57369 -14.2039 8.71321C-14.2039 8.71321 -14.4084 8.59296 -14.6219 8.59296C-14.6219 8.59296 -14.9671 8.51612 -15.0391 8.59296L-15.1363 8.65053V8.56858C-15.1363 8.56858 -15.3162 8.57369 -15.3311 8.51983H-15.9285C-15.9285 8.51983 -16.1479 8.5716 -16.2122 8.62685C-16.2213 8.63521 -16.2271 8.64287 -16.229 8.65053C-16.2437 8.71321 -16.3119 8.6698 -16.3029 8.63126C-16.3029 8.63126 -16.3896 8.61199 -16.418 8.64148C-16.4476 8.66957 -16.4868 8.70415 -16.5306 8.70415C-16.5744 8.70415 -16.6224 8.62662 -16.6856 8.62221C-16.6856 8.62221 -16.8117 8.60294 -16.9086 8.66957C-17.0058 8.73805 -16.9338 8.66585 -16.9338 8.66585C-16.9338 8.66585 -17.2149 8.56905 -17.1806 8.65053C-17.1806 8.65053 -17.0886 8.87339 -17.0783 8.95023C-17.0783 8.95023 -17.0399 9.08603 -16.9285 9.07628L-16.8898 9.17796L-16.7823 9.18771L-16.7772 9.51619H-16.9618C-16.9618 9.51619 -16.987 9.57376 -16.9282 9.6123C-16.9282 9.6123 -17.0054 9.68589 -16.8986 9.79685C-16.8986 9.79685 -16.9765 9.92244 -16.8646 9.99022C-16.8646 9.99022 -16.8935 10.1209 -16.8497 10.1402L-16.8935 13.5388L-16.9238 13.5624C-16.9238 13.5624 -17.0152 13.6507 -16.9618 13.7129L-17.0056 13.718V13.7762H-17.3116C-17.3116 13.7762 -17.3606 13.7853 -17.3555 13.8294C-17.351 13.873 -17.3555 13.935 -17.3555 13.935L-17.3986 13.9408C-17.3986 13.9408 -17.3895 13.8243 -17.4282 13.8101C-17.4673 13.7953 -17.4918 13.766 -17.4918 13.766L-19.1078 13.7809L-19.1122 14.0133H-19.2588L-19.2679 14.0952C-19.2679 14.0952 -19.1567 14.1874 -19.1122 14.3366L-18.6903 14.8682V14.9655H-18.7393V15.0282C-18.7393 15.0282 -18.6523 15.0762 -18.6523 15.3427H-18.9038L-18.8216 15.483C-18.8216 15.483 -18.8801 15.6763 -18.671 15.7871C-18.671 15.7871 -18.6999 16.0292 -18.5591 16.1021L-18.5206 16.2128V16.8027C-18.5206 16.8027 -18.2873 16.8027 -18.2731 16.8654C-18.2582 16.928 -18.2873 17.1312 -18.2873 17.1312C-18.2873 17.1312 -18.2628 16.9666 -18.3221 16.9717C-18.3792 16.9768 -18.3696 16.9229 -18.3696 16.9229H-18.419C-18.419 16.9229 -18.3997 16.9907 -18.4279 16.9812C-18.4568 16.9717 -18.516 16.9666 -18.516 16.9666V20.5669H-19.0041V18.6649H-19.6991V21.4321H-20.1331V20.5669L-20.6109 20.0917L-20.9151 20.3939V21.4321H-21.7831V21.7569H-21.857V22.9301L-21.0911 22.934C-21.0519 22.8507 -21.037 22.7753 -21.037 22.7098L-19.7182 22.8296L-19.8017 23.153C-20.2457 23.3547 -20.252 23.5903 -20.252 23.5903ZM213.033 12.0361C213.235 12.0765 213.316 12.4588 213.316 12.4588L213.276 19.4045L212.912 12.4184C212.872 12.0157 213.033 12.0361 213.033 12.0361ZM208.742 11.9152H209.051L209.01 11.7276C209.415 11.7404 209.388 12.1835 209.388 12.1835L209.334 20.2238L208.956 20.25L208.7 15.5391C208.525 15.2573 208.687 15.2176 208.687 15.2176L208.58 12.09C208.552 11.9152 208.742 11.9152 208.742 11.9152ZM206.639 11.4862L206.814 11.4996C207.016 11.54 207.205 11.9286 207.205 11.9286L207.219 20.344L206.774 20.3582L206.369 11.8889C206.342 11.6737 206.639 11.4862 206.639 11.4862ZM202.892 12.0765L202.906 12.2641H203.081C203.351 12.2641 203.526 12.6938 203.526 12.6938L203.485 14.0899L202.798 14.1168L202.731 19.4853L202.569 19.5123L202.528 19.0018C202.677 18.9352 202.515 18.371 202.515 18.371L202.259 12.1304L202.892 12.0765ZM198.472 12.5062V12.2244L199.536 12.1436L199.564 12.492L199.9 12.4658C200.102 12.4793 200.183 12.8284 200.183 12.8284L200.117 17.942L199.994 17.9555L199.968 17.3914C199.927 17.1096 199.833 17.2043 199.833 17.2043L199.105 17.1365V14.8682L198.378 14.8817V15.0296L198.31 15.0161L198.202 12.9489C198.162 12.7342 198.472 12.5062 198.472 12.5062ZM195.25 15.1498L195.183 12.7075C195.601 12.6536 195.534 12.3579 195.534 12.3579L196.207 12.2912L196.275 12.5872L196.652 12.6C196.868 12.6269 196.95 12.9893 196.95 12.9893L195.992 13.0828L196.018 13.795C196.1 13.8078 195.965 13.9422 195.965 13.9422L195.992 14.6672C196.1 14.8413 196.006 14.8144 196.006 14.8144L195.924 17.9824C195.924 17.9824 196.046 17.9824 196.006 18.0094C195.965 18.0363 196.086 18.0491 196.154 18.0632C196.221 18.0767 196.207 18.1702 196.14 18.1976C196.073 18.2239 195.992 18.2508 195.992 18.2508L195.965 19.5529H195.884L195.857 19.2845L195.44 19.2441L195.265 15.3525C195.022 15.1907 195.25 15.1498 195.25 15.1498ZM193.121 10.6126L193.135 10.7605L193.405 10.7477C193.405 10.9622 193.634 11.2043 193.634 11.2043L193.62 20.2372C193.486 20.2904 193.459 20.5325 193.459 20.5325L193.203 20.5191L192.745 11.1103C192.772 10.8285 193.121 10.6126 193.121 10.6126ZM190.696 10.5736L190.75 10.3584L190.858 10.3853L190.884 10.7075C191.14 10.6813 191.275 11.1238 191.275 11.1238L191.316 20.4789L190.75 20.5193L190.386 10.9894C190.359 10.7073 190.696 10.5736 190.696 10.5736ZM188.189 10.5998L188.486 10.5736L188.554 10.425L188.607 10.5467C188.782 10.5594 188.903 10.8821 188.903 10.8821V20.4383H188.392L188.001 10.8285C188 10.5594 188.189 10.5998 188.189 10.5998ZM185.79 10.2918H185.911L185.938 10.4385C186.437 10.4116 186.531 10.7739 186.531 10.7739V20.3979L185.966 20.371L185.562 10.7477C185.534 10.3981 185.79 10.2918 185.79 10.2918ZM183.391 10.1841L183.418 10.3312C184.011 10.2512 184.105 10.8006 184.105 10.8006L184.065 19.7272C183.944 19.5524 183.513 19.7414 183.513 19.7414L183.135 10.5464C183.095 10.318 183.391 10.1841 183.391 10.1841ZM178.688 10.1841C178.702 9.90178 179.388 9.9554 179.388 9.9554L179.658 10.0227C179.658 10.0227 179.713 10.1699 179.793 10.1971C179.874 10.2247 179.967 9.94287 179.967 9.94287L180.13 10.0357H180.359L180.44 10.2516C180.44 10.2516 180.669 10.2112 180.764 10.2247C180.858 10.2375 181.195 9.95564 181.195 9.95564L181.275 10.1843C181.533 10.1843 181.626 10.5327 181.626 10.5327L181.545 20.2375L178.89 20.1702L178.662 10.2375C178.661 10.2372 178.675 10.4659 178.688 10.1841ZM175.885 10.0631L175.912 9.71398L176.344 9.67358L176.371 9.87462C176.64 9.87462 177.031 10.3709 177.031 10.3709L176.977 20.237L175.724 20.2639L175.467 10.5861C175.481 10.1699 175.885 10.0631 175.885 10.0631ZM172.544 10.211C172.92 10.1432 172.839 9.7813 172.839 9.7813L173.27 9.76783L173.297 10.1841L173.513 10.1578C173.769 10.143 174.052 10.5325 174.052 10.5325L173.769 20.6259L172.327 20.6131L172.219 20.3986L172.045 10.6811C172.072 10.1971 172.544 10.211 172.544 10.211ZM168.837 10.2918L168.877 9.98233L169.726 9.94264L169.807 10.2649C170.292 10.211 170.427 10.64 170.427 10.64L170.279 20.4657L170.185 20.4784L170.198 20.6532L168.688 20.6398L168.392 10.6936C168.432 10.3712 168.837 10.2918 168.837 10.2918ZM165.171 10.4787L165.238 10.1841L165.697 10.0227C165.724 9.84862 166.047 9.83446 166.047 9.83446C166.02 10.0227 166.222 10.0355 166.222 10.0355C166.235 10.4383 166.357 10.3851 166.357 10.3851C166.681 10.3709 166.923 10.8006 166.923 10.8006L166.72 20.559C166.72 20.559 166.667 20.7877 166.424 20.7607C166.182 20.7326 166.033 20.9745 166.033 20.9745C166.033 20.9745 165.643 21.0692 165.454 20.9745C165.265 20.881 165.252 20.7735 165.252 20.7735C165.319 20.7324 165.13 20.5058 165.13 20.5058L164.847 10.8543C164.821 10.6811 165.171 10.4787 165.171 10.4787ZM161.923 10.64C162.058 10.6131 162.044 10.3178 162.044 10.3178L162.638 10.2646L162.719 10.5734L163.014 10.5592C163.23 10.5734 163.351 10.8947 163.351 10.8947L163.11 20.5994L161.722 20.6795L161.452 11.0825C161.465 10.6811 161.923 10.64 161.923 10.64ZM158.069 10.8547L158.513 10.815V10.4928L159.147 10.3712L159.16 10.7746L159.551 10.7342C159.739 10.7208 159.862 11.2306 159.862 11.2306L159.672 20.8007L158.109 20.8141L157.84 11.365C157.84 11.365 157.894 11.7134 157.84 11.3111C157.785 10.909 158.069 10.8547 158.069 10.8547ZM155.252 10.9757L155.266 10.64L155.602 10.5996C155.562 10.7602 155.711 10.8949 155.711 10.8949C156.182 10.8417 156.371 11.2568 156.371 11.2568L156.128 20.7071C155.873 20.841 155.98 21.0695 155.98 21.0695L155.516 21.095C155.543 21.1809 155.495 21.0964 155.495 21.0964L155.516 21.095C155.513 21.0783 155.505 21.0579 155.495 21.0291C155.427 20.8408 155.32 20.7735 155.32 20.7735L154.969 11.284C155.158 11.2043 155.252 10.9757 155.252 10.9757ZM110.594 18.9256C110.681 18.9256 110.753 18.996 110.753 19.0837C110.753 19.1715 110.681 19.2425 110.594 19.2425H105.216C105.128 19.2425 105.057 19.1715 105.057 19.0837C105.057 18.996 105.128 18.9256 105.216 18.9256H110.594ZM106.458 17.173V8.0971C106.458 8.00935 106.53 7.93831 106.618 7.93831H109.403C109.491 7.93831 109.562 8.00935 109.562 8.0971V17.173C109.562 17.2607 109.491 17.3317 109.403 17.3317H106.618C106.53 17.3317 106.458 17.2605 106.458 17.173ZM108.487 21.8683H105.239C105.151 21.8683 105.08 21.7972 105.08 21.7102C105.08 21.6224 105.151 21.5521 105.239 21.5521H108.487C108.574 21.5521 108.646 21.6224 108.646 21.7102C108.646 21.7972 108.574 21.8683 108.487 21.8683ZM108.487 19.8644H105.239C105.151 19.8644 105.08 19.7938 105.08 19.7061C105.08 19.619 105.151 19.5473 105.239 19.5473H108.487C108.574 19.5473 108.646 19.619 108.646 19.7061C108.646 19.7941 108.574 19.8644 108.487 19.8644ZM130.456 21.9272C130.435 21.9484 130.405 21.9604 130.375 21.9604H110.283C110.254 21.9604 110.224 21.9484 110.203 21.9272C110.183 21.9054 110.171 21.8759 110.172 21.8458C110.175 21.7599 110.245 21.6921 110.331 21.6921H130.327C130.414 21.6921 130.484 21.7599 130.487 21.8458C130.488 21.8759 130.477 21.9054 130.456 21.9272ZM130.328 21.5045H110.331C110.242 21.5045 110.172 21.4335 110.172 21.3457C110.172 21.258 110.242 21.1876 110.331 21.1876H130.328C130.416 21.1876 130.488 21.2582 130.488 21.3457C130.488 21.4335 130.416 21.5045 130.328 21.5045ZM130.328 20.9998H110.331C110.242 20.9998 110.172 20.9288 110.172 20.841C110.172 20.7533 110.242 20.6823 110.331 20.6823H130.328C130.416 20.6823 130.488 20.7533 130.488 20.841C130.488 20.9288 130.416 20.9998 130.328 20.9998ZM130.328 20.4947H110.331C110.242 20.4947 110.172 20.4244 110.172 20.3366C110.172 20.2488 110.242 20.1778 110.331 20.1778H130.328C130.416 20.1778 130.488 20.2488 130.488 20.3366C130.488 20.4241 130.416 20.4947 130.328 20.4947ZM130.328 19.99H110.331C110.242 19.99 110.172 19.9183 110.172 19.8312C110.172 19.7442 110.242 19.6731 110.331 19.6731H130.328C130.416 19.6731 130.488 19.7442 130.488 19.8312C130.488 19.9183 130.416 19.99 130.328 19.99ZM135.32 21.8683H132.072C131.985 21.8683 131.913 21.7972 131.913 21.7102C131.913 21.6224 131.985 21.5521 132.072 21.5521H135.32C135.409 21.5521 135.479 21.6224 135.479 21.7102C135.479 21.7972 135.409 21.8683 135.32 21.8683ZM135.32 19.8644H132.072C131.985 19.8644 131.913 19.7938 131.913 19.7061C131.913 19.619 131.985 19.5473 132.072 19.5473H135.32C135.409 19.5473 135.479 19.619 135.479 19.7061C135.479 19.7941 135.409 19.8644 135.32 19.8644ZM135.346 19.2425H129.968C129.916 19.2425 129.873 19.217 129.844 19.1784V19.5051H127.353V19.5775H125.511V19.5051H123.302V19.5775H121.461V19.5051H119.189V19.5775H117.347V19.5051H115.139V19.5775H113.297V19.5051H110.796V7.27787H113.469V7.2586H114.967V7.27787H117.519V7.2586H119.017V7.27787H121.633V7.2586H123.131V7.27787H125.683V7.2586H127.181V7.27787H129.844V7.36562C129.874 7.32848 129.917 7.30224 129.968 7.30224H135.346C135.433 7.30224 135.504 7.37398 135.504 7.46103C135.504 7.54808 135.434 7.61912 135.346 7.61912H129.968C129.916 7.61912 129.873 7.59405 129.844 7.55574V18.9881C129.874 18.9509 129.917 18.9254 129.968 18.9254H135.346C135.433 18.9254 135.504 18.9957 135.504 19.0835C135.504 19.1715 135.433 19.2425 135.346 19.2425ZM134.243 8.0971V17.173C134.243 17.2607 134.172 17.3317 134.085 17.3317H131.3C131.212 17.3317 131.14 17.2607 131.14 17.173V8.0971C131.14 8.00935 131.212 7.93831 131.3 7.93831H134.085C134.172 7.93831 134.243 8.00935 134.243 8.0971ZM150.191 17.728H135.395C135.307 17.728 135.237 17.657 135.237 17.5692C135.237 17.4822 135.307 17.4104 135.395 17.4104H150.191C150.28 17.4104 150.351 17.4822 150.351 17.5692C150.351 17.657 150.28 17.728 150.191 17.728ZM137.834 17.1101V10.3974H139.305V17.1101H137.834ZM140.349 17.1101V10.3974H141.821V17.1101H140.349ZM142.865 17.1101V10.3974H144.337V17.1101H142.865ZM145.381 17.1101V10.3974H146.852V17.1101H145.381ZM147.897 17.1101V10.3974H149.367V17.1101H147.897ZM150.191 9.76783H135.395C135.307 9.76783 135.237 9.6968 135.237 9.60835C135.237 9.5213 135.307 9.45026 135.395 9.45026H150.191C150.28 9.45026 150.351 9.5213 150.351 9.60835C150.351 9.6968 150.28 9.76783 150.191 9.76783ZM150.191 8.3513H135.395C135.307 8.3513 135.237 8.28096 135.237 8.19367C135.237 8.10592 135.307 8.03419 135.395 8.03419H150.191C150.28 8.03419 150.351 8.10592 150.351 8.19367C150.351 8.28096 150.28 8.3513 150.191 8.3513ZM150.351 7.86658C150.351 7.95364 150.28 8.02467 150.191 8.02467H135.395C135.307 8.02467 135.237 7.95364 135.237 7.86658C135.237 7.77953 135.307 7.70826 135.395 7.70826H150.191C150.28 7.70826 150.351 7.7793 150.351 7.86658ZM105.341 6.11042H135.443C135.531 6.11042 135.602 6.18146 135.602 6.26851C135.602 6.35696 135.531 6.42799 135.443 6.42799H105.341C105.252 6.42799 105.181 6.35696 105.181 6.26851C105.181 6.18169 105.252 6.11042 105.341 6.11042ZM105.341 6.87324H135.443C135.531 6.87324 135.602 6.94358 135.602 7.03203C135.602 7.11908 135.531 7.19012 135.443 7.19012H105.341C105.252 7.19012 105.181 7.11908 105.181 7.03203C105.181 6.94358 105.252 6.87324 105.341 6.87324ZM105.216 7.30224H110.594C110.681 7.30224 110.753 7.37398 110.753 7.46103C110.753 7.54808 110.681 7.61912 110.594 7.61912H105.216C105.128 7.61912 105.057 7.54808 105.057 7.46103C105.057 7.37398 105.128 7.30224 105.216 7.30224ZM90.3989 7.70826H105.195C105.283 7.70826 105.354 7.7793 105.354 7.86658C105.354 7.95364 105.283 8.02467 105.195 8.02467H90.3989C90.3108 8.02467 90.2395 7.95364 90.2395 7.86658C90.2395 7.7793 90.3108 7.70826 90.3989 7.70826ZM90.3989 8.03419H105.195C105.283 8.03419 105.354 8.10592 105.354 8.19367C105.354 8.28073 105.283 8.3513 105.195 8.3513H90.3989C90.3108 8.3513 90.2395 8.28096 90.2395 8.19367C90.2395 8.10592 90.3108 8.03419 90.3989 8.03419ZM90.3989 9.45026H105.195C105.283 9.45026 105.354 9.5213 105.354 9.60835C105.354 9.6968 105.283 9.76783 105.195 9.76783H90.3989C90.3108 9.76783 90.2395 9.6968 90.2395 9.60835C90.2395 9.5213 90.3108 9.45026 90.3989 9.45026ZM103.042 10.3974V17.1101H101.571V10.3974H103.042ZM100.527 10.3974V17.1101H99.0556V10.3974H100.527ZM98.0107 10.3974V17.1101H96.5395V10.3974H98.0107ZM95.4952 10.3974V17.1101H94.0236V10.3974H95.4952ZM92.9798 10.3974V17.1101H91.5081V10.3974H92.9798ZM90.3989 17.4104H105.195C105.283 17.4104 105.354 17.4822 105.354 17.5692C105.354 17.657 105.283 17.728 105.195 17.728H90.3989C90.3108 17.728 90.2395 17.657 90.2395 17.5692C90.2395 17.4822 90.3108 17.4104 90.3989 17.4104ZM67.2762 7.09541C67.4549 7.04364 67.633 6.99605 67.8125 6.95264L67.992 6.90783V6.91178L68.0724 6.89182L68.0738 6.89065C68.0847 6.8881 68.095 6.88671 68.1045 6.88415L68.4157 6.81126L68.4022 6.82287C68.4402 6.81567 68.4779 6.80615 68.5159 6.79919H68.5173L68.5374 6.79548L68.7059 6.76483L68.7052 6.76553C68.7283 6.76228 68.7527 6.75717 68.7758 6.75392L68.8369 6.74371L68.8402 6.74301L69.1802 6.68799L69.1707 6.69635C69.1739 6.69565 69.1784 6.69496 69.1816 6.69449V6.6938L69.208 6.69055C69.2098 6.69055 69.2119 6.69055 69.2145 6.68985L69.3662 6.67128L69.3655 6.67523C69.4844 6.66176 69.604 6.64899 69.7217 6.64064L70.0818 6.61557L70.0701 6.62531C70.1484 6.62276 70.2263 6.6209 70.3034 6.6209L70.416 6.6216H70.423L70.6803 6.62415L70.6733 6.63135L70.7356 6.63321L70.7344 6.63785C70.9358 6.64923 71.1344 6.66733 71.3216 6.69682L71.3337 6.69867L71.3351 6.69751L71.353 6.70123V6.70007L71.4031 6.70912L71.5665 6.73535L71.5593 6.74116C71.6518 6.75973 71.7439 6.7783 71.8346 6.80128C71.8609 6.80499 71.8938 6.8101 71.9446 6.82171C71.9457 6.82171 71.9464 6.82171 71.9478 6.82171L71.9833 6.82937V6.82751L72.0546 6.84492L72.1548 6.86674L72.1516 6.8693C72.1541 6.8693 72.1555 6.86999 72.1574 6.87046H72.1581C72.2707 6.89924 72.4392 6.94683 72.6685 7.02228L72.6692 7.02158L72.7182 7.03899L72.7536 7.0506V7.04921L72.7953 7.06523L72.8564 7.08449L72.8552 7.08589L72.883 7.0961L72.9287 7.11142V7.11282C73.0624 7.16157 73.2077 7.21728 73.3652 7.27996L73.3659 7.27926L73.4391 7.30874L73.4713 7.3229V7.32105L73.63 7.38837C73.8106 7.46521 74.0062 7.55157 74.2146 7.64907V7.64767L74.3136 7.69503L74.3523 7.7129L74.3838 7.72823C74.54 7.80321 74.704 7.88376 74.8756 7.97082L74.9912 8.03048V8.03117C74.9926 8.03187 74.9938 8.03233 74.9945 8.03303V8.03234L75.1495 8.11312L75.1802 8.12914C75.3604 8.22455 75.5494 8.32692 75.7441 8.43649L75.7448 8.4358L75.7667 8.44787C75.7755 8.45228 75.7828 8.45692 75.7918 8.46133L75.8298 8.48315V8.48199L76.0233 8.59157C76.1925 8.68953 76.3732 8.79515 76.5575 8.90658L76.5589 8.90542L76.6792 8.97901V8.97762L76.8908 9.10692C77.0824 9.22485 77.2831 9.3523 77.4894 9.48485V9.48346L77.6239 9.57051V9.56935L77.7306 9.63923L77.8316 9.70515V9.70585L77.8465 9.71537C78.0213 9.83075 78.204 9.95285 78.3879 10.078V10.0773L78.4588 10.126C78.4599 10.126 78.4599 10.1267 78.4606 10.1267L78.5301 10.1741V10.1727L78.7744 10.3424C79.0007 10.4993 79.2354 10.6665 79.476 10.8387L79.4767 10.8375L79.5384 10.8837C79.5449 10.8875 79.5501 10.8914 79.5564 10.8958L79.6046 10.9304V10.9297L79.8507 11.1103C80.0759 11.2756 80.3085 11.4511 80.5458 11.6296L80.5465 11.6271L80.8423 11.8543L80.843 11.855L80.8763 11.8801C81.167 12.1044 81.4693 12.3411 81.7765 12.5865V12.5847L81.8627 12.6545C81.8646 12.6564 81.8671 12.6578 81.8704 12.6596L81.927 12.7058C81.9914 12.7576 82.0583 12.8115 82.1233 12.8639V12.8628L82.2268 12.9487C82.2564 12.9723 82.286 12.996 82.3163 13.0204L82.3459 13.0434L82.3466 13.0452L82.3748 13.0689C82.6004 13.2521 82.83 13.4429 83.0636 13.6377L83.0643 13.6365L83.1556 13.714C83.1568 13.7154 83.1594 13.7166 83.1615 13.7187L83.2148 13.7635V13.7642L83.3358 13.8665L83.3346 13.8628L83.5924 14.0831C83.912 14.3559 84.2406 14.641 84.5742 14.9349V14.9342L84.6422 14.9931C84.6467 14.9975 84.6506 15.0008 84.6557 15.0047L84.715 15.0572C84.7753 15.1104 84.8359 15.1647 84.8963 15.2185V15.2172L85.0904 15.3901C85.0911 15.3913 85.0911 15.3913 85.0923 15.3927L85.1193 15.417L85.1515 15.4458C85.4279 15.6924 85.7097 15.9486 85.9953 16.2105V16.2098L86.0577 16.2667C86.0622 16.2711 86.0661 16.2743 86.0706 16.2787L86.1309 16.3345H86.1302C86.2158 16.412 86.302 16.4925 86.388 16.5719L86.3873 16.5701L86.5647 16.7365C86.5724 16.743 86.5789 16.7493 86.5866 16.7558L86.6122 16.7802L86.6129 16.7813L86.6458 16.8122C86.9493 17.0959 87.2572 17.3861 87.5704 17.6865L88.0662 18.1623L87.4444 17.8671C87.1924 17.748 86.9453 17.6321 86.6985 17.5161L86.5717 17.4564C86.3209 17.3399 86.0748 17.224 85.8305 17.1112L85.6634 17.0337L85.3508 16.8902L85.2434 16.841C84.8818 16.675 84.5289 16.5151 84.1817 16.3581L83.8756 16.2205L83.8731 16.2191C83.5176 16.0603 83.1703 15.9045 82.8288 15.7541L82.778 15.7318L82.7312 15.7114L82.6675 15.6833L82.5729 15.6429V15.6422C82.3279 15.5354 82.0867 15.4296 81.8497 15.3272L81.8347 15.3207L81.8354 15.3221L81.1392 15.0224L81.1122 15.011C80.932 14.9346 80.7546 14.8592 80.5791 14.7863L80.5272 14.7645V14.7631H80.5253C80.306 14.6709 80.0918 14.5818 79.8796 14.4954L79.5755 14.3694L79.5736 14.3682C79.2669 14.2426 78.9704 14.1235 78.6786 14.0077L78.6797 14.014L78.5056 13.9411L78.4921 13.977L78.4837 13.9322L78.3422 13.874C78.1094 13.7811 77.8838 13.6934 77.6619 13.607L77.671 13.6583L77.4871 13.5385L77.4691 13.5313L77.4684 13.5262L77.161 13.3257L77.0503 13.2539C76.8806 13.1437 76.7128 13.0355 76.5454 12.9266V12.9273L75.9834 12.5661L75.9165 12.5224L75.8774 12.4969C75.7133 12.3917 75.5494 12.2882 75.3875 12.1856L75.3411 12.1554V12.1547L74.9495 11.9089L74.5824 11.6765L73.9309 11.2691V11.2698L73.7116 11.134L73.5438 11.0298C73.3741 10.9241 73.207 10.8211 73.0403 10.7178L73.0396 10.7189L72.7939 10.5678L72.1753 10.1906L71.8455 9.99139V9.99069L71.2064 9.6058L71.2258 9.58537L71.1132 9.5278V9.52199L70.6444 9.26339L70.6393 9.26919L70.4456 9.15265V9.15335L69.9377 8.85365L69.5788 8.64287V8.64217L69.3879 8.53005L69.0523 8.33482L69.0516 8.33551L68.7017 8.13192L68.4239 7.97058L68.391 7.95271L68.2143 8.09223L68.2637 7.87958L67.957 7.70339L67.658 7.53114L67.6587 7.52998L67.6181 7.50746L67.6167 7.50862L67.0219 7.16992L67.2762 7.09541ZM41.3122 17.5019L41.3161 17.1651C41.4639 16.766 41.628 16.3377 41.8075 15.8869L42.0228 15.3465V15.3567C42.1335 15.0909 42.2466 14.8188 42.3661 14.5409L42.4137 14.432V14.4314L42.4254 14.4033L42.5811 14.0427V14.0518L42.5869 14.0383H42.5876C42.7104 13.763 42.8365 13.4849 42.9675 13.2026L43.181 12.7453V12.7555C43.3108 12.4853 43.4435 12.2137 43.5822 11.9391L43.6169 11.8706V11.8673L43.6318 11.8411L43.7938 11.521V11.5333C43.9012 11.3257 44.0085 11.1182 44.1203 10.9121L44.1532 10.8519L44.2632 10.647L44.2639 10.6484L44.3268 10.5318V10.542C44.4464 10.328 44.5653 10.1142 44.69 9.90224L44.7189 9.85303V9.85233L44.7434 9.81078L44.7832 9.74415H44.7821L44.7916 9.7293L44.8977 9.54683V9.5538C45.0238 9.3451 45.151 9.13687 45.2809 8.93142L45.3072 8.89034V8.88894L45.4282 8.69998L45.475 8.62499L45.4757 8.63335C45.6139 8.4214 45.7535 8.20876 45.8969 8.00192L45.92 7.96803L45.9265 7.95967L46.0859 7.72776V7.73496C46.226 7.53833 46.367 7.34171 46.5122 7.15158L46.5316 7.12605V7.12465L46.5579 7.09076L46.5992 7.0376L46.6989 6.90621V6.91201C46.8302 6.74301 46.9625 6.57517 47.0975 6.41244L47.1362 6.36508L47.1471 6.35092L47.1735 6.31123C47.2229 6.2388 47.4094 5.97299 47.7285 5.61712L47.7278 5.61642L47.7555 5.58624L47.7387 5.37035L47.8473 5.48503L47.9186 5.40564L47.9193 5.41399C48.0569 5.26983 48.2016 5.1259 48.3559 4.9843L48.3862 4.95691H48.3855L48.4035 4.94089L48.5212 4.8334L48.5219 4.83967C48.6678 4.71153 48.8195 4.58478 48.9771 4.46314L48.9796 4.46058C48.9815 4.45989 48.9822 4.45872 48.9841 4.45733L49.0463 4.40928L49.0503 4.40603L49.1391 4.33824L49.1398 4.3408L49.1475 4.33569C49.1512 4.33314 49.1552 4.32989 49.1589 4.32733L49.1775 4.31387H49.1782C49.3318 4.20314 49.4908 4.09356 49.6542 3.99049V3.9898L49.6658 3.98144C49.6677 3.98028 49.6691 3.97958 49.671 3.97819L49.7108 3.95312L49.7101 3.95173L49.7514 3.92735L49.8176 3.8851L49.8183 3.88696L49.8285 3.87999C49.8285 3.87999 49.8304 3.8793 49.8311 3.8786L49.8651 3.85748L49.8658 3.85864C50.0336 3.75812 50.2059 3.66131 50.3828 3.57055L50.3931 3.56474L50.4194 3.55198L50.5203 3.49998V3.50183L50.5294 3.49742C50.7042 3.41153 50.8856 3.33098 51.0695 3.2553V3.25344L51.1345 3.22651L51.1338 3.22582L51.2026 3.19958L51.2361 3.18612V3.18682L51.2405 3.18565L51.3119 3.15687L51.313 3.15826C51.4809 3.09489 51.6589 3.03453 51.8421 2.97882V2.97766L51.8563 2.97301L51.8552 2.97185L51.9169 2.95398L52.0121 2.92589V2.92705L52.0358 2.92008C52.2493 2.85926 52.4607 2.81051 52.6691 2.7671L52.6677 2.76571L52.7043 2.75805C52.7127 2.75689 52.7218 2.75433 52.7288 2.75224L52.7276 2.75108L52.7982 2.73878L52.8414 2.72973V2.73112L52.9211 2.71696L52.9276 2.7158L52.9386 2.71394C53.1024 2.68585 53.2684 2.66333 53.4355 2.64221L53.4341 2.63757L53.5189 2.62991L53.5164 2.62735L53.7446 2.60808H53.7478L53.7581 2.60669C53.9317 2.59206 54.104 2.58441 54.2744 2.5786L54.2725 2.57419L54.3858 2.57303L54.3813 2.56978L54.6154 2.57048L54.638 2.56978V2.57048H54.6617C54.8559 2.57117 55.0526 2.57999 55.2475 2.5916L55.2463 2.58766L55.3325 2.59346L55.3281 2.58905L55.5654 2.61203L55.6118 2.61574H55.6132L55.6493 2.61969C55.8178 2.63571 55.9882 2.65823 56.1586 2.68191L56.1574 2.67796L56.2705 2.69537C56.2756 2.69607 56.2782 2.69676 56.2821 2.69723H56.2828L56.2744 2.68957L56.5793 2.74528L56.5986 2.74853L56.6527 2.75805C56.8257 2.79078 57 2.82839 57.1741 2.86832L57.173 2.86182L57.3683 2.90917L57.3832 2.91358L57.3704 2.90082L57.83 3.02896C57.9515 3.06215 58.0731 3.10069 58.1953 3.13853L58.1934 3.13342L58.4102 3.20376C58.4533 3.21792 58.4969 3.23464 58.54 3.24856L58.5144 3.22605L59.0854 3.43939C59.1483 3.46237 59.2115 3.48814 59.2737 3.51228L59.2712 3.50717L59.5122 3.60514C59.5693 3.62766 59.6273 3.65505 59.6837 3.67873L59.6362 3.63833L60.1338 3.87396C60.1671 3.88858 60.2007 3.90089 60.2343 3.9169L60.2562 3.93176L60.4664 4.02973L60.4613 4.01951L60.7023 4.14115H60.703L60.7293 4.15532C60.8965 4.23912 61.2097 4.3986 61.6503 4.62796L61.8349 4.78233L61.8381 4.77723L61.8395 4.77653L61.8125 4.71246L61.864 4.73939L61.8859 4.75099L62.087 4.85732C62.3956 5.01935 62.7576 5.21203 63.1499 5.42096L63.1492 5.41957L63.3152 5.50917C63.3352 5.52078 63.3525 5.5296 63.373 5.54051L63.4063 5.55839L63.407 5.55908L63.5207 5.6213L63.72 5.78008L63.7457 5.74155C63.9778 5.86714 64.2246 6.00085 64.4773 6.13921L64.4766 6.13851L64.6966 6.25899C64.7025 6.26271 64.7083 6.26596 64.7146 6.26991L64.7454 6.28662L65.3388 6.61324L65.601 6.81173L65.6262 6.77319L66.3464 7.17596L66.1644 7.24189L66.2807 7.32894L66.2814 7.32314L66.3592 7.38465L66.4518 7.35192L66.4429 7.39487L66.4448 7.39417V7.39487L66.5862 7.31106L66.6429 7.34171C66.7186 7.38465 66.7958 7.4283 66.8732 7.4724L66.9522 7.51721L66.9529 7.51535L66.969 7.52696L67.0352 7.5648L67.0282 7.56921L67.2435 7.72544L67.3072 7.77164L67.3321 7.73264L67.3957 7.76908L67.4027 7.77303L67.5461 7.85428L67.5519 7.85823L67.5771 7.87169L67.5983 7.7909L67.6845 7.93298L67.7134 7.94899L67.7116 7.94969L67.9328 8.07644L67.9712 8.09873L68.098 8.17115V8.17185L68.3437 8.31346L68.4833 8.39401H68.484L68.8236 8.58994L68.8243 8.58855L69.1767 8.79214L69.1742 8.79469L69.263 8.84646L69.4783 8.97205L69.4797 8.97391L69.5247 9.00083L69.5254 8.99967L69.593 9.04007L69.7068 8.93815L69.6855 9.09369L70.2373 9.42101L70.2379 9.41985L70.2843 9.44794L70.2927 9.45235L70.4265 9.32815L70.4039 9.51898L70.4412 9.5401L70.4379 9.54266L70.7659 9.74439L70.9377 9.86533L70.9209 9.8391L71.3092 10.0594L71.8101 10.3624L71.8115 10.3617L71.9395 10.4404L71.9651 10.4557L71.9914 10.4717C72.2119 10.6049 72.4357 10.7426 72.6634 10.8817V10.881L72.6809 10.8919C72.6925 10.8988 72.704 10.906 72.7149 10.913L72.758 10.9392L72.81 10.968L72.8114 10.9724L72.821 10.9775L72.8184 10.9801L73.0776 11.1447L73.0692 11.1305L73.6517 11.491L73.7244 11.4065L73.727 11.5372L73.7277 11.5379V11.5391L73.7335 11.5423C73.9624 11.6839 74.1952 11.8307 74.4299 11.9771V11.9764L74.5605 12.0591C74.5612 12.0598 74.5623 12.0602 74.563 12.0609L74.6124 12.0916L76.0058 12.9735L75.094 12.6566C74.8991 12.5888 74.7101 12.5234 74.5243 12.4625L74.4523 12.4375V12.4356L74.3964 12.417L73.9277 12.2648L73.9284 12.2666L73.74 12.2051L73.6314 12.1698L73.5685 12.1512V12.1501C73.495 12.1264 73.4237 12.1034 73.3524 12.0816L73.1904 12.0324V12.0317C73.0631 11.9932 72.937 11.9549 72.8156 11.9177L72.8149 11.9523L72.734 11.894L72.6182 11.8594C72.5133 11.8293 72.4142 11.8019 72.3154 11.7731L71.9502 11.6719V11.673L71.8653 11.648L71.7758 11.6236V11.6217L71.7707 11.6203L71.4775 11.5467C71.3276 11.5089 71.1843 11.4739 71.0461 11.4411L71.0402 11.4397L70.9437 11.5423L70.954 11.4188H70.9526C70.8736 11.3996 70.7943 11.3824 70.7186 11.3657L70.671 11.3541L70.6696 11.3515L70.4009 11.2972C70.3328 11.283 70.2685 11.271 70.2042 11.2575V11.2589L69.8725 11.1962C69.7496 11.1758 69.6371 11.1577 69.531 11.1424L69.5007 11.1379L69.5322 11.1948L69.455 11.1314L69.2888 11.1075L69.2702 11.1068C69.1035 11.0869 68.9616 11.0729 68.8395 11.0646L68.7977 11.062L68.7765 11.0613C68.6819 11.0551 68.6036 11.0537 68.536 11.0537L68.5206 11.1331L68.426 11.0537L68.4003 11.0544C68.3539 11.0562 68.3199 11.0595 68.2975 11.062L68.3085 11.0845L68.2372 11.0711H68.2365L68.1908 11.0634L68.088 11.0448C67.9535 11.0212 67.8204 10.9987 67.6869 10.9771L67.6796 10.9759L67.4997 11.1361L67.5428 10.9548L67.5139 10.9497L67.017 10.8824H67.0163L66.8447 10.8594L66.4499 10.8157C66.3979 10.8099 66.3457 10.8055 66.293 10.799L66.2313 10.7939L66.2224 10.8297L66.176 10.7886L66.1336 10.7846C65.9863 10.7707 65.8404 10.7598 65.6945 10.7489L65.6558 10.9193L65.5947 10.7853L65.4868 10.8661L65.5157 10.7373C65.3537 10.7275 65.1922 10.7187 65.0316 10.7129L64.7255 10.7027L64.5277 10.8512L64.5733 10.6976L64.4267 10.695L64.0095 10.6918V10.6911L63.8673 10.6918L63.8512 10.6764L63.83 10.6925L63.3928 10.6997H63.3921L63.0905 10.7106L62.787 10.7226L62.7863 10.7233L62.7721 10.724L62.6222 10.8227L62.6434 10.7324C62.5231 10.7382 62.4036 10.7465 62.2847 10.7542L62.2861 10.7561L61.9241 10.7811L61.8824 10.7855L61.8535 10.8034L61.8393 10.7886L61.829 10.79C61.5906 10.8118 61.3545 10.8355 61.1219 10.8629L61.0627 11.0409L60.9804 10.8796L60.9449 10.884L60.9398 10.8865L60.9405 10.8847L60.882 10.8916L60.8216 10.9L60.8209 10.8993L60.8163 10.9C60.5643 10.9313 60.3154 10.9673 60.0704 11.0056L60.0504 11.0089L60.0511 11.0114L59.9541 11.026L59.8833 11.0671L59.8737 11.0383L59.7896 11.0511L59.7877 11.0497L59.7138 11.0613L59.2026 11.1447L59.6136 10.8712L59.6129 10.8705L59.9338 10.6579V10.659C60.0567 10.5789 60.1891 10.4937 60.3294 10.4041L60.3287 10.4027L60.4643 10.3182L60.4816 10.3073L60.7112 10.1646V10.1634L60.7883 10.116C60.7993 10.1091 60.8121 10.1019 60.823 10.0949L60.8655 10.0687C60.94 10.0225 61.0153 9.97653 61.0932 9.92917L61.1685 9.88437V9.88507L61.1988 9.86719L61.1995 9.86603L61.2386 9.84235C61.2657 9.82633 61.2953 9.80962 61.3221 9.79314L61.4134 9.73812V9.73998C61.4906 9.69378 61.5663 9.64898 61.6463 9.60301V9.60185L61.6964 9.57376L61.8013 9.51225V9.51364L61.8404 9.49112C61.9831 9.40917 62.1299 9.32723 62.2796 9.24389L62.2931 9.23669L62.2938 9.23553L62.364 9.19699L62.504 9.12015L62.5029 9.12201L62.5453 9.09949L62.5446 9.09833L62.6327 9.05098C62.6506 9.04192 62.6688 9.03241 62.6861 9.02335L62.7015 9.01499C62.8236 8.94976 62.9464 8.8836 63.0725 8.81907L63.1079 8.80119L63.117 8.7601L63.1429 8.78308L63.1532 8.77728C63.2702 8.71716 63.3886 8.65749 63.5082 8.59807L63.6149 8.54421L63.6156 8.5449C63.628 8.5391 63.6394 8.53283 63.6522 8.52703L63.6496 8.52517L63.9589 8.37846L63.9596 8.37776L64.0086 8.35478C64.0279 8.34573 64.0477 8.3369 64.0671 8.32785L64.1655 8.28119L64.1647 8.28189C64.1904 8.26958 64.2174 8.25821 64.2426 8.24544V8.24474L64.3344 8.20319C64.3403 8.20064 64.3468 8.19739 64.3524 8.19483L64.4032 8.17185L64.3885 8.13865L64.4181 8.16419L64.4619 8.14562L64.5647 8.09826V8.09942L64.6927 8.04301L64.6934 8.04185L64.764 8.01097L64.8952 7.95201L64.8836 8.00123L64.8868 7.99937L65.002 7.93344L65.0027 7.93414L65.1588 7.84453L65.2856 7.79207L65.2849 7.79021L65.402 7.74471L65.4495 7.72428L65.4507 7.72544L65.4584 7.72219L65.4646 7.72544L65.473 7.69781L65.488 7.71012L65.5176 7.69851C65.5973 7.66717 65.6777 7.6363 65.7581 7.60565L65.7569 7.60449L65.8889 7.55528C65.8889 7.55528 65.8907 7.55458 65.8914 7.55458L65.9506 7.53276C66.0511 7.49562 66.152 7.45917 66.2529 7.42319L66.1616 7.24328L65.9693 7.31315L65.9434 7.32221C65.8425 7.35935 65.7409 7.39766 65.6392 7.43689L65.3628 7.54646L65.3635 7.54762L65.1449 7.63351L65.1346 7.63792C64.992 7.69758 64.8465 7.75887 64.7013 7.82248L64.6479 7.84616C64.574 7.87819 64.4988 7.91139 64.4235 7.94551L64.365 7.97174L64.1566 8.06715L64.1 8.09408C63.9219 8.17673 63.7417 8.26239 63.5618 8.35153L63.5443 8.36058L63.5932 8.47457L63.4935 8.38496L63.4928 8.38426L63.4201 8.4214C63.2406 8.51031 63.0644 8.59992 62.8907 8.69023L62.8625 8.70555L62.6026 8.84321L62.1957 9.06491C62.0209 9.16101 61.8516 9.25642 61.6871 9.35114L61.6465 9.37412L61.5771 9.42078L61.5733 9.41637C61.3535 9.54498 61.1412 9.66987 60.9412 9.79105L60.9244 9.80196L60.6776 9.95239C60.5336 10.042 60.3942 10.1286 60.2634 10.2124L60.187 10.2616V10.2609C60.0648 10.3391 59.9471 10.4153 59.8397 10.4852L59.8063 10.5077L59.5968 10.6467L59.5106 10.7036C59.2642 10.8696 59.0752 11 58.953 11.0873L59.0236 11.3146L58.8649 11.15L58.8635 11.1507H58.8631L58.7157 11.2545C58.4938 11.3007 58.2792 11.3492 58.0678 11.3979L57.9617 11.4235L57.9636 11.43L57.9585 11.4249L57.8074 11.4606C57.5592 11.5203 57.3182 11.583 57.0835 11.6463L56.8 11.7253C56.5653 11.7905 56.3383 11.8578 56.1192 11.9256L56.0511 11.9467L56.0504 11.946L55.9675 11.973V11.9737L55.8679 12.005C55.6698 12.0677 55.4808 12.1317 55.2969 12.194L54.8841 12.3393L54.841 12.3553C54.668 12.418 54.5016 12.4795 54.3438 12.5403L54.2897 12.5621C54.1939 12.5986 54.1019 12.6346 54.0119 12.671L53.9282 12.7049C53.7488 12.7773 53.583 12.847 53.4292 12.9131L53.3681 12.9401C53.2562 12.9881 53.1539 13.0343 53.057 13.077L52.9971 13.104C52.8376 13.1769 52.7006 13.2423 52.5843 13.298L52.5649 13.3071L52.5411 13.3192C52.3039 13.4357 52.1778 13.5049 52.1766 13.5063L52.1367 13.5281V13.5288L52.0717 13.5652L51.9734 13.6221V13.6214L51.5869 13.8405L51.2634 14.023V14.0237L50.8543 14.2556L50.428 14.497V14.4977L50.0236 14.7264V14.7271L49.3666 15.0992L49.1377 15.2285L49.0959 15.2529L48.9775 15.3195L48.7037 15.4751V15.4758L48.2259 15.746H48.2265L47.8387 15.9649L47.4516 16.1845L47.4522 16.1852L47.1602 16.3491V16.3505L46.5064 16.7207V16.72L46.4677 16.7426L46.4579 16.7484L46.2952 16.8419V16.8408L45.7636 17.1419V17.1425L45.4594 17.3148L45.4568 17.3136L45.0466 17.5404L45.0473 17.5481L44.394 17.9181L44.2725 17.9873L44.218 18.0182L43.7949 18.2582V18.2589L43.1822 18.606L42.5822 18.9461V18.9519H41.7007V19.4456L41.2865 19.6806L41.2879 19.552L40.9381 19.7504V19.4027L40.5362 19.8022C40.673 19.3521 40.9334 18.5389 41.3122 17.5019ZM38.8629 -12.545C38.8322 -12.6514 39.0165 -12.8563 39.1839 -13.0144C39.2058 -12.8819 39.2848 -12.7544 39.2848 -12.7544C39.1627 -12.766 38.8629 -12.545 38.8629 -12.545ZM39.1748 -13.3629L39.1967 -13.3687L38.7408 -12.8334C38.3865 -13.2963 39.1748 -13.3629 39.1748 -13.3629ZM33.6985 -12.4893C33.8342 -12.6379 33.8598 -12.965 33.8598 -12.965C34.2817 -12.965 34.526 -12.39 34.526 -12.39C34.2784 -12.6514 33.9113 -12.5699 33.6985 -12.4893ZM34.2481 -13.0323L34.4917 -13.0534L34.5257 -12.8211C34.4295 -12.9151 34.3362 -12.9831 34.2481 -13.0323ZM24.9691 6.41221C24.9299 6.23021 25.0166 6.02546 25.0166 6.02546C25.1831 6.11251 25.2938 5.88269 25.2938 5.88269L25.4765 5.87572C25.7068 5.67794 25.5164 5.45694 25.5164 5.45694C25.5318 5.37755 25.2385 5.21226 25.2385 5.21226C25.1113 5.07785 25.3015 4.91953 25.3015 4.91953H28.4103C28.5924 4.93555 28.4334 5.20391 28.4334 5.20391C28.3145 5.2826 28.4733 5.35433 28.4893 5.39357C28.5054 5.43326 28.5684 5.55165 28.6714 5.67794C28.7742 5.80399 28.7273 5.97833 28.7273 5.97833C28.6553 6.04937 28.6553 6.46769 28.6553 6.46769L28.8539 20.2075C28.7035 20.2229 28.7742 20.4285 28.7742 20.4285H28.7189C28.735 20.6022 28.6001 20.6725 28.6001 20.6725C28.4733 20.7129 28.5525 20.8626 28.5525 20.8626L25.6506 20.9177C25.8171 20.7837 25.5877 20.6806 25.5877 20.6806C25.4367 20.6493 25.4849 20.436 25.4849 20.436V20.3809C25.5954 20.2382 25.3416 20.215 25.3416 20.215C25.3821 20.1126 25.287 20.0887 25.287 20.0887L24.9456 6.58585C25.0796 6.51458 24.9691 6.41221 24.9691 6.41221ZM20.0855 5.94653C20.4186 5.95349 20.4578 5.70069 20.4578 5.70069C20.5214 5.37732 20.1646 5.25939 20.1646 5.25939C20.0142 5.15678 20.1806 4.99869 20.1806 4.99869L23.4708 4.9583C23.2958 4.99869 23.4233 5.26635 23.4233 5.26635C23.2569 5.23501 23.2245 5.44046 23.2245 5.44046C22.9229 5.44046 23.1608 5.85855 23.1608 5.85855C23.0984 5.91356 23.1448 6.00898 23.1448 6.00898C23.2168 6.1594 23.5261 6.08767 23.5261 6.08767C23.5969 6.11901 23.5969 6.40339 23.5969 6.40339C23.4862 6.48208 23.6137 6.59351 23.6137 6.59351L23.6927 20.1195C23.5969 20.1509 23.6046 20.2458 23.6046 20.2458C23.4785 20.2619 23.5422 20.4752 23.5422 20.4752C23.6135 20.5302 23.5575 20.6565 23.5575 20.6565C23.3119 20.6962 23.3916 20.9255 23.3916 20.9255L20.592 20.9404C20.8776 20.8308 20.5606 20.6964 20.5606 20.6964C20.4184 20.633 20.4816 20.523 20.4816 20.523C20.5291 20.484 20.434 20.4589 20.434 20.4589C20.5445 20.3097 20.3548 20.2776 20.3548 20.2776C20.4107 20.1676 20.2918 20.1284 20.2918 20.1284L19.9343 6.53014C19.9825 6.47512 19.9189 6.41221 19.9189 6.41221C19.8793 6.21419 20.0855 5.94653 20.0855 5.94653ZM15.0111 6.5696C14.9873 6.45887 15.0908 6.19887 15.0908 6.19887C15.3519 6.15987 15.447 5.93051 15.447 5.93051C15.6766 5.41701 15.0985 5.22735 15.0985 5.22735C15.1062 5.17999 15.1778 5.0934 15.1778 5.0934L18.1985 5.05371C18.484 5.30674 17.9766 5.60644 17.9766 5.60644C17.8186 5.72483 18.0636 5.99319 18.1349 5.97787C18.2062 5.96115 18.4526 6.04055 18.4526 6.04055C18.5952 6.14362 18.5477 6.43565 18.5477 6.43565C18.4756 6.52991 18.5554 6.57726 18.5554 6.57726L18.6584 20.0327C18.6745 20.1743 18.5787 20.2858 18.5787 20.2858C18.3729 20.3568 18.5318 20.4907 18.5318 20.4907C18.4843 20.4984 18.5073 20.5381 18.5073 20.5381C18.5234 20.6259 18.4367 20.7122 18.4367 20.7122C18.2624 20.7749 18.3255 20.9492 18.3255 20.9492L15.5742 20.9806C15.5742 20.9806 15.3684 21.0593 15.5742 20.9492C15.7807 20.8385 15.519 20.6962 15.519 20.6962C15.4554 20.6405 15.4875 20.5072 15.4875 20.5072C15.5588 20.4432 15.4554 20.4515 15.4554 20.4515C15.5903 20.3408 15.3924 20.3015 15.3924 20.3015C15.3132 20.2932 15.2736 20.1045 15.2736 20.1045L14.9964 6.68033C15.1062 6.64853 15.0111 6.5696 15.0111 6.5696ZM10.1276 6.26991C10.4606 6.02523 10.4215 5.88246 10.3494 5.79587C10.2781 5.70882 10.3341 5.56651 10.3019 5.47249C10.2704 5.37708 10.0716 5.2118 10.0716 5.2118L13.1008 5.12405L13.2588 5.25916C12.767 5.44046 12.9656 5.7246 13.0131 5.78821C13.0607 5.85089 13.053 5.93817 13.0607 5.98483C13.0684 6.03289 13.2516 6.09626 13.2516 6.09626C13.1159 6.29358 13.3383 6.40362 13.3383 6.40362L13.5762 6.41198C13.5357 6.45864 13.5923 6.6093 13.5923 6.6093C13.5441 6.68033 13.6154 6.74371 13.6154 6.74371L13.6385 20.0327C13.6469 20.1743 13.4802 20.2774 13.4802 20.2774C13.3299 20.3491 13.4732 20.5228 13.4732 20.5228C13.5357 20.5701 13.4571 20.6567 13.4571 20.6567C13.2744 20.7514 13.3222 20.9334 13.3222 20.9334H10.5238C10.6583 20.799 10.4441 20.6804 10.4441 20.6804C10.3567 20.6017 10.3972 20.5304 10.3972 20.5304C10.4602 20.4838 10.3644 20.4434 10.3644 20.4434C10.4832 20.3018 10.2937 20.2774 10.2937 20.2774C10.3728 20.2147 10.27 20.1513 10.27 20.1513L10.0959 6.29289C9.81429 6.49857 10.0959 6.27757 10.0959 6.27757V6.29289C10.1049 6.28546 10.1159 6.2778 10.1276 6.26991ZM5.31463 6.90157C5.35449 6.81498 5.35449 6.77528 5.33141 6.7119C5.30764 6.64853 5.44958 6.33282 5.44958 6.33282L5.5293 6.22255C5.97239 5.70905 5.3391 5.42537 5.3391 5.42537C5.41812 5.401 5.39434 5.29862 5.39434 5.29862L8.41439 5.29096C8.63629 5.36199 8.55704 5.66169 8.5025 5.60667C8.44656 5.55165 8.26453 5.62199 8.26453 5.62199C8.4144 5.74828 8.16943 5.93074 8.16943 5.93074C8.15334 6.17542 8.54166 6.22278 8.54166 6.22278C8.57313 6.30937 8.692 6.2778 8.692 6.2778C8.692 6.2778 8.65215 20.0413 8.64445 20.12C8.63606 20.1987 8.54142 20.2858 8.54142 20.2858C8.35053 20.3248 8.4785 20.4434 8.4785 20.4434C8.40647 20.4587 8.46241 20.5228 8.46241 20.5228C8.5652 20.6405 8.37431 20.7438 8.37431 20.7438C8.24052 20.8148 8.27991 20.9255 8.27991 20.9255L5.75096 20.8698C5.90969 20.7596 5.70341 20.6565 5.70341 20.6565C5.63139 20.6565 5.6244 20.5776 5.6244 20.5776C5.67194 20.3958 5.49714 20.4046 5.49714 20.4046C5.55307 20.2375 5.37756 20.2066 5.37756 20.2066L5.38642 7.8963C5.38642 7.8963 5.36264 7.28019 5.33887 7.20846C5.31463 7.13835 5.27477 6.98862 5.31463 6.90157ZM0.425253 7.84406C0.412434 7.79926 0.491451 7.71151 0.562775 7.64419C0.57233 7.7006 0.606592 7.75446 0.606592 7.75446C0.554613 7.75005 0.425253 7.84406 0.425253 7.84406ZM0.558344 7.49446L0.568134 7.49191L0.373974 7.72173C0.222239 7.52255 0.558344 7.49446 0.558344 7.49446ZM-1.78134 7.86705C-1.72284 7.80437 -1.71258 7.66462 -1.71258 7.66462C-1.53194 7.66462 -1.42775 7.91046 -1.42775 7.91046C-1.53311 7.79926 -1.69067 7.83385 -1.78134 7.86705ZM-2.73045 7.84406C-2.74397 7.79926 -2.66496 7.71151 -2.5941 7.64419C-2.58384 7.7006 -2.55028 7.75446 -2.55028 7.75446C-2.60249 7.75005 -2.73045 7.84406 -2.73045 7.84406ZM-2.59806 7.49446L-2.5878 7.49191L-2.78266 7.72173C-2.9344 7.52255 -2.59806 7.49446 -2.59806 7.49446ZM-4.93775 7.86705C-4.87994 7.80437 -4.86898 7.66462 -4.86898 7.66462C-4.68904 7.66462 -4.58486 7.91046 -4.58486 7.91046C-4.69021 7.79926 -4.84708 7.83385 -4.93775 7.86705ZM-10.0747 9.92546L-10.0451 9.75715L-9.9749 9.66801L-8.17317 9.65849C-8.30253 9.70724 -8.16338 9.88576 -8.16338 9.88576C-8.05336 9.7864 -8.07341 10.0049 -8.07341 10.0049C-8.12282 10.0343 -8.07341 10.1337 -8.07341 10.1337L-8.0142 13.6033C-8.06362 13.6237 -8.05336 13.7224 -8.05336 13.7224C-8.13308 13.7129 -8.26244 13.8415 -8.26244 13.8415L-8.27269 13.7224L-9.32786 13.7321C-9.5374 13.7521 -9.57679 14.0202 -9.57679 14.0202L-9.79612 14.0402V13.8821C-9.79612 13.7131 -9.91499 13.7426 -9.91499 13.7426C-9.88539 13.7131 -9.96441 13.6836 -9.96441 13.6836C-9.89495 13.633 -10.005 13.4953 -10.005 13.4953L-10.0945 10.1339L-10.0451 9.98535C-9.99494 9.98489 -10.0747 9.92546 -10.0747 9.92546ZM-13.2898 10.1335L-10.9904 10.1047L-10.9802 13.7519H-11.3491C-11.3491 13.7519 -11.4585 13.7129 -11.4687 13.851V13.9996H-11.6867C-11.6867 13.9996 -11.7072 13.8415 -11.8365 13.8415H-11.9458C-11.9458 13.8415 -11.9361 13.7621 -12.0559 13.7519H-13.2499V13.6834H-13.2898C-13.2898 13.6834 -13.2306 13.584 -13.3392 13.5439L-13.2898 10.1335ZM-12.1554 15.7019C-12.1554 15.7019 -9.71454 15.6065 -9.28777 18.3249H-9.4395L-9.41177 18.4075C-9.41177 18.4075 -9.64578 18.4901 -9.38427 18.6413C-9.38427 18.6413 -9.46724 18.9154 -9.27355 19.0396L-9.26259 21.8497H-12.7462C-12.7476 21.8548 -12.7495 21.8613 -12.7449 21.8671C-12.7185 21.8985 -13.1763 22.2142 -13.1506 22.2276C-13.1236 22.239 -13.2182 22.2845 -13.245 22.291C-13.2553 22.2929 -13.2856 22.3026 -13.3157 22.314C-13.2791 22.1469 -13.2926 22.0686 -13.2868 21.976C-13.2823 21.9119 -13.263 21.8875 -13.2476 21.8497H-14.9869L-15.0095 18.9981C-15.0095 18.9981 -14.9065 18.9974 -14.9174 18.7035C-14.9174 18.7035 -14.8216 18.6594 -14.8216 18.5644L-14.8018 18.5582V18.5075L-14.9755 18.3947C-14.9755 18.3947 -14.8438 15.8811 -12.1554 15.7019ZM-16.3753 11.1154L-16.3553 10.0645C-16.2858 10.0146 -16.3257 10.0049 -16.3257 10.0049C-16.3959 9.96515 -16.2562 9.83585 -16.2562 9.83585C-16.1861 9.80637 -16.2357 9.69749 -16.2357 9.69749H-14.2951C-14.1748 9.72697 -14.2058 10.0343 -14.2058 10.0343C-14.2855 10.0645 -14.2058 10.1836 -14.2058 10.1836L-14.3056 13.6328H-14.3648V13.7129C-14.4244 13.7027 -14.4748 13.8122 -14.4748 13.8122L-14.4645 14.0395L-14.6736 14.0595L-14.6634 13.9998L-14.803 13.8217C-14.8531 13.7519 -14.9624 13.782 -14.9624 13.782H-15.8987C-15.8987 13.782 -15.8987 13.782 -15.9283 13.782C-15.9579 13.782 -15.9682 13.7923 -15.9882 13.832C-16.0075 13.8717 -15.9985 13.9313 -16.0274 13.9114C-16.0577 13.8909 -16.0376 13.8122 -16.0376 13.8122C-16.0376 13.8122 -16.1173 13.832 -16.1674 13.8025C-16.2176 13.7723 -16.2961 13.7621 -16.2961 13.7621V13.6929H-16.3558C-16.336 13.6328 -16.4157 13.5539 -16.4157 13.5539L-16.4059 11.3926C-16.5453 11.2645 -16.3753 11.1154 -16.3753 11.1154Z" fill="#866443"/>
</g>
<defs>
<clipPath id="clip0_2002_1160">
<rect width="31" height="26" fill="white" transform="translate(0.908203 0.235352)"/>
</clipPath>
</defs>
</svg>
