<svg width="35" height="35" viewBox="0 0 35 35" fill="none" xmlns="http://www.w3.org/2000/svg">
<g clip-path="url(#clip0_2002_1164)">
<path d="M24.2771 31.1001C24.2063 30.9967 24.1243 30.903 24.0375 30.8308C23.633 30.4936 22.8914 29.3807 22.7226 28.9763C22.5543 28.5718 22.3351 27.1394 22.1664 25.9596C21.9981 24.7794 21.3911 23.1952 20.8857 22.4878C20.751 21.9482 19.8572 17.0097 19.8572 16.7398C19.8572 16.47 19.8235 9.52574 19.8235 9.52574C19.8235 9.52574 21.0374 11.2787 21.5429 11.8521C22.0488 12.4254 22.9588 12.6274 23.3632 12.2229C23.7677 11.8184 23.8692 11.0095 23.3969 10.4362C22.9251 9.86335 21.6439 7.36826 20.8349 6.62717C20.026 5.88554 18.7784 5.88554 18.2729 5.88554C17.7675 5.88554 17.0258 5.6494 17.0258 5.6494V4.97512C17.3966 5.14392 17.6323 5.00878 17.6323 4.87418V3.93008C17.9695 3.93008 17.9358 3.79541 17.9358 3.79541L17.8011 3.02018L17.8348 2.68304C18.0368 2.5815 18.4413 2.5815 18.2393 1.67154C18.29 0.710971 16.8234 0.0030137 15.61 0.306424C14.4468 0.256154 13.4862 1.31786 13.7389 1.92481C13.1827 2.43023 13.4359 3.39093 13.8399 4.09882C13.6887 4.70577 14.5986 5.16046 14.5986 5.16046V6.37396C14.5986 6.37396 12.6264 7.4868 12.0703 7.89081C11.5141 8.29576 11.1604 8.75097 11.0588 9.86295C10.9579 10.9753 10.5534 14.6165 10.5031 14.9703C10.4524 15.3245 10.8062 18.2567 10.8062 18.6617C10.8062 19.0657 10.8569 19.5716 11.3121 20.0776C11.7668 20.5831 12.829 21.4935 12.829 21.4935L13.6887 21.392C13.6887 21.392 13.756 22.3864 13.756 22.6396C13.756 22.8919 13.756 25.7743 13.8067 26.128C13.857 26.4822 15.1382 29.5497 15.0875 29.9039C15.047 30.1845 14.4669 30.7519 14.203 31.1003H12.8792V34.2354H25.3181V31.1001H24.2771ZM13.1324 17.4478C13.0315 18.0547 13.1827 19.0657 13.1827 19.0657L12.1713 18.004L12.2728 14.5657L13.0818 11.9867L13.8399 13.9588C13.8399 13.9588 13.2334 16.8408 13.1324 17.4478ZM17.0249 31.1001C17.0835 30.5923 17.1103 29.9935 17.1103 29.9038C17.1103 29.7516 16.7898 26.0777 16.6888 25.7742C16.5878 25.4707 16.7054 19.1501 16.7054 19.1501C16.8405 19.4872 18.6604 23.7685 18.9638 24.4423C19.2673 25.1166 20.9359 28.9763 20.9359 28.9763C20.9359 28.9763 21.273 30.3248 21.3067 30.5273C21.3252 30.6366 21.5111 30.8352 21.7633 31.1001H17.0249Z" fill="#866443"/>
</g>
<defs>
<clipPath id="clip0_2002_1164">
<rect width="34" height="34" fill="white" transform="translate(0.908203 0.235352)"/>
</clipPath>
</defs>
</svg>
