<svg width="36" height="33" viewBox="0 0 36 33" fill="none" xmlns="http://www.w3.org/2000/svg">
<g clip-path="url(#clip0_2002_1162)">
<path d="M15.4271 28.361C15.405 28.431 15.3918 28.5007 15.3818 28.5663L1.87152 30.4438L3.85753 30.9159H355.083L354.505 30.4333H352.562V29.8558H351.878L351.644 29.9378V30.3792H350.976V30.1118H350.497V28.1626H349.614V25.9854H345.88V25.7398H344.204V21.916H343.157V25.7398H342.004V24.7057H340.434V25.8228C340.37 25.7915 340.325 25.7861 340.325 25.7861C340.219 25.0545 339.654 25.2636 339.654 25.2636L339.124 12.9214C339.442 12.8175 339.532 12.1899 339.532 12.1899L339.583 10.428C339.744 10.2898 339.583 9.94099 339.583 9.94099C339.426 9.67961 339.618 9.73125 339.618 9.73125L339.708 8.72087C339.955 8.75573 340.415 8.56341 340.415 8.56341C341.05 8.52856 340.928 7.81442 340.928 7.81442L340.537 7.69212C340.521 7.4659 340.203 7.06448 340.203 7.06448L339.92 7.08191C340.097 7.22194 339.673 7.51818 339.673 7.51818L331.95 5.80856L330.644 5.72301L330.663 6.03604L329.549 5.84468L329.568 6.43715L329.337 6.472L329.372 6.85569L329.741 6.82083L329.725 7.43074L329.655 7.46559L329.69 8.02226L329.266 7.88317L326.88 7.83153C326.366 7.84895 326.546 8.21426 326.546 8.21426L312.235 8.78963L312.218 7.86575C312.642 7.6918 312.305 7.32555 312.305 7.32555L310.892 7.27295L308.808 7.91802L308.207 7.86543L308.189 7.95382L307.942 7.91802C307.924 7.20389 307.501 7.39525 307.501 7.39525V6.95897C307.554 6.73276 307.217 6.47137 307.217 6.47137L306.352 6.54139L306.14 6.43652L304.974 6.40167L304.887 6.48911L304.833 6.38329L303.614 6.2968L302.694 6.24515L302.59 6.31422L302.483 6.19256L301.812 6.17513L301.794 6.24515C301.741 6.27937 301.334 6.22677 301.334 6.22677C301.069 6.27937 300.91 6.14028 300.91 6.14028L299.763 6.08705L299.638 6.19287L299.551 6.08705L298.173 6.01893L298.085 6.12286L297.925 6.01893L296.476 5.89569L296.441 6.00056C296.177 6.00056 295.683 5.84404 295.683 5.84404H294.956L294.869 5.96634L294.692 5.80824L292.997 5.77434L292.978 5.67042L293.244 5.63557C293.58 5.19929 293.173 4.76333 293.173 4.76333C293.173 4.76333 291.973 4.69426 291.848 4.76333C291.724 4.83335 291.724 4.65941 291.724 4.65941L291.036 4.62456C290.999 4.29347 290.028 4.32832 290.028 4.32832L289.939 3.7707L288.403 3.70068L287.148 3.36959L286.106 3.38701L285.964 3.47351L285.858 3.68325L284.993 3.66583L284.923 4.01466C284.923 4.01466 284.144 3.75232 283.897 3.75232C283.651 3.75232 283.897 4.06598 283.897 4.06598C283.897 4.06598 283.897 4.15343 283.685 4.15343C283.474 4.15343 283.633 3.73553 283.633 3.73553L282.14 3.33695C282.142 3.31414 282.146 3.29069 282.148 3.26439C282.254 2.42796 281.018 2.46282 281.018 2.46282C281.018 2.46282 280.311 2.37537 279.94 2.3928C279.569 2.41022 279.622 2.63676 279.622 2.63676L277.715 2.11398C278.103 1.90424 276.654 1.74867 276.654 1.74867C276.283 1.69544 276.159 2.13141 276.159 2.13141C275.929 2.14883 275.789 2.67161 275.789 2.67161L275.754 2.23627L275.099 2.20143L275.082 1.57283L272.767 1.64285L272.75 2.37537L272.15 2.41022L271.92 2.56674V2.32277C271.92 2.32277 272.061 2.28792 271.849 2.32277C271.637 2.35762 271.566 2.61996 271.566 2.61996C271.566 2.28792 271.319 1.95651 271.319 1.95651C271.072 1.83517 271.124 1.22496 271.124 1.22496C271.09 0.631536 270.789 0.771257 270.789 0.771257L264.358 2.95106L264.339 2.70646H262.643C262.643 2.70646 260.523 3.49062 260.275 3.5787C260.029 3.66519 260.08 3.82266 260.08 3.82266L260.188 4.18796C260.188 4.18796 260.294 4.10147 260.735 4.10147C261.178 4.10147 260.453 4.328 260.347 4.39771C260.241 4.46678 260.311 4.74559 260.311 4.74559L260.171 4.43192C260.171 4.43192 259.887 4.51937 259.8 4.50195C259.71 4.48515 259.692 4.67683 259.692 4.67683C259.692 4.67683 259.692 4.88563 259.551 5.05957C259.411 5.23446 259.428 4.67683 259.428 4.67683C259.428 4.67683 258.933 4.85078 258.862 4.95565C258.791 5.06052 258.969 5.28674 258.827 5.30448C258.686 5.32191 258.738 4.98987 258.686 4.98987C258.633 4.98987 258.297 4.90242 258.297 4.90242C258.174 4.29315 256.389 4.92143 256.389 4.92143L256.318 4.79818L255.134 4.69426L254.269 5.02472C254.198 5.09474 254.144 5.02472 254.144 5.02472L252.803 5.35676C252.467 5.18092 252.414 5.63557 252.414 5.63557L252.166 5.67042L252.236 6.00088C252.29 6.42036 252.679 6.27969 252.679 6.27969V6.89054H253.332C253.404 7.16935 253.987 7.13545 253.987 7.13545V8.82479C253.633 8.82479 253.897 9.15683 253.897 9.15683C253.916 9.55699 254.11 10.1504 254.11 10.1504C254.304 10.3069 254.197 10.6722 254.197 10.6722H253.846C253.897 11.2657 254.304 11.2299 254.304 11.2299L254.658 11.6145L254.421 23.4662H253.261V22.2505L251.82 23.6725V25.0158H250.894V4.37648H229.926L229.666 4.20444L230.45 3.0008C230.45 3.0008 230.452 2.97734 230.453 2.94915C230.441 2.95105 230.431 2.95708 230.418 2.95708H188.145C188.12 2.95708 188.097 2.95106 188.075 2.94218C188.078 2.97704 188.079 3.0008 188.079 3.0008L188.864 4.20444L188.602 4.37648H167.633V22.3545C166.942 21.9429 166.258 21.5459 165.501 21.186C157.48 13.4017 151.663 9.4347 148.183 7.47319C144.491 5.39383 142.598 5.06527 142.378 5.03295C140.747 4.62392 138.775 4.7044 136.516 5.26994C136.134 5.36594 135.744 5.4762 135.346 5.59945C130.383 2.82782 127.113 1.20911 127.068 1.18725C124.085 -0.242611 121.216 -0.96563 118.541 -0.954224C116.386 -0.947252 114.355 -0.469141 112.501 0.465197C109.471 1.99296 107.945 4.21046 107.773 4.4709C104.571 8.27731 102.157 13.2471 100.696 16.7465C99.1118 20.54 98.2712 23.4783 98.2625 23.508C98.2236 23.6452 98.266 23.7859 98.3607 23.8813L97.7442 24.2266L97.6848 24.9442H97.2703V21.6394H96.2065L96.1628 -16.4175C96.6377 -16.6143 96.2701 -16.9156 96.2701 -16.9156C96.4383 -18.3638 96.8821 -18.167 96.8821 -18.167C96.8352 -18.514 96.5754 -18.5289 96.5754 -18.5289C96.4842 -18.9658 97.1264 -19.6143 97.1264 -19.6143C97.1707 -19.3434 97.278 -19.569 97.278 -19.569C97.2639 -20.2638 96.4984 -19.8399 96.4984 -19.8399C96.9723 -21.0014 98.0124 -20.6998 98.0124 -20.6998C98.4545 -20.5949 98.0274 -21.1079 98.0274 -21.1079C98.6077 -21.6804 97.9973 -22.0422 97.9973 -22.0422L97.9353 -22.2694L98.1957 -22.8419L93.244 -23.4746L88.9027 -22.3137L89.4785 -21.6706C89.4724 -21.6671 89.4688 -21.6652 89.4688 -21.6652C88.9339 -21.2726 89.3616 -20.8357 89.3616 -20.8357C89.4255 -20.8025 89.481 -20.7866 89.5324 -20.7841C89.5208 -20.779 89.5147 -20.7755 89.5147 -20.7755C89.2392 -20.2169 89.5757 -20.3386 89.5757 -20.3386C89.9726 -21.0613 91.1649 -19.8396 91.1649 -19.8396C90.8592 -19.3282 91.0727 -18.7095 91.0727 -18.7095C90.6598 -18.7095 90.5837 -18.3929 90.5837 -18.3929C91.0274 -18.4531 91.0586 -17.4428 91.0586 -17.4428C91.0586 -17.1411 91.258 -17.0198 91.258 -17.0198C90.6601 -16.6282 91.2419 -16.3871 91.2419 -16.3871L90.8441 1.04626C90.8441 1.04626 90.9973 1.12135 90.9212 1.18155C90.8441 1.24175 90.9664 1.36245 91.0425 1.40712C91.1186 1.45243 90.9815 1.61846 91.1045 1.66409C91.2259 1.70939 91.1498 1.83011 91.0425 1.90425C90.9353 1.98124 91.0425 2.08611 91.1347 2.19193C91.2259 2.29776 91.0425 2.29775 91.1045 2.38773C91.1655 2.47866 91.1347 2.52332 91.0586 2.65956C90.9815 2.79517 90.9513 2.73466 91.0278 2.78029C91.1048 2.82559 91.0428 2.87122 90.9517 2.88516C90.8605 2.901 90.8142 3.23208 90.8142 3.23208L90.584 23.3183C90.3245 23.349 90.4167 23.7118 90.4167 23.7118C90.1573 23.7257 90.3104 24.2387 90.3104 24.2387C89.9437 24.3584 90.0959 24.9176 90.0959 24.9176C89.6522 25.0836 89.8516 25.762 89.8516 25.762H89.6152V22.1121H88.6587V25.0627H87.1033V25.4867L86.3859 25.3057C86.3859 25.3057 86.5179 24.6379 85.9165 24.617C85.9165 24.617 86.1024 24.4544 85.6329 24.2288L85.6224 24.0872C85.6224 24.0872 85.8076 24.0017 85.6224 23.9693L85.6002 23.9266C85.6002 23.9266 85.7639 23.7973 85.5896 23.7542C85.5896 23.7542 85.4258 23.625 85.4037 23.4526L84.7705 4.31121C84.7705 4.31121 84.8466 4.25862 84.8466 4.1284C84.8466 4.1284 85.0431 4.28998 85.3054 3.6766C85.3054 3.6766 84.8899 3.41806 84.7483 2.94344C84.7483 2.94344 84.8138 2.76 84.9121 2.78249L84.9236 1.13243L85.0884 0.852667C85.0884 0.852667 85.2736 0.669226 84.9891 0.658772L84.6285 0.636919C84.6285 0.636919 84.748 -0.310411 84.4975 -0.569263L84.5736 -0.61204C84.5736 -0.61204 84.748 -0.42923 84.957 -0.419724C84.957 -0.419724 85.2396 -0.536953 85.2839 -0.936161C85.2839 -0.936161 85.579 -1.22637 85.5353 -1.39936H85.6991L85.8185 -1.61449V-2.12142C85.8185 -2.12142 85.9823 -2.22882 85.8629 -2.24023C85.8629 -2.24023 86.1464 -2.45536 85.8185 -2.54186L85.273 -2.67208C85.273 -2.67208 85.2075 -2.55231 85.1198 -2.65021C85.1198 -2.65021 84.7149 -2.81117 84.5194 -2.82162C84.3229 -2.83303 84.3335 -2.83303 84.2676 -2.86535C84.2031 -2.89766 84.1039 -2.95089 83.9619 -2.95089C83.8194 -2.95089 83.6778 -2.99461 83.6119 -3.02693C83.5464 -3.05924 83.339 -3.15619 83.2504 -2.92903C83.2504 -2.92903 83.2301 -2.59509 83.3178 -2.49908L82.6509 -2.48862C82.6509 -2.48862 82.5526 -2.32609 82.411 -2.41259C82.2691 -2.49908 82.2367 -2.46677 82.061 -2.45536C81.8867 -2.44491 81.8645 -2.42304 81.7765 -2.45536C81.6898 -2.48863 81.6799 -2.48864 81.5701 -2.47818C81.4602 -2.46678 81.2422 -2.41258 81.0226 -2.43349C80.8046 -2.45535 80.9359 -2.41258 80.7063 -2.40212C80.4767 -2.39167 80.4006 -2.40214 80.259 -2.42305C80.1164 -2.44491 80.0076 -2.43349 79.8878 -2.43349C79.7684 -2.43349 79.3085 -2.43349 79.2103 -2.32609C79.2103 -2.32609 79.2652 -2.38028 79.0465 -2.39169C78.8279 -2.40214 75.148 -2.39169 75.148 -2.39169C75.148 -2.39169 75.0931 -2.33656 75.0373 -2.24056C75.0373 -2.24056 75.0495 -2.35873 74.8635 -2.35873C74.6783 -2.35873 73.7821 -2.34827 73.2799 -2.33686C72.7777 -2.32641 72.209 -2.32641 72.0343 -2.31596C71.86 -2.30455 71.7829 -2.219 71.6082 -2.26177C71.4335 -2.30454 71.4335 -2.32641 71.2813 -2.31596C71.1282 -2.30455 70.9313 -2.33687 70.8119 -2.32642C70.6905 -2.31596 70.5923 -2.27319 70.5817 -2.04666V-1.70225C70.5817 -1.70225 70.276 -1.7992 70.1334 -1.65853C70.1334 -1.65853 70.0351 -1.73362 69.872 -1.86289C69.7083 -1.99311 69.5984 -2.04634 69.3361 -2.02448C69.0747 -2.00261 68.9755 -1.97125 68.6486 -1.9817C68.3208 -1.99311 68.2668 -2.05679 68.1243 -1.9817C67.9823 -1.90661 67.9612 -1.98171 67.7849 -1.9608C67.6105 -1.93894 67.5562 -1.92846 67.3925 -1.88474C67.2287 -1.84102 66.977 -2.04634 66.5412 -1.78844H66.3447C66.3447 -1.78844 66.4536 -1.9817 66.1251 -2.05679C66.1251 -2.05679 65.9726 -2.10051 65.7973 -2.13188C65.6235 -2.16515 65.4261 -2.16514 65.2411 -2.15373C65.0552 -2.14233 65.033 -2.12143 64.9345 -2.14234C64.8362 -2.16515 64.8034 -2.19747 64.6943 -2.14234C64.5854 -2.08975 64.5305 -2.11096 64.3992 -2.12142C64.2691 -2.13187 64.2027 -2.11096 64.0935 -2.07864C63.9846 -2.04633 63.6684 -2.00261 63.6019 -1.84071C63.5364 -1.67912 63.6684 -1.54954 63.494 -1.43167C63.494 -1.43167 63.3168 -1.18424 63.2532 -0.817348C63.2532 -0.817348 63.0567 -0.925695 62.9147 -0.764112C62.7731 -0.602528 62.7394 -0.666218 62.5535 -0.655762C62.3682 -0.645308 62.2362 -0.536953 62.1939 -0.592083C62.1505 -0.645309 62.1062 -0.721336 62.1062 -0.721336L61.5712 -0.688076C61.5712 -0.688076 61.3523 -0.741293 61.2646 -0.785017C61.1779 -0.827789 61.1779 -0.827791 61.1779 -0.827791L55.3342 -0.591757L55.2581 -0.419395C55.2581 -0.419395 55.0616 -0.331959 54.9729 -0.397543C54.8869 -0.461227 54.8641 -0.461229 54.7771 -0.440319C54.6894 -0.419409 54.6894 -0.419395 54.6894 -0.419395L54.7125 -0.568953L53.7505 -1.86256L50.8458 -1.75421C50.8458 -1.75421 50.9104 -2.19745 50.3533 -2.56371L48.2131 -1.92846C48.2131 -1.92846 48.0706 -2.02447 47.9508 -2.04633C47.8304 -2.06819 47.6008 -2.38027 47.5353 -2.51999C47.5353 -2.51999 47.2733 -2.51999 47.1207 -2.4449L46.8584 -2.16514L47.1207 -1.75421C47.1207 -1.75421 47.1641 -1.42123 47.3166 -1.30337C47.3166 -1.30337 47.4804 -0.989693 47.3609 -0.827791L48.6171 0.453478L48.6055 1.4027H48.3762C48.3762 1.4027 47.9607 1.45592 48.3445 1.80127L48.3117 1.89823L48.3657 1.97332L48.3878 3.37435C48.3878 3.37435 48.5843 3.44943 48.4196 3.60088C48.4196 3.60088 47.4268 4.03177 48.0494 4.57197C48.0494 4.57197 48.2346 5.16444 48.6835 4.72246C48.6835 4.72246 48.6932 4.89482 48.7808 4.88341L48.5728 23.7327C48.5728 23.7327 48.2539 23.7948 48.2973 24.0001H47.7649V23.1741H46.809V19.3975H45.4928V22.702H44.297V24.1775H43.6307L43.613 8.81117C43.815 8.72721 43.6593 8.59795 43.6593 8.59795C43.7318 7.97917 43.9207 8.06313 43.9207 8.06313C43.9011 7.91549 43.7887 7.90915 43.7887 7.90915C43.7505 7.72127 44.025 7.44404 44.025 7.44404C44.0436 7.56032 44.0905 7.46337 44.0905 7.46337C44.0834 7.16713 43.7566 7.34804 43.7566 7.34804C43.9595 6.85157 44.4033 6.98083 44.4033 6.98083C44.5937 7.02614 44.4094 6.8069 44.4094 6.8069C44.6576 6.56199 44.3972 6.40642 44.3972 6.40642L44.3705 6.30947L44.4819 6.06551L42.3659 5.79367L40.5102 6.29109L40.7565 6.56547C40.754 6.56705 40.752 6.568 40.752 6.568C40.5234 6.73592 40.7067 6.92286 40.7067 6.92286C40.7324 6.9368 40.7572 6.94377 40.7784 6.94472C40.7748 6.9463 40.7713 6.9482 40.7713 6.9482C40.6544 7.18678 40.797 7.13513 40.797 7.13513C40.9672 6.82495 41.4764 7.34741 41.4764 7.34741C41.3464 7.56602 41.4376 7.83058 41.4376 7.83058C41.2613 7.83058 41.2285 7.96618 41.2285 7.96618C41.418 7.93989 41.4305 8.37173 41.4305 8.37173C41.4305 8.50099 41.5156 8.55264 41.5156 8.55264C41.2613 8.72056 41.5101 8.82258 41.5101 8.82258L41.3409 16.2738C41.3409 16.2738 41.4055 16.3071 41.3727 16.3324C41.34 16.3578 41.3923 16.4094 41.4251 16.4288C41.4568 16.4478 41.3984 16.5197 41.4517 16.5381C41.5031 16.5583 41.4703 16.6097 41.4251 16.642C41.3791 16.6733 41.4251 16.7199 41.4639 16.7643C41.5028 16.809 41.4251 16.809 41.4514 16.8473C41.4771 16.8866 41.4639 16.9059 41.4302 16.9636C41.3984 17.0212 41.3849 16.9968 41.4177 17.0162C41.4514 17.0355 41.4247 17.0545 41.3849 17.0608C41.3461 17.0678 41.3265 17.2085 41.3265 17.2085L41.261 22.9377H39.9907V24.8257H39.283L39.2634 8.81086C39.4663 8.72689 39.3087 8.59763 39.3087 8.59763C39.3822 7.97886 39.571 8.06282 39.571 8.06282C39.5514 7.91517 39.4407 7.90884 39.4407 7.90884C39.4008 7.72095 39.6763 7.44373 39.6763 7.44373C39.695 7.56 39.7402 7.46305 39.7402 7.46305C39.7348 7.16682 39.4073 7.34772 39.4073 7.34772C39.6102 6.85125 40.0549 6.98052 40.0549 6.98052C40.2437 7.02583 40.0601 6.80658 40.0601 6.80658C40.3089 6.56167 40.0475 6.4061 40.0475 6.4061L40.0209 6.30915L40.1326 6.06519L38.0166 5.79335L36.1616 6.29078L36.4069 6.56515C36.405 6.56674 36.4034 6.56769 36.4034 6.56769C36.1747 6.73561 36.3565 6.92254 36.3565 6.92254C36.3847 6.93648 36.4088 6.94345 36.43 6.9444C36.4255 6.94599 36.4229 6.94788 36.4229 6.94788C36.3051 7.18646 36.4486 7.13482 36.4486 7.13482C36.6188 6.82464 37.1281 7.34709 37.1281 7.34709C36.9971 7.56571 37.0892 7.83026 37.0892 7.83026C36.9129 7.83026 36.8812 7.96587 36.8812 7.96587C37.07 7.93957 37.0831 8.37141 37.0831 8.37141C37.0831 8.50068 37.1673 8.55232 37.1673 8.55232C36.9129 8.72024 37.1612 8.82226 37.1612 8.82226L36.9919 16.2735C36.9919 16.2735 37.0565 16.3068 37.0237 16.3321C36.9919 16.3575 37.044 16.4091 37.077 16.4284C37.1098 16.4474 37.0504 16.5194 37.1018 16.5377C37.1551 16.558 37.1223 16.6094 37.077 16.6417C37.0308 16.673 37.077 16.7196 37.1149 16.764C37.1547 16.8086 37.077 16.8086 37.1018 16.847C37.1284 16.8863 37.1149 16.9056 37.0831 16.9633C37.0504 17.0209 37.0369 16.9965 37.07 17.0158C37.1017 17.0352 37.077 17.0542 37.0372 17.0605C36.9984 17.0675 36.9788 17.2082 36.9788 17.2082L36.9043 23.764H36.044V25.0621H35.477L35.3299 18.0794C35.3299 18.0794 35.4051 17.9945 35.3556 17.9692C35.3556 17.9692 35.4282 17.9632 35.4282 17.7506C35.4282 17.7506 35.3823 17.4876 35.5486 17.4683C35.5486 17.4683 35.7294 17.3222 35.5617 17.2094H35.5955V17.0836H35.6433V16.9797H35.3819V16.6423L35.4484 16.4981V16.4449H35.389L35.3951 16.3321C35.3951 16.3321 35.3623 16.2133 35.3145 16.194C35.3145 16.194 35.3623 16.0419 34.8733 15.9554H34.3313L33.6907 15.5936L33.1618 15.5996C33.1618 15.5996 33.115 15.4947 33.1753 15.4231V15.2308C33.1753 15.2308 32.9335 15.2099 32.9865 15.1111C32.9865 15.1111 33.1018 15.1776 33.1618 15.0515V14.8801L33.0138 14.7226L32.8802 9.94416C32.8802 9.94416 32.921 9.88396 32.8802 9.85165C32.8802 9.85165 32.8526 9.75216 32.9262 9.72681C33.0006 9.70147 32.9473 9.70147 32.9473 9.70147C32.9473 9.70147 32.8465 9.54242 32.9207 9.44896C32.9207 9.44896 32.9942 9.33109 32.9595 9.29086H32.9862V9.14575H32.8799V8.38725H33.0472V8.27541H33.167V8.34797H33.2148C33.2148 8.34797 33.2672 8.01846 33.368 7.96523V7.89268H32.2306C32.2306 7.89268 31.9712 7.83945 31.924 7.78686H30.8875V7.73426H29.3693L29.449 7.44309L27.7368 6.88895C27.7368 6.88895 27.4835 6.8427 27.4568 6.86266C27.4568 6.86266 27.3965 6.92222 27.3692 6.92222C27.3416 6.92222 26.9078 6.6583 26.9078 6.6583C26.9078 6.6583 27.015 6.32784 26.6933 6.36111C26.6933 6.36111 26.5729 6.33577 26.5879 6.29553C26.5879 6.29553 26.5073 6.28159 26.5073 6.36111C26.5073 6.36111 26.3654 6.32785 26.332 6.40737C26.3002 6.48594 26.3391 6.64499 26.3391 6.64499L25.1957 6.96151C25.1957 6.96151 24.775 7.00175 24.7413 7.17284L23.6518 7.42377V7.76024L23.7122 7.76626C23.7122 7.76626 23.838 7.86606 23.759 8.05648C23.759 8.05648 23.4774 7.89236 23.1833 7.89236C23.1833 7.89236 22.7078 7.78749 22.6085 7.89236L22.4746 7.97093V7.85909C22.4746 7.85909 22.2268 7.86606 22.2062 7.79256H21.3832C21.3832 7.79256 21.0811 7.86321 20.9924 7.93862C20.9799 7.95002 20.9719 7.96048 20.9693 7.97093C20.9491 8.05648 20.855 7.99723 20.8675 7.94464C20.8675 7.94464 20.7481 7.91834 20.7089 7.95858C20.6681 7.99691 20.6142 8.04412 20.5538 8.04412C20.4934 8.04412 20.4273 7.9383 20.3403 7.93228C20.3403 7.93228 20.1666 7.90598 20.033 7.99692C19.8991 8.09038 19.9983 7.99185 19.9983 7.99185C19.9983 7.99185 19.6111 7.85973 19.6583 7.97093C19.6583 7.97093 19.7851 8.27509 19.7992 8.37996C19.7992 8.37996 19.8522 8.56531 20.0057 8.55201L20.059 8.69078L20.207 8.70408L20.2141 9.1524H19.9598C19.9598 9.1524 19.9251 9.23097 20.006 9.28357C20.006 9.28357 19.8997 9.38401 20.0468 9.53545C20.0468 9.53545 19.9395 9.70686 20.0937 9.79937C20.0937 9.79937 20.0539 9.97775 20.1142 10.004L20.0539 14.6425L20.0121 14.6748C20.0121 14.6748 19.8862 14.7952 19.9598 14.8801L19.8994 14.8871V14.9666H19.4778C19.4778 14.9666 19.4104 14.9789 19.4174 15.0391C19.4235 15.0987 19.4174 15.1833 19.4174 15.1833L19.358 15.1912C19.358 15.1912 19.3706 15.0322 19.3173 15.0128C19.2633 14.9926 19.2296 14.9526 19.2296 14.9526L17.0034 14.9729L16.9973 15.2901H16.7953L16.7828 15.4019C16.7828 15.4019 16.936 15.5277 16.9973 15.7314L17.5785 16.457V16.5897H17.5111V16.6753C17.5111 16.6753 17.6308 16.7408 17.6308 17.1046H17.2844L17.3977 17.2959C17.3977 17.2959 17.3171 17.5598 17.6051 17.711C17.6051 17.711 17.5653 18.0414 17.7593 18.1409L17.8123 18.292V19.0971C17.8123 19.0971 18.1337 19.0971 18.1533 19.1827C18.1738 19.2682 18.1337 19.5454 18.1337 19.5454C18.1337 19.5454 18.1674 19.3208 18.0858 19.3278C18.0072 19.3347 18.0203 19.2612 18.0203 19.2612H17.9523C17.9523 19.2612 17.9789 19.3537 17.9401 19.3408C17.9002 19.3278 17.8187 19.3208 17.8187 19.3208V24.2345H17.1463V21.6387H16.1888V25.4154H15.5909V24.2345L14.9326 23.586L14.5136 23.9985V25.4154H13.3178V25.8586H13.216V27.4599L14.2712 27.4653C14.3251 27.3515 14.3456 27.2486 14.3456 27.1592L16.1624 27.3227L16.0475 27.764C15.4358 28.0394 15.4271 28.361 15.4271 28.361ZM336.809 12.5916C337.085 12.6467 337.197 13.1686 337.197 13.1686L337.143 22.6482L336.639 13.1134C336.584 12.5637 336.809 12.5916 336.809 12.5916ZM330.894 12.4265H331.321L331.263 12.1705C331.822 12.188 331.787 12.7928 331.787 12.7928L331.71 23.7663L331.189 23.8021L330.836 17.3726C330.595 16.988 330.82 16.9338 330.82 16.9338L330.672 12.6651C330.634 12.4265 330.894 12.4265 330.894 12.4265ZM327.998 11.841L328.238 11.8594C328.518 11.9145 328.778 12.4449 328.778 12.4449L328.797 23.9304L328.184 23.9497L327.625 12.3907C327.59 12.097 327.998 11.841 327.998 11.841ZM322.838 12.6467L322.857 12.9027H323.098C323.467 12.9027 323.708 13.4892 323.708 13.4892L323.653 15.3946L322.706 15.4314L322.613 22.7584L322.391 22.7952L322.337 22.0985C322.539 22.0075 322.317 21.2376 322.317 21.2376L321.964 12.7202L322.838 12.6467ZM316.747 13.2332V12.8486L318.213 12.7383L318.252 13.2139L318.715 13.1781C318.993 13.1964 319.105 13.673 319.105 13.673L319.013 20.6521L318.844 20.6705L318.808 19.9006C318.752 19.516 318.622 19.6452 318.622 19.6452L317.619 19.5527V16.457L316.618 16.4753V16.6772L316.524 16.6588L316.376 13.8374C316.32 13.5443 316.747 13.2332 316.747 13.2332ZM312.309 16.8413L312.217 13.5079C312.792 13.4344 312.699 13.0307 312.699 13.0307L313.627 12.9398L313.721 13.3438L314.24 13.3612C314.537 13.3979 314.65 13.8925 314.65 13.8925L313.331 14.0202L313.367 14.9922C313.479 15.0097 313.293 15.1931 313.293 15.1931L313.331 16.1826C313.479 16.4202 313.349 16.3834 313.349 16.3834L313.237 20.7073C313.237 20.7073 313.405 20.7073 313.349 20.744C313.293 20.7808 313.46 20.7982 313.554 20.8175C313.646 20.8359 313.627 20.9636 313.534 21.001C313.442 21.0368 313.331 21.0735 313.331 21.0735L313.293 22.8506H313.182L313.145 22.4844L312.57 22.4292L312.329 17.1179C311.994 16.897 312.309 16.8413 312.309 16.8413ZM309.375 10.6488L309.395 10.8506L309.767 10.8332C309.767 11.1259 310.082 11.4564 310.082 11.4564L310.063 23.7846C309.878 23.8572 309.841 24.1876 309.841 24.1876L309.488 24.1693L308.857 11.3281C308.895 10.9435 309.375 10.6488 309.375 10.6488ZM306.034 10.5956L306.109 10.3019L306.258 10.3386L306.294 10.7784C306.646 10.7426 306.832 11.3465 306.832 11.3465L306.888 24.1145L306.109 24.1696L305.607 11.163C305.57 10.7781 306.034 10.5956 306.034 10.5956ZM302.581 10.6314L302.99 10.5956L303.083 10.3928L303.157 10.5588C303.398 10.5762 303.565 11.0166 303.565 11.0166V24.059H302.86L302.321 10.9435C302.321 10.5762 302.581 10.6314 302.581 10.6314ZM299.276 10.2109H299.443L299.48 10.4112C300.167 10.3744 300.297 10.869 300.297 10.869V24.0039L299.518 23.9671L298.961 10.8332C298.923 10.356 299.276 10.2109 299.276 10.2109ZM295.972 10.0639L296.009 10.2648C296.826 10.1555 296.955 10.9054 296.955 10.9054L296.899 23.0886C296.732 22.85 296.139 23.1079 296.139 23.1079L295.618 10.5585C295.563 10.2467 295.972 10.0639 295.972 10.0639ZM289.492 10.0639C289.511 9.67866 290.456 9.75185 290.456 9.75185L290.829 9.84373C290.829 9.84373 290.904 10.0446 291.015 10.0817C291.126 10.1194 291.255 9.73474 291.255 9.73474L291.479 9.86147H291.794L291.906 10.1561C291.906 10.1561 292.221 10.101 292.352 10.1194C292.482 10.1368 292.946 9.75216 292.946 9.75216L293.056 10.0642C293.411 10.0642 293.539 10.5398 293.539 10.5398L293.428 23.785L289.771 23.6931L289.456 10.1368C289.456 10.1365 289.474 10.4486 289.492 10.0639ZM285.631 9.89885L285.667 9.42234L286.263 9.36721L286.3 9.64159C286.67 9.64159 287.21 10.319 287.21 10.319L287.134 23.7843L285.409 23.8211L285.054 10.6127C285.074 10.0446 285.631 9.89885 285.631 9.89885ZM281.027 10.1007C281.546 10.0082 281.435 9.51422 281.435 9.51422L282.028 9.49585L282.065 10.0639L282.363 10.0281C282.716 10.0078 283.106 10.5395 283.106 10.5395L282.716 24.315L280.729 24.2976L280.581 24.0048L280.34 10.7423C280.377 10.0817 281.027 10.1007 281.027 10.1007ZM275.921 10.2109L275.976 9.7886L277.146 9.73442L277.257 10.1742C277.925 10.1007 278.111 10.6862 278.111 10.6862L277.908 24.0964L277.778 24.1138L277.796 24.3524L275.716 24.334L275.308 10.7594C275.363 10.3193 275.921 10.2109 275.921 10.2109ZM270.871 10.466L270.964 10.0639L271.595 9.84373C271.633 9.6061 272.078 9.58678 272.078 9.58678C272.041 9.84373 272.319 9.86115 272.319 9.86115C272.336 10.4109 272.505 10.3383 272.505 10.3383C272.95 10.319 273.284 10.9054 273.284 10.9054L273.005 24.2238C273.005 24.2238 272.932 24.5358 272.597 24.4991C272.263 24.4608 272.058 24.7909 272.058 24.7909C272.058 24.7909 271.521 24.9202 271.26 24.7909C271 24.6632 270.983 24.5165 270.983 24.5165C271.075 24.4604 270.814 24.1512 270.814 24.1512L270.425 10.9786C270.388 10.7423 270.871 10.466 270.871 10.466ZM266.396 10.6862C266.582 10.6494 266.563 10.2464 266.563 10.2464L267.382 10.1739L267.492 10.5953L267.9 10.5759C268.197 10.5953 268.364 11.0337 268.364 11.0337L268.031 24.2789L266.119 24.3882L265.747 11.2901C265.765 10.7423 266.396 10.6862 266.396 10.6862ZM261.087 10.9792L261.699 10.9251V10.4853L262.571 10.3193L262.59 10.8699L263.129 10.8148C263.388 10.7964 263.556 11.4922 263.556 11.4922L263.296 24.5536L261.143 24.572L260.771 11.6756C260.771 11.6756 260.846 12.1512 260.771 11.6021C260.696 11.0534 261.087 10.9792 261.087 10.9792ZM257.206 11.1443L257.225 10.6862L257.688 10.6311C257.633 10.8503 257.838 11.0341 257.838 11.0341C258.487 10.9615 258.747 11.528 258.747 11.528L258.413 24.4259C258.061 24.6087 258.209 24.9205 258.209 24.9205L257.57 24.9553C257.607 25.0726 257.541 24.9572 257.541 24.9572L257.57 24.9553C257.565 24.9325 257.555 24.9046 257.541 24.8653C257.447 24.6084 257.299 24.5165 257.299 24.5165L256.817 11.5651C257.077 11.4564 257.206 11.1443 257.206 11.1443ZM195.684 21.9945C195.804 21.9945 195.903 22.0905 195.903 22.2103C195.903 22.3301 195.804 22.427 195.684 22.427H188.275C188.154 22.427 188.056 22.3301 188.056 22.2103C188.056 22.0905 188.154 21.9945 188.275 21.9945H195.684ZM189.987 19.6025V7.21561C189.987 7.09584 190.085 6.9989 190.206 6.9989H194.044C194.164 6.9989 194.262 7.09584 194.262 7.21561V19.6025C194.262 19.7222 194.164 19.8192 194.044 19.8192H190.206C190.085 19.8192 189.987 19.7219 189.987 19.6025ZM192.781 26.0107H188.307C188.186 26.0107 188.088 25.9137 188.088 25.7949C188.088 25.6752 188.186 25.5792 188.307 25.5792H192.781C192.902 25.5792 193.001 25.6752 193.001 25.7949C193.001 25.9137 192.902 26.0107 192.781 26.0107ZM192.781 23.2758H188.307C188.186 23.2758 188.088 23.1795 188.088 23.0597C188.088 22.9409 188.186 22.843 188.307 22.843H192.781C192.902 22.843 193.001 22.9409 193.001 23.0597C193.001 23.1798 192.902 23.2758 192.781 23.2758ZM223.046 26.0912C223.018 26.12 222.977 26.1365 222.935 26.1365H195.256C195.215 26.1365 195.175 26.12 195.145 26.0912C195.117 26.0614 195.101 26.0212 195.103 25.98C195.107 25.8627 195.203 25.7702 195.322 25.7702H222.869C222.989 25.7702 223.084 25.8627 223.089 25.98C223.09 26.0212 223.075 26.0614 223.046 26.0912ZM222.87 25.5142H195.322C195.2 25.5142 195.102 25.4173 195.102 25.2975C195.102 25.1777 195.2 25.0817 195.322 25.0817H222.87C222.992 25.0817 223.09 25.1781 223.09 25.2975C223.09 25.4173 222.992 25.5142 222.87 25.5142ZM222.87 24.8254H195.322C195.2 24.8254 195.102 24.7285 195.102 24.6087C195.102 24.489 195.2 24.392 195.322 24.392H222.87C222.992 24.392 223.09 24.489 223.09 24.6087C223.09 24.7285 222.992 24.8254 222.87 24.8254ZM222.87 24.136H195.322C195.2 24.136 195.102 24.04 195.102 23.9202C195.102 23.8005 195.2 23.7035 195.322 23.7035H222.87C222.992 23.7035 223.09 23.8005 223.09 23.9202C223.09 24.0397 222.992 24.136 222.87 24.136ZM222.87 23.4472H195.322C195.2 23.4472 195.102 23.3493 195.102 23.2305C195.102 23.1117 195.2 23.0147 195.322 23.0147H222.87C222.992 23.0147 223.09 23.1117 223.09 23.2305C223.09 23.3493 222.992 23.4472 222.87 23.4472ZM229.747 26.0107H225.273C225.152 26.0107 225.054 25.9137 225.054 25.7949C225.054 25.6752 225.152 25.5792 225.273 25.5792H229.747C229.869 25.5792 229.967 25.6752 229.967 25.7949C229.967 25.9137 229.869 26.0107 229.747 26.0107ZM229.747 23.2758H225.273C225.152 23.2758 225.054 23.1795 225.054 23.0597C225.054 22.9409 225.152 22.843 225.273 22.843H229.747C229.869 22.843 229.967 22.9409 229.967 23.0597C229.967 23.1798 229.869 23.2758 229.747 23.2758ZM229.783 22.427H222.374C222.303 22.427 222.243 22.3922 222.203 22.3396V22.7854H218.771V22.8842H216.234V22.7854H213.191V22.8842H210.655V22.7854H207.525V22.8842H204.987V22.7854H201.945V22.8842H199.408V22.7854H195.962V6.09751H199.644V6.07121H201.708V6.09751H205.224V6.07121H207.288V6.09751H210.892V6.07121H212.956V6.09751H216.471V6.07121H218.535V6.09751H222.203V6.21727C222.244 6.16658 222.303 6.13078 222.374 6.13078H229.783C229.903 6.13078 230.001 6.22868 230.001 6.34749C230.001 6.4663 229.904 6.56325 229.783 6.56325H222.374C222.303 6.56325 222.244 6.52903 222.203 6.47676V22.0798C222.244 22.0291 222.303 21.9942 222.374 21.9942H229.783C229.903 21.9942 230.001 22.0902 230.001 22.21C230 22.3301 229.903 22.427 229.783 22.427ZM228.264 7.21561V19.6025C228.264 19.7222 228.166 19.8192 228.045 19.8192H224.209C224.087 19.8192 223.989 19.7222 223.989 19.6025V7.21561C223.989 7.09584 224.087 6.9989 224.209 6.9989H228.045C228.166 6.9989 228.264 7.09584 228.264 7.21561ZM250.234 20.36H229.851C229.73 20.36 229.632 20.2631 229.632 20.1433C229.632 20.0245 229.73 19.9266 229.851 19.9266H250.234C250.356 19.9266 250.455 20.0245 250.455 20.1433C250.455 20.2631 250.356 20.36 250.234 20.36ZM233.211 19.5166V10.3551H235.237V19.5166H233.211ZM236.676 19.5166V10.3551H238.703V19.5166H236.676ZM240.141 19.5166V10.3551H242.169V19.5166H240.141ZM243.607 19.5166V10.3551H245.634V19.5166H243.607ZM247.074 19.5166V10.3551H249.099V19.5166H247.074ZM250.234 9.49585H229.851C229.73 9.49585 229.632 9.3989 229.632 9.27818C229.632 9.15937 229.73 9.06242 229.851 9.06242H250.234C250.356 9.06242 250.455 9.15937 250.455 9.27818C250.455 9.3989 250.356 9.49585 250.234 9.49585ZM250.234 7.56254H229.851C229.73 7.56254 229.632 7.46654 229.632 7.34741C229.632 7.22765 229.73 7.12975 229.851 7.12975H250.234C250.356 7.12975 250.455 7.22765 250.455 7.34741C250.455 7.46654 250.356 7.56254 250.234 7.56254ZM250.455 6.901C250.455 7.01981 250.356 7.11676 250.234 7.11676H229.851C229.73 7.11676 229.632 7.01981 229.632 6.901C229.632 6.78218 229.73 6.68492 229.851 6.68492H250.234C250.356 6.68492 250.455 6.78187 250.455 6.901ZM188.447 4.50416H229.916C230.038 4.50416 230.136 4.60111 230.136 4.71992C230.136 4.84064 230.038 4.93759 229.916 4.93759H188.447C188.325 4.93759 188.227 4.84064 188.227 4.71992C188.227 4.60143 188.325 4.50416 188.447 4.50416ZM188.447 5.54527H229.916C230.038 5.54527 230.136 5.64127 230.136 5.76198C230.136 5.8808 230.038 5.97775 229.916 5.97775H188.447C188.325 5.97775 188.227 5.8808 188.227 5.76198C188.227 5.64127 188.325 5.54527 188.447 5.54527ZM188.275 6.13078H195.684C195.804 6.13078 195.903 6.22868 195.903 6.34749C195.903 6.4663 195.804 6.56325 195.684 6.56325H188.275C188.154 6.56325 188.056 6.4663 188.056 6.34749C188.056 6.22868 188.154 6.13078 188.275 6.13078ZM167.863 6.68492H188.247C188.367 6.68492 188.466 6.78187 188.466 6.901C188.466 7.01981 188.367 7.11676 188.247 7.11676H167.863C167.741 7.11676 167.643 7.01981 167.643 6.901C167.643 6.78187 167.741 6.68492 167.863 6.68492ZM167.863 7.12975H188.247C188.367 7.12975 188.466 7.22765 188.466 7.34741C188.466 7.46622 188.367 7.56254 188.247 7.56254H167.863C167.741 7.56254 167.643 7.46654 167.643 7.34741C167.643 7.22765 167.741 7.12975 167.863 7.12975ZM167.863 9.06242H188.247C188.367 9.06242 188.466 9.15937 188.466 9.27818C188.466 9.3989 188.367 9.49585 188.247 9.49585H167.863C167.741 9.49585 167.643 9.3989 167.643 9.27818C167.643 9.15937 167.741 9.06242 167.863 9.06242ZM185.281 10.3551V19.5166H183.254V10.3551H185.281ZM181.815 10.3551V19.5166H179.788V10.3551H181.815ZM178.349 10.3551V19.5166H176.322V10.3551H178.349ZM174.884 10.3551V19.5166H172.856V10.3551H174.884ZM171.418 10.3551V19.5166H169.391V10.3551H171.418ZM167.863 19.9266H188.247C188.367 19.9266 188.466 20.0245 188.466 20.1433C188.466 20.2631 188.367 20.36 188.247 20.36H167.863C167.741 20.36 167.643 20.2631 167.643 20.1433C167.643 20.0245 167.741 19.9266 167.863 19.9266ZM136.008 5.84848C136.255 5.77782 136.5 5.71287 136.747 5.65363L136.994 5.59248V5.59787L137.105 5.57062L137.107 5.56903C137.122 5.56555 137.136 5.56365 137.149 5.56016L137.578 5.46068L137.559 5.47652C137.612 5.4667 137.664 5.45371 137.716 5.4442H137.718L137.746 5.43913L137.978 5.39731L137.977 5.39826C138.009 5.39383 138.042 5.38686 138.074 5.38242L138.158 5.36848L138.163 5.36753L138.631 5.29244L138.618 5.30385C138.623 5.30289 138.629 5.30194 138.633 5.30131V5.30036L138.67 5.29593C138.672 5.29593 138.675 5.29593 138.678 5.29498L138.888 5.26963L138.887 5.27501C139.05 5.25664 139.215 5.23921 139.377 5.22781L139.873 5.19359L139.857 5.2069C139.965 5.20341 140.072 5.20088 140.179 5.20088L140.334 5.20183H140.343L140.698 5.20531L140.688 5.21513L140.774 5.21767L140.772 5.224C141.05 5.23953 141.323 5.26424 141.581 5.30448L141.598 5.30701L141.6 5.30543L141.625 5.3105V5.30891L141.694 5.32127L141.919 5.35707L141.909 5.36499C142.036 5.39034 142.163 5.41569 142.288 5.44705C142.324 5.45212 142.37 5.45909 142.44 5.47494C142.441 5.47494 142.442 5.47494 142.444 5.47494L142.493 5.48539V5.48286L142.591 5.50662L142.729 5.5364L142.725 5.53988C142.728 5.53988 142.73 5.54084 142.733 5.54147H142.734C142.889 5.58076 143.121 5.64571 143.437 5.74868L143.438 5.74773L143.505 5.77149L143.554 5.78733V5.78543L143.612 5.80729L143.696 5.83359L143.694 5.83549L143.732 5.84943L143.795 5.87034V5.87224C143.98 5.93878 144.18 6.01482 144.397 6.10036L144.398 6.09941L144.498 6.13965L144.543 6.15897V6.15644L144.761 6.24832C145.01 6.35319 145.28 6.47105 145.567 6.60412V6.60222L145.703 6.66686L145.757 6.69125L145.8 6.71216C146.015 6.8145 146.241 6.92444 146.477 7.04325L146.637 7.12468V7.12563C146.639 7.12658 146.64 7.12721 146.641 7.12816V7.12721L146.855 7.23747L146.897 7.25933C147.145 7.38955 147.406 7.52927 147.674 7.67882L147.675 7.67786L147.705 7.69434C147.717 7.70036 147.727 7.7067 147.74 7.71272L147.792 7.7425V7.74092L148.059 7.89046C148.292 8.02416 148.54 8.16832 148.794 8.3204L148.796 8.31882L148.962 8.41925V8.41735L149.254 8.59383C149.518 8.75478 149.794 8.92872 150.078 9.10963V9.10773L150.264 9.22654V9.22495L150.411 9.32032L150.55 9.4103V9.41125L150.57 9.42424C150.811 9.58171 151.063 9.74836 151.316 9.91913V9.91818L151.414 9.98472C151.415 9.98472 151.415 9.98567 151.416 9.98567L151.512 10.0503V10.0484L151.848 10.28C152.16 10.4942 152.484 10.7223 152.815 10.9574L152.816 10.9558L152.901 11.0189C152.91 11.0239 152.917 11.0293 152.926 11.0353L152.992 11.0825V11.0816L153.331 11.3281C153.641 11.5537 153.962 11.7932 154.289 12.0368L154.29 12.0334L154.697 12.3435L154.698 12.3445L154.744 12.3787C155.145 12.6848 155.561 13.0079 155.984 13.3428V13.3403L156.103 13.4356C156.106 13.4382 156.109 13.4401 156.114 13.4426L156.192 13.5057C156.28 13.5763 156.372 13.6498 156.462 13.7214V13.7198L156.605 13.8371C156.645 13.8694 156.686 13.9017 156.728 13.935L156.769 13.9663L156.77 13.9689L156.809 14.0012C157.119 14.2512 157.436 14.5116 157.757 14.7774L157.758 14.7758L157.884 14.8817C157.886 14.8836 157.889 14.8852 157.892 14.888L157.966 14.9492V14.9501L158.132 15.0898L158.131 15.0848L158.486 15.3854C158.926 15.7577 159.379 16.1468 159.838 16.5479V16.5469L159.932 16.6274C159.938 16.6334 159.944 16.6379 159.951 16.6432L160.032 16.7149C160.116 16.7874 160.199 16.8615 160.282 16.9351V16.9332L160.55 17.1692C160.551 17.1708 160.551 17.1708 160.552 17.1727L160.589 17.2059L160.634 17.2452C161.015 17.5817 161.403 17.9315 161.796 18.2889V18.2879L161.882 18.3655C161.888 18.3716 161.894 18.376 161.9 18.382L161.983 18.4581H161.982C162.1 18.5639 162.219 18.6738 162.337 18.7822L162.336 18.7796L162.581 19.0068C162.591 19.0157 162.6 19.0242 162.611 19.0331L162.646 19.0664L162.647 19.068L162.692 19.1101C163.11 19.4973 163.535 19.8933 163.966 20.3033L164.649 20.9528L163.792 20.5498C163.445 20.3872 163.105 20.2292 162.765 20.0707L162.59 19.9893C162.245 19.8303 161.906 19.6722 161.569 19.5182L161.339 19.4124L160.908 19.2166L160.76 19.1494C160.262 18.9229 159.776 18.7046 159.298 18.4904L158.876 18.3025L158.873 18.3006C158.383 18.0839 157.904 17.8713 157.434 17.666L157.364 17.6356L157.299 17.6077L157.212 17.5694L157.081 17.5142V17.5133C156.744 17.3675 156.412 17.2231 156.085 17.0833L156.064 17.0745L156.065 17.0764L155.106 16.6673L155.069 16.6518C154.821 16.5476 154.577 16.4446 154.335 16.3451L154.263 16.3153V16.3134H154.261C153.958 16.1876 153.663 16.066 153.371 15.9481L152.952 15.7761L152.95 15.7745C152.527 15.6031 152.118 15.4406 151.716 15.2825L151.718 15.291L151.478 15.1915L151.46 15.2406L151.448 15.1795L151.253 15.1C150.932 14.9732 150.622 14.8535 150.316 14.7356L150.328 14.8056L150.075 14.6421L150.05 14.6323L150.049 14.6254L149.626 14.3516L149.473 14.2537C149.24 14.1032 149.008 13.9556 148.778 13.807V13.8079L148.004 13.3149L147.911 13.2554L147.857 13.2205C147.631 13.077 147.406 12.9357 147.183 12.7956L147.119 12.7545V12.7535L146.579 12.418L146.073 12.1008L145.176 11.5448V11.5457L144.874 11.3604L144.643 11.2181C144.409 11.074 144.179 10.9333 143.949 10.7923L143.948 10.7939L143.61 10.5876L142.757 10.0728L142.303 9.80095V9.8L141.423 9.2747L141.449 9.24681L141.294 9.16824V9.16032L140.648 8.80737L140.641 8.81529L140.375 8.65624V8.65719L139.675 8.24816L139.18 7.96048V7.95953L138.917 7.8065L138.455 7.54004L138.454 7.54099L137.972 7.26313L137.589 7.04293L137.544 7.01854L137.301 7.20896L137.369 6.91874L136.946 6.67826L136.534 6.44317L136.535 6.44159L136.479 6.41086L136.477 6.41244L135.658 5.95018L136.008 5.84848ZM100.24 20.0514L100.245 19.5917C100.449 19.0471 100.675 18.4625 100.922 17.8472L101.219 17.1096V17.1236C101.371 16.7608 101.527 16.3895 101.692 16.0102L101.757 15.8616V15.8607L101.773 15.8223L101.988 15.3303V15.3427L101.996 15.3243H101.997C102.166 14.9485 102.34 14.569 102.52 14.1837L102.814 13.5595V13.5735C102.993 13.2047 103.176 12.834 103.367 12.4592L103.415 12.3657V12.3613L103.435 12.3255L103.658 11.8886V11.9053C103.806 11.6221 103.954 11.3389 104.108 11.0575L104.153 10.9754L104.305 10.6957L104.306 10.6976L104.393 10.5385V10.5525C104.557 10.2604 104.721 9.96856 104.893 9.67929L104.933 9.61212V9.61117L104.966 9.55446L105.021 9.46353H105.02L105.033 9.44325L105.179 9.19422V9.20373C105.353 8.9189 105.528 8.6347 105.707 8.3543L105.743 8.29822V8.29632L105.91 8.03842L105.974 7.93608L105.975 7.94749C106.166 7.65822 106.358 7.368 106.556 7.08571L106.587 7.03945L106.596 7.02804L106.816 6.71153V6.72135C107.009 6.45299 107.203 6.18464 107.403 5.92515L107.43 5.8903V5.8884L107.466 5.84214L107.523 5.76959L107.66 5.59026V5.59818C107.841 5.36753 108.024 5.13846 108.21 4.91636L108.263 4.85173L108.278 4.8324L108.314 4.77822C108.382 4.67937 108.639 4.3166 109.079 3.83089L109.078 3.82994L109.116 3.78876L109.093 3.4941L109.243 3.65062L109.341 3.54226L109.342 3.55367C109.531 3.35691 109.731 3.16047 109.943 2.96721L109.985 2.92982H109.984L110.009 2.90796L110.171 2.76128L110.172 2.76982C110.373 2.59493 110.582 2.42194 110.799 2.25592L110.802 2.25244C110.805 2.25149 110.806 2.24991 110.809 2.24801L110.894 2.18242L110.9 2.17799L111.022 2.08548L111.023 2.08896L111.034 2.08198C111.039 2.07849 111.044 2.07407 111.049 2.07059L111.075 2.0522H111.076C111.288 1.90107 111.507 1.75152 111.732 1.61085V1.6099L111.748 1.59849C111.75 1.59691 111.752 1.59596 111.755 1.59406L111.81 1.55985L111.809 1.55794L111.866 1.52468L111.957 1.46701L111.958 1.46955L111.972 1.46005C111.972 1.46005 111.974 1.45909 111.975 1.45814L112.022 1.42931L112.023 1.43089C112.254 1.2937 112.492 1.16159 112.735 1.03771L112.75 1.02979L112.786 1.01236L112.925 0.941391V0.943924L112.937 0.93791C113.178 0.820683 113.428 0.710733 113.681 0.607445V0.604912L113.771 0.568172L113.77 0.567204L113.865 0.531408L113.911 0.513039V0.513987L113.917 0.5124L114.015 0.473106L114.017 0.475019C114.248 0.388525 114.493 0.306145 114.746 0.230106V0.228519L114.765 0.222178L114.764 0.220592L114.849 0.196207L114.98 0.15786V0.159445L115.013 0.14995C115.307 0.0669403 115.598 0.000406265 115.885 -0.0588398L115.883 -0.0607548L115.934 -0.0711975C115.945 -0.0727825 115.958 -0.0762749 115.967 -0.0791264L115.966 -0.0807114L116.063 -0.0974979L116.122 -0.109854V-0.10796L116.232 -0.127277L116.241 -0.128862L116.256 -0.131397C116.482 -0.169733 116.711 -0.200472 116.941 -0.229303L116.939 -0.235647L117.056 -0.24609L117.052 -0.24959L117.367 -0.275871H117.371L117.385 -0.277784C117.625 -0.297745 117.862 -0.308191 118.097 -0.316113L118.094 -0.322126L118.25 -0.323711L118.244 -0.328161L118.566 -0.327209L118.597 -0.328161V-0.327209H118.63C118.898 -0.32626 119.169 -0.31422 119.437 -0.298378L119.436 -0.303755L119.554 -0.295849L119.548 -0.301859L119.875 -0.270494L119.939 -0.265427H119.941L119.991 -0.260033C120.223 -0.238171 120.458 -0.207436 120.692 -0.175119L120.691 -0.180515L120.846 -0.156748C120.854 -0.155798 120.857 -0.154846 120.863 -0.154213H120.863L120.852 -0.164675L121.272 -0.0886211L121.299 -0.0841942L121.373 -0.0711975C121.611 -0.0265236 121.852 0.0247955 122.091 0.0792904L122.09 0.0704136L122.359 0.135059L122.379 0.141075L122.362 0.123652L122.995 0.298542C123.162 0.343849 123.33 0.396439 123.498 0.448082L123.496 0.44112L123.794 0.537113C123.854 0.55644 123.914 0.579252 123.973 0.598263L123.938 0.567532L124.724 0.858702C124.811 0.890068 124.898 0.925226 124.984 0.958178L124.98 0.951216L125.312 1.08492C125.391 1.11565 125.471 1.15304 125.549 1.18536L125.483 1.13023L126.169 1.45181C126.215 1.47178 126.261 1.48856 126.307 1.51043L126.337 1.53069L126.627 1.6644L126.62 1.65045L126.952 1.81649H126.953L126.989 1.83581C127.219 1.95018 127.651 2.16785 128.258 2.48088L128.512 2.69156L128.517 2.6846L128.519 2.68366L128.481 2.59621L128.552 2.63295L128.582 2.64879L128.86 2.7939C129.285 3.01505 129.783 3.27803 130.324 3.56317L130.323 3.56127L130.551 3.68357C130.579 3.69941 130.603 3.71145 130.631 3.72634L130.677 3.75074L130.678 3.75169L130.835 3.8366L131.109 4.05331L131.145 4.00072C131.464 4.17212 131.804 4.35462 132.152 4.54345L132.151 4.5425L132.455 4.70693C132.463 4.712 132.471 4.71644 132.479 4.72183L132.522 4.74464L133.339 5.19042L133.7 5.46131L133.735 5.40872L134.727 5.95842L134.477 6.0484L134.637 6.16721L134.638 6.15929L134.745 6.24325L134.872 6.19858L134.86 6.25719L134.863 6.25624V6.25719L135.058 6.14281L135.136 6.18464C135.24 6.24325 135.346 6.30282 135.453 6.36301L135.562 6.42416L135.563 6.42163L135.585 6.43747L135.676 6.48911L135.667 6.49513L135.963 6.70836L136.051 6.77141L136.085 6.71818L136.173 6.76793L136.183 6.77331L136.38 6.8842L136.388 6.88959L136.423 6.90797L136.452 6.79771L136.571 6.99161L136.611 7.01347L136.608 7.01442L136.913 7.18741L136.966 7.21783L137.14 7.31668V7.31763L137.479 7.5109L137.671 7.62084H137.672L138.14 7.88824L138.141 7.88634L138.626 8.1642L138.623 8.16769L138.745 8.23834L139.042 8.40975L139.044 8.41228L139.106 8.44903L139.107 8.44745L139.2 8.50258L139.357 8.36349L139.327 8.57576L140.087 9.0225L140.088 9.02091L140.152 9.05925L140.164 9.06527L140.348 8.89577L140.317 9.1562L140.368 9.18504L140.364 9.18852L140.816 9.46384L141.052 9.62891L141.029 9.59311L141.564 9.89379L142.254 10.3073L142.256 10.3063L142.432 10.4137L142.468 10.4346L142.504 10.4565C142.808 10.6383 143.116 10.8262 143.43 11.016V11.0151L143.454 11.0299C143.47 11.0394 143.486 11.0493 143.501 11.0588L143.56 11.0946L143.632 11.1339L143.634 11.1399L143.647 11.1469L143.643 11.1503L144 11.375L143.989 11.3556L144.791 11.8477L144.891 11.7324L144.895 11.9107L144.896 11.9117V11.9133L144.904 11.9177C145.219 12.111 145.54 12.3112 145.863 12.5111V12.5102L146.043 12.623C146.044 12.6239 146.046 12.6246 146.047 12.6255L146.115 12.6673L148.034 13.871L146.778 13.4385C146.51 13.346 146.249 13.2566 145.993 13.1736L145.894 13.1394V13.1369L145.817 13.1115L145.171 12.9037L145.172 12.9062L144.913 12.8223L144.763 12.7741L144.677 12.7488V12.7472C144.576 12.7149 144.477 12.6835 144.379 12.6537L144.156 12.5865V12.5856C143.981 12.533 143.807 12.4807 143.64 12.43L143.639 12.4772L143.527 12.3977L143.368 12.3505C143.223 12.3093 143.087 12.2719 142.95 12.2326L142.447 12.0945V12.0961L142.33 12.0619L142.207 12.0286V12.0261L142.2 12.0242L141.796 11.9237C141.59 11.8721 141.392 11.8242 141.202 11.7796L141.194 11.7777L141.061 11.9177L141.075 11.7492H141.073C140.964 11.7229 140.855 11.6994 140.751 11.6766L140.685 11.6608L140.683 11.6573L140.313 11.5831C140.219 11.5638 140.131 11.5473 140.042 11.529V11.5309L139.585 11.4453C139.416 11.4174 139.261 11.3927 139.115 11.3718L139.073 11.3658L139.116 11.4434L139.01 11.3569L138.781 11.3243L138.755 11.3233C138.526 11.2961 138.33 11.2771 138.162 11.2657L138.104 11.2622L138.075 11.2612C137.945 11.2527 137.837 11.2508 137.744 11.2508L137.723 11.3591L137.592 11.2508L137.557 11.2517C137.493 11.2543 137.446 11.2587 137.415 11.2622L137.43 11.2929L137.332 11.2745H137.331L137.268 11.2641L137.127 11.2387C136.941 11.2064 136.758 11.1757 136.574 11.1462L136.564 11.1446L136.316 11.3633L136.376 11.1158L136.336 11.1088L135.651 11.017H135.65L135.414 10.9856L134.87 10.926C134.798 10.9181 134.726 10.9121 134.654 10.9032L134.569 10.8962L134.557 10.945L134.493 10.889L134.434 10.8836C134.231 10.8646 134.03 10.8497 133.829 10.8348L133.776 11.0673L133.692 10.8845L133.543 10.9948L133.583 10.8189C133.36 10.8056 133.137 10.7936 132.916 10.7857L132.494 10.7717L132.222 10.9745L132.285 10.7648L132.083 10.7613L131.508 10.7568V10.7559L131.312 10.7568L131.29 10.7359L131.261 10.7578L130.658 10.7676H130.657L130.242 10.7825L129.824 10.799L129.823 10.7999L129.803 10.8009L129.597 10.9355L129.626 10.8123C129.46 10.8202 129.296 10.8316 129.132 10.8421L129.134 10.8446L128.635 10.8788L128.578 10.8848L128.538 10.9092L128.518 10.889L128.504 10.8909C128.176 10.9206 127.85 10.953 127.53 10.9903L127.448 11.2333L127.335 11.0132L127.286 11.0192L127.279 11.0227L127.28 11.0201L127.199 11.0296L127.116 11.041L127.115 11.0401L127.109 11.041C126.762 11.0838 126.419 11.1329 126.081 11.1852L126.054 11.1896L126.055 11.1931L125.921 11.2131L125.824 11.2692L125.81 11.2299L125.694 11.2473L125.692 11.2454L125.59 11.2612L124.886 11.375L125.452 11.0017L125.451 11.0008L125.893 10.7106V10.7122C126.062 10.6029 126.245 10.4866 126.438 10.3643L126.437 10.3624L126.624 10.2471L126.648 10.2322L126.964 10.0373V10.0357L127.07 9.9711C127.085 9.96159 127.103 9.95177 127.118 9.94226L127.177 9.90646C127.279 9.84341 127.383 9.78067 127.49 9.71604L127.594 9.6549V9.65585L127.636 9.63145L127.637 9.62986L127.691 9.59755C127.728 9.57569 127.769 9.55288 127.806 9.53038L127.932 9.45529V9.45782C128.038 9.39478 128.142 9.33363 128.252 9.27089V9.26931L128.321 9.23097L128.466 9.14701V9.14891L128.52 9.11818C128.716 9.00634 128.919 8.8945 129.125 8.78076L129.143 8.77094L129.144 8.76935L129.241 8.71676L129.434 8.61189L129.432 8.61442L129.491 8.58369L129.49 8.5821L129.611 8.51747C129.636 8.50511 129.661 8.49212 129.685 8.47977L129.706 8.46836C129.874 8.37933 130.043 8.28903 130.217 8.20095L130.266 8.17656L130.278 8.12048L130.314 8.15185L130.328 8.14392C130.489 8.06186 130.653 7.98044 130.817 7.89933L130.964 7.82583L130.965 7.82678C130.982 7.81886 130.998 7.8103 131.016 7.80238L131.012 7.79984L131.438 7.59961L131.439 7.59866L131.507 7.56729C131.533 7.55493 131.561 7.54289 131.587 7.53054L131.723 7.46685L131.722 7.46781C131.757 7.45102 131.794 7.43549 131.829 7.41806V7.41711L131.956 7.3604C131.964 7.35691 131.973 7.35248 131.98 7.349L132.05 7.31763L132.03 7.27232L132.071 7.30717L132.131 7.28182L132.273 7.21719V7.21878L132.449 7.14178L132.45 7.1402L132.547 7.09806L132.728 7.01759L132.712 7.08476L132.717 7.08222L132.875 6.99224L132.876 6.99319L133.091 6.8709L133.266 6.79929L133.265 6.79676L133.426 6.73466L133.492 6.70678L133.493 6.70836L133.504 6.70392L133.513 6.70836L133.524 6.67066L133.545 6.68745L133.586 6.67161C133.695 6.62884 133.806 6.5867 133.917 6.54488L133.915 6.54329L134.097 6.47612C134.097 6.47612 134.1 6.47517 134.101 6.47517L134.182 6.44539C134.321 6.3947 134.46 6.34495 134.599 6.29585L134.473 6.0503L134.208 6.14567L134.172 6.15802C134.033 6.20872 133.893 6.261 133.753 6.31454L133.372 6.46408L133.373 6.46567L133.072 6.5829L133.058 6.58891C132.861 6.67034 132.661 6.75398 132.461 6.8408L132.387 6.87311C132.286 6.91684 132.182 6.96214 132.078 7.00872L131.998 7.04452L131.711 7.17474L131.633 7.21149C131.387 7.32428 131.139 7.44119 130.891 7.56285L130.867 7.57521L130.935 7.73078L130.797 7.60848L130.796 7.60753L130.696 7.65822C130.449 7.77957 130.206 7.90187 129.967 8.02511L129.928 8.04602L129.57 8.23391L129.009 8.53648C128.768 8.66765 128.535 8.79786 128.309 8.92713L128.253 8.9585L128.157 9.02218L128.152 9.01616C127.849 9.19168 127.557 9.36214 127.281 9.52753L127.258 9.54242L126.918 9.74773C126.719 9.87003 126.527 9.9882 126.347 10.1026L126.242 10.1697V10.1688C126.074 10.2756 125.912 10.3795 125.763 10.4749L125.718 10.5056L125.429 10.6954L125.31 10.773C124.971 10.9995 124.71 11.1776 124.542 11.2967L124.639 11.6069L124.421 11.3823L124.419 11.3832H124.418L124.215 11.5248C123.909 11.5879 123.614 11.6541 123.322 11.7206L123.176 11.7555L123.179 11.7644L123.172 11.7574L122.964 11.8062C122.622 11.8876 122.29 11.9732 121.966 12.0596L121.576 12.1674C121.253 12.2564 120.94 12.3483 120.638 12.4408L120.544 12.4696L120.543 12.4687L120.429 12.5054V12.5064L120.292 12.5492C120.019 12.6347 119.759 12.7221 119.505 12.8071L118.937 13.0054L118.877 13.0273C118.639 13.1128 118.41 13.1968 118.192 13.2798L118.118 13.3095C117.986 13.3593 117.859 13.4084 117.735 13.4581L117.62 13.5044C117.372 13.6032 117.144 13.6983 116.932 13.7886L116.848 13.8253C116.694 13.8909 116.553 13.954 116.419 14.0123L116.337 14.049C116.117 14.1485 115.928 14.2379 115.768 14.3139L115.742 14.3263L115.709 14.3427C115.382 14.5018 115.208 14.5962 115.207 14.5981L115.152 14.6279V14.6288L115.062 14.6786L114.927 14.7562V14.7552L114.394 15.0543L113.949 15.3034V15.3043L113.385 15.6208L112.798 15.9503V15.9513L112.241 16.2634V16.2643L111.335 16.7722L111.02 16.9487L110.963 16.9819L110.8 17.0729L110.422 17.2852V17.2861L109.764 17.6549H109.765L109.231 17.9537L108.697 18.2534L108.698 18.2543L108.296 18.478V18.4799L107.395 18.9853V18.9843L107.342 19.0151L107.328 19.023L107.104 19.1507V19.1491L106.372 19.56V19.561L105.953 19.796L105.949 19.7945L105.384 20.104L105.385 20.1145L104.485 20.6195L104.318 20.7139L104.243 20.756L103.66 21.0836V21.0846L102.816 21.5583L101.989 22.0224V22.0303H100.775V22.7042L100.204 23.0249L100.206 22.8493L99.7241 23.1202V22.6456L99.1706 23.1909C99.359 22.5766 99.7177 21.4667 100.24 20.0514ZM96.8654 -20.9571C96.823 -21.1022 97.077 -21.3819 97.3075 -21.5977C97.3377 -21.4168 97.4466 -21.2428 97.4466 -21.2428C97.2783 -21.2587 96.8654 -20.9571 96.8654 -20.9571ZM97.295 -22.0733L97.3252 -22.0812L96.6971 -21.3506C96.209 -21.9823 97.295 -22.0733 97.295 -22.0733ZM89.7507 -20.881C89.9376 -21.0838 89.9729 -21.5302 89.9729 -21.5302C90.5541 -21.5302 90.8906 -20.7454 90.8906 -20.7454C90.5496 -21.1022 90.0439 -20.991 89.7507 -20.881ZM90.5079 -21.6221L90.8435 -21.6509L90.8903 -21.3338C90.7577 -21.4621 90.6293 -21.5549 90.5079 -21.6221ZM77.7249 4.91604C77.6709 4.66765 77.7904 4.3882 77.7904 4.3882C78.0196 4.50702 78.1722 4.19335 78.1722 4.19335L78.4239 4.18385C78.7412 3.9139 78.4788 3.61228 78.4788 3.61228C78.5 3.50392 78.0961 3.27833 78.0961 3.27833C77.9207 3.09489 78.1828 2.87881 78.1828 2.87881H82.4656C82.7164 2.90067 82.4974 3.26693 82.4974 3.26693C82.3336 3.37433 82.5523 3.47224 82.5745 3.52579C82.5966 3.57997 82.6833 3.74155 82.8252 3.9139C82.9668 4.08595 82.9023 4.32388 82.9023 4.32388C82.8031 4.42084 82.8031 4.99177 82.8031 4.99177L83.0767 23.7441C82.8695 23.765 82.9668 24.0457 82.9668 24.0457H82.8907C82.9129 24.2827 82.727 24.3787 82.727 24.3787C82.5523 24.4338 82.6615 24.6382 82.6615 24.6382L78.6638 24.7133C78.893 24.5305 78.5771 24.3898 78.5771 24.3898C78.369 24.347 78.4355 24.0558 78.4355 24.0558V23.9808C78.5877 23.7859 78.238 23.7542 78.238 23.7542C78.2939 23.6145 78.1628 23.5819 78.1628 23.5819L77.6924 5.15303C77.8771 5.05577 77.7249 4.91604 77.7249 4.91604ZM70.9972 4.28048C71.456 4.28998 71.51 3.94495 71.51 3.94495C71.5976 3.50361 71.106 3.34265 71.106 3.34265C70.8989 3.20261 71.1282 2.98685 71.1282 2.98685L75.6608 2.93172C75.4197 2.98685 75.5953 3.35217 75.5953 3.35217C75.3661 3.30939 75.3214 3.58978 75.3214 3.58978C74.9059 3.58978 75.2338 4.1604 75.2338 4.1604C75.1477 4.23549 75.2116 4.36571 75.2116 4.36571C75.3108 4.57101 75.7369 4.47311 75.7369 4.47311C75.8345 4.51588 75.8345 4.904 75.8345 4.904C75.682 5.01141 75.8577 5.16349 75.8577 5.16349L75.9665 23.624C75.8345 23.6668 75.8451 23.7964 75.8451 23.7964C75.6714 23.8182 75.7591 24.1094 75.7591 24.1094C75.8573 24.1845 75.7803 24.3568 75.7803 24.3568C75.4418 24.411 75.5517 24.724 75.5517 24.724L71.6949 24.7443C72.0883 24.5948 71.6516 24.4113 71.6516 24.4113C71.4557 24.3248 71.5427 24.1747 71.5427 24.1747C71.6082 24.1214 71.4772 24.0872 71.4772 24.0872C71.6294 23.8835 71.368 23.8398 71.368 23.8398C71.4451 23.6896 71.2813 23.636 71.2813 23.636L70.7888 5.07699C70.8552 5.0019 70.7676 4.91604 70.7676 4.91604C70.713 4.64579 70.9972 4.28048 70.9972 4.28048ZM64.0065 5.13085C63.9737 4.97972 64.1163 4.62487 64.1163 4.62487C64.4759 4.57165 64.6069 4.25862 64.6069 4.25862C64.9232 3.55779 64.1269 3.29893 64.1269 3.29893C64.1375 3.23429 64.2361 3.11613 64.2361 3.11613L68.3975 3.06194C68.7909 3.40729 68.0918 3.81632 68.0918 3.81632C67.8741 3.97791 68.2116 4.34416 68.3099 4.32325C68.4081 4.30044 68.7475 4.4088 68.7475 4.4088C68.944 4.54947 68.8785 4.94804 68.8785 4.94804C68.7793 5.07668 68.8891 5.14131 68.8891 5.14131L69.0311 23.5055C69.0532 23.6988 68.9212 23.8509 68.9212 23.8509C68.6377 23.9478 68.8567 24.1306 68.8567 24.1306C68.7912 24.1411 68.823 24.1953 68.823 24.1953C68.8451 24.315 68.7257 24.4329 68.7257 24.4329C68.4855 24.5184 68.5725 24.7564 68.5725 24.7564L64.7823 24.7991C64.7823 24.7991 64.4987 24.9065 64.7823 24.7564C65.0667 24.6052 64.7062 24.411 64.7062 24.411C64.6185 24.335 64.6628 24.1531 64.6628 24.1531C64.7611 24.0657 64.6185 24.0771 64.6185 24.0771C64.8044 23.9259 64.5318 23.8724 64.5318 23.8724C64.4226 23.861 64.368 23.6034 64.368 23.6034L63.9862 5.28198C64.1375 5.23858 64.0065 5.13085 64.0065 5.13085ZM57.2788 4.72183C57.7376 4.38789 57.6837 4.19304 57.5845 4.07486C57.4862 3.95605 57.5633 3.76183 57.519 3.63351C57.4756 3.50329 57.2017 3.27772 57.2017 3.27772L61.3747 3.15794L61.5924 3.34234C60.9149 3.58978 61.1885 3.97759 61.254 4.0644C61.3195 4.14994 61.3089 4.26907 61.3195 4.33276C61.3301 4.39834 61.5825 4.48484 61.5825 4.48484C61.3956 4.75414 61.7019 4.90432 61.7019 4.90432L62.0298 4.91573C61.9739 4.97941 62.0519 5.18503 62.0519 5.18503C61.9855 5.28198 62.0837 5.36848 62.0837 5.36848L62.1155 23.5055C62.1271 23.6988 61.8975 23.8394 61.8975 23.8394C61.6904 23.9373 61.8879 24.1743 61.8879 24.1743C61.9739 24.239 61.8657 24.3572 61.8657 24.3572C61.614 24.4864 61.6798 24.7348 61.6798 24.7348H57.8246C58.0099 24.5514 57.7148 24.3895 57.7148 24.3895C57.5944 24.2821 57.6503 24.1848 57.6503 24.1848C57.737 24.1211 57.605 24.066 57.605 24.066C57.7688 23.8727 57.5077 23.8394 57.5077 23.8394C57.6166 23.7539 57.475 23.6674 57.475 23.6674L57.2351 4.75319C56.8472 5.03391 57.2351 4.73228 57.2351 4.73228V4.75319C57.2476 4.74305 57.2627 4.7326 57.2788 4.72183ZM50.6484 5.58393C50.7033 5.46575 50.7033 5.41157 50.6715 5.32507C50.6387 5.23858 50.8343 4.80769 50.8343 4.80769L50.9441 4.65719C51.5545 3.95636 50.6821 3.56919 50.6821 3.56919C50.7909 3.53592 50.7582 3.3962 50.7582 3.3962L54.9187 3.38574C55.2244 3.4827 55.1152 3.89173 55.0401 3.81664C54.963 3.74155 54.7122 3.83755 54.7122 3.83755C54.9187 4.0099 54.5812 4.25893 54.5812 4.25893C54.559 4.59287 55.094 4.65751 55.094 4.65751C55.1373 4.77569 55.3011 4.7326 55.3011 4.7326C55.3011 4.7326 55.2462 23.5172 55.2356 23.6246C55.224 23.732 55.0937 23.8509 55.0937 23.8509C54.8307 23.9041 55.007 24.066 55.007 24.066C54.9078 24.0869 54.9848 24.1743 54.9848 24.1743C55.1264 24.335 54.8634 24.476 54.8634 24.476C54.6791 24.5729 54.7334 24.724 54.7334 24.724L51.2495 24.648C51.4681 24.4975 51.184 24.3568 51.184 24.3568C51.0847 24.3568 51.0751 24.2491 51.0751 24.2491C51.1406 24.001 50.8998 24.0131 50.8998 24.0131C50.9768 23.785 50.7351 23.7428 50.7351 23.7428L50.7473 6.94155C50.7473 6.94155 50.7145 6.10068 50.6818 6.00278C50.6484 5.90709 50.5934 5.70274 50.6484 5.58393ZM43.9126 6.87026C43.895 6.80911 44.0038 6.68935 44.1021 6.59747C44.1152 6.67446 44.1624 6.74796 44.1624 6.74796C44.0908 6.74195 43.9126 6.87026 43.9126 6.87026ZM44.096 6.39311L44.1095 6.38963L43.842 6.70329C43.6329 6.43145 44.096 6.39311 44.096 6.39311ZM40.8728 6.90163C40.9534 6.81608 40.9675 6.62535 40.9675 6.62535C41.2163 6.62535 41.3599 6.96087 41.3599 6.96087C41.2147 6.80911 40.9977 6.85632 40.8728 6.90163ZM39.5652 6.87026C39.5466 6.80911 39.6555 6.68935 39.7531 6.59747C39.7672 6.67446 39.8134 6.74796 39.8134 6.74796C39.7415 6.74195 39.5652 6.87026 39.5652 6.87026ZM39.7476 6.39311L39.7617 6.38963L39.4933 6.70329C39.2843 6.43145 39.7476 6.39311 39.7476 6.39311ZM36.5244 6.90163C36.604 6.81608 36.6191 6.62535 36.6191 6.62535C36.867 6.62535 37.0106 6.96087 37.0106 6.96087C36.8654 6.80911 36.6493 6.85632 36.5244 6.90163ZM29.4477 9.71098L29.4884 9.48127L29.5851 9.35961L32.0672 9.34661C31.889 9.41315 32.0807 9.6568 32.0807 9.6568C32.2323 9.52119 32.2046 9.81933 32.2046 9.81933C32.1366 9.85957 32.2046 9.99517 32.2046 9.99517L32.2862 14.7305C32.2181 14.7584 32.2323 14.8931 32.2323 14.8931C32.1224 14.8801 31.9442 15.0556 31.9442 15.0556L31.9301 14.8931L30.4765 14.9064C30.1878 14.9336 30.1335 15.2996 30.1335 15.2996L29.8314 15.3268V15.1111C29.8314 14.8804 29.6676 14.9206 29.6676 14.9206C29.7084 14.8804 29.5995 14.8402 29.5995 14.8402C29.6952 14.7711 29.5437 14.5832 29.5437 14.5832L29.4204 9.99549L29.4884 9.79272C29.5575 9.79208 29.4477 9.71098 29.4477 9.71098ZM25.0184 9.99485L28.1861 9.95557L28.2002 14.9333H27.6919C27.6919 14.9333 27.5413 14.8801 27.5272 15.0686V15.2714H27.2269C27.2269 15.2714 27.1987 15.0556 27.0205 15.0556H26.8699C26.8699 15.0556 26.8834 14.9473 26.7183 14.9333H25.0733V14.8398H25.0184C25.0184 14.8398 25.1 14.7042 24.9503 14.6494L25.0184 9.99485ZM26.5812 17.5947C26.5812 17.5947 29.9438 17.4645 30.5317 21.1746H30.3227L30.3609 21.2874C30.3609 21.2874 30.0385 21.4002 30.3988 21.6064C30.3988 21.6064 30.2845 21.9806 30.5513 22.1501L30.5664 25.9854H25.7672C25.7653 25.9923 25.7627 26.0012 25.7691 26.0091C25.8054 26.0519 25.1748 26.4828 25.2101 26.5011C25.2473 26.5167 25.117 26.5788 25.0801 26.5876C25.0659 26.5902 25.0242 26.6035 24.9828 26.619C25.0332 26.3909 25.0145 26.2841 25.0226 26.1577C25.0287 26.0703 25.0553 26.037 25.0765 25.9854H22.6805L22.6493 22.0934C22.6493 22.0934 22.7912 22.0924 22.7762 21.6913C22.7762 21.6913 22.9081 21.6311 22.9081 21.5015L22.9354 21.493V21.4239L22.6962 21.2699C22.6962 21.2699 22.8776 17.8393 26.5812 17.5947ZM20.7677 11.3351L20.7953 9.90076C20.891 9.83264 20.8361 9.81933 20.8361 9.81933C20.7394 9.76515 20.9318 9.58868 20.9318 9.58868C21.0284 9.54844 20.96 9.39985 20.96 9.39985H23.6335C23.7992 9.44008 23.7565 9.85957 23.7565 9.85957C23.6467 9.90076 23.7565 10.0633 23.7565 10.0633L23.619 14.7708H23.5375V14.8801C23.4553 14.8661 23.3859 15.0157 23.3859 15.0157L23.4001 15.3259L23.112 15.3531L23.1262 15.2717L22.9338 15.0287C22.8648 14.9333 22.7142 14.9745 22.7142 14.9745H21.4243C21.4243 14.9745 21.4243 14.9745 21.3835 14.9745C21.3428 14.9745 21.3286 14.9884 21.301 15.0426C21.2744 15.0968 21.2869 15.1782 21.2471 15.151C21.2053 15.1231 21.2329 15.0157 21.2329 15.0157C21.2329 15.0157 21.1231 15.0426 21.0541 15.0024C20.9851 14.9612 20.8768 14.9473 20.8768 14.9473V14.8528H20.7946C20.8219 14.7708 20.7121 14.6631 20.7121 14.6631L20.7256 11.7133C20.5336 11.5385 20.7677 11.3351 20.7677 11.3351Z" fill="#866443"/>
</g>
<defs>
<clipPath id="clip0_2002_1162">
<rect width="35" height="32" fill="white" transform="translate(0.908203 0.235352)"/>
</clipPath>
</defs>
</svg>
