<svg width="324" height="102" viewBox="0 0 324 102" fill="none" xmlns="http://www.w3.org/2000/svg">
<path d="M107.8 28.2101C98.4 23.7101 86.5 33.21 86.5 33.21L80.1 28.2101C87.7 37.01 78.3 40.4101 78.3 40.4101L86.7 37.3101C86.7 37.3101 92.5 43.41 102.7 44.21C113 45.01 119.1 36.8101 119.1 36.8101C119.1 36.8101 117.2 32.6101 107.8 28.2101Z" fill="#1C5880"/>
<path d="M133.3 50.1104C123.9 45.6104 112 55.1104 112 55.1104L105.6 50.1104C113.2 58.9104 103.8 62.3104 103.8 62.3104L112.2 59.2104C112.2 59.2104 118 65.3104 128.2 66.1104C138.5 66.9104 144.6 58.7104 144.6 58.7104C144.6 58.7104 142.7 54.6104 133.3 50.1104Z" fill="#1C5880"/>
<path d="M163.2 32.71C153.8 28.21 141.9 37.71 141.9 37.71L135.5 32.71C143.1 41.51 133.7 44.9101 133.7 44.9101L142.1 41.8101C142.1 41.8101 147.9 47.9101 158.1 48.7101C168.3 49.51 174.5 41.3101 174.5 41.3101C174.5 41.3101 172.7 37.11 163.2 32.71Z" fill="#1C5880"/>
<path d="M210.2 12.21C200.8 7.71005 188.9 17.21 188.9 17.21L182.5 12.21C190.1 21.01 180.7 24.4101 180.7 24.4101L189.1 21.31C189.1 21.31 194.9 27.4101 205.1 28.2101C215.3 29.01 221.5 20.81 221.5 20.81C221.5 20.81 219.6 16.71 210.2 12.21Z" fill="#1C5880"/>
<path d="M153.7 1.21005C144.3 -3.28995 132.4 6.21005 132.4 6.21005L126 1.21005C133.6 10.01 124.2 13.4101 124.2 13.4101L132.6 10.31C132.6 10.31 138.4 16.4101 148.6 17.2101C158.8 18.01 165 9.81005 165 9.81005C165 9.81005 163.2 5.71005 153.7 1.21005Z" fill="#1C5880"/>
<path d="M238.6 85.6104C229.2 81.1104 217.3 90.6104 217.3 90.6104L210.9 85.6104C218.5 94.4104 209.1 97.8104 209.1 97.8104L217.5 94.7104C217.5 94.7104 223.3 100.81 233.5 101.61C243.7 102.41 249.9 94.2104 249.9 94.2104C249.9 94.2104 248 90.1104 238.6 85.6104Z" fill="#1C5880"/>
<path d="M206.2 51.1104C196.8 46.6104 184.9 56.1104 184.9 56.1104L178.5 51.1104C186.1 59.9104 176.7 63.3104 176.7 63.3104L185.1 60.2104C185.1 60.2104 190.9 66.3104 201.1 67.1104C211.3 67.9104 217.5 59.7104 217.5 59.7104C217.5 59.7104 215.6 55.6104 206.2 51.1104Z" fill="#1C5880"/>
<path d="M261.6 40.71C252.2 36.21 240.3 45.71 240.3 45.71L233.9 40.71C241.5 49.51 232.1 52.9101 232.1 52.9101L240.5 49.8101C240.5 49.8101 246.3 55.9101 256.5 56.7101C266.7 57.51 272.9 49.3101 272.9 49.3101C272.9 49.3101 271 45.11 261.6 40.71Z" fill="#1C5880"/>
<path d="M286 70.6104C276.6 66.1104 264.7 75.6104 264.7 75.6104L258.3 70.6104C265.9 79.4104 256.5 82.8104 256.5 82.8104L264.9 79.7104C264.9 79.7104 270.7 85.8104 280.9 86.6104C291.1 87.4104 297.3 79.2104 297.3 79.2104C297.3 79.2104 295.5 75.1104 286 70.6104Z" fill="#1C5880"/>
<path d="M312.5 50.1104C303.1 45.6104 291.2 55.1104 291.2 55.1104L284.8 50.1104C292.4 58.9104 283 62.3104 283 62.3104L291.4 59.2104C291.4 59.2104 297.2 65.3104 307.4 66.1104C317.6 66.9104 323.8 58.7104 323.8 58.7104C323.8 58.7104 321.9 54.6104 312.5 50.1104Z" fill="#1C5880"/>
<path d="M71.4 48.71C62 44.21 50.1 53.71 50.1 53.71L43.7 48.71C51.3 57.51 41.9 60.9101 41.9 60.9101L50.3 57.8101C50.3 57.8101 56.1 63.9101 66.3 64.7101C76.6 65.51 82.7 57.3101 82.7 57.3101C82.7 57.3101 80.8 53.11 71.4 48.71Z" fill="#1C5880"/>
<path d="M29.5 18.21C20.1 13.71 8.2 23.21 8.2 23.21L1.8 18.21C9.4 27.01 0 30.4101 0 30.4101L8.4 27.31C8.4 27.31 14.2 33.41 24.4 34.21C34.6 35.01 40.8 26.81 40.8 26.81C40.8 26.81 38.9 22.71 29.5 18.21Z" fill="#1C5880"/>
<path d="M68.4 8.21005C59 3.71005 47.1 13.21 47.1 13.21L40.7 8.21005C48.3 17.01 38.9 20.4101 38.9 20.4101L47.3 17.31C47.3 17.31 53.1 23.4101 63.3 24.2101C73.6 25.01 79.7 16.81 79.7 16.81C79.7 16.81 77.8 12.71 68.4 8.21005Z" fill="#1C5880"/>
</svg>
