<svg width="358" height="146" viewBox="0 0 358 146" fill="none" xmlns="http://www.w3.org/2000/svg">
<path d="M183.594 108.76L357.594 86.001V116.001H183.594V108.76Z" fill="url(#paint0_linear_2019_35)"/>
<path d="M183.594 123.242L357.594 146.001V116.001H183.594V123.242Z" fill="url(#paint1_linear_2019_35)"/>
<path d="M26.8562 96.1855H62.8989V23.9767H26.8562V96.1855Z" fill="#0B2F42"/>
<path d="M23.8911 65.9789V108.677C23.8911 109.36 24.4427 109.911 25.1393 109.911H42.8457C43.644 109.911 44.2681 109.273 44.2681 108.489V66.1676C44.2681 65.3838 43.644 64.7452 42.8457 64.7452H25.1393C24.4427 64.7452 23.8911 65.2968 23.8911 65.9789Z" fill="#0B2F42"/>
<path d="M15.5459 66.4729V108.185C15.5459 109.041 16.3732 109.65 17.2004 109.404L23.8911 107.314V67.3437L20.7852 66.3713L17.2004 65.2537C16.3732 65.007 15.5459 65.6166 15.5459 66.4729Z" fill="#0B2F42"/>
<path d="M15.5459 102.8V108.185C15.5459 109.041 16.3732 109.65 17.2004 109.404L23.8911 107.314V67.3437L20.7852 66.3713C22.4543 72.9459 21.9318 80.0865 21.9318 89.825C21.9318 97.9526 18.9565 102.524 15.5459 102.8Z" fill="#0B2F42"/>
<path d="M46.5175 68.011V96.1816H59.6377V68.011C59.6377 66.2258 57.4317 65.1663 54.8192 64.8471C51.0748 64.3971 46.5175 65.4421 46.5175 68.011Z" fill="#092839"/>
<path d="M46.5175 87.2413V96.1816H59.6377V68.011C59.6377 66.2258 57.4317 65.1663 54.8192 64.8471C59.5506 71.7555 59.7538 90.8552 54.4419 90.6084C50.8861 90.4488 48.143 88.6491 46.5175 87.2413Z" fill="#092839"/>
<path d="M0.0452901 26.5601L1.09022 31.7414C1.59819 34.2812 3.13666 36.4728 5.3427 37.808L27.795 51.4361C29.5512 52.5101 31.583 53.0762 33.644 53.0762H62.9031V23.9767H2.14974C0.785477 23.9767 -0.230466 25.2248 0.0452901 26.5601Z" fill="#0B2F42"/>
<path d="M0.0452901 26.5601L1.09022 31.7414C1.59819 34.2812 3.13666 36.4728 5.3427 37.808L27.795 51.4361C29.5512 52.5101 31.583 53.0762 33.644 53.0762H62.9031V48.8237C36.3623 48.3317 32.4829 49.2156 19.711 42.9893C7.20043 36.8791 0.103344 30.4642 2.87542 23.9767H2.14974C0.785477 23.9767 -0.230466 25.2248 0.0452901 26.5601Z" fill="#0B2F42"/>
<path d="M62.8989 26.315H11.9132C10.7724 26.315 9.91753 27.0581 10.1425 27.8549L11.0177 30.9549C11.4444 32.4672 12.7404 33.7822 14.5909 34.5819L33.4308 42.7181C34.9112 43.3581 36.6092 43.6963 38.3407 43.6963H62.8989V26.315Z" fill="#0B2F42"/>
<path d="M75.1134 16.4023H149.997C151.489 16.4023 152.698 17.6112 152.698 19.1032V21.4326H72.4124V19.1032C72.4124 17.6112 73.6229 16.4023 75.1134 16.4023Z" fill="#092839"/>
<path d="M62.9032 23.9772V96.1816H166.907L165.92 79.0993L162.596 21.4373H65.4431C64.0353 21.4373 62.9032 22.5694 62.9032 23.9772Z" fill="#0B2F42"/>
<path d="M62.9032 78.8917V96.1816H166.907L166.46 88.4401C155.818 89.8218 75.1381 104.885 62.9032 78.8917Z" fill="#0B2F42"/>
<path d="M152.698 37.8226V79.5488C152.698 84.8172 154.904 89.7953 158.678 93.0173L163.583 97.2117C165.992 97.8213 168.489 98.1696 171.043 98.3002C171.638 98.3292 172.248 98.3438 172.843 98.3438C183.757 98.3438 193.612 93.8301 200.636 86.5734C207.428 79.5924 211.594 70.0715 211.594 59.5928C211.594 38.1854 194.25 20.8419 172.843 20.8419C171.203 20.8419 169.592 20.9435 168.01 21.1467C165.557 21.4514 163.162 21.9739 160.869 22.7286L158.416 24.5718C154.788 27.7938 152.698 32.6848 152.698 37.8226Z" fill="#193647"/>
<path d="M152.698 37.8225V41.4944C177.037 33.5701 208.212 56.8352 200.636 86.5732C207.428 79.5923 211.594 70.0714 211.594 59.5927C211.594 38.1853 194.25 20.8417 172.843 20.8417C171.203 20.8417 169.592 20.9433 168.01 21.1465C165.557 21.4513 163.162 21.9738 160.869 22.7285L158.416 24.5717C154.788 27.7937 152.698 32.6847 152.698 37.8225Z" fill="#244A61"/>
<path d="M204.97 73.5693C212.226 59.9426 207.71 29.2728 178.361 25.3527C201.681 33.7052 209.404 51.638 204.97 73.5693Z" fill="#2F5A75"/>
<path d="M153.535 38.2095V79.673C153.535 84.9167 155.733 89.8528 159.481 93.0602L164.359 97.2343L167.23 99.6943H173.557L171.77 98.3025L165.004 93.0602C160.859 89.8528 158.442 84.9167 158.442 79.673V38.2095C158.442 33.0979 160.741 28.2503 164.711 25.0429L168.753 21.6438L169.558 20.9704L168.822 20.4755L161.65 23.2113L159.219 25.0429C155.615 28.2503 153.535 33.0979 153.535 38.2095Z" fill="#0B2F42"/>
<path d="M152.698 37.822V79.5467C152.698 84.8238 154.908 89.7903 158.682 93.0181L163.59 97.2183L166.478 99.6943H172.845L171.047 98.2938L164.238 93.0181C160.068 89.7903 157.635 84.8238 157.635 79.5467V37.822C157.635 32.6784 159.949 27.8004 163.943 24.5726L168.011 21.1533L168.822 20.4755L162.602 21.4334L160.863 22.7294L158.416 24.5726C154.791 27.8004 152.698 32.6784 152.698 37.822Z" fill="#0B2F42"/>
<path d="M82.6936 19.8699H126.475C128.813 19.8699 130.708 21.7654 130.708 24.1035V90.5418C130.708 92.8799 128.813 94.7754 126.475 94.7754H82.6936C80.3555 94.7754 78.46 92.8799 78.46 90.5418V24.1035C78.46 21.7654 80.3555 19.8699 82.6936 19.8699Z" fill="#0B2F42"/>
<path d="M77.17 24.1074V90.5355C77.17 92.8867 79.0712 94.7734 81.4079 94.7734H125.181C127.517 94.7734 129.418 92.8867 129.418 90.5355V24.1074C129.418 21.7707 127.517 19.8694 125.181 19.8694H81.4079C79.0712 19.8694 77.17 21.7707 77.17 24.1074Z" fill="#0B2F42"/>
<path d="M77.17 87.9811V90.5355C77.17 92.8867 79.0712 94.7734 81.4079 94.7734H125.181C127.517 94.7734 129.418 92.8867 129.418 90.5355V77.1976C125.311 85.8912 114.731 90.5355 97.4017 90.5355C86.1683 90.5355 80.2614 89.2438 77.17 87.9811Z" fill="#0B2F42"/>
<path d="M115.872 44.6232C118.204 44.6232 120.094 46.5129 120.094 48.8452V63.7825C120.094 66.1148 118.204 68.0059 115.872 68.0059H114.552H91.6616H90.3424C88.1552 68.0059 86.3555 66.3412 86.1407 64.2091C86.1277 64.0684 86.1204 63.9261 86.1204 63.7825V48.8452C86.1204 46.5129 88.01 44.6232 90.3424 44.6232H91.6515H91.6616H114.552H115.872Z" fill="#0B2F42"/>
<path d="M90.3423 68.0059H114.552C116.885 68.0059 118.776 66.1148 118.776 63.7825V48.8452C118.776 46.5129 116.885 44.6232 114.552 44.6232H90.3423C88.01 44.6232 86.1203 46.5129 86.1203 48.8452V63.7825C86.1203 66.1148 88.01 68.0059 90.3423 68.0059Z" fill="#0B2F42"/>
<path d="M133.047 25.6689C133.484 25.6689 133.838 25.3148 133.838 24.8794C133.838 24.4426 133.484 24.0884 133.047 24.0884C132.61 24.0884 132.256 24.4426 132.256 24.8794C132.256 25.3148 132.61 25.6689 133.047 25.6689Z" fill="#0B2F42"/>
<path d="M133.047 29.998C133.484 29.998 133.838 29.6439 133.838 29.2085C133.838 28.7717 133.484 28.4175 133.047 28.4175C132.61 28.4175 132.256 28.7717 132.256 29.2085C132.256 29.6439 132.61 29.998 133.047 29.998Z" fill="#0B2F42"/>
<path d="M133.047 34.3281C133.484 34.3281 133.838 33.9754 133.838 33.5386C133.838 33.1017 133.484 32.7476 133.047 32.7476C132.61 32.7476 132.256 33.1017 132.256 33.5386C132.256 33.9754 132.61 34.3281 133.047 34.3281Z" fill="#0B2F42"/>
<path d="M133.047 38.6582C133.484 38.6582 133.838 38.3041 133.838 37.8672C133.838 37.4304 133.484 37.0762 133.047 37.0762C132.61 37.0762 132.256 37.4304 132.256 37.8672C132.256 38.3041 132.61 38.6582 133.047 38.6582Z" fill="#0B2F42"/>
<path d="M133.047 42.9883C133.484 42.9883 133.838 42.6342 133.838 42.1973C133.838 41.7604 133.484 41.4063 133.047 41.4063C132.61 41.4063 132.256 41.7604 132.256 42.1973C132.256 42.6342 132.61 42.9883 133.047 42.9883Z" fill="#0B2F42"/>
<path d="M133.047 47.3174C133.484 47.3174 133.838 46.9632 133.838 46.5264C133.838 46.0895 133.484 45.7354 133.047 45.7354C132.61 45.7354 132.256 46.0895 132.256 46.5264C132.256 46.9632 132.61 47.3174 133.047 47.3174Z" fill="#0B2F42"/>
<path d="M133.047 51.6465C133.484 51.6465 133.838 51.2924 133.838 50.8555C133.838 50.4187 133.484 50.066 133.047 50.066C132.61 50.066 132.256 50.4187 132.256 50.8555C132.256 51.2924 132.61 51.6465 133.047 51.6465Z" fill="#0B2F42"/>
<path d="M133.047 55.9756C133.484 55.9756 133.838 55.6215 133.838 55.1846C133.838 54.7492 133.484 54.395 133.047 54.395C132.61 54.395 132.256 54.7492 132.256 55.1846C132.256 55.6215 132.61 55.9756 133.047 55.9756Z" fill="#0B2F42"/>
<path d="M133.047 60.3057C133.484 60.3057 133.838 59.9515 133.838 59.5147C133.838 59.0792 133.484 58.7251 133.047 58.7251C132.61 58.7251 132.256 59.0792 132.256 59.5147C132.256 59.9515 132.61 60.3057 133.047 60.3057Z" fill="#0B2F42"/>
<path d="M133.047 64.6348C133.484 64.6348 133.838 64.2806 133.838 63.8452C133.838 63.4084 133.484 63.0543 133.047 63.0543C132.61 63.0543 132.256 63.4084 132.256 63.8452C132.256 64.2806 132.61 64.6348 133.047 64.6348Z" fill="#0B2F42"/>
<path d="M133.047 68.9639C133.484 68.9639 133.838 68.6112 133.838 68.1743C133.838 67.7375 133.484 67.3833 133.047 67.3833C132.61 67.3833 132.256 67.7375 132.256 68.1743C132.256 68.6112 132.61 68.9639 133.047 68.9639Z" fill="#0B2F42"/>
<path d="M133.047 73.2949C133.484 73.2949 133.838 72.9408 133.838 72.5039C133.838 72.0671 133.484 71.7129 133.047 71.7129C132.61 71.7129 132.256 72.0671 132.256 72.5039C132.256 72.9408 132.61 73.2949 133.047 73.2949Z" fill="#0B2F42"/>
<path d="M133.047 77.624C133.484 77.624 133.838 77.2699 133.838 76.833C133.838 76.3962 133.484 76.0421 133.047 76.0421C132.61 76.0421 132.256 76.3962 132.256 76.833C132.256 77.2699 132.61 77.624 133.047 77.624Z" fill="#0B2F42"/>
<path d="M133.047 81.9531C133.484 81.9531 133.838 81.599 133.838 81.1621C133.838 80.7253 133.484 80.3712 133.047 80.3712C132.61 80.3712 132.256 80.7253 132.256 81.1621C132.256 81.599 132.61 81.9531 133.047 81.9531Z" fill="#0B2F42"/>
<path d="M133.047 86.2832C133.484 86.2832 133.838 85.929 133.838 85.4922C133.838 85.0553 133.484 84.7012 133.047 84.7012C132.61 84.7012 132.256 85.0553 132.256 85.4922C132.256 85.929 132.61 86.2832 133.047 86.2832Z" fill="#0B2F42"/>
<path d="M133.047 90.6123C133.484 90.6123 133.838 90.2582 133.838 89.8213C133.838 89.3845 133.484 89.0318 133.047 89.0318C132.61 89.0318 132.256 89.3845 132.256 89.8213C132.256 90.2582 132.61 90.6123 133.047 90.6123Z" fill="#0B2F42"/>
<path d="M133.047 94.9424C133.484 94.9424 133.838 94.5883 133.838 94.1514C133.838 93.716 133.484 93.3619 133.047 93.3619C132.61 93.3619 132.256 93.716 132.256 94.1514C132.256 94.5883 132.61 94.9424 133.047 94.9424Z" fill="#0B2F42"/>
<path d="M90.3192 50.6235V62.0021C90.3192 62.8729 90.9433 63.5986 91.756 63.7727L92.1188 63.8018H112.772C113.773 63.8018 114.571 63.0035 114.571 62.0021L114.586 50.6381C114.586 50.2317 114.441 49.8543 114.208 49.5495C113.889 49.1141 113.367 48.8384 112.786 48.8384L92.1188 48.8239C91.1319 48.8239 90.3192 49.6366 90.3192 50.6235Z" fill="#1A3741"/>
<path d="M91.3786 51.2912V62.6697C91.3786 63.0906 91.5238 63.468 91.756 63.7727L92.1188 63.8018H112.772C113.773 63.8018 114.571 63.0035 114.571 62.0021L114.586 50.6381C114.586 50.2317 114.441 49.8543 114.208 49.5495L113.845 49.506L93.8459 49.4915H93.1783C92.5978 49.4915 92.0753 49.7672 91.756 50.2027C91.5093 50.5074 91.3786 50.8848 91.3786 51.2912Z" fill="#193647"/>
<path d="M136.696 29.8271H147.701C148.533 29.8271 149.213 29.1464 149.213 28.3163C149.213 27.4847 148.533 26.804 147.701 26.804H136.696C135.864 26.804 135.183 27.4847 135.183 28.3163C135.183 29.1464 135.864 29.8271 136.696 29.8271Z" fill="#092839"/>
<path d="M136.696 43.6963H147.701C148.533 43.6963 149.213 43.0156 149.213 42.184C149.213 41.3524 148.533 40.6717 147.701 40.6717H136.696C135.864 40.6717 135.183 41.3524 135.183 42.184C135.183 43.0156 135.864 43.6963 136.696 43.6963Z" fill="#092839"/>
<path d="M144.585 88.44C144.585 89.601 145.525 90.543 146.687 90.543C147.849 90.543 148.79 89.601 148.79 88.44C148.79 87.2789 147.849 86.337 146.687 86.337C145.525 86.337 144.585 87.2789 144.585 88.44Z" fill="#092839"/>
<path d="M136.716 88.44C136.716 89.601 137.656 90.543 138.819 90.543C139.98 90.543 140.92 89.601 140.92 88.44C140.92 87.2789 139.98 86.337 138.819 86.337C137.656 86.337 136.716 87.2789 136.716 88.44Z" fill="#092839"/>
<path d="M70.8811 36.6807H205.614C206.546 36.6807 207.308 35.9187 207.308 34.9884C207.308 34.0566 206.546 33.2947 205.614 33.2947H70.8811C69.9493 33.2947 69.1874 34.0566 69.1874 34.9884C69.1874 35.9187 69.9493 36.6807 70.8811 36.6807Z" fill="#092839"/>
<path d="M70.8814 78.4062H209.9C210.832 78.4062 211.594 77.6443 211.594 76.714C211.594 75.7822 210.832 75.0202 209.9 75.0202H70.8814C69.9496 75.0202 69.1876 75.7822 69.1876 76.714C69.1876 77.6443 69.9496 78.4062 70.8814 78.4062Z" fill="#092839"/>
<path d="M126.355 76.7139C126.754 76.7139 127.08 76.3873 127.08 75.9882V35.7133C127.08 35.3142 126.754 34.9877 126.355 34.9877C125.956 34.9877 125.629 35.3142 125.629 35.7133V75.9882C125.629 76.3873 125.956 76.7139 126.355 76.7139Z" fill="#092839"/>
<path d="M73.7838 76.7139C74.183 76.7139 74.5095 76.3873 74.5095 75.9882V35.7133C74.5095 35.3142 74.183 34.9877 73.7838 34.9877C73.3847 34.9877 73.0582 35.3142 73.0582 35.7133V75.9882C73.0582 76.3873 73.3847 76.7139 73.7838 76.7139Z" fill="#092839"/>
<path d="M78.9406 16.4004H144.251C143.148 14.9055 141.944 13.4977 140.637 12.1915C133.047 4.4413 122.612 0.000177681 111.596 0.000177681C103.439 0.000177681 95.5876 2.45292 88.9695 6.86502C85.1524 9.41939 81.7562 12.6269 78.9406 16.4004Z" fill="#0B2F42"/>
<path d="M44.2724 75.0205H62.8989V71.5126H44.2724V75.0205Z" fill="#0B2F42"/>
<path d="M44.2724 87.3271H62.8989V83.8207H44.2724V87.3271Z" fill="#0B2F42"/>
<path d="M36.1984 60.082H57.0949C58.2632 60.082 59.2095 59.1343 59.2095 57.966V53.0691H34.0837V57.966C34.0837 59.1343 35.03 60.082 36.1984 60.082Z" fill="#0B2F42"/>
<path d="M38.0939 58.8086H55.198C56.1544 58.8086 56.9309 58.0336 56.9309 57.0771V53.0685H36.3624V57.0771C36.3624 58.0336 37.1374 58.8086 38.0939 58.8086Z" fill="#0B2F42"/>
<path d="M23.8911 65.9789V108.677C23.8911 109.36 24.4427 109.911 25.1393 109.911H42.8457C43.644 109.911 44.2681 109.273 44.2681 108.489V66.1676C44.2681 65.3838 43.644 64.7452 42.8457 64.7452H41.1767C42.5264 68.9832 41.7718 80.3182 41.7718 89.8245C41.7718 100.1 34.3554 103.162 29.7546 101.624C25.5457 100.231 25.7344 72.8438 27.8533 64.7452H25.1393C24.4427 64.7452 23.8911 65.2968 23.8911 65.9789Z" fill="#0B2F42"/>
<path d="M93.1782 49.4915H93.8458L110.319 63.8018H107.416L91.7559 50.2027C92.0752 49.7672 92.5977 49.4915 93.1782 49.4915ZM105.616 63.8018H97.2275L91.3785 58.722V51.4363L105.616 63.8018Z" fill="#214156"/>
<path d="M37.1419 133.32H172.422C182.668 133.32 190.985 125.004 190.985 114.758C190.985 112.189 190.462 109.736 189.533 107.515L189.519 107.486C188.575 105.28 187.211 103.292 185.542 101.623C182.189 98.2558 177.545 96.1804 172.422 96.1804H37.1419C28.9128 96.1804 28.9128 133.32 37.1419 133.32Z" fill="#0C2C3D"/>
<path d="M42.9035 96.1804C55.5593 100.868 90.9141 102.116 132.263 102.116C173.176 102.116 184.323 102.334 189.519 107.486C188.575 105.28 187.211 103.292 185.542 101.623C182.189 98.2558 177.545 96.1804 172.422 96.1804H42.9035Z" fill="#0C2C3D"/>
<path d="M36.3579 96.3056C34.6236 107.304 36.4668 123.466 41.8948 123.466H177.172C182.539 123.466 187.359 121.176 190.749 117.534C189.402 126.463 181.719 133.316 172.414 133.316H37.1373C29.181 133.316 28.9227 98.5755 36.3579 96.3056Z" fill="#0C2C3D"/>
<path d="M154.726 139C155.84 139 156.752 138.089 156.752 136.974V95.4306C156.752 94.3159 155.84 93.4045 154.726 93.4045C153.611 93.4045 152.698 94.3159 152.698 95.4306V136.974C152.698 138.089 153.611 139 154.726 139Z" fill="#092839"/>
<path d="M104.584 139C105.699 139 106.612 138.089 106.612 136.974V95.4306C106.612 94.3159 105.699 93.4045 104.584 93.4045C103.47 93.4045 102.557 94.3159 102.557 95.4306V136.974C102.557 138.089 103.47 139 104.584 139Z" fill="#092839"/>
<path d="M54.4432 139C55.5578 139 56.4707 138.089 56.4707 136.974V95.4306C56.4707 94.3159 55.5578 93.4045 54.4432 93.4045C53.3285 93.4045 52.4156 94.3159 52.4156 95.4306V136.974C52.4156 138.089 53.3285 139 54.4432 139Z" fill="#092839"/>
<path d="M53.9179 108.522H161.926C162.391 108.522 162.772 108.142 162.772 107.676C162.772 107.21 162.391 106.83 161.926 106.83H53.9179C53.452 106.83 53.0717 107.21 53.0717 107.676C53.0717 108.142 53.452 108.522 53.9179 108.522Z" fill="#092839"/>
<path d="M53.9179 131.181H161.926C162.391 131.181 162.772 130.799 162.772 130.333C162.772 129.867 162.391 129.487 161.926 129.487H53.9179C53.452 129.487 53.0717 129.867 53.0717 130.333C53.0717 130.799 53.452 131.181 53.9179 131.181Z" fill="#092839"/>
<path d="M114.079 47.203C114.079 47.6602 114.449 48.0303 114.905 48.0303C115.362 48.0303 115.731 47.6602 115.731 47.203C115.731 46.7473 115.362 46.3772 114.905 46.3772C114.449 46.3772 114.079 46.7473 114.079 47.203Z" fill="#0B2F42"/>
<path d="M88.7866 47.203C88.7866 47.6602 89.1567 48.0303 89.6124 48.0303C90.0696 48.0303 90.4397 47.6602 90.4397 47.203C90.4397 46.7473 90.0696 46.3772 89.6124 46.3772C89.1567 46.3772 88.7866 46.7473 88.7866 47.203Z" fill="#0B2F42"/>
<path d="M87.447 53.3173C87.447 53.7744 87.8157 54.1445 88.2728 54.1445C88.7285 54.1445 89.0986 53.7744 89.0986 53.3173C89.0986 52.8615 88.7285 52.4915 88.2728 52.4915C87.8157 52.4915 87.447 52.8615 87.447 53.3173Z" fill="#0B2F42"/>
<path d="M87.447 59.4315C87.447 59.8887 87.8157 60.2588 88.2728 60.2588C88.7285 60.2588 89.0986 59.8887 89.0986 59.4315C89.0986 58.9758 88.7285 58.6057 88.2728 58.6057C87.8157 58.6057 87.447 58.9758 87.447 59.4315Z" fill="#0B2F42"/>
<path d="M115.57 53.3173C115.57 53.7744 115.94 54.1445 116.397 54.1445C116.853 54.1445 117.223 53.7744 117.223 53.3173C117.223 52.8615 116.853 52.4915 116.397 52.4915C115.94 52.4915 115.57 52.8615 115.57 53.3173Z" fill="#0B2F42"/>
<path d="M115.57 59.4315C115.57 59.8887 115.94 60.2588 116.397 60.2588C116.853 60.2588 117.223 59.8887 117.223 59.4315C117.223 58.9758 116.853 58.6057 116.397 58.6057C115.94 58.6057 115.57 58.9758 115.57 59.4315Z" fill="#0B2F42"/>
<path d="M94.6557 47.203C94.6557 47.6602 95.0258 48.0303 95.483 48.0303C95.9387 48.0303 96.3088 47.6602 96.3088 47.203C96.3088 46.7473 95.9387 46.3772 95.483 46.3772C95.0258 46.3772 94.6557 46.7473 94.6557 47.203Z" fill="#0B2F42"/>
<path d="M101.352 47.203C101.352 47.6602 101.722 48.0303 102.178 48.0303C102.635 48.0303 103.005 47.6602 103.005 47.203C103.005 46.7473 102.635 46.3772 102.178 46.3772C101.722 46.3772 101.352 46.7473 101.352 47.203Z" fill="#0B2F42"/>
<path d="M108.047 47.203C108.047 47.6602 108.417 48.0303 108.875 48.0303C109.33 48.0303 109.7 47.6602 109.7 47.203C109.7 46.7473 109.33 46.3772 108.875 46.3772C108.417 46.3772 108.047 46.7473 108.047 47.203Z" fill="#0B2F42"/>
<path d="M94.6557 65.5458C94.6557 66.003 95.0258 66.373 95.483 66.373C95.9387 66.373 96.3088 66.003 96.3088 65.5458C96.3088 65.0901 95.9387 64.72 95.483 64.72C95.0258 64.72 94.6557 65.0901 94.6557 65.5458Z" fill="#0B2F42"/>
<path d="M101.352 65.5458C101.352 66.003 101.722 66.373 102.178 66.373C102.635 66.373 103.005 66.003 103.005 65.5458C103.005 65.0901 102.635 64.72 102.178 64.72C101.722 64.72 101.352 65.0901 101.352 65.5458Z" fill="#0B2F42"/>
<path d="M108.047 65.5458C108.047 66.003 108.417 66.373 108.875 66.373C109.33 66.373 109.7 66.003 109.7 65.5458C109.7 65.0901 109.33 64.72 108.875 64.72C108.417 64.72 108.047 65.0901 108.047 65.5458Z" fill="#0B2F42"/>
<path d="M114.079 65.5458C114.079 66.003 114.449 66.373 114.905 66.373C115.362 66.373 115.731 66.003 115.731 65.5458C115.731 65.0901 115.362 64.72 114.905 64.72C114.449 64.72 114.079 65.0901 114.079 65.5458Z" fill="#0B2F42"/>
<path d="M88.7866 65.5458C88.7866 66.003 89.1567 66.373 89.6124 66.373C90.0696 66.373 90.4397 66.003 90.4397 65.5458C90.4397 65.0901 90.0696 64.72 89.6124 64.72C89.1567 64.72 88.7866 65.0901 88.7866 65.5458Z" fill="#0B2F42"/>
<path d="M65.8015 25.6689C66.2369 25.6689 66.5911 25.3148 66.5911 24.8794C66.5911 24.4426 66.2369 24.0884 65.8015 24.0884C65.3646 24.0884 65.0105 24.4426 65.0105 24.8794C65.0105 25.3148 65.3646 25.6689 65.8015 25.6689Z" fill="#0B2F42"/>
<path d="M65.8015 29.998C66.2369 29.998 66.5911 29.6439 66.5911 29.2085C66.5911 28.7717 66.2369 28.4175 65.8015 28.4175C65.3646 28.4175 65.0105 28.7717 65.0105 29.2085C65.0105 29.6439 65.3646 29.998 65.8015 29.998Z" fill="#0B2F42"/>
<path d="M65.8015 34.3281C66.2369 34.3281 66.5911 33.9754 66.5911 33.5386C66.5911 33.1017 66.2369 32.7476 65.8015 32.7476C65.3646 32.7476 65.0105 33.1017 65.0105 33.5386C65.0105 33.9754 65.3646 34.3281 65.8015 34.3281Z" fill="#0B2F42"/>
<path d="M65.8015 38.6582C66.2369 38.6582 66.5911 38.3041 66.5911 37.8672C66.5911 37.4304 66.2369 37.0762 65.8015 37.0762C65.3646 37.0762 65.0105 37.4304 65.0105 37.8672C65.0105 38.3041 65.3646 38.6582 65.8015 38.6582Z" fill="#0B2F42"/>
<path d="M65.8015 42.9883C66.2369 42.9883 66.5911 42.6342 66.5911 42.1973C66.5911 41.7604 66.2369 41.4063 65.8015 41.4063C65.3646 41.4063 65.0105 41.7604 65.0105 42.1973C65.0105 42.6342 65.3646 42.9883 65.8015 42.9883Z" fill="#0B2F42"/>
<path d="M65.8015 47.3174C66.2369 47.3174 66.5911 46.9632 66.5911 46.5264C66.5911 46.0895 66.2369 45.7354 65.8015 45.7354C65.3646 45.7354 65.0105 46.0895 65.0105 46.5264C65.0105 46.9632 65.3646 47.3174 65.8015 47.3174Z" fill="#0B2F42"/>
<path d="M65.8015 51.6465C66.2369 51.6465 66.5911 51.2924 66.5911 50.8555C66.5911 50.4187 66.2369 50.066 65.8015 50.066C65.3646 50.066 65.0105 50.4187 65.0105 50.8555C65.0105 51.2924 65.3646 51.6465 65.8015 51.6465Z" fill="#0B2F42"/>
<path d="M65.8015 55.9756C66.2369 55.9756 66.5911 55.6215 66.5911 55.1846C66.5911 54.7492 66.2369 54.395 65.8015 54.395C65.3646 54.395 65.0105 54.7492 65.0105 55.1846C65.0105 55.6215 65.3646 55.9756 65.8015 55.9756Z" fill="#0B2F42"/>
<path d="M65.8015 60.3057C66.2369 60.3057 66.5911 59.9515 66.5911 59.5147C66.5911 59.0792 66.2369 58.7251 65.8015 58.7251C65.3646 58.7251 65.0105 59.0792 65.0105 59.5147C65.0105 59.9515 65.3646 60.3057 65.8015 60.3057Z" fill="#0B2F42"/>
<path d="M65.8015 64.6348C66.2369 64.6348 66.5911 64.2806 66.5911 63.8452C66.5911 63.4084 66.2369 63.0543 65.8015 63.0543C65.3646 63.0543 65.0105 63.4084 65.0105 63.8452C65.0105 64.2806 65.3646 64.6348 65.8015 64.6348Z" fill="#0B2F42"/>
<path d="M65.8015 68.9639C66.2369 68.9639 66.5911 68.6112 66.5911 68.1743C66.5911 67.7375 66.2369 67.3833 65.8015 67.3833C65.3646 67.3833 65.0105 67.7375 65.0105 68.1743C65.0105 68.6112 65.3646 68.9639 65.8015 68.9639Z" fill="#0B2F42"/>
<path d="M65.8015 73.2949C66.2369 73.2949 66.5911 72.9408 66.5911 72.5039C66.5911 72.0671 66.2369 71.7129 65.8015 71.7129C65.3646 71.7129 65.0105 72.0671 65.0105 72.5039C65.0105 72.9408 65.3646 73.2949 65.8015 73.2949Z" fill="#0B2F42"/>
<path d="M65.8015 77.624C66.2369 77.624 66.5911 77.2699 66.5911 76.833C66.5911 76.3962 66.2369 76.0421 65.8015 76.0421C65.3646 76.0421 65.0105 76.3962 65.0105 76.833C65.0105 77.2699 65.3646 77.624 65.8015 77.624Z" fill="#0B2F42"/>
<path d="M65.8015 81.9531C66.2369 81.9531 66.5911 81.599 66.5911 81.1621C66.5911 80.7253 66.2369 80.3712 65.8015 80.3712C65.3646 80.3712 65.0105 80.7253 65.0105 81.1621C65.0105 81.599 65.3646 81.9531 65.8015 81.9531Z" fill="#0B2F42"/>
<path d="M65.8015 86.2832C66.2369 86.2832 66.5911 85.929 66.5911 85.4922C66.5911 85.0553 66.2369 84.7012 65.8015 84.7012C65.3646 84.7012 65.0105 85.0553 65.0105 85.4922C65.0105 85.929 65.3646 86.2832 65.8015 86.2832Z" fill="#0B2F42"/>
<path d="M65.8015 90.6123C66.2369 90.6123 66.5911 90.2582 66.5911 89.8213C66.5911 89.3845 66.2369 89.0318 65.8015 89.0318C65.3646 89.0318 65.0105 89.3845 65.0105 89.8213C65.0105 90.2582 65.3646 90.6123 65.8015 90.6123Z" fill="#0B2F42"/>
<path d="M65.8015 94.9424C66.2369 94.9424 66.5911 94.5883 66.5911 94.1514C66.5911 93.716 66.2369 93.3619 65.8015 93.3619C65.3646 93.3619 65.0105 93.716 65.0105 94.1514C65.0105 94.5883 65.3646 94.9424 65.8015 94.9424Z" fill="#0B2F42"/>
<path d="M59.4939 28.418C59.4939 28.8548 59.8481 29.209 60.2849 29.209C60.7218 29.209 61.0759 28.8548 61.0759 28.418C61.0759 27.9811 60.7218 27.627 60.2849 27.627C59.8481 27.627 59.4939 27.9811 59.4939 28.418Z" fill="#0B2F42"/>
<path d="M55.1646 28.418C55.1646 28.8548 55.5188 29.209 55.9556 29.209C56.3925 29.209 56.7466 28.8548 56.7466 28.418C56.7466 27.9811 56.3925 27.627 55.9556 27.627C55.5188 27.627 55.1646 27.9811 55.1646 28.418Z" fill="#0B2F42"/>
<path d="M50.8353 28.418C50.8353 28.8548 51.1894 29.209 51.6262 29.209C52.0631 29.209 52.4158 28.8548 52.4158 28.418C52.4158 27.9811 52.0631 27.627 51.6262 27.627C51.1894 27.627 50.8353 27.9811 50.8353 28.418Z" fill="#0B2F42"/>
<path d="M46.5059 28.418C46.5059 28.8548 46.86 29.209 47.2969 29.209C47.7323 29.209 48.0864 28.8548 48.0864 28.418C48.0864 27.9811 47.7323 27.627 47.2969 27.627C46.86 27.627 46.5059 27.9811 46.5059 28.418Z" fill="#0B2F42"/>
<path d="M42.1765 28.418C42.1765 28.8548 42.5307 29.209 42.9676 29.209C43.403 29.209 43.7571 28.8548 43.7571 28.418C43.7571 27.9811 43.403 27.627 42.9676 27.627C42.5307 27.627 42.1765 27.9811 42.1765 28.418Z" fill="#0B2F42"/>
<path d="M37.8472 28.418C37.8472 28.8548 38.2014 29.209 38.6368 29.209C39.0736 29.209 39.4277 28.8548 39.4277 28.418C39.4277 27.9811 39.0736 27.627 38.6368 27.627C38.2014 27.627 37.8472 27.9811 37.8472 28.418Z" fill="#0B2F42"/>
<path d="M33.5179 28.418C33.5179 28.8548 33.872 29.209 34.3074 29.209C34.7442 29.209 35.0984 28.8548 35.0984 28.418C35.0984 27.9811 34.7442 27.627 34.3074 27.627C33.872 27.627 33.5179 27.9811 33.5179 28.418Z" fill="#0B2F42"/>
<path d="M29.1885 28.418C29.1885 28.8548 29.5412 29.209 29.9781 29.209C30.4149 29.209 30.769 28.8548 30.769 28.418C30.769 27.9811 30.4149 27.627 29.9781 27.627C29.5412 27.627 29.1885 27.9811 29.1885 28.418Z" fill="#0B2F42"/>
<path d="M24.8575 28.418C24.8575 28.8548 25.2116 29.209 25.6485 29.209C26.0853 29.209 26.4395 28.8548 26.4395 28.418C26.4395 27.9811 26.0853 27.627 25.6485 27.627C25.2116 27.627 24.8575 27.9811 24.8575 28.418Z" fill="#0B2F42"/>
<path d="M20.5282 28.418C20.5282 28.8548 20.8823 29.209 21.3191 29.209C21.756 29.209 22.1101 28.8548 22.1101 28.418C22.1101 27.9811 21.756 27.627 21.3191 27.627C20.8823 27.627 20.5282 27.9811 20.5282 28.418Z" fill="#0B2F42"/>
<path d="M16.199 28.418C16.199 28.8548 16.5532 29.209 16.99 29.209C17.4269 29.209 17.781 28.8548 17.781 28.418C17.781 27.9811 17.4269 27.627 16.99 27.627C16.5532 27.627 16.199 27.9811 16.199 28.418Z" fill="#0B2F42"/>
<path d="M11.8697 28.418C11.8697 28.8548 12.2238 29.209 12.6607 29.209C13.0975 29.209 13.4502 28.8548 13.4502 28.418C13.4502 27.9811 13.0975 27.627 12.6607 27.627C12.2238 27.627 11.8697 27.9811 11.8697 28.418Z" fill="#0B2F42"/>
<path d="M78.9406 16.4004H144.251C143.148 14.9055 141.944 13.4977 140.637 12.1915C126.24 14.891 88.8243 16.2407 88.9695 6.86502C85.1524 9.41939 81.7562 12.6269 78.9406 16.4004Z" fill="#0B2F42"/>
<defs>
<linearGradient id="paint0_linear_2019_35" x1="182.213" y1="101.001" x2="316.51" y2="88.8894" gradientUnits="userSpaceOnUse">
<stop stop-color="#D9D9D9"/>
<stop offset="1" stop-color="#737373" stop-opacity="0"/>
</linearGradient>
<linearGradient id="paint1_linear_2019_35" x1="182.213" y1="131.001" x2="316.51" y2="143.113" gradientUnits="userSpaceOnUse">
<stop stop-color="#D9D9D9"/>
<stop offset="1" stop-color="#737373" stop-opacity="0"/>
</linearGradient>
</defs>
</svg>
