<svg width="151" height="113" viewBox="0 0 151 113" fill="none" xmlns="http://www.w3.org/2000/svg">
<path d="M128.391 49.0283C90.9008 49.0283 53.4107 49.0283 15.9213 49.0283C15.9213 33.2502 15.9213 27.9814 15.9213 12.2026C51.6732 -3.93962 92.6391 -3.93962 128.391 12.2026C128.391 27.9814 128.391 33.2502 128.391 49.0283Z" fill="#12476C"/>
<path d="M19.6165 45.2002C19.5727 31.4599 19.5297 28.2289 19.4852 14.4886C53.2936 1.50765 91.018 1.50765 124.826 14.4886C124.783 28.2289 124.739 31.4599 124.695 45.2002C89.7796 44.0975 54.532 44.0975 19.6165 45.2002Z" fill="#0E3652"/>
<path d="M128.174 111.073H15.7054V45.3216H128.174V111.073Z" fill="#E58225"/>
<path d="M19.4125 107.365V49.0292H124.467V107.365H19.4125Z" fill="#543023"/>
<path d="M20.8956 105.882V50.512H122.984V105.882H20.8956Z" fill="#6C422B"/>
<path d="M19.4125 69.6387V67.4756H124.467V69.6387H19.4125Z" fill="#543023"/>
<path d="M19.4125 88.918V86.7549H124.467V88.918H19.4125Z" fill="#543023"/>
<path d="M32.0501 49.0294V45.3216H15.7054V61.667H19.4125V56.9396C23.781 56.9396 27.3227 53.3986 27.3227 49.0294H32.0501Z" fill="#E87419"/>
<path d="M19.4125 45.3212H15.7054V61.2646H19.0261V56.5372C23.3946 56.5372 26.9363 52.9963 26.9363 48.6278H31.6637V45.3212H19.4125Z" fill="#F68D2A"/>
<path d="M20.7725 52.212C20.7725 51.4616 21.3805 50.8527 22.1317 50.8527C22.8822 50.8527 23.4918 51.4616 23.4918 52.212C23.4918 52.9632 22.8822 53.5713 22.1317 53.5713C21.3805 53.5713 20.7725 52.9632 20.7725 52.212Z" fill="#543023"/>
<path d="M21.2509 52.2118C21.2509 51.7254 21.6454 51.3316 22.1318 51.3316C22.6183 51.3316 23.0121 51.7254 23.0121 52.2118C23.0121 52.6983 22.6183 53.0928 22.1318 53.0928C21.6454 53.0928 21.2509 52.6983 21.2509 52.2118Z" fill="#6C422B"/>
<path d="M111.83 49.0294V45.3216H128.174V61.667H124.467V56.9396C120.098 56.9396 116.557 53.3986 116.557 49.0294H111.83Z" fill="#E87419"/>
<path d="M124.467 45.3212H128.174V61.2646H124.853V56.5372C120.485 56.5372 116.943 52.9963 116.943 48.6278H112.215V45.3212H124.467Z" fill="#F68D2A"/>
<path d="M123.107 52.212C123.107 51.4616 122.498 50.8527 121.748 50.8527C120.997 50.8527 120.388 51.4616 120.388 52.212C120.388 52.9632 120.997 53.5713 121.748 53.5713C122.498 53.5713 123.107 52.9632 123.107 52.212Z" fill="#543023"/>
<path d="M122.628 52.2118C122.628 51.7254 122.234 51.3316 121.748 51.3316C121.261 51.3316 120.867 51.7254 120.867 52.2118C120.867 52.6983 121.261 53.0928 121.748 53.0928C122.234 53.0928 122.628 52.6983 122.628 52.2118Z" fill="#6C422B"/>
<path d="M111.83 107.365V111.073H128.174V94.7278H124.467V99.4553C120.098 99.4553 116.557 102.997 116.557 107.365H111.83Z" fill="#E87419"/>
<path d="M124.467 111.073H128.174V95.1298H124.853V99.8572C120.485 99.8572 116.943 103.398 116.943 107.767H112.215V111.073H124.467Z" fill="#F68D2A"/>
<path d="M123.107 104.182C123.107 104.933 122.498 105.542 121.748 105.542C120.997 105.542 120.388 104.933 120.388 104.182C120.388 103.432 120.997 102.823 121.748 102.823C122.498 102.823 123.107 103.432 123.107 104.182Z" fill="#543023"/>
<path d="M122.628 104.183C122.628 104.669 122.234 105.063 121.748 105.063C121.261 105.063 120.867 104.669 120.867 104.183C120.867 103.697 121.261 103.302 121.748 103.302C122.234 103.302 122.628 103.697 122.628 104.183Z" fill="#6C422B"/>
<path d="M32.0501 107.365V111.073H15.7054V94.7278H19.4125V99.4553C23.781 99.4553 27.3227 102.997 27.3227 107.365H32.0501Z" fill="#E87419"/>
<path d="M19.4125 111.073H15.7054V95.1298H19.0261V99.8572C23.3946 99.8572 26.9363 103.398 26.9363 107.767H31.6637V111.073H19.4125Z" fill="#F68D2A"/>
<path d="M20.7725 104.182C20.7725 104.933 21.3805 105.542 22.1317 105.542C22.8822 105.542 23.4918 104.933 23.4918 104.182C23.4918 103.432 22.8822 102.823 22.1317 102.823C21.3805 102.823 20.7725 103.432 20.7725 104.182Z" fill="#543023"/>
<path d="M21.2509 104.183C21.2509 104.669 21.6454 105.063 22.1318 105.063C22.6183 105.063 23.0121 104.669 23.0121 104.183C23.0121 103.697 22.6183 103.302 22.1318 103.302C21.6454 103.302 21.2509 103.697 21.2509 104.183Z" fill="#6C422B"/>
<path d="M71.94 70.6582C66.5644 70.6582 62.207 66.3008 62.207 60.9253V49.0292H81.6729V60.9253C81.6729 66.3008 77.3155 70.6582 71.94 70.6582Z" fill="#E87419"/>
<path d="M71.9399 69.1738C67.3904 69.1738 63.6901 65.4727 63.6901 60.924V49.028H80.1897V60.924C80.1897 65.4727 76.4886 69.1738 71.9399 69.1738Z" fill="#F69131"/>
<path d="M64.5035 49.7695V61.6656C64.5035 63.8821 65.3875 65.8939 66.815 67.3778C68.2239 68.499 70.0029 69.1738 71.9399 69.1738C76.4886 69.1738 80.1897 65.4727 80.1897 60.924V49.7695H64.5035Z" fill="#E58225"/>
<path d="M74.8905 55.3628C74.8905 53.6736 73.5209 52.3039 71.8316 52.3039C70.1424 52.3039 68.7727 53.6736 68.7727 55.3628C68.7727 56.6976 69.6329 57.8211 70.8261 58.2386L68.9885 62.8711H71.6151H72.0474H74.674L72.8372 58.2386C74.0296 57.8211 74.8905 56.6976 74.8905 55.3628Z" fill="#543023"/>
<path d="M72.6814 62.2222H70.0549L71.8917 57.5897C70.6993 57.1722 69.8391 56.0488 69.8391 54.714C69.8391 53.8367 70.2128 53.0514 70.8038 52.4938C69.6225 52.9172 68.7727 54.0354 68.7727 55.3628C68.7727 56.6976 69.6329 57.8211 70.8261 58.2386L68.9885 62.8711H71.6151H72.0474H74.674L74.4174 62.2222H73.1138H72.6814Z" fill="#45271D"/>
<path d="M73.9037 57.5908L73.9054 57.5891L73.9028 57.59L73.9037 57.5908Z" fill="#543023"/>
<mask id="mask0_2016_849" style="mask-type:luminance" maskUnits="userSpaceOnUse" x="130" y="71" width="17" height="6">
<path d="M145.538 76.3096H131.09C130.728 76.3096 130.435 76.0159 130.435 75.654V71.9596C130.435 71.5977 130.728 71.3041 131.09 71.3041H145.538C145.9 71.3041 146.194 71.5977 146.194 71.9596V75.654C146.194 76.0159 145.9 76.3096 145.538 76.3096Z" fill="white"/>
</mask>
<g mask="url(#mask0_2016_849)">
<path d="M130.435 76.3096H146.194V71.3041H130.435V76.3096Z" fill="#133B57"/>
<path d="M130.435 71.3041V72.1072H140.477C141.365 72.1072 142.084 72.8265 142.084 73.7141C142.084 74.601 141.365 75.3211 140.477 75.3211H130.435V76.3096H146.194V71.3041H130.435Z" fill="#133B57"/>
<path d="M130.435 72.1074H146.194V71.3042H130.435V72.1074Z" fill="#18496B"/>
<path d="M130.435 71.7061H146.194V71.304H130.435V71.7061Z" fill="#18496B"/>
<path d="M145.538 76.3096H131.09C130.741 76.3096 130.455 76.0359 130.436 75.6919H131.2H131.408H132.475H132.683H133.749H133.958H135.023H135.232H136.298H136.507H137.573H137.781H138.847H139.056H140.122H140.33H141.396H141.605H142.671H142.88H143.945H144.154H145.22H145.428H146.192C146.173 76.0359 145.887 76.3096 145.538 76.3096Z" fill="#18496B"/>
<path d="M131.2 75.3203H131.408V72.1064H131.2V75.3203Z" fill="#18496B"/>
<path d="M131.2 75.6924H131.408V75.3216H131.2V75.6924Z" fill="#18496B"/>
<path d="M132.475 75.3203H132.683V72.1064H132.475V75.3203Z" fill="#18496B"/>
<path d="M132.475 75.6924H132.683V75.3216H132.475V75.6924Z" fill="#18496B"/>
<path d="M133.749 75.3203H133.958V72.1064H133.749V75.3203Z" fill="#18496B"/>
<path d="M133.749 75.6924H133.958V75.3216H133.749V75.6924Z" fill="#18496B"/>
<path d="M135.023 75.3203H135.232V72.1064H135.023V75.3203Z" fill="#18496B"/>
<path d="M135.023 75.6924H135.232V75.3216H135.023V75.6924Z" fill="#18496B"/>
<path d="M136.298 75.3203H136.506V72.1064H136.298V75.3203Z" fill="#18496B"/>
<path d="M136.298 75.6924H136.506V75.3216H136.298V75.6924Z" fill="#18496B"/>
<path d="M137.573 75.3203H137.781V72.1064H137.573V75.3203Z" fill="#18496B"/>
<path d="M137.573 75.6924H137.781V75.3216H137.573V75.6924Z" fill="#18496B"/>
<path d="M138.847 75.3203H139.056V72.1064H138.847V75.3203Z" fill="#18496B"/>
<path d="M138.847 75.6924H139.056V75.3216H138.847V75.6924Z" fill="#18496B"/>
<path d="M140.122 75.3203H140.33V72.1064H140.122V75.3203Z" fill="#18496B"/>
<path d="M140.122 75.6924H140.33V75.3216H140.122V75.6924Z" fill="#18496B"/>
<path d="M141.396 75.0322V72.3967C141.471 72.4486 141.54 72.5065 141.605 72.5703V74.8587C141.54 74.9225 141.471 74.9803 141.396 75.0322Z" fill="#18496B"/>
<path d="M141.605 75.6924H141.396V75.0324C141.471 74.9805 141.54 74.9226 141.605 74.8589V75.6924ZM141.605 72.5704C141.54 72.5066 141.471 72.4488 141.396 72.3969V72.1077H141.605V72.5704Z" fill="#18496B"/>
<path d="M142.671 75.6924H142.88V72.1077H142.671V75.6924Z" fill="#18496B"/>
<path d="M143.945 75.6924H144.154V72.1077H143.945V75.6924Z" fill="#18496B"/>
<path d="M145.22 75.6924H145.428V72.1077H145.22V75.6924Z" fill="#18496B"/>
</g>
<mask id="mask1_2016_849" style="mask-type:luminance" maskUnits="userSpaceOnUse" x="132" y="76" width="17" height="6">
<path d="M147.64 81.3145H133.192C132.831 81.3145 132.537 81.0208 132.537 80.6589V76.9645C132.537 76.6026 132.831 76.3089 133.192 76.3089H147.64C148.001 76.3089 148.296 76.6026 148.296 76.9645V80.6589C148.296 81.0208 148.001 81.3145 147.64 81.3145Z" fill="white"/>
</mask>
<g mask="url(#mask1_2016_849)">
<path d="M132.537 81.3145H148.296V76.3089H132.537V81.3145Z" fill="#133B57"/>
<path d="M132.537 76.3089V77.1121H142.578C143.467 77.1121 144.186 77.8314 144.186 78.719C144.186 79.6059 143.467 80.326 142.578 80.326H132.537V81.3145H148.296V76.3089H132.537Z" fill="#133B57"/>
<path d="M132.537 77.1133H148.296V76.31H132.537V77.1133Z" fill="#18496B"/>
<path d="M132.537 76.7109H148.296V76.3089H132.537V76.7109Z" fill="#18496B"/>
<path d="M147.64 81.3145H133.192C132.843 81.3145 132.557 81.0408 132.538 80.6967H133.302H133.51H134.576H134.785H135.85H136.06H137.125H137.334H138.4H138.608H139.675H139.883H140.949H141.157H142.223H142.432H143.498H143.707H144.772H144.981H146.047H146.256H147.322H147.53H148.294C148.275 81.0408 147.988 81.3145 147.64 81.3145Z" fill="#18496B"/>
<path d="M133.302 80.3271H133.511V77.1133H133.302V80.3271Z" fill="#18496B"/>
<path d="M133.302 80.6973H133.511V80.3265H133.302V80.6973Z" fill="#18496B"/>
<path d="M134.576 80.3271H134.785V77.1133H134.576V80.3271Z" fill="#18496B"/>
<path d="M134.576 80.6973H134.785V80.3265H134.576V80.6973Z" fill="#18496B"/>
<path d="M135.851 80.3271H136.06V77.1133H135.851V80.3271Z" fill="#18496B"/>
<path d="M135.851 80.6973H136.06V80.3265H135.851V80.6973Z" fill="#18496B"/>
<path d="M137.126 80.3271H137.334V77.1133H137.126V80.3271Z" fill="#18496B"/>
<path d="M137.126 80.6973H137.334V80.3265H137.126V80.6973Z" fill="#18496B"/>
<path d="M138.4 80.3271H138.609V77.1133H138.4V80.3271Z" fill="#18496B"/>
<path d="M138.4 80.6973H138.609V80.3265H138.4V80.6973Z" fill="#18496B"/>
<path d="M139.675 80.3271H139.883V77.1133H139.675V80.3271Z" fill="#18496B"/>
<path d="M139.675 80.6973H139.883V80.3265H139.675V80.6973Z" fill="#18496B"/>
<path d="M140.949 80.3271H141.157V77.1133H140.949V80.3271Z" fill="#18496B"/>
<path d="M140.949 80.6973H141.157V80.3265H140.949V80.6973Z" fill="#18496B"/>
<path d="M142.224 80.3271H142.432V77.1133H142.224V80.3271Z" fill="#18496B"/>
<path d="M142.224 80.6973H142.432V80.3265H142.224V80.6973Z" fill="#18496B"/>
<path d="M143.499 80.0381V77.4026C143.573 77.4545 143.643 77.5123 143.707 77.5761V79.8646C143.643 79.9283 143.573 79.9862 143.499 80.0381Z" fill="#18496B"/>
<path d="M143.707 80.6973H143.499V80.0373C143.573 79.9854 143.643 79.9275 143.707 79.8637V80.6973ZM143.707 77.5753C143.643 77.5115 143.573 77.4537 143.499 77.4018V77.1126H143.707V77.5753Z" fill="#18496B"/>
<path d="M144.773 80.6973H144.982V77.1126H144.773V80.6973Z" fill="#18496B"/>
<path d="M146.047 80.6973H146.257V77.1126H146.047V80.6973Z" fill="#18496B"/>
<path d="M147.322 80.6973H147.531V77.1126H147.322V80.6973Z" fill="#18496B"/>
</g>
<mask id="mask2_2016_849" style="mask-type:luminance" maskUnits="userSpaceOnUse" x="134" y="81" width="17" height="6">
<path d="M149.742 86.3193H135.295C134.933 86.3193 134.639 86.0257 134.639 85.6638V81.9694C134.639 81.6075 134.933 81.3138 135.295 81.3138H149.742C150.104 81.3138 150.397 81.6075 150.397 81.9694V85.6638C150.397 86.0257 150.104 86.3193 149.742 86.3193Z" fill="white"/>
</mask>
<g mask="url(#mask2_2016_849)">
<path d="M134.639 86.3193H150.398V81.3138H134.639V86.3193Z" fill="#133B57"/>
<path d="M134.639 81.3138V82.1169H144.681C145.568 82.1169 146.288 82.8362 146.288 83.7239C146.288 84.6108 145.568 85.3309 144.681 85.3309H134.639V86.3193H150.397V81.3138H134.639Z" fill="#133B57"/>
<path d="M134.639 82.1172H150.398V81.3139H134.639V82.1172Z" fill="#18496B"/>
<path d="M150.397 81.7158H134.639V81.3139H150.397V81.7158Z" fill="#18496B"/>
<path d="M149.742 86.3193H135.295C134.946 86.3193 134.659 86.0457 134.64 85.7016H135.404H135.612H136.679H136.887H137.953H138.162H139.227H139.436H140.502H140.71H141.777H141.985H143.051H143.259H144.325H144.534H145.6H145.809H146.874H147.083H148.149H148.358H149.424H149.632H150.396C150.377 86.0457 150.091 86.3193 149.742 86.3193Z" fill="#18496B"/>
<path d="M135.404 85.3311H135.612V82.1172H135.404V85.3311Z" fill="#18496B"/>
<path d="M135.404 85.7021H135.612V85.3314H135.404V85.7021Z" fill="#18496B"/>
<path d="M136.679 85.3311H136.887V82.1172H136.679V85.3311Z" fill="#18496B"/>
<path d="M136.679 85.7021H136.887V85.3314H136.679V85.7021Z" fill="#18496B"/>
<path d="M137.953 85.3311H138.162V82.1172H137.953V85.3311Z" fill="#18496B"/>
<path d="M137.953 85.7021H138.162V85.3314H137.953V85.7021Z" fill="#18496B"/>
<path d="M139.227 85.3311H139.436V82.1172H139.227V85.3311Z" fill="#18496B"/>
<path d="M139.227 85.7021H139.436V85.3314H139.227V85.7021Z" fill="#18496B"/>
<path d="M140.502 85.3311H140.711V82.1172H140.502V85.3311Z" fill="#18496B"/>
<path d="M140.502 85.7021H140.711V85.3314H140.502V85.7021Z" fill="#18496B"/>
<path d="M141.777 85.3311H141.985V82.1172H141.777V85.3311Z" fill="#18496B"/>
<path d="M141.777 85.7021H141.985V85.3314H141.777V85.7021Z" fill="#18496B"/>
<path d="M143.051 85.3311H143.259V82.1172H143.051V85.3311Z" fill="#18496B"/>
<path d="M143.051 85.7021H143.259V85.3314H143.051V85.7021Z" fill="#18496B"/>
<path d="M144.325 85.3311H144.534V82.1172H144.325V85.3311Z" fill="#18496B"/>
<path d="M144.325 85.7021H144.534V85.3314H144.325V85.7021Z" fill="#18496B"/>
<path d="M145.6 85.042V82.4058C145.674 82.4577 145.744 82.5163 145.809 82.5793V84.8685C145.744 84.9322 145.674 84.9901 145.6 85.042Z" fill="#18496B"/>
<path d="M145.809 85.7021H145.6V85.0422C145.674 84.9902 145.744 84.9324 145.809 84.8686V85.7021ZM145.809 82.5794C145.744 82.5164 145.674 82.4578 145.6 82.4059V82.1175H145.809V82.5794Z" fill="#18496B"/>
<path d="M146.874 85.7021H147.083V82.1175H146.874V85.7021Z" fill="#18496B"/>
<path d="M148.149 85.7021H148.358V82.1175H148.149V85.7021Z" fill="#18496B"/>
<path d="M149.424 85.7021H149.632V82.1175H149.424V85.7021Z" fill="#18496B"/>
</g>
<mask id="mask3_2016_849" style="mask-type:luminance" maskUnits="userSpaceOnUse" x="132" y="86" width="17" height="6">
<path d="M147.64 91.3252H133.192C132.831 91.3252 132.537 91.0316 132.537 90.6697V86.9752C132.537 86.6133 132.831 86.3197 133.192 86.3197H147.64C148.001 86.3197 148.296 86.6133 148.296 86.9752V90.6697C148.296 91.0316 148.001 91.3252 147.64 91.3252Z" fill="white"/>
</mask>
<g mask="url(#mask3_2016_849)">
<path d="M132.537 91.3252H148.296V86.3197H132.537V91.3252Z" fill="#133B57"/>
<path d="M132.537 86.3197V87.1228H142.578C143.467 87.1228 144.186 87.8421 144.186 88.7297C144.186 89.6166 143.467 90.3367 142.578 90.3367H132.537V91.3252H148.296V86.3197H132.537Z" fill="#133B57"/>
<path d="M132.537 87.123H148.296V86.3198H132.537V87.123Z" fill="#18496B"/>
<path d="M148.296 86.7217H132.538V86.3197H148.296V86.7217Z" fill="#18496B"/>
<path d="M147.64 91.3252H133.192C132.843 91.3252 132.558 91.0516 132.538 90.7075H133.302H133.511H134.576H134.785H135.851H136.06H137.126H137.334H138.4H138.609H139.675H139.883H140.949H141.157H142.224H142.432H143.499H143.707H144.773H144.982H146.047H146.256H147.322H147.53H148.294C148.275 91.0516 147.989 91.3252 147.64 91.3252Z" fill="#18496B"/>
<path d="M133.302 90.3359H133.511V87.122H133.302V90.3359Z" fill="#18496B"/>
<path d="M133.302 90.708H133.511V90.3372H133.302V90.708Z" fill="#18496B"/>
<path d="M134.576 90.3359H134.785V87.122H134.576V90.3359Z" fill="#18496B"/>
<path d="M134.576 90.708H134.785V90.3372H134.576V90.708Z" fill="#18496B"/>
<path d="M135.851 90.3359H136.06V87.122H135.851V90.3359Z" fill="#18496B"/>
<path d="M135.851 90.708H136.06V90.3372H135.851V90.708Z" fill="#18496B"/>
<path d="M137.126 90.3359H137.334V87.122H137.126V90.3359Z" fill="#18496B"/>
<path d="M137.126 90.708H137.334V90.3372H137.126V90.708Z" fill="#18496B"/>
<path d="M138.4 90.3359H138.609V87.122H138.4V90.3359Z" fill="#18496B"/>
<path d="M138.4 90.708H138.609V90.3372H138.4V90.708Z" fill="#18496B"/>
<path d="M139.675 90.3359H139.883V87.122H139.675V90.3359Z" fill="#18496B"/>
<path d="M139.675 90.708H139.883V90.3372H139.675V90.708Z" fill="#18496B"/>
<path d="M140.949 90.3359H141.157V87.122H140.949V90.3359Z" fill="#18496B"/>
<path d="M140.949 90.708H141.157V90.3372H140.949V90.708Z" fill="#18496B"/>
<path d="M142.224 90.3359H142.432V87.122H142.224V90.3359Z" fill="#18496B"/>
<path d="M142.224 90.708H142.432V90.3372H142.224V90.708Z" fill="#18496B"/>
<path d="M143.499 90.0479V87.4124C143.573 87.4643 143.643 87.5221 143.707 87.5859V89.8743C143.643 89.9381 143.573 89.9959 143.499 90.0479Z" fill="#18496B"/>
<path d="M143.707 90.708H143.499V90.048C143.573 89.9961 143.643 89.9383 143.707 89.8745V90.708ZM143.707 87.586C143.643 87.5223 143.573 87.4644 143.499 87.4125V87.1233H143.707V87.586Z" fill="#18496B"/>
<path d="M144.773 90.708H144.982V87.1233H144.773V90.708Z" fill="#18496B"/>
<path d="M146.047 90.708H146.257V87.1233H146.047V90.708Z" fill="#18496B"/>
<path d="M147.322 90.708H147.531V87.1233H147.322V90.708Z" fill="#18496B"/>
</g>
<mask id="mask4_2016_849" style="mask-type:luminance" maskUnits="userSpaceOnUse" x="130" y="91" width="17" height="6">
<path d="M145.538 96.3311H131.09C130.728 96.3311 130.435 96.0374 130.435 95.6755V91.9811C130.435 91.6192 130.728 91.3255 131.09 91.3255H145.538C145.9 91.3255 146.194 91.6192 146.194 91.9811V95.6755C146.194 96.0374 145.9 96.3311 145.538 96.3311Z" fill="white"/>
</mask>
<g mask="url(#mask4_2016_849)">
<path d="M130.435 96.3311H146.194V91.3255H130.435V96.3311Z" fill="#133B57"/>
<path d="M130.435 91.3255V92.1287H140.477C141.365 92.1287 142.084 92.848 142.084 93.7356C142.084 94.6225 141.365 95.3426 140.477 95.3426H130.435V96.3311H146.194V91.3255H130.435Z" fill="#133B57"/>
<path d="M130.435 92.1299H146.194V91.3266H130.435V92.1299Z" fill="#18496B"/>
<path d="M146.194 91.7275H130.435V91.3256H146.194V91.7275Z" fill="#18496B"/>
<path d="M145.538 96.3311H131.09C130.741 96.3311 130.455 96.0574 130.436 95.7134H131.2H131.408H132.475H132.683H133.749H133.958H135.023H135.232H136.298H136.507H137.573H137.781H138.847H139.056H140.122H140.33H141.396H141.605H142.671H142.88H143.945H144.154H145.22H145.428H146.192C146.173 96.0574 145.887 96.3311 145.538 96.3311Z" fill="#18496B"/>
<path d="M131.2 95.3438H131.408V92.1299H131.2V95.3438Z" fill="#18496B"/>
<path d="M131.2 95.7139H131.408V95.3431H131.2V95.7139Z" fill="#18496B"/>
<path d="M132.475 95.3438H132.683V92.1299H132.475V95.3438Z" fill="#18496B"/>
<path d="M132.475 95.7139H132.683V95.3431H132.475V95.7139Z" fill="#18496B"/>
<path d="M133.749 95.3438H133.958V92.1299H133.749V95.3438Z" fill="#18496B"/>
<path d="M133.749 95.7139H133.958V95.3431H133.749V95.7139Z" fill="#18496B"/>
<path d="M135.023 95.3438H135.232V92.1299H135.023V95.3438Z" fill="#18496B"/>
<path d="M135.023 95.7139H135.232V95.3431H135.023V95.7139Z" fill="#18496B"/>
<path d="M136.298 95.3438H136.506V92.1299H136.298V95.3438Z" fill="#18496B"/>
<path d="M136.298 95.7139H136.506V95.3431H136.298V95.7139Z" fill="#18496B"/>
<path d="M137.573 95.3438H137.781V92.1299H137.573V95.3438Z" fill="#18496B"/>
<path d="M137.573 95.7139H137.781V95.3431H137.573V95.7139Z" fill="#18496B"/>
<path d="M138.847 95.3438H139.056V92.1299H138.847V95.3438Z" fill="#18496B"/>
<path d="M138.847 95.7139H139.056V95.3431H138.847V95.7139Z" fill="#18496B"/>
<path d="M140.122 95.3438H140.33V92.1299H140.122V95.3438Z" fill="#18496B"/>
<path d="M140.122 95.7139H140.33V95.3431H140.122V95.7139Z" fill="#18496B"/>
<path d="M141.396 95.0547V92.4192C141.471 92.4711 141.54 92.5289 141.605 92.5927V94.8812C141.54 94.9449 141.471 95.0028 141.396 95.0547Z" fill="#18496B"/>
<path d="M141.605 95.7139H141.396V95.0539C141.471 95.002 141.54 94.9441 141.605 94.8803V95.7139ZM141.605 92.5919C141.54 92.5281 141.471 92.4703 141.396 92.4184V92.1292H141.605V92.5919Z" fill="#18496B"/>
<path d="M142.671 95.7139H142.88V92.1292H142.671V95.7139Z" fill="#18496B"/>
<path d="M143.945 95.7139H144.154V92.1292H143.945V95.7139Z" fill="#18496B"/>
<path d="M145.22 95.7139H145.428V92.1292H145.22V95.7139Z" fill="#18496B"/>
</g>
<mask id="mask5_2016_849" style="mask-type:luminance" maskUnits="userSpaceOnUse" x="132" y="96" width="17" height="6">
<path d="M147.64 101.336H133.192C132.831 101.336 132.537 101.042 132.537 100.68V96.986C132.537 96.6241 132.831 96.3304 133.192 96.3304H147.64C148.001 96.3304 148.296 96.6241 148.296 96.986V100.68C148.296 101.042 148.001 101.336 147.64 101.336Z" fill="white"/>
</mask>
<g mask="url(#mask5_2016_849)">
<path d="M132.537 101.336H148.296V96.3304H132.537V101.336Z" fill="#133B57"/>
<path d="M132.537 96.3304V97.1335H142.578C143.467 97.1335 144.186 97.8528 144.186 98.7405C144.186 99.6274 143.467 100.347 142.578 100.347H132.537V101.336H148.296V96.3304H132.537Z" fill="#133B57"/>
<path d="M132.537 97.1338H148.296V96.3305H132.537V97.1338Z" fill="#18496B"/>
<path d="M132.537 96.7324H148.296V96.3303H132.537V96.7324Z" fill="#18496B"/>
<path d="M147.64 101.336H133.192C132.843 101.336 132.558 101.062 132.538 100.718H133.302H133.511H134.576H134.785H135.851H136.06H137.126H137.334H138.4H138.609H139.675H139.883H140.949H141.157H142.224H142.432H143.499H143.707H144.773H144.982H146.047H146.256H147.322H147.53H148.294C148.275 101.062 147.989 101.336 147.64 101.336Z" fill="#18496B"/>
<path d="M133.302 100.348H133.511V97.1338H133.302V100.348Z" fill="#18496B"/>
<path d="M133.302 100.718H133.511V100.347H133.302V100.718Z" fill="#18496B"/>
<path d="M134.576 100.348H134.785V97.1338H134.576V100.348Z" fill="#18496B"/>
<path d="M134.576 100.718H134.785V100.347H134.576V100.718Z" fill="#18496B"/>
<path d="M135.851 100.348H136.06V97.1338H135.851V100.348Z" fill="#18496B"/>
<path d="M135.851 100.718H136.06V100.347H135.851V100.718Z" fill="#18496B"/>
<path d="M137.126 100.348H137.334V97.1338H137.126V100.348Z" fill="#18496B"/>
<path d="M137.126 100.718H137.334V100.347H137.126V100.718Z" fill="#18496B"/>
<path d="M138.4 100.348H138.609V97.1338H138.4V100.348Z" fill="#18496B"/>
<path d="M138.4 100.718H138.609V100.347H138.4V100.718Z" fill="#18496B"/>
<path d="M139.675 100.348H139.883V97.1338H139.675V100.348Z" fill="#18496B"/>
<path d="M139.675 100.718H139.883V100.347H139.675V100.718Z" fill="#18496B"/>
<path d="M140.949 100.348H141.157V97.1338H140.949V100.348Z" fill="#18496B"/>
<path d="M140.949 100.718H141.157V100.347H140.949V100.718Z" fill="#18496B"/>
<path d="M142.224 100.348H142.432V97.1338H142.224V100.348Z" fill="#18496B"/>
<path d="M142.224 100.718H142.432V100.347H142.224V100.718Z" fill="#18496B"/>
<path d="M143.499 100.059V97.4231C143.573 97.475 143.643 97.5329 143.707 97.5966V99.8851C143.643 99.9488 143.573 100.007 143.499 100.059Z" fill="#18496B"/>
<path d="M143.707 100.718H143.499V100.058C143.573 100.006 143.643 99.948 143.707 99.8842V100.718ZM143.707 97.5958C143.643 97.532 143.573 97.4742 143.499 97.4223V97.1331H143.707V97.5958Z" fill="#18496B"/>
<path d="M144.773 100.718H144.982V97.1331H144.773V100.718Z" fill="#18496B"/>
<path d="M146.047 100.718H146.257V97.1331H146.047V100.718Z" fill="#18496B"/>
<path d="M147.322 100.718H147.531V97.1331H147.322V100.718Z" fill="#18496B"/>
</g>
<mask id="mask6_2016_849" style="mask-type:luminance" maskUnits="userSpaceOnUse" x="134" y="101" width="17" height="6">
<path d="M149.742 106.342H135.295C134.933 106.342 134.639 106.048 134.639 105.686V101.992C134.639 101.63 134.933 101.336 135.295 101.336H149.742C150.104 101.336 150.397 101.63 150.397 101.992V105.686C150.397 106.048 150.104 106.342 149.742 106.342Z" fill="white"/>
</mask>
<g mask="url(#mask6_2016_849)">
<path d="M134.639 106.342H150.398V101.336H134.639V106.342Z" fill="#133B57"/>
<path d="M134.639 101.336V102.139H144.681C145.568 102.139 146.288 102.859 146.288 103.746C146.288 104.633 145.568 105.353 144.681 105.353H134.639V106.342H150.397V101.336H134.639Z" fill="#133B57"/>
<path d="M134.639 102.14H150.398V101.336H134.639V102.14Z" fill="#18496B"/>
<path d="M134.639 101.738H150.398V101.336H134.639V101.738Z" fill="#18496B"/>
<path d="M149.742 106.342H135.295C134.946 106.342 134.659 106.068 134.64 105.724H135.404H135.612H136.679H136.887H137.953H138.162H139.227H139.436H140.502H140.71H141.777H141.985H143.051H143.259H144.325H144.534H145.6H145.809H146.874H147.083H148.149H148.358H149.424H149.632H150.396C150.377 106.068 150.091 106.342 149.742 106.342Z" fill="#18496B"/>
<path d="M135.404 105.353H135.612V102.139H135.404V105.353Z" fill="#18496B"/>
<path d="M135.404 105.725H135.612V105.354H135.404V105.725Z" fill="#18496B"/>
<path d="M136.679 105.353H136.887V102.139H136.679V105.353Z" fill="#18496B"/>
<path d="M136.679 105.725H136.887V105.354H136.679V105.725Z" fill="#18496B"/>
<path d="M137.953 105.353H138.162V102.139H137.953V105.353Z" fill="#18496B"/>
<path d="M137.953 105.725H138.162V105.354H137.953V105.725Z" fill="#18496B"/>
<path d="M139.227 105.353H139.436V102.139H139.227V105.353Z" fill="#18496B"/>
<path d="M139.227 105.725H139.436V105.354H139.227V105.725Z" fill="#18496B"/>
<path d="M140.502 105.353H140.711V102.139H140.502V105.353Z" fill="#18496B"/>
<path d="M140.502 105.725H140.711V105.354H140.502V105.725Z" fill="#18496B"/>
<path d="M141.777 105.353H141.985V102.139H141.777V105.353Z" fill="#18496B"/>
<path d="M141.777 105.725H141.985V105.354H141.777V105.725Z" fill="#18496B"/>
<path d="M143.051 105.353H143.259V102.139H143.051V105.353Z" fill="#18496B"/>
<path d="M143.051 105.725H143.259V105.354H143.051V105.725Z" fill="#18496B"/>
<path d="M144.325 105.353H144.534V102.139H144.325V105.353Z" fill="#18496B"/>
<path d="M144.325 105.725H144.534V105.354H144.325V105.725Z" fill="#18496B"/>
<path d="M145.6 105.063V102.427C145.674 102.479 145.744 102.538 145.809 102.601V104.89C145.744 104.954 145.674 105.012 145.6 105.063Z" fill="#18496B"/>
<path d="M145.809 105.725H145.6V105.065C145.674 105.013 145.744 104.955 145.809 104.891V105.725ZM145.809 102.602C145.744 102.539 145.674 102.48 145.6 102.428V102.14H145.809V102.602Z" fill="#18496B"/>
<path d="M146.874 105.725H147.083V102.14H146.874V105.725Z" fill="#18496B"/>
<path d="M148.149 105.725H148.358V102.14H148.149V105.725Z" fill="#18496B"/>
<path d="M149.424 105.725H149.632V102.14H149.424V105.725Z" fill="#18496B"/>
</g>
<mask id="mask7_2016_849" style="mask-type:luminance" maskUnits="userSpaceOnUse" x="132" y="106" width="17" height="6">
<path d="M147.64 111.348H133.192C132.831 111.348 132.537 111.054 132.537 110.692V106.998C132.537 106.636 132.831 106.342 133.192 106.342H147.64C148.001 106.342 148.296 106.636 148.296 106.998V110.692C148.296 111.054 148.001 111.348 147.64 111.348Z" fill="white"/>
</mask>
<g mask="url(#mask7_2016_849)">
<path d="M132.537 111.348H148.296V106.342H132.537V111.348Z" fill="#133B57"/>
<path d="M132.537 106.342V107.145H142.578C143.467 107.145 144.186 107.865 144.186 108.752C144.186 109.639 143.467 110.359 142.578 110.359H132.537V111.348H148.296V106.342H132.537Z" fill="#133B57"/>
<path d="M132.537 107.146H148.296V106.343H132.537V107.146Z" fill="#18496B"/>
<path d="M148.296 106.744H132.538V106.342H148.296V106.744Z" fill="#18496B"/>
<path d="M147.64 111.348H133.192C132.843 111.348 132.558 111.074 132.538 110.73H133.302H133.511H134.576H134.785H135.851H136.06H137.126H137.334H138.4H138.609H139.675H139.883H140.949H141.157H142.224H142.432H143.499H143.707H144.773H144.982H146.047H146.256H147.322H147.53H148.294C148.275 111.074 147.989 111.348 147.64 111.348Z" fill="#18496B"/>
<path d="M133.302 110.36H133.511V107.146H133.302V110.36Z" fill="#18496B"/>
<path d="M133.302 110.73H133.511V110.36H133.302V110.73Z" fill="#18496B"/>
<path d="M134.576 110.36H134.785V107.146H134.576V110.36Z" fill="#18496B"/>
<path d="M134.576 110.73H134.785V110.36H134.576V110.73Z" fill="#18496B"/>
<path d="M135.851 110.36H136.06V107.146H135.851V110.36Z" fill="#18496B"/>
<path d="M135.851 110.73H136.06V110.36H135.851V110.73Z" fill="#18496B"/>
<path d="M137.126 110.36H137.334V107.146H137.126V110.36Z" fill="#18496B"/>
<path d="M137.126 110.73H137.334V110.36H137.126V110.73Z" fill="#18496B"/>
<path d="M138.4 110.36H138.609V107.146H138.4V110.36Z" fill="#18496B"/>
<path d="M138.4 110.73H138.609V110.36H138.4V110.73Z" fill="#18496B"/>
<path d="M139.675 110.36H139.883V107.146H139.675V110.36Z" fill="#18496B"/>
<path d="M139.675 110.73H139.883V110.36H139.675V110.73Z" fill="#18496B"/>
<path d="M140.949 110.36H141.157V107.146H140.949V110.36Z" fill="#18496B"/>
<path d="M140.949 110.73H141.157V110.36H140.949V110.73Z" fill="#18496B"/>
<path d="M142.224 110.36H142.432V107.146H142.224V110.36Z" fill="#18496B"/>
<path d="M142.224 110.73H142.432V110.36H142.224V110.73Z" fill="#18496B"/>
<path d="M143.499 110.071V107.436C143.573 107.488 143.643 107.546 143.707 107.609V109.898C143.643 109.962 143.573 110.019 143.499 110.071Z" fill="#18496B"/>
<path d="M143.707 110.73H143.499V110.07C143.573 110.019 143.643 109.961 143.707 109.897V110.73ZM143.707 107.609C143.643 107.545 143.573 107.487 143.499 107.435V107.146H143.707V107.609Z" fill="#18496B"/>
<path d="M144.773 110.73H144.982V107.146H144.773V110.73Z" fill="#18496B"/>
<path d="M146.047 110.73H146.257V107.146H146.047V110.73Z" fill="#18496B"/>
<path d="M147.322 110.73H147.531V107.146H147.322V110.73Z" fill="#18496B"/>
</g>
<path d="M117.526 112.158L116.659 108.27L112.772 105.38L108.074 106.651L106.13 108.769L104.996 112.158H117.526Z" fill="#E9E2C9"/>
<path d="M117.526 112.158L116.659 108.27L112.772 105.38L112.002 108.037L113.864 110.024L109.73 110.223L106.13 108.769L104.996 112.158H117.526Z" fill="#DCD4BD"/>
<path d="M134.262 112.158L132.94 106.226L127.007 101.815L119.839 103.754L116.872 106.987L115.142 112.158H134.262Z" fill="#E9E2C9"/>
<path d="M134.262 112.158L132.94 106.226L127.007 101.815L126.271 104.353L121.982 104.947L124.674 106.984L122.367 109.204L116.872 106.987L115.142 112.158H134.262Z" fill="#D6CFB9"/>
<path d="M143.446 112.158L142.449 107.683L137.973 104.356L132.566 105.819L130.328 108.257L129.023 112.158H143.446Z" fill="#E9E2C9"/>
<path d="M143.446 112.158L142.449 107.683L137.973 104.356L137.087 107.414L139.23 109.701L134.472 109.93L130.328 108.257L129.023 112.158H143.446Z" fill="#DCD4BD"/>
<path d="M28.3053 112.158L27.3071 107.683L22.8318 104.356L17.4244 105.819L15.1871 108.257L13.8812 112.158H28.3053Z" fill="#E9E2C9"/>
<path d="M28.3053 112.158L27.3071 107.683L22.8318 104.356L21.9464 107.414L24.0887 109.701L19.3309 109.93L15.1871 108.257L13.8812 112.158H28.3053Z" fill="#DCD4BD"/>
<path d="M19.1203 112.158L17.7974 106.226L11.8649 101.815L4.69701 103.754L1.73078 106.987L0 112.158H19.1203Z" fill="#E9E2C9"/>
<path d="M19.1203 112.158L17.7974 106.226L11.8649 101.815L11.13 104.353L6.84086 104.947L9.5327 106.984L7.22424 109.204L1.73078 106.987L0 112.158H19.1203Z" fill="#D6CFB9"/>
<path d="M128.174 111.073H15.7054V45.3216H128.174V111.073Z" fill="#12476C"/>
<path d="M19.4125 107.365V49.0292H124.467V107.365H19.4125Z" fill="#0E3652"/>
<path d="M20.8956 105.882V50.512H122.984V105.882H20.8956Z" fill="#12476C"/>
<path d="M19.4125 69.6387V67.4756H124.467V69.6387H19.4125Z" fill="#0E3652"/>
<path d="M19.4125 88.918V86.7549H124.467V88.918H19.4125Z" fill="#0E3652"/>
<path d="M122.628 104.183C122.628 104.669 122.234 105.063 121.748 105.063C121.261 105.063 120.867 104.669 120.867 104.183C120.867 103.697 121.261 103.302 121.748 103.302C122.234 103.302 122.628 103.697 122.628 104.183Z" fill="#6C422B"/>
<path d="M71.94 70.6582C66.5644 70.6582 62.207 66.3008 62.207 60.9253V49.0292H81.6729V60.9253C81.6729 66.3008 77.3155 70.6582 71.94 70.6582Z" fill="#0E3652"/>
<path d="M74.8905 55.3628C74.8905 53.6736 73.5209 52.3039 71.8316 52.3039C70.1424 52.3039 68.7727 53.6736 68.7727 55.3628C68.7727 56.6976 69.6329 57.8211 70.8261 58.2386L68.9885 62.8711H71.6151H72.0474H74.674L72.8372 58.2386C74.0296 57.8211 74.8905 56.6976 74.8905 55.3628Z" fill="#07151F"/>
<path d="M73.9037 57.5908L73.9054 57.5891L73.9028 57.59L73.9037 57.5908Z" fill="#543023"/>
<path d="M117.526 112.158L116.659 108.27L112.772 105.38L108.074 106.651L106.13 108.769L104.996 112.158H117.526Z" fill="#0B2538"/>
<path d="M117.526 112.158L116.659 108.27L112.772 105.38L112.002 108.037L113.864 110.024L109.73 110.223L106.13 108.769L104.996 112.158H117.526Z" fill="#0B2538"/>
<path d="M134.262 112.158L132.94 106.226L127.007 101.815L119.839 103.754L116.872 106.987L115.142 112.158H134.262Z" fill="#0B2538"/>
<path d="M134.262 112.158L132.94 106.226L127.007 101.815L126.271 104.353L121.982 104.947L124.674 106.984L122.367 109.204L116.872 106.987L115.142 112.158H134.262Z" fill="#0B2538"/>
<path d="M143.446 112.158L142.449 107.683L137.973 104.356L132.566 105.819L130.328 108.257L129.023 112.158H143.446Z" fill="#0B2538"/>
<path d="M143.446 112.158L142.449 107.683L137.973 104.356L137.087 107.414L139.23 109.701L134.472 109.93L130.328 108.257L129.023 112.158H143.446Z" fill="#0B2538"/>
<path d="M28.3053 112.158L27.3071 107.683L22.8318 104.356L17.4244 105.819L15.1871 108.257L13.8812 112.158H28.3053Z" fill="#0B2538"/>
<path d="M28.3053 112.158L27.3071 107.683L22.8318 104.356L21.9464 107.414L24.0887 109.701L19.3309 109.93L15.1871 108.257L13.8812 112.158H28.3053Z" fill="#0B2538"/>
<path d="M19.1203 112.158L17.7974 106.226L11.8649 101.815L4.69701 103.754L1.73078 106.987L0 112.158H19.1203Z" fill="#0B2538"/>
<path d="M19.1203 112.158L17.7974 106.226L11.8649 101.815L11.13 104.353L6.84086 104.947L9.5327 106.984L7.22424 109.204L1.73078 106.987L0 112.158H19.1203Z" fill="#0B2538"/>
</svg>
